<?xml version="1.0" encoding="utf-8"?>
<!-- Generator: Adobe Illustrator 19.0.0, SVG Export Plug-In . SVG Version: 6.00 Build 0)  -->
<svg version="1.1" id="Layer_1" xmlns="http://www.w3.org/2000/svg" xmlns:xlink="http://www.w3.org/1999/xlink" x="0px" y="0px"
	 viewBox="0 0 86.6 73.8" style="enable-background:new 0 0 86.6 73.8;" xml:space="preserve">
<style type="text/css">
	.st0{fill:#E50000;}
</style>
<path id="XMLID_8_" class="st0" d="M45.8,4.9c0.7,0.2,1.1,0.5,1.3,1c0.2,0.5,0.2,1.2,0,2c-0.4,1.6-0.8,3-1.3,4.4
	c-0.5,1.3-1,2.5-1.6,3.4c-0.8,1.2-1.6,2.4-2.3,3.6c-0.7,1.2-1.5,2.4-2.2,3.6c-0.6,0.4-1,0.7-1.2,1c-0.2,0.6-0.5,1.3-0.7,1.8
	c-0.1,0.2-0.3,0.4-0.5,0.6c-0.3,0.2-0.6,0.4-0.9,0.6c-0.2,0.3-0.4,0.6-0.6,1s-0.6,0.8-0.9,1.3c-1.2,1.4-2.7,3-4.6,4.9
	c-1.9,1.9-4.1,4-6.7,6.4c-0.2,0.5-0.3,0.9-0.4,1.4l-4,4.9c-1.4,1.8-2.6,3.5-3.8,5.2c-1.1,1.7-2,3.3-2.8,4.9c-0.4,0.9-0.7,1.6-1,2.2
	c-0.3,0.6-0.4,1-0.5,1.2c-0.1,0.3,0,0.8,0.2,1.6c0.2,0.7,0.3,1.2,0.3,1.3c-0.2,0.7-1.3,1.3-3.4,2S4.8,66.1,4.4,66
	C4,65.7,3.5,65.5,3,65.3c-0.5-0.2-0.9-0.4-1.4-0.6c-0.6-0.3-1.1-0.6-1.3-1C0,63.4-0.1,63,0,62.6c0.1-0.3,0.3-0.9,0.8-1.7
	c0.6-1.3,1.3-2.5,2-3.5c0.7-1,1.5-1.9,2.3-2.8l0.2-0.2c-0.1-0.1-0.1-0.3-0.1-0.5c0-0.2,0-0.4-0.1-0.7c0.3-0.5,0.7-1.1,1.1-1.9
	c0.5-0.7,1.1-1.6,1.8-2.5c0.4-0.4,0.9-1,1.4-1.7c0.5-0.7,1-1.6,1.5-2.6c-0.9-1.2-1.5-2.3-2-3.5c-0.5-1.2-0.7-2.3-0.7-3.5
	C8.1,37,8,36.3,7.8,35.3c-0.2-0.9-0.4-2-0.6-3.3L6.7,19.4c0.1-1,0.3-2.1,0.4-3.4c0.1-1.3,0.2-2.9,0.3-4.6l0.7-1L7.5,9.2
	c0.1-0.2,0.1-0.6,0.2-1.1c0.1-0.5,0.1-1,0.2-1.7C7.9,5.8,8,5.2,8.1,4.8c0.1-0.5,0.2-0.8,0.3-1.1c0.3-1.1,0.7-2,1.2-2.5
	c0.5-0.5,1.1-0.8,1.8-0.8c0.2,0.1,0.5,0.1,0.7,0.2c0.3,0,0.6,0.1,0.9,0.2c0.4,0.1,1.6-0.1,3.8-0.7c0.9,0.2,1.5,0.6,1.9,1.2
	c0.4,0.6,0.6,1.3,0.6,2.2c0,0.5-0.1,1.1-0.3,1.9S18.5,7,18.3,8.1c-0.1,0.6-0.4,1.4-0.8,2.5s-0.6,1.9-0.8,2.4c0,0.2-0.1,0.4-0.1,0.6
	s0,0.6-0.1,1c-0.2,1-0.4,2.3-0.6,3.8c-0.2,1.5-0.3,3.3-0.5,5.2c-0.1,1.2-0.1,2.6-0.2,4.4c0,1.7-0.1,3.8-0.1,6.1
	c0.2,0.4,0.3,0.8,0.5,1.3c0.2,0.5,0.3,1,0.4,1.6l0.3,0.3c0.2,0,0.8-0.5,1.9-1.8c1.1-1.2,2.6-3.1,4.5-5.6c0.3-0.3,0.6-0.8,1-1.3
	c0.4-0.5,0.9-1.2,1.4-1.9c0.2-0.1,0.4-0.4,0.7-0.6c0.3-0.3,0.6-0.6,0.9-1c0.3-0.5,0.7-1.1,1.2-1.9c0.5-0.7,1.1-1.6,1.9-2.6
	c0.6-0.6,1.2-1.4,2-2.3c0.8-0.9,1.6-2,2.6-3.3c0.1-0.2,0.9-1.1,2.5-2.6c1.6-1.6,3.9-3.8,6.8-6.7c0.3-0.3,0.7-0.6,1-0.8
	C45.3,4.8,45.6,4.8,45.8,4.9z"/>
<path id="XMLID_10_" class="st0" d="M36.8,39.8c0.1-0.4,0.3-0.9,0.7-1.4c0.4-0.5,0.9-1,1.5-1.7c0.9-0.8,1.5-1.4,2-1.8
	c0.5-0.4,0.7-0.7,0.8-0.9c0.2-0.3,0.6-0.7,1-1.2c0.4-0.5,0.9-1.1,1.4-1.7c0.4-0.3,0.9-0.9,1.6-1.9c0.7-1,1.5-2.4,2.5-4.1
	c0.4-0.4,0.8-1,1.2-1.6s1-1.4,1.6-2.2c0.3-0.7,0.7-1.5,1.3-2.3c0.6-0.9,1.3-1.8,2.1-2.9c0.9-1,1.9-1.9,2.9-2.8
	c1-0.9,2.2-1.5,3.7-1.7c0.4,0.5,0.8,0.9,1,1.3c0.2,0.4,0.3,0.8,0.2,1.1c-0.2,0.8-0.8,1.7-1.8,2.8c-1,1.1-1.6,1.9-1.7,2.4
	c-0.1,0.2,0,0.5,0.2,0.8c0.3-0.1,0.8-0.3,1.6-0.8c0.8-0.5,1.9-1.1,3.2-1.9c1.1-0.6,2-1.1,2.8-1.4c0.8-0.3,1.6-0.5,2.2-0.5
	c0.4-0.1,1-0.1,1.6,0c0.7,0,1.4,0,2.2-0.1c0.5-0.1,0.8-0.3,1.1-0.4c0.3-0.1,0.6-0.2,1.2-0.3l0.7,0.3c0.2,0.3,0.9,0.8,2.1,1.4
	c1.2,0.6,2,0.9,2.3,1c0.2,0.2,0.5,0.6,0.8,1c0.3,0.4,0.7,0.9,1.2,1.5c1.1,1,1.9,2.4,2.7,4.1s1.2,3.7,1.6,6.1c0.3,2.1,0.5,4.2,0.5,6
	s-0.2,3.6-0.6,5.3c-1.3,5.2-3,9.5-5.2,13c-2.2,3.5-5,6.1-8.2,7.9c-0.3,0.2-0.7,0.4-1.1,0.7c-0.4,0.3-1,0.6-1.6,1l-0.1,0.5
	c-0.1,0.3-0.4,0.6-0.8,0.9c-0.4,0.3-0.9,0.6-1.5,0.9c-1.4,0.8-2.8,1.6-4.3,2.3c-1.4,0.8-2.9,1.5-4.4,2.3c-1.9,1-3.6,1.6-5.2,2.1
	c-1.6,0.4-3.1,0.6-4.4,0.6c-0.7,0.4-1.5,0.6-2.3,0.6c-0.9,0.1-1.9,0-3.1-0.3c-1.7-0.4-3.1-0.9-4.1-1.4c-1-0.5-1.7-1-2.1-1.6
	c-0.2-0.3-0.5-0.7-0.8-1.1c-0.3-0.4-0.7-0.8-1-1.4c-0.4-0.5-0.7-1.4-0.9-2.6c-0.2-1.2-0.3-2.7-0.2-4.5c0.1-1.3,0.2-2.6,0.3-3.8
	c0.2-1.2,0.4-2.4,0.6-3.4c0.1-0.3,0.3-0.8,0.6-1.5c0.3-0.7,0.5-1.2,0.6-1.6c0.2-0.7,0.3-1.3,0.4-1.9c0.1-0.6,0.5-1.4,1.2-2.5
	c0.6-1.1,1-2,1.2-2.8c0-0.2,0-0.4-0.1-0.8c-0.6,0.4-1.1,0.9-1.4,1.3c-0.3,0.3-0.5,0.4-0.8,0.5C36.6,45,36.4,45,36.2,45
	c-0.3-0.1-0.6-0.3-0.7-0.6c-0.1-0.3-0.1-0.8,0-1.3c0.1-0.4,0.3-0.9,0.7-1.6S36.7,40.2,36.8,39.8z M70.2,23.9
	c-0.7-0.2-1.5-0.3-2.3-0.3c-0.8,0-1.7,0.1-2.6,0.2l-5,0.9c-0.3,0.1-0.8,0.2-1.2,0.5c-0.5,0.2-1,0.6-1.6,1.1l-2.8,2.1
	c-0.9,0.6-1.8,2-2.9,4c-1,2-2.2,4.7-3.4,8c-1,2.6-1.8,5-2.4,7.2c-0.7,2.2-1.3,4.3-1.7,6.3c-1,3.9-1.1,7-0.3,9.2
	c0.7,2.2,2.3,3.6,4.8,4.2c1.1,0.3,2.5,0.3,4.1,0c1.6-0.3,3.3-0.8,5.3-1.6c1.7-0.7,3.2-1.5,4.5-2.3c1.3-0.8,2.5-1.7,3.5-2.6
	c0.4-0.4,1.1-1.2,2.1-2.4c1-1.2,2.4-2.9,4.2-5c1.2-1.6,2.2-3.2,3.1-4.9c0.9-1.7,1.5-3.5,2-5.4c0-1,0.1-1.9,0.1-2.9l0.8-1.9
	c-0.2-0.4-0.4-0.9-0.5-1.2c0-0.3-0.1-0.5-0.1-0.7c-0.1-3.6-0.8-6.4-2.1-8.5C74.5,25.8,72.6,24.5,70.2,23.9z"/>
</svg>
