<?xml version="1.0" encoding="utf-8"?>
<!-- Generator: Adobe Illustrator 19.0.0, SVG Export Plug-In . SVG Version: 6.00 Build 0)  -->
<svg version="1.1" id="Layer_1" xmlns="http://www.w3.org/2000/svg" xmlns:xlink="http://www.w3.org/1999/xlink" x="0px" y="0px"
	 viewBox="-567 263.1 144.8 274.9" style="enable-background:new -567 263.1 144.8 274.9;" xml:space="preserve">
<style type="text/css">
	.st0{fill:#9E9E9E;}
	.st1{fill:#818181;}
	.st2{fill:#BDBDBD;}
	.st3{fill:#B8B8B8;}
	.st4{fill:#A6A6A6;}
	.st5{fill:#919191;}
	.st6{fill:#ACACAC;}
	.st7{fill:#4F4F4F;}
	.st8{fill:#F0F0F0;}
	.st9{fill:#DEDEDE;}
</style>
<g>
	<g>
		<polygon id="XMLID_68_" class="st0" points="-557.4,329.4 -557.4,538 -431.8,538 -431.8,329.4 -495.3,269.4 		"/>
		<polygon id="XMLID_67_" class="st1" points="-557.4,329.4 -557.4,341.5 -495.6,279.8 -431.8,341.5 -431.8,329.4 -495.3,269.4 		
			"/>
		<g>
			<polygon id="XMLID_66_" class="st2" points="-567,333.5 -562.5,338 -496.3,271.9 -426.5,338 -422.2,333.4 -496.4,263.1 			"/>
		</g>
		<rect id="XMLID_65_" x="-557.4" y="455.1" class="st1" width="125.5" height="7.3"/>
		<rect id="XMLID_64_" x="-557.4" y="369.8" class="st1" width="125.5" height="7.3"/>
		<rect id="XMLID_63_" x="-557.4" y="451.9" class="st3" width="125.5" height="7.3"/>
		<rect id="XMLID_62_" x="-557.4" y="366.6" class="st3" width="125.5" height="7.3"/>
		<rect id="XMLID_61_" x="-557.4" y="506.3" class="st1" width="125.5" height="31.7"/>
	</g>
	<g>
		<rect id="XMLID_60_" x="-511.4" y="468.4" class="st4" width="33.7" height="69.5"/>
		<rect id="XMLID_59_" x="-508.7" y="510.7" class="st5" width="28.3" height="24.2"/>
		<rect id="XMLID_58_" x="-508.7" y="470.5" class="st5" width="28.3" height="37"/>
		<rect id="XMLID_57_" x="-506.3" y="473.2" class="st6" width="23.4" height="32.1"/>
		<rect id="XMLID_56_" x="-506.3" y="512.4" class="st6" width="23.4" height="20.5"/>
	</g>
	<g>
		<g>
			<g>
				<rect id="XMLID_55_" x="-545.9" y="474.4" class="st7" width="22.8" height="31.5"/>
				<rect id="XMLID_54_" x="-546.7" y="489.1" class="st8" width="24.4" height="1.8"/>
				<rect id="XMLID_53_" x="-535.4" y="475.4" class="st8" width="1.8" height="31.3"/>
				<g>
					<path class="st9" d="M-547.1,506.9h25.2v-33.5h-25.2V506.9z M-544.7,475.4h20.4v29.5h-20.4V475.4z"/>
				</g>
				<rect id="XMLID_50_" x="-548" y="472.6" class="st8" width="26.9" height="1.8"/>
				<rect id="XMLID_49_" x="-550" y="507" class="st8" width="30.9" height="3.1"/>
			</g>
		</g>
		<g>
			<g>
				<rect id="XMLID_48_" x="-466.1" y="471.3" class="st7" width="22.8" height="31.5"/>
				<rect id="XMLID_47_" x="-466.9" y="486" class="st8" width="24.4" height="1.8"/>
				<rect id="XMLID_46_" x="-455.6" y="472.3" class="st8" width="1.8" height="31.3"/>
				<g>
					<path class="st9" d="M-467.3,503.9h25.2v-33.5h-25.2V503.9z M-464.8,472.3h20.4v29.5h-20.4V472.3z"/>
				</g>
				<rect id="XMLID_43_" x="-468.1" y="469.5" class="st8" width="26.9" height="1.8"/>
				<rect id="XMLID_42_" x="-470.1" y="503.9" class="st8" width="30.9" height="3.1"/>
			</g>
		</g>
	</g>
	<g>
		<g>
			<path id="XMLID_41_" class="st7" d="M-533.4,391.8c-8,0-14.5,6.5-14.5,14.5v27.5h29v-27.5C-518.9,398.3-525.4,391.8-533.4,391.8z
				"/>
			<g>
				<path class="st9" d="M-533.4,390.6c-8.7,0-15.7,7-15.7,15.7V435h31.4v-28.7C-517.7,397.6-524.8,390.6-533.4,390.6z
					 M-520.2,432.6h-26.5v-26.3c0-7.3,6-13.3,13.3-13.3c7.3,0,13.3,6,13.3,13.3v26.3H-520.2z"/>
			</g>
			<rect id="XMLID_38_" x="-551" y="435.1" class="st8" width="35.2" height="2.6"/>
			<rect id="XMLID_37_" x="-534.1" y="392.5" class="st9" width="1.8" height="42.7"/>
			<rect id="XMLID_36_" x="-547.6" y="405.4" class="st9" width="29.8" height="1.8"/>
			<rect id="XMLID_35_" x="-547.6" y="419.8" class="st9" width="29.8" height="1.8"/>
		</g>
		<g>
			<path id="XMLID_34_" class="st7" d="M-494.6,391.8c-8,0-14.5,6.5-14.5,14.5v27.5h29v-27.5C-480.1,398.3-486.6,391.8-494.6,391.8z
				"/>
			<g>
				<path class="st9" d="M-494.6,390.6c-8.7,0-15.7,7-15.7,15.7V435h31.4v-28.7C-478.9,397.6-485.9,390.6-494.6,390.6z
					 M-481.3,432.6h-26.6v-26.3c0-7.3,6-13.3,13.3-13.3c7.3,0,13.3,6,13.3,13.3C-481.3,406.3-481.3,432.6-481.3,432.6z"/>
			</g>
			<rect id="XMLID_31_" x="-512.2" y="435.1" class="st8" width="35.2" height="2.6"/>
			<rect id="XMLID_30_" x="-495.2" y="392.5" class="st9" width="1.8" height="42.7"/>
			<rect id="XMLID_29_" x="-508.7" y="405.4" class="st9" width="29.8" height="1.8"/>
			<rect id="XMLID_28_" x="-508.7" y="419.8" class="st9" width="29.8" height="1.8"/>
		</g>
		<g>
			<path id="XMLID_27_" class="st7" d="M-455.7,391.8c-8,0-14.5,6.5-14.5,14.5v27.5h29v-27.5C-441.2,398.3-447.7,391.8-455.7,391.8z
				"/>
			<g>
				<path class="st9" d="M-455.7,390.6c-8.7,0-15.7,7-15.7,15.7V435h31.4v-28.7C-440,397.6-447.1,390.6-455.7,390.6z M-442.5,432.6
					H-469v-26.3c0-7.3,6-13.3,13.3-13.3c7.3,0,13.3,6,13.3,13.3v26.3H-442.5z"/>
			</g>
			<rect id="XMLID_24_" x="-473.3" y="435.1" class="st8" width="35.2" height="2.6"/>
			<rect id="XMLID_23_" x="-456.4" y="392.5" class="st9" width="1.8" height="42.7"/>
			<rect id="XMLID_22_" x="-469.9" y="405.4" class="st9" width="29.8" height="1.8"/>
			<rect id="XMLID_21_" x="-469.9" y="419.8" class="st9" width="29.8" height="1.8"/>
		</g>
	</g>
	<g>
		<g>
			<g>
				<path id="XMLID_20_" class="st7" d="M-533.4,329.7c-8,0-14.5,6.5-14.5,14.5v15.5h29v-15.5C-518.9,336.2-525.4,329.7-533.4,329.7
					z"/>
				<g>
					<path id="XMLID_19_" class="st9" d="M-533.4,328.5c-8.7,0-15.7,7-15.7,15.7v15.5h2.4v-15.5c0-7.3,6-13.3,13.3-13.3
						c7.3,0,13.3,6,13.3,13.3v15.5h2.4v-15.5C-517.7,335.6-524.7,328.5-533.4,328.5z"/>
				</g>
				<rect id="XMLID_18_" x="-551" y="359.7" class="st8" width="35.2" height="2.9"/>
				<rect id="XMLID_17_" x="-534.3" y="330.5" class="st9" width="1.8" height="29.2"/>
				<rect id="XMLID_16_" x="-548.3" y="343.4" class="st9" width="29.8" height="1.8"/>
				<rect id="XMLID_15_" x="-548.3" y="357.8" class="st9" width="29.8" height="1.9"/>
			</g>
		</g>
		<g>
			<g>
				<path id="XMLID_14_" class="st7" d="M-494.6,329.7c-8,0-14.5,6.5-14.5,14.5v15.5h29v-15.5C-480.1,336.2-486.6,329.7-494.6,329.7
					z"/>
				<g>
					<path id="XMLID_13_" class="st9" d="M-494.6,328.5c-8.7,0-15.7,7-15.7,15.7v15.5h2.4v-15.5c0-7.3,6-13.3,13.3-13.3
						c7.3,0,13.3,6,13.3,13.3v15.5h2.4v-15.5C-478.9,335.6-485.9,328.5-494.6,328.5z"/>
				</g>
				<rect id="XMLID_12_" x="-512.2" y="359.7" class="st8" width="35.2" height="2.9"/>
				<rect id="XMLID_11_" x="-495.5" y="330.5" class="st9" width="1.8" height="29.2"/>
				<rect id="XMLID_10_" x="-509.5" y="343.4" class="st9" width="29.8" height="1.8"/>
				<rect id="XMLID_9_" x="-509.5" y="357.8" class="st9" width="29.8" height="1.9"/>
			</g>
		</g>
		<g>
			<g>
				<path id="XMLID_8_" class="st7" d="M-455.8,329.7c-8,0-14.5,6.5-14.5,14.5v15.5h29v-15.5C-441.3,336.2-447.8,329.7-455.8,329.7z
					"/>
				<g>
					<path id="XMLID_7_" class="st9" d="M-455.8,328.5c-8.7,0-15.7,7-15.7,15.7v15.5h2.4v-15.5c0-7.3,6-13.3,13.3-13.3
						c7.3,0,13.3,6,13.3,13.3v15.5h2.4v-15.5C-440.1,335.6-447.1,328.5-455.8,328.5z"/>
				</g>
				<rect id="XMLID_6_" x="-473.4" y="359.7" class="st8" width="35.2" height="2.9"/>
				<rect id="XMLID_5_" x="-456.7" y="330.5" class="st9" width="1.8" height="29.2"/>
				<rect id="XMLID_4_" x="-470.7" y="343.4" class="st9" width="29.8" height="1.8"/>
				<rect id="XMLID_3_" x="-470.7" y="357.8" class="st9" width="29.8" height="1.9"/>
			</g>
		</g>
	</g>
	<g>
		<circle id="XMLID_2_" class="st8" cx="-494.6" cy="307.3" r="14.2"/>
		<circle id="XMLID_1_" class="st7" cx="-494.6" cy="307.3" r="10.9"/>
	</g>
</g>
</svg>
