<?xml version="1.0" encoding="utf-8"?>
<!-- Generator: Adobe Illustrator 19.0.0, SVG Export Plug-In . SVG Version: 6.00 Build 0)  -->
<svg version="1.1" id="Layer_1" xmlns="http://www.w3.org/2000/svg" xmlns:xlink="http://www.w3.org/1999/xlink" x="0px" y="0px"
	 viewBox="-569 292.3 140.7 216.7" style="enable-background:new -569 292.3 140.7 216.7;" xml:space="preserve">
<style type="text/css">
	.st0{fill:#868686;}
	.st1{fill:#696969;}
	.st2{fill:#6B6B6B;}
	.st3{fill:#8E8E8E;}
	.st4{clip-path:url(#SVGID_2_);fill:#5A5A5A;}
	.st5{clip-path:url(#SVGID_4_);fill:#5A5A5A;}
	.st6{clip-path:url(#SVGID_6_);fill:#5A5A5A;}
	.st7{clip-path:url(#SVGID_8_);fill:#5A5A5A;}
	.st8{clip-path:url(#SVGID_10_);fill:#5A5A5A;}
	.st9{clip-path:url(#SVGID_12_);fill:#5A5A5A;}
	.st10{fill:#4F4F4F;}
	.st11{fill:#CCCCCC;}
	.st12{fill:#F0F0F0;}
	.st13{fill:#DEDEDE;}
	.st14{fill:#FCFCFC;}
</style>
<g id="XMLID_2_">
	<rect id="XMLID_121_" x="-567.4" y="354.8" class="st0" width="137.5" height="153.9"/>
	<rect id="XMLID_120_" x="-567.4" y="354.8" class="st1" width="137.5" height="9.1"/>
	<polygon id="XMLID_119_" class="st2" points="-548.5,292.3 -567.4,354.8 -429.9,354.8 -450.6,292.3 	"/>
	<rect id="XMLID_118_" x="-569" y="351.2" class="st3" width="140.7" height="7.2"/>
	<g id="XMLID_110_">
		<g>
			<defs>
				<polygon id="SVGID_1_" points="-450.6,292.3 -548.5,292.3 -567.4,354.8 -429.9,354.8 				"/>
			</defs>
			<clipPath id="SVGID_2_">
				<use xlink:href="#SVGID_1_"  style="overflow:visible;"/>
			</clipPath>
			<rect id="XMLID_117_" x="-573.7" y="295.5" class="st4" width="141.6" height="5.3"/>
		</g>
		<g>
			<defs>
				<polygon id="SVGID_3_" points="-450.6,292.3 -548.5,292.3 -567.4,354.8 -429.9,354.8 				"/>
			</defs>
			<clipPath id="SVGID_4_">
				<use xlink:href="#SVGID_3_"  style="overflow:visible;"/>
			</clipPath>
			<rect id="XMLID_116_" x="-573.7" y="304.7" class="st5" width="141.6" height="5.3"/>
		</g>
		<g>
			<defs>
				<polygon id="SVGID_5_" points="-450.6,292.3 -548.5,292.3 -567.4,354.8 -429.9,354.8 				"/>
			</defs>
			<clipPath id="SVGID_6_">
				<use xlink:href="#SVGID_5_"  style="overflow:visible;"/>
			</clipPath>
			<rect id="XMLID_115_" x="-573.7" y="314" class="st6" width="141.6" height="5.3"/>
		</g>
		<g>
			<defs>
				<polygon id="SVGID_7_" points="-450.6,292.3 -548.5,292.3 -567.4,354.8 -429.9,354.8 				"/>
			</defs>
			<clipPath id="SVGID_8_">
				<use xlink:href="#SVGID_7_"  style="overflow:visible;"/>
			</clipPath>
			<rect id="XMLID_114_" x="-573.7" y="323.2" class="st7" width="141.6" height="5.3"/>
		</g>
		<g>
			<defs>
				<polygon id="SVGID_9_" points="-450.6,292.3 -548.5,292.3 -567.4,354.8 -429.9,354.8 				"/>
			</defs>
			<clipPath id="SVGID_10_">
				<use xlink:href="#SVGID_9_"  style="overflow:visible;"/>
			</clipPath>
			<rect id="XMLID_113_" x="-573.7" y="332.5" class="st8" width="141.6" height="5.3"/>
		</g>
		<g>
			<defs>
				<polygon id="SVGID_11_" points="-450.6,292.3 -548.5,292.3 -567.4,354.8 -429.9,354.8 				"/>
			</defs>
			<clipPath id="SVGID_12_">
				<use xlink:href="#SVGID_11_"  style="overflow:visible;"/>
			</clipPath>
			<rect id="XMLID_112_" x="-573.7" y="341.8" class="st9" width="141.6" height="5.3"/>
		</g>
	</g>
	<g id="XMLID_59_">
		<g id="XMLID_67_">
			<path id="XMLID_68_" class="st3" d="M-527,341.8h63.6l-31.8-46.3L-527,341.8z M-519.5,340.1l24.3-35.3l24.3,35.3H-519.5z"/>
		</g>
		<polygon id="XMLID_66_" class="st0" points="-523.8,341.8 -466.6,341.8 -495.2,300.2 		"/>
		<g id="XMLID_60_">
			<rect id="XMLID_65_" x="-502.6" y="319.1" class="st10" width="14.8" height="21.2"/>
			<g id="XMLID_61_">
				<path id="XMLID_62_" class="st11" d="M-504,341.8h17.7v-24.2H-504V341.8z M-501.1,320.5h11.9v18.3h-11.9V320.5z"/>
			</g>
		</g>
	</g>
	<g id="XMLID_31_">
		<g id="XMLID_50_">
			<rect id="XMLID_58_" x="-553.3" y="376.4" class="st10" width="22.8" height="37.9"/>
			<rect id="XMLID_57_" x="-554.2" y="396.5" class="st12" width="24.4" height="2.2"/>
			<g id="XMLID_53_">
				<path id="XMLID_54_" class="st13" d="M-554.5,415.5h25.2v-40.3h-25.2V415.5z M-552.1,377.6h20.4v35.5h-20.4V377.6z"/>
			</g>
			<rect id="XMLID_52_" x="-555.4" y="374.2" class="st12" width="26.9" height="2.2"/>
			<rect id="XMLID_51_" x="-557.4" y="415.6" class="st12" width="30.9" height="3.8"/>
		</g>
		<g id="XMLID_41_">
			<rect id="XMLID_49_" x="-508.7" y="376.4" class="st10" width="22.8" height="37.9"/>
			<rect id="XMLID_48_" x="-509.5" y="396.5" class="st12" width="24.4" height="2.2"/>
			<g id="XMLID_44_">
				<path id="XMLID_45_" class="st13" d="M-509.9,415.5h25.2v-40.3h-25.2V415.5z M-507.5,377.6h20.4v35.5h-20.4V377.6z"/>
			</g>
			<rect id="XMLID_43_" x="-510.8" y="374.2" class="st12" width="26.9" height="2.2"/>
			<rect id="XMLID_42_" x="-512.8" y="415.6" class="st12" width="30.9" height="3.8"/>
		</g>
		<g id="XMLID_32_">
			<rect id="XMLID_40_" x="-464" y="376.4" class="st10" width="22.8" height="37.9"/>
			<rect id="XMLID_39_" x="-464.8" y="396.5" class="st12" width="24.4" height="2.2"/>
			<g id="XMLID_35_">
				<path id="XMLID_36_" class="st13" d="M-465.2,415.5h25.2v-40.3h-25.2V415.5z M-462.8,377.6h20.4v35.5h-20.4V377.6z"/>
			</g>
			<rect id="XMLID_34_" x="-466.1" y="374.2" class="st12" width="26.9" height="2.2"/>
			<rect id="XMLID_33_" x="-468.1" y="415.6" class="st12" width="30.9" height="3.8"/>
		</g>
	</g>
	<rect id="XMLID_30_" x="-567.4" y="486.4" class="st1" width="137.5" height="22.4"/>
	<g id="XMLID_11_">
		<g id="XMLID_21_">
			<rect id="XMLID_29_" x="-508.7" y="443.2" class="st10" width="22.8" height="37.9"/>
			<rect id="XMLID_28_" x="-509.5" y="463.4" class="st12" width="24.4" height="2.2"/>
			<g id="XMLID_24_">
				<path id="XMLID_25_" class="st13" d="M-509.9,482.3h25.2V442h-25.2V482.3z M-507.5,444.4h20.4v35.5h-20.4V444.4z"/>
			</g>
			<rect id="XMLID_23_" x="-510.8" y="441" class="st12" width="26.9" height="2.2"/>
			<rect id="XMLID_22_" x="-512.8" y="482.4" class="st12" width="30.9" height="3.8"/>
		</g>
		<g id="XMLID_12_">
			<rect id="XMLID_20_" x="-464" y="443.2" class="st10" width="22.8" height="37.9"/>
			<rect id="XMLID_19_" x="-464.8" y="463.4" class="st12" width="24.4" height="2.2"/>
			<g id="XMLID_15_">
				<path id="XMLID_16_" class="st13" d="M-465.2,482.3h25.2V442h-25.2V482.3z M-462.8,444.4h20.4v35.5h-20.4V444.4z"/>
			</g>
			<rect id="XMLID_14_" x="-466.1" y="441" class="st12" width="26.9" height="2.2"/>
			<rect id="XMLID_13_" x="-468.1" y="482.4" class="st12" width="30.9" height="3.8"/>
		</g>
	</g>
	<g id="XMLID_3_">
		<g id="XMLID_7_">
			<path id="XMLID_8_" class="st14" d="M-558.9,508.8h34.8v-68.6h-34.8V508.8z M-555.8,443.3h28.5v64.8h-28.5V443.3z"/>
		</g>
		<rect id="XMLID_6_" x="-557.4" y="441.7" class="st13" width="31.6" height="67.1"/>
		<rect id="XMLID_5_" x="-552.7" y="447.1" class="st10" width="22.4" height="33.7"/>
		<rect id="XMLID_4_" x="-552.4" y="486.4" class="st12" width="21.8" height="20.3"/>
	</g>
</g>
</svg>
