<?xml version="1.0" encoding="utf-8"?>
<!-- Generator: Adobe Illustrator 19.0.0, SVG Export Plug-In . SVG Version: 6.00 Build 0)  -->
<svg version="1.1" id="Layer_1" xmlns="http://www.w3.org/2000/svg" xmlns:xlink="http://www.w3.org/1999/xlink" x="0px" y="0px"
	 viewBox="0 0 140.7 216.7" style="enable-background:new 0 0 140.7 216.7;" xml:space="preserve">
<style type="text/css">
	.st0{fill:#B5B5B5;}
	.st1{fill:#9E9E9E;}
	.st2{fill:#696969;}
	.st3{fill:#7F7F7F;}
	.st4{fill:#8E8E8E;}
	.st5{fill:#4F4F4F;}
	.st6{fill:#CCCCCC;}
	.st7{fill:#FCFCFC;}
	.st8{fill:#DEDEDE;}
	.st9{fill:#F0F0F0;}
</style>
<g>
	<rect id="XMLID_58_" x="1.6" y="62.5" class="st0" width="137.5" height="153.9"/>
	<rect id="XMLID_57_" x="1.6" y="62.5" class="st1" width="137.5" height="9.1"/>
	<polygon id="XMLID_56_" class="st2" points="1.4,62.5 138.9,62.5 139.3,0 1.4,0 	"/>
	<rect id="XMLID_55_" x="0" y="58.9" class="st3" width="140.7" height="7.2"/>
	<g>
		<g>
			<g>
				<path id="XMLID_158_" class="st4" d="M13.1,45.4h51.3L38.7,8.2L13.1,45.4z M19.1,44.1l19.6-28.4l19.6,28.4H19.1z"/>
			</g>
			<polygon id="XMLID_52_" class="st0" points="15.7,45.4 61.8,45.4 38.7,11.9 			"/>
			<g>
				<rect id="XMLID_51_" x="32.7" y="27.2" class="st5" width="11.9" height="17.1"/>
				<g>
					<path id="XMLID_157_" class="st6" d="M31.6,45.4h14.3V26H31.6V45.4z M33.9,28.3h9.6v14.8h-9.6V28.3z"/>
				</g>
			</g>
		</g>
		<g>
			<g>
				<path id="XMLID_156_" class="st4" d="M76.3,45.4h51.3L102,8.2L76.3,45.4z M82.4,44.1L102,15.6l19.6,28.4H82.4z"/>
			</g>
			<polygon id="XMLID_46_" class="st0" points="78.9,45.4 125,45.4 102,11.9 			"/>
			<g>
				<rect id="XMLID_45_" x="96" y="27.2" class="st5" width="11.9" height="17.1"/>
				<g>
					<path id="XMLID_155_" class="st6" d="M94.8,45.4h14.3V26H94.8V45.4z M97.2,28.3h9.6v14.8h-9.6V28.3z"/>
				</g>
			</g>
		</g>
	</g>
	<rect id="XMLID_42_" x="1.6" y="194.1" class="st1" width="137.5" height="22.4"/>
	<g>
		<g>
			<path id="XMLID_154_" class="st7" d="M52.9,216.7h34.8v-68.6H52.9V216.7z M56.1,151.3h28.5v64.8H56.1V151.3z"/>
		</g>
		<rect id="XMLID_39_" x="54.5" y="149.7" class="st8" width="31.6" height="67.1"/>
		<rect id="XMLID_38_" x="59.2" y="155.1" class="st5" width="22.4" height="33.7"/>
		<rect id="XMLID_37_" x="59.5" y="194.4" class="st9" width="21.8" height="20.3"/>
	</g>
	<g>
		<g>
			<path id="XMLID_36_" class="st5" d="M26.8,147.5c-8,0-14.5,6.5-14.5,14.5v27.5h29V162C41.3,154,34.8,147.5,26.8,147.5z"/>
			<g>
				<path id="XMLID_153_" class="st8" d="M26.8,146.3c-8.7,0-15.7,7-15.7,15.7v28.7h31.4V162C42.5,153.4,35.4,146.3,26.8,146.3z
					 M40.1,188.3H13.5V162c0-7.3,6-13.3,13.3-13.3c7.3,0,13.3,6,13.3,13.3V188.3z"/>
			</g>
			<rect id="XMLID_33_" x="9.2" y="190.8" class="st9" width="35.2" height="2.6"/>
			<rect id="XMLID_32_" x="26.1" y="148.3" class="st8" width="1.8" height="42.7"/>
			<rect id="XMLID_31_" x="12.6" y="161.2" class="st8" width="29.8" height="1.8"/>
			<rect id="XMLID_30_" x="12.6" y="175.6" class="st8" width="29.8" height="1.8"/>
		</g>
		<g>
			<path id="XMLID_29_" class="st5" d="M113.9,147.5c-8,0-14.5,6.5-14.5,14.5v27.5h29V162C128.4,154,121.9,147.5,113.9,147.5z"/>
			<g>
				<path id="XMLID_152_" class="st8" d="M113.9,146.3c-8.7,0-15.7,7-15.7,15.7v28.7h31.4V162C129.6,153.4,122.6,146.3,113.9,146.3z
					 M127.2,188.3h-26.6V162c0-7.3,6-13.3,13.3-13.3c7.3,0,13.3,6,13.3,13.3V188.3z"/>
			</g>
			<rect id="XMLID_26_" x="96.3" y="190.8" class="st9" width="35.2" height="2.6"/>
			<rect id="XMLID_25_" x="113.3" y="148.3" class="st8" width="1.8" height="42.7"/>
			<rect id="XMLID_24_" x="99.8" y="161.2" class="st8" width="29.8" height="1.8"/>
			<rect id="XMLID_23_" x="99.8" y="175.6" class="st8" width="29.8" height="1.8"/>
		</g>
	</g>
	<g>
		<g>
			<path id="XMLID_22_" class="st5" d="M26.5,76.9c-8,0-14.5,6.5-14.5,14.5v27.5h29V91.4C41,83.4,34.5,76.9,26.5,76.9z"/>
			<g>
				<path id="XMLID_151_" class="st8" d="M26.5,75.7c-8.7,0-15.7,7-15.7,15.7v28.7h31.4V91.4C42.2,82.7,35.2,75.7,26.5,75.7z
					 M39.8,117.7H13.2V91.4c0-7.3,6-13.3,13.3-13.3c7.3,0,13.3,6,13.3,13.3V117.7z"/>
			</g>
			<rect id="XMLID_19_" x="8.9" y="120.2" class="st9" width="35.2" height="2.6"/>
			<rect id="XMLID_18_" x="25.9" y="77.6" class="st8" width="1.8" height="42.7"/>
			<rect id="XMLID_17_" x="12.4" y="90.6" class="st8" width="29.8" height="1.8"/>
			<rect id="XMLID_16_" x="12.4" y="104.9" class="st8" width="29.8" height="1.8"/>
		</g>
		<g>
			<path id="XMLID_15_" class="st5" d="M70.7,76.9c-8,0-14.5,6.5-14.5,14.5v27.5h29V91.4C85.2,83.4,78.7,76.9,70.7,76.9z"/>
			<g>
				<path id="XMLID_150_" class="st8" d="M70.7,75.7c-8.7,0-15.7,7-15.7,15.7v28.7h31.4V91.4C86.4,82.7,79.4,75.7,70.7,75.7z
					 M84,117.7H57.4V91.4c0-7.3,6-13.3,13.3-13.3c7.3,0,13.3,6,13.3,13.3V117.7z"/>
			</g>
			<rect id="XMLID_12_" x="53.1" y="120.2" class="st9" width="35.2" height="2.6"/>
			<rect id="XMLID_11_" x="70.1" y="77.6" class="st8" width="1.8" height="42.7"/>
			<rect id="XMLID_10_" x="56.6" y="90.6" class="st8" width="29.8" height="1.8"/>
			<rect id="XMLID_9_" x="56.6" y="104.9" class="st8" width="29.8" height="1.8"/>
		</g>
		<g>
			<path id="XMLID_8_" class="st5" d="M114.2,76.9c-8,0-14.5,6.5-14.5,14.5v27.5h29V91.4C128.7,83.4,122.2,76.9,114.2,76.9z"/>
			<g>
				<path id="XMLID_149_" class="st8" d="M114.2,75.7c-8.7,0-15.7,7-15.7,15.7v28.7h31.4V91.4C129.9,82.7,122.8,75.7,114.2,75.7z
					 M127.4,117.7h-26.6V91.4c0-7.3,6-13.3,13.3-13.3c7.3,0,13.3,6,13.3,13.3V117.7z"/>
			</g>
			<rect id="XMLID_5_" x="96.6" y="120.2" class="st9" width="35.2" height="2.6"/>
			<rect id="XMLID_4_" x="113.5" y="77.6" class="st8" width="1.8" height="42.7"/>
			<rect id="XMLID_3_" x="100" y="90.6" class="st8" width="29.8" height="1.8"/>
			<rect id="XMLID_2_" x="100" y="104.9" class="st8" width="29.8" height="1.8"/>
		</g>
	</g>
</g>
</svg>
