<?xml version="1.0" encoding="utf-8"?>
<!-- Generator: Adobe Illustrator 19.0.0, SVG Export Plug-In . SVG Version: 6.00 Build 0)  -->
<svg version="1.1" id="Layer_1" xmlns="http://www.w3.org/2000/svg" xmlns:xlink="http://www.w3.org/1999/xlink" x="0px" y="0px"
	 viewBox="0 0 116.4 274.9" style="enable-background:new 0 0 116.4 274.9;" xml:space="preserve">
<style type="text/css">
	.st0{fill:#868686;}
	.st1{fill:#7F7F7F;}
	.st2{fill:#BDBDBD;}
	.st3{fill:#989898;}
	.st4{fill:#A6A6A6;}
	.st5{fill:#919191;}
	.st6{fill:#ACACAC;}
	.st7{fill:#4F4F4F;}
	.st8{fill:#DEDEDE;}
	.st9{fill:#F0F0F0;}
</style>
<g>
	<g>
		<polygon id="XMLID_40_" class="st0" points="7.8,66.3 7.8,274.9 108.6,274.9 108.6,66.3 57.6,6.3 		"/>
		<polygon id="XMLID_39_" class="st1" points="7.8,66.3 7.8,78.4 57.4,16.7 108.6,78.4 108.6,66.3 57.6,6.3 		"/>
		<g>
			<polygon id="XMLID_38_" class="st2" points="0,70.4 3.6,74.9 56.8,8.8 112.9,74.9 116.4,70.3 56.7,0 			"/>
		</g>
		<rect id="XMLID_37_" x="7.8" y="192" class="st1" width="100.9" height="7.3"/>
		<rect id="XMLID_36_" x="7.8" y="106.7" class="st1" width="100.9" height="7.3"/>
		<rect id="XMLID_35_" x="7.8" y="188.8" class="st3" width="100.9" height="7.3"/>
		<rect id="XMLID_34_" x="7.8" y="103.5" class="st3" width="100.9" height="7.3"/>
	</g>
	<g>
		<g>
			<rect id="XMLID_33_" x="18.5" y="205.1" class="st4" width="33.7" height="69.5"/>
			<rect id="XMLID_32_" x="21.2" y="247.3" class="st5" width="28.3" height="24.2"/>
			<rect id="XMLID_31_" x="21.2" y="207.2" class="st5" width="28.3" height="37"/>
			<rect id="XMLID_30_" x="23.6" y="209.8" class="st6" width="23.4" height="32.1"/>
			<rect id="XMLID_29_" x="23.6" y="249.1" class="st6" width="23.4" height="20.5"/>
		</g>
		<g>
			<path id="XMLID_28_" class="st7" d="M80.3,206.3c-8,0-14.5,6.5-14.5,14.5v27.5h29v-27.5C94.8,212.8,88.3,206.3,80.3,206.3z"/>
			<g>
				<path id="XMLID_122_" class="st8" d="M80.3,205.1c-8.7,0-15.7,7-15.7,15.7v28.7H96v-28.7C96,212.1,89,205.1,80.3,205.1z
					 M93.6,247.1H67.1v-26.3c0-7.3,6-13.3,13.3-13.3c7.3,0,13.3,6,13.3,13.3V247.1z"/>
			</g>
			<rect id="XMLID_25_" x="62.7" y="249.6" class="st9" width="35.2" height="2.6"/>
			<rect id="XMLID_24_" x="79.7" y="207" class="st8" width="1.8" height="42.7"/>
			<rect id="XMLID_23_" x="66.2" y="219.9" class="st8" width="29.8" height="1.8"/>
			<rect id="XMLID_22_" x="66.2" y="234.3" class="st8" width="29.8" height="1.8"/>
		</g>
	</g>
	<g>
		<g>
			<path id="XMLID_21_" class="st7" d="M34.4,128.5c-8,0-14.5,6.5-14.5,14.5v27.5h29V143C48.9,135,42.4,128.5,34.4,128.5z"/>
			<g>
				<path id="XMLID_121_" class="st8" d="M34.4,127.3c-8.7,0-15.7,7-15.7,15.7v28.7h31.4V143C50.1,134.3,43,127.3,34.4,127.3z
					 M47.7,169.3H21.1V143c0-7.3,6-13.3,13.3-13.3s13.3,6,13.3,13.3V169.3z"/>
			</g>
			<rect id="XMLID_18_" x="16.8" y="171.8" class="st9" width="35.2" height="2.6"/>
			<rect id="XMLID_17_" x="33.7" y="129.2" class="st8" width="1.8" height="42.7"/>
			<rect id="XMLID_16_" x="20.2" y="142.1" class="st8" width="29.8" height="1.8"/>
			<rect id="XMLID_15_" x="20.2" y="156.5" class="st8" width="29.8" height="1.8"/>
		</g>
		<g>
			<path id="XMLID_14_" class="st7" d="M82,128.5c-8,0-14.5,6.5-14.5,14.5v27.5h29V143C96.5,135,90,128.5,82,128.5z"/>
			<g>
				<path id="XMLID_120_" class="st8" d="M82,127.3c-8.7,0-15.7,7-15.7,15.7v28.7h31.4V143C97.7,134.3,90.7,127.3,82,127.3z
					 M95.3,169.3H68.7V143c0-7.3,6-13.3,13.3-13.3c7.3,0,13.3,6,13.3,13.3V169.3z"/>
			</g>
			<rect id="XMLID_11_" x="64.4" y="171.8" class="st9" width="35.2" height="2.6"/>
			<rect id="XMLID_10_" x="81.4" y="129.2" class="st8" width="1.8" height="42.7"/>
			<rect id="XMLID_9_" x="67.9" y="142.1" class="st8" width="29.8" height="1.8"/>
			<rect id="XMLID_8_" x="67.9" y="156.5" class="st8" width="29.8" height="1.8"/>
		</g>
	</g>
	<g>
		<path id="XMLID_7_" class="st7" d="M58.2,45c-8,0-14.5,6.5-14.5,14.5V87h29V59.5C72.7,51.5,66.2,45,58.2,45z"/>
		<g>
			<path id="XMLID_119_" class="st8" d="M58.2,43.8c-8.7,0-15.7,7-15.7,15.7v28.7h31.4V59.5C73.9,50.9,66.9,43.8,58.2,43.8z
				 M71.5,85.8H44.9V59.5c0-7.3,6-13.3,13.3-13.3c7.3,0,13.3,6,13.3,13.3V85.8z"/>
		</g>
		<rect id="XMLID_4_" x="40.6" y="88.3" class="st9" width="35.2" height="2.6"/>
		<rect id="XMLID_3_" x="57.6" y="45.8" class="st8" width="1.8" height="42.7"/>
		<rect id="XMLID_2_" x="44.1" y="58.7" class="st8" width="29.8" height="1.8"/>
		<rect id="XMLID_1_" x="44.1" y="73.1" class="st8" width="29.8" height="1.8"/>
	</g>
</g>
</svg>
