<?xml version="1.0" encoding="utf-8"?>
<!-- Generator: Adobe Illustrator 19.0.0, SVG Export Plug-In . SVG Version: 6.00 Build 0)  -->
<svg version="1.1" id="Layer_1" xmlns="http://www.w3.org/2000/svg" xmlns:xlink="http://www.w3.org/1999/xlink" x="0px" y="0px"
	 viewBox="-547 260.8 184.2 280.2" style="enable-background:new -547 260.8 184.2 280.2;" xml:space="preserve">
<style type="text/css">
	.st0{fill:#B2B2B2;}
	.st1{fill:#9D9D9D;}
	.st2{fill:#BDBDBD;}
	.st3{fill:none;}
	.st4{fill:#9E9E9E;}
	.st5{fill:#4F4F4F;}
	.st6{fill:#F0F0F0;}
	.st7{fill:#DEDEDE;}
	.st8{fill:#CBCBCB;}
	.st9{opacity:0.6;fill:#F0F0F0;enable-background:new    ;}
	.st10{fill:#BABABA;}
</style>
<g>
	<g>
		<rect id="XMLID_168_" x="-538.3" y="290" class="st0" width="166.7" height="251"/>
		<rect id="XMLID_167_" x="-538.3" y="268.9" class="st1" width="166.7" height="28.3"/>
		<g>
			<rect id="XMLID_166_" x="-489.8" y="383.2" class="st1" width="15.3" height="7.5"/>
			<rect id="XMLID_165_" x="-482.2" y="374.6" class="st1" width="15.3" height="7.5"/>
		</g>
		<g>
			<rect id="XMLID_164_" x="-401.1" y="383.5" class="st1" width="14.7" height="7.2"/>
			<rect id="XMLID_163_" x="-409.4" y="375.3" class="st1" width="14.7" height="7.2"/>
		</g>
		<rect id="XMLID_162_" x="-547" y="279.4" class="st2" width="184.2" height="10.6"/>
		<rect id="XMLID_161_" x="-547" y="260.8" class="st2" width="184.2" height="10.6"/>
		<line id="XMLID_160_" class="st3" x1="-371.6" y1="297.2" x2="-538.3" y2="297.2"/>
		<g>
			<rect id="XMLID_159_" x="-490.6" y="307.7" class="st1" width="14.9" height="7.3"/>
			<rect id="XMLID_158_" x="-483.1" y="299.3" class="st1" width="14.9" height="7.3"/>
			<rect id="XMLID_157_" x="-499.1" y="299.3" class="st1" width="14.9" height="7.3"/>
		</g>
		<g>
			<rect id="XMLID_156_" x="-489.1" y="451.9" class="st1" width="14.9" height="7.3"/>
			<rect id="XMLID_155_" x="-481.6" y="443.6" class="st1" width="14.9" height="7.3"/>
			<rect id="XMLID_154_" x="-497.6" y="443.6" class="st1" width="14.9" height="7.3"/>
		</g>
		<rect id="XMLID_153_" x="-538.3" y="461.4" class="st4" width="166.7" height="79.5"/>
		<rect id="XMLID_152_" x="-391.7" y="427.2" class="st1" width="15.3" height="7.5"/>
		<rect id="XMLID_151_" x="-528.6" y="375.1" class="st1" width="15.3" height="7.5"/>
		<g>
			<g>
				<g>
					<rect id="XMLID_150_" x="-520.9" y="397.4" class="st5" width="26.8" height="44.7"/>
					<rect id="XMLID_149_" x="-521.9" y="421.2" class="st6" width="28.8" height="2.6"/>
					<g>
						<path class="st7" d="M-522.4,443.5h29.7V396h-29.7V443.5z M-519.5,398.8h24v41.9h-24V398.8z"/>
					</g>
					<rect id="XMLID_121_" x="-523.4" y="394.9" class="st6" width="31.7" height="2.6"/>
					<rect id="XMLID_120_" x="-525.8" y="443.6" class="st6" width="36.5" height="4.5"/>
				</g>
				<g>
					<rect id="XMLID_119_" x="-468.3" y="397.4" class="st5" width="26.8" height="44.7"/>
					<rect id="XMLID_118_" x="-469.3" y="421.2" class="st6" width="28.8" height="2.6"/>
					<g>
						<path class="st7" d="M-469.7,443.5h29.7V396h-29.7V443.5z M-466.9,398.8h24v41.9h-24V398.8z"/>
					</g>
					<rect id="XMLID_115_" x="-470.8" y="394.9" class="st6" width="31.7" height="2.6"/>
					<rect id="XMLID_114_" x="-473.1" y="443.6" class="st6" width="36.5" height="4.5"/>
				</g>
				<g>
					<rect id="XMLID_113_" x="-415.7" y="397.4" class="st5" width="26.8" height="44.7"/>
					<rect id="XMLID_112_" x="-416.7" y="421.2" class="st6" width="28.8" height="2.6"/>
					<g>
						<path class="st7" d="M-417.1,443.5h29.7V396h-29.7V443.5z M-414.3,398.8h24v41.9h-24V398.8z"/>
					</g>
					<rect id="XMLID_109_" x="-418.2" y="394.9" class="st6" width="31.7" height="2.6"/>
					<rect id="XMLID_108_" x="-420.5" y="443.6" class="st6" width="36.5" height="4.5"/>
				</g>
			</g>
			<g>
				<g>
					<rect id="XMLID_68_" x="-520.9" y="318.3" class="st5" width="26.8" height="44.7"/>
					<rect id="XMLID_67_" x="-521.9" y="342" class="st6" width="28.8" height="2.6"/>
					<g>
						<path class="st7" d="M-522.4,364.4h29.7v-47.5h-29.7V364.4z M-519.5,319.7h24v41.9h-24V319.7z"/>
					</g>
					<rect id="XMLID_64_" x="-523.4" y="315.7" class="st6" width="31.7" height="2.6"/>
					<rect id="XMLID_63_" x="-525.8" y="364.5" class="st6" width="36.5" height="4.5"/>
				</g>
				<g>
					<rect id="XMLID_62_" x="-468.3" y="318.3" class="st5" width="26.8" height="44.7"/>
					<rect id="XMLID_61_" x="-469.3" y="342" class="st6" width="28.8" height="2.6"/>
					<g>
						<path class="st7" d="M-469.7,364.4h29.7v-47.5h-29.7V364.4z M-466.9,319.7h24v41.9h-24V319.7z"/>
					</g>
					<rect id="XMLID_58_" x="-470.8" y="315.7" class="st6" width="31.7" height="2.6"/>
					<rect id="XMLID_57_" x="-473.1" y="364.5" class="st6" width="36.5" height="4.5"/>
				</g>
				<g>
					<rect id="XMLID_56_" x="-415.7" y="318.3" class="st5" width="26.8" height="44.7"/>
					<rect id="XMLID_55_" x="-416.7" y="342" class="st6" width="28.8" height="2.6"/>
					<g>
						<path class="st7" d="M-417.1,364.4h29.7v-47.5h-29.7V364.4z M-414.3,319.7h24v41.9h-24V319.7z"/>
					</g>
					<rect id="XMLID_52_" x="-418.2" y="315.7" class="st6" width="31.7" height="2.6"/>
					<rect id="XMLID_51_" x="-420.5" y="364.5" class="st6" width="36.5" height="4.5"/>
				</g>
			</g>
		</g>
		<g>
			<g>
				<rect id="XMLID_50_" x="-530.5" y="476.2" class="st5" width="50.6" height="49.5"/>
				<path class="st8" d="M-532.1,527.2h53.7v-52.6h-53.7V527.2z M-491.6,477.8h10.1v10.9h-10.1V477.8z M-491.6,490h10.1v10.5h-10.1
					V490z M-491.6,501.9h10.1v10.6h-10.1V501.9z M-491.6,513.9h10.1v10.2h-10.1V513.9z M-504.2,477.8h11.2v10.9h-11.2V477.8z
					 M-504.2,490h11.2v10.5h-11.2V490z M-504.2,501.9h11.2v10.6h-11.2V501.9z M-504.2,513.9h11.2v10.2h-11.2V513.9z M-516.8,477.8
					h11.2v10.9h-11.2V477.8z M-516.8,490h11.2v10.5h-11.2V490z M-516.8,501.9h11.2v10.6h-11.2V501.9z M-516.8,513.9h11.2v10.2h-11.2
					V513.9z M-528.9,477.8h10.7v10.9h-10.7V477.8z M-528.9,490h10.7v10.5h-10.7V490z M-528.9,501.9h10.7v10.6h-10.7V501.9z
					 M-528.9,513.9h10.7v10.2h-10.7V513.9z"/>
				<rect id="XMLID_32_" x="-534" y="472" class="st6" width="57.5" height="2.6"/>
			</g>
			<g>
				<rect id="XMLID_31_" x="-430.5" y="476.2" class="st5" width="50.6" height="49.5"/>
				<path class="st8" d="M-432.1,527.2h53.7v-52.6h-53.7C-432.1,474.6-432.1,527.2-432.1,527.2z M-391.6,477.8h10.1v10.9h-10.1
					V477.8z M-391.6,490h10.1v10.5h-10.1V490z M-391.6,501.9h10.1v10.6h-10.1V501.9z M-391.6,513.9h10.1v10.2h-10.1V513.9z
					 M-404.2,477.8h11.2v10.9h-11.2V477.8z M-404.2,490h11.2v10.5h-11.2V490z M-404.2,501.9h11.2v10.6h-11.2V501.9z M-404.2,513.9
					h11.2v10.2h-11.2V513.9z M-416.8,477.8h11.2v10.9h-11.2V477.8z M-416.8,490h11.2v10.5h-11.2V490z M-416.8,501.9h11.2v10.6h-11.2
					V501.9z M-416.8,513.9h11.2v10.2h-11.2V513.9z M-428.9,477.8h10.7v10.9h-10.7C-428.9,488.7-428.9,477.8-428.9,477.8z
					 M-428.9,490h10.7v10.5h-10.7C-428.9,500.5-428.9,490-428.9,490z M-428.9,501.9h10.7v10.6h-10.7
					C-428.9,512.5-428.9,501.9-428.9,501.9z M-428.9,513.9h10.7v10.2h-10.7C-428.9,524.1-428.9,513.9-428.9,513.9z"/>
				<rect id="XMLID_13_" x="-434" y="472" class="st6" width="57.5" height="2.6"/>
			</g>
		</g>
		<g>
			<g>
				<path class="st6" d="M-471.9,540.7h34.8v-69.3h-34.8V540.7z M-468.7,474.6h28.5v64.8h-28.5V474.6z"/>
			</g>
			<rect id="XMLID_10_" x="-470.3" y="473" class="st8" width="31.6" height="68"/>
			<rect id="XMLID_9_" x="-467.9" y="476.2" class="st5" width="26.8" height="37.9"/>
			<rect id="XMLID_8_" x="-467.8" y="517.6" class="st9" width="26.7" height="20.3"/>
			<rect id="XMLID_7_" x="-468.6" y="487.4" class="st8" width="28.2" height="1.4"/>
			<rect id="XMLID_6_" x="-468.6" y="500.5" class="st8" width="28.2" height="1.4"/>
			<rect id="XMLID_5_" x="-455.2" y="474.6" class="st8" width="1.4" height="43"/>
		</g>
		<rect id="XMLID_4_" x="-541.1" y="460.4" class="st10" width="171.6" height="3.9"/>
	</g>
	<rect id="XMLID_3_" x="-449.2" y="375.1" class="st1" width="15.3" height="7.5"/>
	<rect id="XMLID_2_" x="-461.4" y="299.2" class="st1" width="15.3" height="7.5"/>
</g>
</svg>
