<?xml version="1.0" encoding="utf-8"?>
<!-- Generator: Adobe Illustrator 19.0.0, SVG Export Plug-In . SVG Version: 6.00 Build 0)  -->
<svg version="1.1" id="Layer_1" xmlns="http://www.w3.org/2000/svg" xmlns:xlink="http://www.w3.org/1999/xlink" x="0px" y="0px"
	 viewBox="-298 37.5 682.8 726.5" style="enable-background:new -298 37.5 682.8 726.5;" xml:space="preserve">
<style type="text/css">
	.st0{fill:#373737;}
	.st1{fill:#6F6F6F;}
	.st2{fill:#E5E5E5;}
	.st3{fill:#C6C6C6;}
	.st4{fill:#363636;}
	.st5{fill:#8D8D8D;}
	.st6{opacity:0.5;fill:#CFCFCF;enable-background:new    ;}
	.st7{fill:#A0A0A0;}
	.st8{fill:#D8D8D8;}
	.st9{fill:#C0C0C0;}
	.st10{fill:#121212;}
	.st11{fill:#2F2F2F;}
	.st12{fill:#A4A4A4;}
	.st13{fill:#444444;}
	.st14{fill:#575757;}
	.st15{opacity:0.5;fill:#C0C0C0;enable-background:new    ;}
	.st16{fill:#494949;}
	.st17{fill:#F5F5F5;}
	.st18{fill:#555555;}
	.st19{opacity:0.4;fill:#F5F5F5;enable-background:new    ;}
	.st20{fill:#1A1A1A;}
	.st21{fill:#6A6A6A;}
	.st22{fill:#CDCDCD;}
</style>
<g id="Bakery">
	<g id="Shop_3_">
		<path id="XMLID_118_" class="st0" d="M352.1,303.8c0-10.4-6.7-18.9-15.1-18.9h-595.8c-8.3,0-15.1,8.5-15.1,18.9V415
			c0,10.4,6.7,18.9,15.1,18.9H337c8.3,0,15.1-8.5,15.1-18.9V303.8z"/>
		<path id="XMLID_116_" class="st1" d="M352.1,750.5c0,7.4-6,13.5-13.5,13.5h-599c-7.4,0-13.4-6-13.4-13.5V405.2
			c0-7.4,6-13.5,13.4-13.5h599c7.4,0,13.5,6,13.5,13.5V750.5z"/>
		<g id="XMLID_103_">
			<path id="XMLID_115_" class="st2" d="M-38.3,440h-169.3c-7.4,0-13.5,6.1-13.5,13.7v296.6c0,7.6,6,13.7,13.5,13.7h169.3
				c7.4,0,13.5-6.1,13.5-13.7V453.7C-24.8,446.1-30.8,440-38.3,440z"/>
			<path id="XMLID_114_" class="st3" d="M-207.6,440c-7.4,0-13.5,6.1-13.5,13.7v296.6c0,7.6,6,13.7,13.5,13.7h13.1l115.9-324
				L-207.6,440L-207.6,440z"/>
			<path id="XMLID_111_" class="st4" d="M-57.6,745.2h-128.7c-10.3,0-18.7-8.4-18.7-18.7v-66.4c0-10.3,8.4-18.7,18.7-18.7h128.7
				c10.3,0,18.7,8.4,18.7,18.7v66.4C-38.9,736.9-47.3,745.2-57.6,745.2z M-186.3,653.9c-3.4,0-6.2,2.8-6.2,6.2v66.4
				c0,3.4,2.8,6.2,6.2,6.2h128.7c3.4,0,6.2-2.8,6.2-6.2v-66.4c0-3.4-2.8-6.2-6.2-6.2H-186.3z"/>
			<path id="XMLID_110_" class="st5" d="M-52.2,457.8H-65h-31.2h-40.9h-55.1c-7.2,0-12.9,5.8-12.9,12.9v64.5v46.5v34.8
				c0,7.2,5.8,12.9,12.9,12.9h140c7.2,0,12.9-5.8,12.9-12.9V494.4v-23.7C-39.3,463.6-45.1,457.8-52.2,457.8z"/>
			<polygon id="XMLID_109_" class="st6" points="-137.1,457.8 -205.2,535.2 -205.2,581.8 -96.3,457.8 			"/>
			<path id="XMLID_108_" class="st6" d="M-52.2,457.8H-65l-87.5,99.6c-7.7,8.7-6.8,22,1.9,29.7l1,0.9c8.7,7.7,22,6.8,29.7-1.9
				l80.5-91.7v-23.7C-39.3,463.6-45.1,457.8-52.2,457.8z"/>
			<path id="XMLID_107_" class="st7" d="M-36.5,630.5c0,2.5-2.2,4.5-5,4.5l0,0c-2.8,0-5-2-5-4.5v-6.7c0-2.5,2.2-4.5,5-4.5l0,0
				c2.8,0,5,2,5,4.5V630.5z"/>
			<path id="XMLID_106_" class="st7" d="M-106,630.5c0,2.5-2.2,4.5-5,4.5l0,0c-2.7,0-5-2-5-4.5v-6.7c0-2.5,2.2-4.5,5-4.5l0,0
				c2.8,0,5,2,5,4.5V630.5z"/>
			<path id="XMLID_105_" class="st8" d="M-48.9,619.2h-25.2h-30.3c-4.3,0-7.8,3.5-7.8,7.8s3.5,7.8,7.8,7.8H-83h34.1
				c4.3,0,7.8-3.5,7.8-7.8C-41,622.8-44.5,619.2-48.9,619.2z"/>
			<path id="XMLID_104_" class="st9" d="M-41,627c0-4.3-3.5-7.8-7.8-7.8H-74l-8.9,15.7h34.1C-44.5,635-41,631.4-41,627z"/>
		</g>
		<g id="XMLID_55_">
			<path id="XMLID_102_" class="st5" d="M310,500.7h-9.8h-51h-52.3h-85.2H24.1c-7.4,0-13.4,6-13.4,13.5v97.9v70.3
				c0,6.1,4.1,11.3,9.7,12.9c1.2,0.3,2.4,0.5,3.7,0.5H310c7.4,0,13.5-6,13.5-13.5V514C323.4,506.7,317.4,500.7,310,500.7z"/>
			<path id="XMLID_101_" class="st10" d="M268.4,676c0,1.2-1,2.2-2.2,2.2H82.3c-1.2,0-2.2-1-2.2-2.2l0,0c0-1.2,1-2.2,2.2-2.2h183.9
				C267.4,673.8,268.4,674.8,268.4,676L268.4,676z"/>
			<path id="XMLID_100_" class="st10" d="M268.4,642.4c0,1.2-1,2.2-2.2,2.2H82.3c-1.2,0-2.2-1-2.2-2.2l0,0c0-1.2,1-2.2,2.2-2.2
				h183.9C267.4,640,268.4,641,268.4,642.4L268.4,642.4z"/>
			<g id="XMLID_61_">
				<g id="XMLID_95_">
					<path id="XMLID_99_" class="st11" d="M153.9,625c-1.1-0.1-2.2-0.3-3.4-0.4c-1.9-0.2-3.9-0.3-6-0.3c-0.4,0-0.8,0-1.2,0
						c-0.8,0-1.5,0-2.3,0c-2.2,0.1-4.2,0.2-6.1,0.5c-1.2,0.2-2.4,0.3-3.4,0.6c-15.5,3.1-18,12-18,12c0,1.6,1.3,2.8,2.8,2.8h56.6
						c1.6,0,2.8-1.3,2.8-2.8C175.7,637.2,173.6,627.5,153.9,625z"/>
					<path id="XMLID_98_" class="st12" d="M133.2,632.2c0.9,0,1.7-0.8,1.7-1.7v-5.7c-1.2,0.2-2.4,0.3-3.4,0.6v5.1
						C131.5,631.4,132.2,632.2,133.2,632.2z"/>
					<path id="XMLID_97_" class="st12" d="M142.7,633.9c1,0,1.7-0.9,1.7-2.1v-7.6c-0.4,0-0.8,0-1.2,0c-0.8,0-1.5,0-2.3,0v7.6
						C141,633,141.8,633.9,142.7,633.9z"/>
					<path id="XMLID_96_" class="st12" d="M152.2,632.2c1,0,1.7-0.8,1.7-1.7V625c-1.1-0.1-2.2-0.3-3.4-0.4v5.9
						C150.5,631.4,151.3,632.2,152.2,632.2z"/>
				</g>
				<g id="XMLID_91_">
					<path id="XMLID_94_" class="st13" d="M225,607.7c-0.1,0-0.1,0-0.2,0h-0.1c-0.4,0-0.7-0.1-1.1-0.1c-0.4,0-0.8,0-1.2,0.1h-19.9
						c-0.5,0-0.9,0.6-0.9,1.4v29.7c0,0.7,0.4,1.4,0.9,1.4h14.7h6h4.8c0.5,0,0.9-0.6,0.9-1.4v-15c0.5,0,3.4,0,3.4-2.7v-6.3
						C232.2,614,231.1,608.5,225,607.7z"/>
					<path id="XMLID_93_" class="st14" d="M201.5,607.7c-12.3,0-14.1,6.4-14.1,7.2v6.3c0,2.7,2.1,2.7,2.8,2.7v14.9
						c0,0.7,0.6,1.4,1.4,1.4h19.3c0.7,0,1.4-0.6,1.4-1.4v-14.9c0.7,0,2.8,0,2.8-2.7v-6.3C215,614,213,607.7,201.5,607.7z"/>
					<path id="XMLID_92_" class="st12" d="M201.8,610.2c-10.2,0-11.7,5.3-11.7,6v4c0,2.2,1.7,2.2,2.3,2.2v14.7
						c0,0.6,0.5,1.1,1.1,1.1H209c0.6,0,1.1-0.5,1.1-1.1v-14.7c0.6,0,2.3,0,2.3-2.2v-4C212.4,615.5,211.2,610.2,201.8,610.2z"/>
				</g>
				<g id="XMLID_86_">
					<path id="XMLID_90_" class="st13" d="M122.8,625c-1.1-0.1-2.2-0.3-3.4-0.4c-1.9-0.2-3.9-0.3-6-0.3c-0.4,0-0.8,0-1.2,0
						c-0.8,0-1.5,0-2.3,0c-2.2,0.1-4.2,0.2-6.1,0.5c-1.2,0.2-2.4,0.3-3.4,0.6c-15.5,3.1-18,12-18,12c0,1.6,1.3,2.8,2.8,2.8h56.6
						c1.6,0,2.8-1.3,2.8-2.8C144.5,637.2,142.5,627.5,122.8,625z"/>
					<path id="XMLID_89_" class="st12" d="M102,632.2c1,0,1.7-0.8,1.7-1.7v-5.7c-1.2,0.2-2.4,0.3-3.4,0.6v5.1
						C100.3,631.4,101.1,632.2,102,632.2z"/>
					<path id="XMLID_88_" class="st12" d="M111.6,633.9c0.9,0,1.7-0.9,1.7-2.1v-7.6c-0.4,0-0.8,0-1.2,0c-0.8,0-1.5,0-2.3,0v7.6
						C109.9,633,110.6,633.9,111.6,633.9z"/>
					<path id="XMLID_87_" class="st12" d="M121.1,632.2c0.9,0,1.7-0.8,1.7-1.7V625c-1.1-0.1-2.2-0.3-3.4-0.4v5.9
						C119.4,631.4,120.1,632.2,121.1,632.2z"/>
				</g>
				<g id="XMLID_81_">
					<path id="XMLID_85_" class="st11" d="M153.3,658.5c-1.1-0.1-2.2-0.3-3.4-0.4c-1.9-0.2-3.9-0.3-6-0.3c-0.4,0-0.8,0-1.2,0
						c-0.8,0-1.5,0-2.3,0c-2.2,0.1-4.2,0.2-6.1,0.5c-1.2,0.2-2.4,0.3-3.4,0.6c-15.5,3.1-18,12-18,12c0,1.6,1.3,2.8,2.8,2.8h56.6
						c1.6,0,2.8-1.3,2.8-2.8C175.1,671,173,661.2,153.3,658.5z"/>
					<path id="XMLID_84_" class="st12" d="M132.6,665.9c1,0,1.7-0.8,1.7-1.7v-5.7c-1.2,0.2-2.4,0.3-3.4,0.6v5.1
						C130.8,665,131.6,665.9,132.6,665.9z"/>
					<path id="XMLID_83_" class="st12" d="M142.1,667.5c0.9,0,1.7-0.9,1.7-2V658c-0.4,0-0.8,0-1.2,0c-0.8,0-1.5,0-2.3,0v7.6
						C140.4,666.7,141.2,667.5,142.1,667.5z"/>
					<path id="XMLID_82_" class="st12" d="M151.6,665.9c0.9,0,1.7-0.8,1.7-1.7v-5.5c-1.1-0.1-2.2-0.3-3.4-0.4v5.9
						C149.9,665,150.6,665.9,151.6,665.9z"/>
				</g>
				<g id="XMLID_76_">
					<path id="XMLID_80_" class="st13" d="M122.2,658.5c-1.1-0.1-2.2-0.3-3.4-0.4c-1.9-0.2-3.9-0.3-6-0.3c-0.4,0-0.8,0-1.2,0
						c-0.8,0-1.5,0-2.3,0c-2.2,0.1-4.2,0.2-6.1,0.5c-1.2,0.2-2.4,0.3-3.4,0.6c-15.5,3.1-18,12-18,12c0,1.6,1.3,2.8,2.8,2.8h56.6
						c1.6,0,2.8-1.3,2.8-2.8C143.9,671,141.9,661.2,122.2,658.5z"/>
					<path id="XMLID_79_" class="st12" d="M101.4,665.9c0.9,0,1.7-0.8,1.7-1.7v-5.7c-1.2,0.2-2.4,0.3-3.4,0.6v5.1
						C99.7,665,100.5,665.9,101.4,665.9z"/>
					<path id="XMLID_78_" class="st12" d="M111,667.5c0.9,0,1.7-0.9,1.7-2V658c-0.4,0-0.8,0-1.2,0c-0.8,0-1.5,0-2.3,0v7.6
						C109.3,666.7,110,667.5,111,667.5z"/>
					<path id="XMLID_77_" class="st12" d="M120.5,665.9c1,0,1.7-0.8,1.7-1.7v-5.5c-1.1-0.1-2.2-0.3-3.4-0.4v5.9
						C118.7,665,119.5,665.9,120.5,665.9z"/>
				</g>
				<g id="XMLID_72_">
					<path id="XMLID_75_" class="st13" d="M253.6,607.7c-0.1,0-0.1,0-0.2,0h-0.1c-0.4,0-0.7-0.1-1.1-0.1c-0.4,0-0.8,0-1.2,0.1h-19.9
						c-0.5,0-0.9,0.6-0.9,1.4v29.7c0,0.7,0.4,1.4,0.9,1.4h14.7h6h4.8c0.5,0,0.9-0.6,0.9-1.4v-15c0.5,0,3.4,0,3.4-2.7v-6.3
						C260.9,614,259.7,608.5,253.6,607.7z"/>
					<path id="XMLID_74_" class="st14" d="M230.2,607.7c-12.3,0-14.1,6.4-14.1,7.2v6.3c0,2.7,2.1,2.7,2.8,2.7v14.9
						c0,0.7,0.6,1.4,1.4,1.4h19.3c0.8,0,1.4-0.6,1.4-1.4v-14.9c0.7,0,2.8,0,2.8-2.7v-6.3C243.7,614,241.6,607.7,230.2,607.7z"/>
					<path id="XMLID_73_" class="st12" d="M230.5,610.2c-10.2,0-11.7,5.3-11.7,6v4c0,2.2,1.7,2.2,2.3,2.2v14.7
						c0,0.6,0.5,1.1,1.1,1.1h15.5c0.6,0,1.1-0.5,1.1-1.1v-14.7c0.6,0,2.3,0,2.3-2.2v-4C241.1,615.5,239.9,610.2,230.5,610.2z"/>
				</g>
				<g id="XMLID_67_">
					<path id="XMLID_71_" class="st11" d="M236,658.5c-1.1-0.1-2.2-0.3-3.4-0.4c-1.9-0.2-3.9-0.3-6-0.3c-0.4,0-0.8,0-1.2,0
						c-0.8,0-1.5,0-2.3,0c-2.2,0.1-4.2,0.2-6.1,0.5c-1.2,0.2-2.4,0.3-3.4,0.6c-15.5,3.1-18,12-18,12c0,1.6,1.3,2.8,2.8,2.8H255
						c1.6,0,2.8-1.3,2.8-2.8C257.7,671,255.7,661.2,236,658.5z"/>
					<path id="XMLID_70_" class="st12" d="M215.3,665.9c0.9,0,1.7-0.8,1.7-1.7v-5.7c-1.2,0.2-2.4,0.3-3.4,0.6v5.1
						C213.5,665,214.3,665.9,215.3,665.9z"/>
					<path id="XMLID_69_" class="st12" d="M224.8,667.5c1,0,1.7-0.9,1.7-2V658c-0.4,0-0.8,0-1.2,0c-0.8,0-1.5,0-2.3,0v7.6
						C223.1,666.7,223.9,667.5,224.8,667.5z"/>
					<path id="XMLID_68_" class="st12" d="M234.3,665.9c0.9,0,1.7-0.8,1.7-1.7v-5.5c-1.1-0.1-2.2-0.3-3.4-0.4v5.9
						C232.6,665,233.3,665.9,234.3,665.9z"/>
				</g>
				<g id="XMLID_62_">
					<path id="XMLID_66_" class="st13" d="M204.9,658.5c-1.1-0.1-2.2-0.3-3.4-0.4c-1.9-0.2-3.9-0.3-6-0.3c-0.4,0-0.8,0-1.2,0
						c-0.8,0-1.5,0-2.3,0c-2.2,0.1-4.2,0.2-6.1,0.5c-1.2,0.2-2.4,0.3-3.5,0.6c-15.5,3.1-18,12-18,12c0,1.6,1.3,2.8,2.8,2.8h56.6
						c1.6,0,2.8-1.3,2.8-2.8C226.6,671,224.6,661.2,204.9,658.5z"/>
					<path id="XMLID_65_" class="st12" d="M184.1,665.9c1,0,1.7-0.8,1.7-1.7v-5.7c-1.2,0.2-2.4,0.3-3.5,0.6v5.1
						C182.4,665,183.2,665.9,184.1,665.9z"/>
					<path id="XMLID_64_" class="st12" d="M193.7,667.5c0.9,0,1.7-0.9,1.7-2V658c-0.4,0-0.8,0-1.2,0c-0.8,0-1.5,0-2.3,0v7.6
						C192,666.7,192.7,667.5,193.7,667.5z"/>
					<path id="XMLID_63_" class="st12" d="M203.2,665.9c0.9,0,1.7-0.8,1.7-1.7v-5.5c-1.1-0.1-2.2-0.3-3.4-0.4v5.9
						C201.4,665,202.2,665.9,203.2,665.9z"/>
				</g>
			</g>
			<path id="XMLID_60_" class="st15" d="M279,673.8c0,7.4-6,13.5-13.5,13.5H86.8c-7.4,0-13.5-6-13.5-13.5v-58.3
				c0-7.4,6-13.5,13.5-13.5h178.7c7.4,0,13.5,6,13.5,13.5V673.8z"/>
			<path id="XMLID_59_" class="st6" d="M111.7,500.7L10.6,612v70.3c0,6.1,4.1,11.3,9.7,12.9l176.6-194.5H111.7z"/>
			<path id="XMLID_58_" class="st6" d="M119.6,643.4c-7,7.7-6.4,19.7,1.3,26.7s19.7,6.4,26.7-1.3l152.6-168.2h-51L119.6,643.4z"/>
			<path id="XMLID_57_" class="st4" d="M328.5,682c0,2.6-2.1,4.8-4.8,4.8H10.3c-2.6,0-4.8-2.1-4.8-4.8l0,0c0-2.6,2.1-4.8,4.8-4.8
				h313.4C326.3,677.2,328.5,679.4,328.5,682L328.5,682z"/>
			<path id="XMLID_56_" class="st2" d="M335.5,692.7c0,5.2-4.2,9.3-9.3,9.3H5.5c-5.2,0-9.4-4.2-9.4-9.3l0,0c0-5.2,4.2-9.3,9.4-9.3
				h320.7C331.3,683.2,335.5,687.5,335.5,692.7L335.5,692.7z"/>
		</g>
		<rect id="XMLID_54_" x="-67.1" y="571" class="st16" width="20.6" height="12.5"/>
		<rect id="XMLID_53_" x="-78.5" y="587.8" class="st0" width="32.1" height="19.5"/>
		<rect id="XMLID_52_" x="-55.6" y="590.2" class="st17" width="7.2" height="4.4"/>
		<g id="XMLID_49_">
			<path id="XMLID_51_" class="st18" d="M371.6,462.1l-665-1.2L-275,393c3.1-8.8,6.7-14.5,15.1-14.5h595.8c8.3,0,12.5,6.4,15.1,14.5
				L371.6,462.1z"/>
			<path id="XMLID_50_" class="st0" d="M-293.4,460.9v34.5c0,23,18.7,41.7,41.7,41.7c21.6,0,39.4-16.4,41.5-37.4
				c2.1,21,19.9,37.4,41.5,37.4c23.1,0,41.7-18.7,41.7-41.7h0.9c0,23,18.7,41.7,41.7,41.7c21.6,0,39.4-16.4,41.5-37.4
				c2.1,21,19.9,37.4,41.5,37.4s39.4-16.4,41.5-37.5c2.1,21,19.9,37.5,41.5,37.5s39.4-16.4,41.5-37.5c2.1,21,19.9,37.5,41.5,37.5
				c20.2,0,37-14.3,40.9-33.2c3.9,19,20.7,33.2,40.9,33.2c21.6,0,39.4-16.4,41.5-37.4c2.1,21,19.9,37.4,41.5,37.4
				c23.1,0,41.7-18.7,41.7-41.7h0.1v-34.5L-293.4,460.9L-293.4,460.9z"/>
		</g>
		<g id="XMLID_22_">
			<path id="XMLID_48_" class="st9" d="M192.4,354.2H154h-28.8h-22H7.3h-114.5c-8.3,0-15.1,6.7-15.1,15.1v73.4
				c0,8.3,6.7,15.1,15.1,15.1h25.3H14h178.4c8.3,0,15.1-6.7,15.1-15.1v-73.4C207.5,361,200.7,354.2,192.4,354.2z"/>
			<g id="XMLID_31_">
				<path id="XMLID_44_" class="st17" d="M-53.5,402.6c5,1.7,8.4,3.9,10.2,6.4c1.9,2.6,2.8,6.1,2.8,10.6c0,6.9-1.7,12-5.2,15.3
					c-3.4,3.4-8.8,5-16,5h-19.9c-0.8,0-1.2-0.4-1.2-1.3v-2.4c0-0.7,0.4-1.2,1.1-1.5c1.5-0.7,2.3-1.8,2.3-3.2v-49
					c0-0.7-0.1-1.1-0.3-1.4c-0.2-0.2-0.9-0.6-1.9-1.1c-0.5-0.2-0.9-0.5-1-0.8s-0.1-1-0.1-2.2c0-1,0.1-1.7,0.4-2.1
					c0.3-0.3,0.8-0.5,1.5-0.5h22.3c5.4,0,9.5,1.4,12.4,4.1s4.3,6.2,4.3,10.4c0,3.5-1.1,6.5-3.4,8.9
					C-47.4,400.2-50.2,401.8-53.5,402.6z M-64.1,379v21.3h2.2c1.3,0,2.4-0.4,3.2-1.2c0.8-0.8,1.2-2.1,1.3-3.9s0.2-4.1,0.2-6.9
					c0-3.9-0.4-6.4-1.1-7.6c-0.7-1.2-1.9-1.7-3.6-1.7L-64.1,379L-64.1,379z M-64.1,405v30.3c2.5,0,4.2-0.3,5-1c0.9-0.7,1.4-2,1.5-4
					s0.2-5.4,0.2-10.2c0-1,0-3.2-0.1-6.6c-0.1-3.5-0.2-5.5-0.5-6.2c-0.2-0.7-0.7-1.3-1.3-1.7c-0.6-0.4-1.5-0.6-2.7-0.6L-64.1,405
					L-64.1,405z"/>
				<path id="XMLID_41_" class="st17" d="M-17.8,426h-10.1l-0.5,3.7c0,0.1,0,0.2-0.1,0.4c-0.2,0.8-0.3,1.5-0.3,2.1
					c0,1,0.6,1.8,1.9,2.5c0.7,0.3,1.1,0.7,1.2,1.1c0.2,0.4,0.2,1,0.2,1.9c0,1.1-0.1,1.8-0.2,2s-0.4,0.3-0.9,0.3h-10.7
					c-0.6,0-0.9-0.6-0.9-1.9c0-1.5,0.5-2.7,1.4-3.6c0.9-0.8,1.4-1.7,1.5-2.7l7.5-47.8c0.1-0.7,0.2-1.4,0.2-1.9
					c0-0.8-0.6-1.6-1.7-2.2c-0.5-0.3-0.8-1-0.8-2.2c0-1.5,0.1-2.4,0.2-2.8c0.2-0.3,0.6-0.5,1.3-0.5h15.5c0.9,0,1.6,0.4,2,1.3
					s0.8,2.8,1.1,5.8c0.2,1.2,0.3,2.3,0.5,3.5l6.7,44.6c0.3,2.2,1.1,3.8,2.4,5c0.4,0.3,0.6,0.5,0.7,0.7s0.2,0.7,0.2,1.6
					c0,1.4-0.1,2.2-0.3,2.5s-0.6,0.5-1.2,0.5h-18c-0.5,0-0.8-0.5-0.8-1.5c0-1.3,0.1-2.1,0.2-2.4s0.5-0.7,1.2-1.1
					c0.9-0.6,1.4-1.4,1.4-2.3C-16.9,431.7-17.2,429.5-17.8,426z M-22.6,389.6l-4.6,31.7h9L-22.6,389.6z"/>
				<path id="XMLID_39_" class="st17" d="M31.6,392.9l10.5,38.8c0.4,1.3,1,2.2,2,2.7c0.6,0.3,1,1.1,1,2.2c0,0.1,0,1-0.1,2.4
					c-0.1,0.6-0.6,1-1.7,1H27.1c-0.6,0-1-0.1-1.2-0.3c-0.2-0.2-0.3-0.8-0.3-1.8c0-0.2,0-0.9,0.1-2.1c0.1-0.5,0.4-0.8,1-1.1
					c0.9-0.3,1.3-0.8,1.3-1.5c0-0.2,0-0.4-0.1-0.7L22.2,412l-1.4,3.1v16.6c0,1.4,0.6,2.4,1.8,3.2c0.5,0.3,0.8,1,0.8,2
					c0,1.2-0.1,2.1-0.3,2.5c-0.2,0.4-0.7,0.6-1.6,0.6h-17c-0.6,0-1.1-0.1-1.3-0.4s-0.4-1-0.4-2.2s0.1-2,0.3-2.3s0.6-0.6,1.1-0.8
					c1-0.4,1.5-1.1,1.5-2.2v-48.7c0-1.2-0.5-2.1-1.5-2.7c-0.6-0.4-1-0.7-1.2-1c-0.1-0.3-0.2-0.8-0.2-1.6c0-1.8,0.1-2.9,0.2-3.2
					c0.1-0.3,0.5-0.4,1.2-0.4h18.5c0.9,0,1.3,0.3,1.3,1.1c0,2.2,0,3.5-0.1,3.8s-0.5,0.7-1.2,1.1c-1.3,0.7-1.9,1.5-1.9,2.6v20.8
					l8.8-20.1c0.5-1.1,0.7-1.9,0.7-2.5c0-0.3-0.3-0.8-1-1.2c-0.7-0.5-1.1-0.9-1.3-1.3c-0.2-0.4-0.2-1.2-0.2-2.7
					c0-1.1,0.4-1.6,1.2-1.6h10.8c0.6,0,1,0.1,1.1,0.4c0.1,0.2,0.2,0.9,0.2,2.1s-0.1,2-0.3,2.3s-0.7,0.6-1.6,1
					c-0.7,0.3-1.2,0.5-1.3,0.6c-0.2,0.2-0.4,0.5-0.7,1.1L31.6,392.9z"/>
				<path id="XMLID_37_" class="st17" d="M65.5,379.4v23.2h2.8c0.8,0,1.3-0.2,1.7-0.5c0.3-0.3,0.6-1,0.8-2.1
					c0.3-1.9,0.6-3.1,0.8-3.4c0.2-0.4,0.5-0.6,1-0.6c2.1,0,3.4,0.1,3.6,0.3c0.3,0.2,0.4,0.9,0.4,2v13.5c0,0.8-0.1,1.4-0.4,1.6
					c-0.3,0.3-1.1,0.4-2.5,0.4c-0.9,0-1.5-0.2-1.9-0.5c-0.3-0.3-0.6-1.3-0.9-2.9c-0.3-1.4-0.6-2.3-0.9-2.6c-0.3-0.3-0.7-0.5-1.3-0.5
					h-3.2v28h2.2c1.3,0,2.2-0.4,2.7-1.1s1.3-2.9,2.4-6.4c0.5-1.5,0.9-2.5,1.4-2.9c0.5-0.5,1.3-0.7,2.6-0.7c1.7,0,2.5,0.5,2.5,1.6
					c0,0.3,0,0.8-0.2,1.4l-1.5,9.2c-0.3,1.7-0.5,2.7-0.7,3s-0.7,0.5-1.6,0.5H48.2c-0.7,0-1.1-0.2-1.3-0.5s-0.3-1.2-0.3-2.7
					c0-0.9,0.5-1.6,1.5-2.1c1.5-0.6,2.2-1.5,2.2-2.6v-50.7c0-0.5-0.6-1-1.8-1.5c-0.8-0.3-1.3-0.7-1.4-1c-0.2-0.3-0.2-1.1-0.2-2.4
					c0-1.1,0.1-1.7,0.2-1.9c0.2-0.2,0.6-0.3,1.4-0.3h25.9c0.6,0,1.1,0.1,1.4,0.3c0.3,0.2,0.5,0.7,0.7,1.5l2.1,10.5
					c0.1,0.5,0.2,0.9,0.2,1.1c0,0.7-0.7,1.1-2,1.1c-1.5,0-2.5-0.2-2.9-0.5c-0.5-0.3-1-1.2-1.4-2.5c-0.8-2.4-1.6-4.1-2.2-5.1
					c-0.6-0.9-1.3-1.4-2-1.4h-2.8C65.5,379.1,65.5,379.4,65.5,379.4z"/>
				<path id="XMLID_34_" class="st17" d="M100.3,411.2v20.2c0,0.9,0.1,1.6,0.2,1.9s0.5,0.7,1,1c0.7,0.5,1.1,1.2,1.1,2.3
					c0,1.6-0.1,2.5-0.4,2.9s-0.8,0.6-1.6,0.6H83.5c-1,0-1.5-0.7-1.5-2.1s0-2.2,0.1-2.6s0.4-0.7,0.8-0.8c1.5-0.6,2.2-1.8,2.2-3.5
					v-47.6c0-1.8-0.6-2.8-2-3.2c-0.6-0.2-1.1-0.4-1.2-0.6c-0.2-0.2-0.2-0.9-0.2-1.9c0-2.1,0.6-3.1,1.7-3.1h22.5c4.5,0,8.5,1.7,12,5
					c3.5,3.4,5.3,7.9,5.3,13.5c0,8-4.1,13.3-12.3,15.8c7.5,1.7,11.3,6.4,11.3,14.3v9.7c0,0.8,0.3,1.4,0.9,1.8
					c0.7,0.5,1.1,1.2,1.1,2.2c0,1.6-0.1,2.5-0.3,2.8c-0.2,0.3-0.7,0.4-1.5,0.4h-10.9c-1.3,0-2.4-0.7-3.2-2.2
					c-0.8-1.5-1.3-3.3-1.3-5.5V416c0-3.2-1.6-4.8-4.8-4.8L100.3,411.2L100.3,411.2z M100.3,379.1v27.4h2.6c2.7,0,4-2.7,4-8.1v-13.1
					c0-2.3-0.4-3.9-1.3-4.8s-2.2-1.4-4-1.4H100.3z"/>
				<path id="XMLID_32_" class="st17" d="M150.6,410.6v21.3c0,1.1,0.7,1.9,2.1,2.4c0.6,0.2,1,0.4,1.2,0.7c0.2,0.2,0.3,1.2,0.3,2.9
					c0,1-0.1,1.7-0.3,1.9c-0.2,0.2-0.6,0.3-1.3,0.3h-19.3c-1,0-1.4-0.4-1.4-1.3v-2.4c0-1,0.6-1.7,1.9-2.1c0.6-0.2,1.1-0.5,1.3-0.8
					s0.3-0.9,0.3-1.8v-20l-8.2-28.9c-0.4-1.4-1.2-2.4-2.3-2.8c-0.6-0.3-0.9-0.7-0.9-1.3v-3.2c0-0.7,0.4-1.1,1.2-1.1h17.2
					c0.5,0,0.8,0.1,1,0.4s0.2,1,0.2,2.2s0,1.9-0.1,2.2c-0.1,0.3-0.4,0.6-0.8,0.8c-0.6,0.4-0.9,0.9-0.9,1.5c0,0.4,0.1,0.8,0.2,1.2
					l5.3,18.1l5.4-18.1c0.1-0.2,0.1-0.4,0.1-0.8c0-0.9-0.5-1.8-1.6-2.7c-0.5-0.4-0.7-0.8-0.7-1.2v-2.4c0-0.9,0.4-1.3,1.2-1.3h8.9
					c0.8,0,1.2,0.4,1.2,1.3v2.6c0,0.5-0.3,0.9-0.9,1.3c-1,0.7-1.7,1.8-2.2,3.1L150.6,410.6z"/>
			</g>
			<polygon id="XMLID_30_" class="st19" points="7.3,354.2 -81.9,457.8 14,457.8 103.1,354.2 			"/>
			<circle id="XMLID_27_" class="st17" cx="-98.5" cy="406" r="9.7"/>
			<circle id="XMLID_24_" class="st17" cx="177.6" cy="406" r="9.7"/>
			<path id="XMLID_23_" class="st19" d="M67.6,426.2L79,436c1.4,1.2,5.4-1,8.8-5l66.2-76.8h-28.8l-53.9,62.5
				C67.9,420.8,66.2,425.1,67.6,426.2z"/>
		</g>
		<path id="XMLID_21_" class="st20" d="M373,289.9c0,8.3-6.7,15.1-15.1,15.1h-640.8c-8.3,0-15.1-6.7-15.1-15.1v-5
			c0-8.3,6.7-15.1,15.1-15.1h640.8c8.3,0,15.1,6.7,15.1,15.1V289.9L373,289.9z"/>
	</g>
	<g id="Bread">
		<g id="XMLID_7_">
			<path id="XMLID_10_" class="st14" d="M235.1,38.1c-0.4-0.1-0.9-0.2-1.3-0.2h-0.7c-2.6-0.3-5.3-0.4-8.2-0.4c-3.1,0-6,0.1-8.8,0.4
				H73.8c-3.4,0-6.2,4.3-6.2,9.7v212.5c0,5.4,2.8,9.7,6.2,9.7H179h43h34c3.4,0,6.2-4.4,6.2-9.7v-107c3.3,0,24.4,0,24.4-19v-45
				C286.7,84,278.6,43.7,235.1,38.1z"/>
			<path id="XMLID_9_" class="st21" d="M67.6,37.9c-87.9,0-101,46.1-101,51.4v45c0,19,14.7,19,19.9,19v106.9c0,5.4,4.3,9.7,9.7,9.7
				h138.2c5.4,0,9.7-4.3,9.7-9.7v-107c5.1,0,19.8,0,19.8-19v-45C163.8,84,149.2,37.9,67.6,37.9z"/>
			<path id="XMLID_8_" class="st22" d="M69.3,55.6c-72.8,0-83.6,38.1-83.6,42.6v28.7c0,15.7,12.2,15.7,16.4,15.7v104.8
				c0,4.4,3.6,8,8,8H121c4.4,0,8-3.6,8-8V142.6c4.2,0,16.4,0,16.4-15.7V98.1C145.4,93.7,136.8,55.6,69.3,55.6z"/>
		</g>
		<g id="XMLID_2_">
			<path id="XMLID_6_" class="st13" d="M-14.4,188.6c-5.8-0.8-12-1.4-18.4-2c-10-0.8-20.8-1.3-32.3-1.5c-2.1,0-4.2,0-6.3,0
				c-4.1,0-8.2,0.1-12.1,0.2c-11.8,0.4-22.6,1.2-32.6,2.5c-6.5,0.8-12.6,1.8-18.4,3c-83,16.6-96.3,64-96.3,64
				c0,8.3,6.7,15.1,15.1,15.1H86.7c8.3,0,15.1-6.7,15.1-15.1C101.7,254.8,90.9,202.8-14.4,188.6z"/>
			<path id="XMLID_5_" class="st12" d="M-125.4,227.5c5.1,0,9.2-4.1,9.2-9.2v-30.4c-6.5,0.8-12.6,1.8-18.4,3v27.5
				C-134.6,223.3-130.4,227.5-125.4,227.5z"/>
			<path id="XMLID_4_" class="st12" d="M-74.3,236.7c5.1,0,9.2-4.9,9.2-11v-40.6c-2.1,0-4.2,0-6.3,0c-4.1,0-8.2,0.1-12.1,0.2v40.5
				C-83.5,231.8-79.4,236.7-74.3,236.7z"/>
			<path id="XMLID_3_" class="st12" d="M-23.6,227.5c5.1,0,9.2-4.1,9.2-9.2v-29.6c-5.8-0.8-12-1.4-18.4-2v31.6
				C-32.8,223.3-28.7,227.5-23.6,227.5z"/>
		</g>
	</g>
</g>
</svg>
