<?xml version="1.0" encoding="utf-8"?>
<!-- Generator: Adobe Illustrator 19.0.0, SVG Export Plug-In . SVG Version: 6.00 Build 0)  -->
<svg version="1.1" id="Layer_1" xmlns="http://www.w3.org/2000/svg" xmlns:xlink="http://www.w3.org/1999/xlink" x="0px" y="0px"
	 viewBox="0 0 536.3 510.7" style="enable-background:new 0 0 536.3 510.7;" xml:space="preserve">
<style type="text/css">
	.st0{fill:#595751;}
	.st1{fill:#77746E;}
	.st2{fill:#FEF9E5;}
	.st3{fill:#CECAB7;}
	.st4{fill:#A09D90;}
	.st5{fill:#706F6F;}
	.st6{fill:#3C3C3B;}
	.st7{fill:#F2D453;}
	.st8{fill:#F4BD31;}
</style>
<g id="Bank">
	<g id="Building_20_">
		<g id="XMLID_144_">
			<rect id="XMLID_145_" x="94" y="171.7" class="st0" width="354" height="303.6"/>
		</g>
		<g id="XMLID_142_">
			<path id="XMLID_143_" class="st1" d="M348,241.2c0-19.9-36.9-36-82.3-36c-45.5,0-82.3,16.1-82.3,36c0,0.4,0,0.9,0.1,1.3
				c0,0.3-0.1,0.6-0.1,0.9V462c0,4.1,3.3,7.4,7.4,7.4h150c4.1,0,7.4-3.3,7.4-7.4V243.4c0-0.3,0-0.6-0.1-0.9
				C348,242.1,348,241.6,348,241.2z"/>
		</g>
		<g id="XMLID_140_">
			<rect id="XMLID_141_" x="94" y="193.3" class="st2" width="53.4" height="269.5"/>
		</g>
		<g id="XMLID_138_">
			<rect id="XMLID_139_" x="238.2" y="193.3" class="st2" width="53.4" height="269.5"/>
		</g>
		<g id="XMLID_136_">
			<rect id="XMLID_137_" x="394.6" y="193.3" class="st2" width="53.4" height="269.5"/>
		</g>
		<g id="XMLID_134_">
			<path id="XMLID_135_" class="st3" d="M155.6,213.6c0,3.9-3.2,7.1-7.1,7.1h-57c-3.9,0-7.1-3.2-7.1-7.1l0,0c0-3.9,3.2-7.1,7.1-7.1
				h57C152.5,206.6,155.6,209.7,155.6,213.6L155.6,213.6z"/>
		</g>
		<g id="XMLID_132_">
			<path id="XMLID_133_" class="st3" d="M299.8,213.6c0,3.9-3.2,7.1-7.1,7.1h-57.1c-3.9,0-7.1-3.2-7.1-7.1l0,0
				c0-3.9,3.2-7.1,7.1-7.1h57.1C296.6,206.6,299.8,209.7,299.8,213.6L299.8,213.6z"/>
		</g>
		<g id="XMLID_130_">
			<path id="XMLID_131_" class="st3" d="M456.2,213.6c0,3.9-3.2,7.1-7.1,7.1h-57c-3.9,0-7.1-3.2-7.1-7.1l0,0c0-3.9,3.2-7.1,7.1-7.1
				h57C453.1,206.6,456.2,209.7,456.2,213.6L456.2,213.6z"/>
		</g>
		<g id="XMLID_128_">
			<path id="XMLID_129_" class="st3" d="M155.6,440.3c0,3.9-3.2,7.1-7.1,7.1h-57c-3.9,0-7.1-3.2-7.1-7.1l0,0c0-3.9,3.2-7.1,7.1-7.1
				h57C152.5,433.3,155.6,436.4,155.6,440.3L155.6,440.3z"/>
		</g>
		<g id="XMLID_126_">
			<path id="XMLID_127_" class="st3" d="M299.8,440.3c0,3.9-3.2,7.1-7.1,7.1h-57.1c-3.9,0-7.1-3.2-7.1-7.1l0,0
				c0-3.9,3.2-7.1,7.1-7.1h57.1C296.6,433.3,299.8,436.4,299.8,440.3L299.8,440.3z"/>
		</g>
		<g id="XMLID_124_">
			<path id="XMLID_125_" class="st3" d="M456.2,440.3c0,3.9-3.2,7.1-7.1,7.1h-57c-3.9,0-7.1-3.2-7.1-7.1l0,0c0-3.9,3.2-7.1,7.1-7.1
				h57C453.1,433.3,456.2,436.4,456.2,440.3L456.2,440.3z"/>
		</g>
		<g id="XMLID_122_">
			<path id="XMLID_123_" class="st4" d="M162.1,188.5c0,4.5-3.7,8.2-8.2,8.2H87.5c-4.5,0-8.2-3.7-8.2-8.2l0,0c0-4.5,3.7-8.2,8.2-8.2
				h66.4C158.4,180.3,162.1,184,162.1,188.5L162.1,188.5z"/>
		</g>
		<g id="XMLID_120_">
			<path id="XMLID_121_" class="st4" d="M306.3,188.5c0,4.5-3.7,8.2-8.2,8.2h-66.4c-4.5,0-8.2-3.7-8.2-8.2l0,0
				c0-4.5,3.7-8.2,8.2-8.2h66.4C302.6,180.3,306.3,184,306.3,188.5L306.3,188.5z"/>
		</g>
		<g id="XMLID_118_">
			<path id="XMLID_119_" class="st4" d="M460.9,188.5c0,4.5-3.7,8.2-8.2,8.2h-66.4c-4.5,0-8.2-3.7-8.2-8.2l0,0
				c0-4.5,3.7-8.2,8.2-8.2h66.4C457.2,180.3,460.9,184,460.9,188.5L460.9,188.5z"/>
		</g>
		<g id="XMLID_116_">
			<path id="XMLID_117_" class="st4" d="M162.1,461.1c0,4.5-3.7,8.2-8.2,8.2H87.5c-4.5,0-8.2-3.7-8.2-8.2l0,0c0-4.5,3.7-8.2,8.2-8.2
				h66.4C158.4,452.9,162.1,456.6,162.1,461.1L162.1,461.1z"/>
		</g>
		<g id="XMLID_114_">
			<path id="XMLID_115_" class="st4" d="M305.6,461.1c0,4.5-3.7,8.2-8.2,8.2H231c-4.5,0-8.2-3.7-8.2-8.2l0,0c0-4.5,3.7-8.2,8.2-8.2
				h66.4C302,452.9,305.6,456.6,305.6,461.1L305.6,461.1z"/>
		</g>
		<g id="XMLID_112_">
			<path id="XMLID_113_" class="st4" d="M462.7,461.1c0,4.5-3.7,8.2-8.2,8.2h-66.4c-4.5,0-8.2-3.7-8.2-8.2l0,0
				c0-4.5,3.7-8.2,8.2-8.2h66.4C459,452.9,462.7,456.6,462.7,461.1L462.7,461.1z"/>
		</g>
		<g id="XMLID_110_">
			<rect id="XMLID_111_" x="69.1" y="147.7" class="st5" width="403.6" height="32.7"/>
		</g>
		<g id="XMLID_108_">
			<rect id="XMLID_109_" x="63" y="469.3" class="st3" width="403.6" height="20.7"/>
		</g>
		<g id="XMLID_106_">
			<rect id="XMLID_107_" x="37.9" y="490" class="st4" width="450.6" height="20.7"/>
		</g>
		<g id="XMLID_104_">
			<polygon id="XMLID_105_" class="st3" points="268.5,20.7 35.4,147.7 499.2,147.7 			"/>
		</g>
		<g id="XMLID_102_">
			<polygon id="XMLID_103_" class="st5" points="536.3,146.9 268.3,0.1 268.2,0 268.1,0 268.1,0 268,0.1 0,146.9 8.7,163.1 
				268.1,21 527.6,163.1 			"/>
		</g>
		<g id="XMLID_100_">
			<circle id="XMLID_101_" class="st6" cx="269.1" cy="88.8" r="53.4"/>
		</g>
		<g id="XMLID_98_">
			<path id="XMLID_99_" class="st5" d="M314.4,88.8c0,25-20.2,45.2-45.2,45.2c-25,0-45.2-20.2-45.2-45.2c0-25,20.2-45.2,45.2-45.2
				C294.1,43.5,314.4,63.8,314.4,88.8z"/>
		</g>
		<g id="XMLID_94_">
			<g id="XMLID_95_">
				<path id="XMLID_96_" class="st7" d="M259.7,101.8c0.4,1.7,1.5,3.2,3.1,4.3c1.6,1.2,3.3,1.8,5,1.9c1.1,0.1,2.2-0.1,3.2-0.5
					c1.1-0.5,1.8-1.3,2.3-2.5c0.6-1.5,0.5-3-0.2-4.5c-0.8-1.5-2.2-2.8-4.4-3.8c-2.3-1-4.6-2-6.8-2.9c-2.2-0.9-4.2-2-6-3.4
					c-1.8-1.3-3.2-3-4.3-4.9c-1.1-2-1.6-4.5-1.6-7.6c0-4.8,1.1-8.5,3.4-11.2c2.3-2.7,5.8-4.3,10.6-4.8l-0.3-5.4h8.8l-0.3,5.3
					c2.3,0.1,4.5,0.7,6.9,1.7c2.3,1,4.3,2.6,6,4.8l-8.3,8.6c-0.2-0.9-0.6-1.6-1.1-2.3c-0.5-0.7-1.2-1.3-1.9-1.7
					c-0.7-0.5-1.5-0.9-2.3-1.1c-0.8-0.2-1.6-0.4-2.4-0.4c-0.9,0-1.8,0.1-2.6,0.4c-0.8,0.2-1.6,0.6-2.2,1.1c-0.6,0.5-1.2,1.1-1.6,1.9
					c-0.4,0.8-0.6,1.7-0.5,2.7c0,1.7,0.5,3.1,1.4,4.2c0.9,1.1,2.1,2,3.4,2.7c1.4,0.7,2.8,1.3,4.4,1.8c1.6,0.5,3,1,4.3,1.5
					c3.3,1.4,5.9,3.3,7.8,5.8c1.9,2.4,2.8,5.6,2.7,9.4c0,1.9-0.3,3.7-1,5.4c-0.6,1.7-1.6,3.3-2.8,4.6c-1.2,1.3-2.6,2.4-4.3,3.3
					c-1.7,0.8-3.6,1.3-5.7,1.3l0.4,5.6h-8.8l0.3-5.4c-2.5-0.3-5-1.1-7.6-2.5c-2.6-1.4-4.7-3.6-6.5-6.7L259.7,101.8z"/>
			</g>
		</g>
	</g>
	<g id="Coin">
		<g id="XMLID_8_">
			<g id="XMLID_24_">
				<g id="XMLID_35_">
					<g id="XMLID_38_">
						<path id="XMLID_39_" class="st8" d="M141.4,481.1c0-3.7-2.2-6.7-4.8-6.7H80.4c-2.7,0-4.8,3-4.8,6.7v7c0,0.2,0,0.4,0,0.6
							c0,0.1,0,0.3,0,0.4c0,8.1,14.7,14.7,32.9,14.7c18.2,0,32.9-6.6,32.9-14.7c0-0.1,0-0.3,0-0.4c0-0.2,0-0.4,0-0.6V481.1z"/>
					</g>
					<g id="XMLID_36_">
						<path id="XMLID_37_" class="st7" d="M141.4,480.1c0,8.1-14.7,14.7-32.9,14.7c-18.2,0-32.9-6.6-32.9-14.7
							c0-8.1,14.7-14.7,32.9-14.7C126.7,465.4,141.4,472,141.4,480.1z"/>
					</g>
				</g>
				<g id="XMLID_30_">
					<g id="XMLID_33_">
						<path id="XMLID_34_" class="st8" d="M134.1,467.1c0-3.7-2.2-6.7-4.8-6.7H73.1c-2.7,0-4.8,3-4.8,6.7v7c0,0.2,0,0.4,0,0.6
							c0,0.1,0,0.3,0,0.4c0,8.1,14.7,14.7,32.9,14.7s32.9-6.6,32.9-14.7c0-0.1,0-0.3,0-0.4c0-0.2,0-0.4,0-0.6V467.1z"/>
					</g>
					<g id="XMLID_31_">
						<ellipse id="XMLID_32_" class="st7" cx="101.2" cy="466.1" rx="32.9" ry="14.7"/>
					</g>
				</g>
				<g id="XMLID_25_">
					<g id="XMLID_28_">
						<path id="XMLID_29_" class="st8" d="M144.1,453.4c0-3.7-2.2-6.7-4.8-6.7H83c-2.7,0-4.8,3-4.8,6.7v7c0,0.2,0,0.4,0,0.6
							c0,0.1,0,0.3,0,0.4c0,8.1,14.7,14.7,32.9,14.7c18.2,0,32.9-6.6,32.9-14.7c0-0.1,0-0.3,0-0.4c0-0.2,0-0.4,0-0.6V453.4z"/>
					</g>
					<g id="XMLID_26_">
						<path id="XMLID_27_" class="st7" d="M144.1,452.3c0,8.1-14.7,14.7-32.9,14.7c-18.2,0-32.9-6.6-32.9-14.7
							c0-8.1,14.7-14.7,32.9-14.7C129.3,437.7,144.1,444.2,144.1,452.3z"/>
					</g>
				</g>
			</g>
			<g id="XMLID_19_">
				<g id="XMLID_22_">
					<path id="XMLID_23_" class="st8" d="M65.8,489c0.1-3.6-1.9-6.5-4.5-6.5L7,481.3c-2.6-0.1-4.7,2.8-4.8,6.3l-0.1,6.7
						c0,0.2,0,0.4,0,0.6c0,0.1,0,0.3,0,0.4c-0.2,7.8,13.9,14.5,31.5,14.9c17.6,0.4,31.9-5.6,32.1-13.5c0-0.1,0-0.3,0-0.4
						c0-0.2,0-0.4,0-0.6L65.8,489z"/>
				</g>
				<g id="XMLID_20_">
					<path id="XMLID_21_" class="st7" d="M65.8,488c-0.2,7.8-14.5,13.8-32.1,13.5c-17.6-0.4-31.6-7-31.5-14.9
						c0.2-7.8,14.5-13.8,32.1-13.5C51.9,473.6,66,480.2,65.8,488z"/>
				</g>
			</g>
			<g id="XMLID_14_">
				<g id="XMLID_17_">
					<path id="XMLID_18_" class="st8" d="M134.1,442c0.1-3.6-1.9-6.5-4.5-6.5l-54.3-1.2c-2.6-0.1-4.7,2.8-4.8,6.3l-0.1,6.7
						c0,0.2,0,0.4,0,0.6c0,0.1,0,0.3,0,0.4c-0.2,7.8,13.9,14.5,31.5,14.9c17.6,0.4,31.9-5.6,32.1-13.5c0-0.1,0-0.3,0-0.4
						c0-0.2,0-0.4,0-0.6L134.1,442z"/>
				</g>
				<g id="XMLID_15_">
					<path id="XMLID_16_" class="st7" d="M134.1,441c-0.2,7.8-14.5,13.8-32.1,13.5c-17.6-0.4-31.6-7-31.5-14.9
						c0.2-7.8,14.5-13.8,32.1-13.5C120.2,426.5,134.3,433.2,134.1,441z"/>
				</g>
			</g>
			<g id="XMLID_9_">
				<g id="XMLID_12_">
					<path id="XMLID_13_" class="st8" d="M79.4,437.6c-2.6-2.5-6.1-3-7.9-1.1l-37.7,39.2c-1.8,1.9-1.2,5.4,1.4,7.8l4.9,4.7
						c0.1,0.1,0.3,0.3,0.4,0.4c0.1,0.1,0.2,0.2,0.3,0.3c5.7,5.4,20.1-0.4,32.3-13.1C85.4,463.1,90.7,448.4,85,443
						c-0.1-0.1-0.2-0.2-0.3-0.3c-0.1-0.1-0.3-0.3-0.4-0.4L79.4,437.6z"/>
				</g>
				<g id="XMLID_10_">
					<path id="XMLID_11_" class="st7" d="M78.7,436.9c5.7,5.4,0.3,20.1-11.9,32.8c-12.2,12.7-26.7,18.6-32.3,13.1
						c-5.7-5.4-0.3-20.1,11.9-32.8C58.6,437.4,73.1,431.5,78.7,436.9z"/>
				</g>
			</g>
		</g>
	</g>
</g>
</svg>
