<?xml version="1.0" encoding="utf-8"?>
<!-- Generator: Adobe Illustrator 19.0.0, SVG Export Plug-In . SVG Version: 6.00 Build 0)  -->
<svg version="1.1" id="Layer_1" xmlns="http://www.w3.org/2000/svg" xmlns:xlink="http://www.w3.org/1999/xlink" x="0px" y="0px"
	 viewBox="-371 145.3 536.3 510.7" style="enable-background:new -371 145.3 536.3 510.7;" xml:space="preserve">
<style type="text/css">
	.st0{fill:#575757;}
	.st1{fill:#747474;}
	.st2{fill:#F8F8F8;}
	.st3{fill:#C9C9C9;}
	.st4{fill:#9C9C9C;}
	.st5{fill:#6F6F6F;}
	.st6{fill:#3C3C3C;}
	.st7{fill:#CFCFCF;}
	.st8{fill:#BEBEBE;}
</style>
<g id="Bank">
	<g id="Building_20_">
		<g id="XMLID_144_">
			<rect id="XMLID_145_" x="-277" y="317" class="st0" width="354" height="303.6"/>
		</g>
		<g id="XMLID_142_">
			<path id="XMLID_143_" class="st1" d="M-23,386.5c0-19.9-36.9-36-82.3-36c-45.5,0-82.3,16.1-82.3,36c0,0.4,0,0.9,0.1,1.3
				c0,0.3-0.1,0.6-0.1,0.9v218.6c0,4.1,3.3,7.4,7.4,7.4h150c4.1,0,7.4-3.3,7.4-7.4V388.7c0-0.3,0-0.6-0.1-0.9
				C-23,387.4-23,386.9-23,386.5z"/>
		</g>
		<g id="XMLID_140_">
			<rect id="XMLID_141_" x="-277" y="338.6" class="st2" width="53.4" height="269.5"/>
		</g>
		<g id="XMLID_138_">
			<rect id="XMLID_139_" x="-132.8" y="338.6" class="st2" width="53.4" height="269.5"/>
		</g>
		<g id="XMLID_136_">
			<rect id="XMLID_137_" x="23.6" y="338.6" class="st2" width="53.4" height="269.5"/>
		</g>
		<g id="XMLID_134_">
			<path id="XMLID_135_" class="st3" d="M-215.4,358.9c0,3.9-3.2,7.1-7.1,7.1h-57c-3.9,0-7.1-3.2-7.1-7.1l0,0c0-3.9,3.2-7.1,7.1-7.1
				h57C-218.5,351.9-215.4,355-215.4,358.9L-215.4,358.9z"/>
		</g>
		<g id="XMLID_132_">
			<path id="XMLID_133_" class="st3" d="M-71.2,358.9c0,3.9-3.2,7.1-7.1,7.1h-57.1c-3.9,0-7.1-3.2-7.1-7.1l0,0
				c0-3.9,3.2-7.1,7.1-7.1h57.1C-74.4,351.9-71.2,355-71.2,358.9L-71.2,358.9z"/>
		</g>
		<g id="XMLID_130_">
			<path id="XMLID_131_" class="st3" d="M85.2,358.9c0,3.9-3.2,7.1-7.1,7.1h-57c-3.9,0-7.1-3.2-7.1-7.1l0,0c0-3.9,3.2-7.1,7.1-7.1
				h57C82.1,351.9,85.2,355,85.2,358.9L85.2,358.9z"/>
		</g>
		<g id="XMLID_128_">
			<path id="XMLID_129_" class="st3" d="M-215.4,585.6c0,3.9-3.2,7.1-7.1,7.1h-57c-3.9,0-7.1-3.2-7.1-7.1l0,0c0-3.9,3.2-7.1,7.1-7.1
				h57C-218.5,578.6-215.4,581.7-215.4,585.6L-215.4,585.6z"/>
		</g>
		<g id="XMLID_126_">
			<path id="XMLID_127_" class="st3" d="M-71.2,585.6c0,3.9-3.2,7.1-7.1,7.1h-57.1c-3.9,0-7.1-3.2-7.1-7.1l0,0
				c0-3.9,3.2-7.1,7.1-7.1h57.1C-74.4,578.6-71.2,581.7-71.2,585.6L-71.2,585.6z"/>
		</g>
		<g id="XMLID_124_">
			<path id="XMLID_125_" class="st3" d="M85.2,585.6c0,3.9-3.2,7.1-7.1,7.1h-57c-3.9,0-7.1-3.2-7.1-7.1l0,0c0-3.9,3.2-7.1,7.1-7.1
				h57C82.1,578.6,85.2,581.7,85.2,585.6L85.2,585.6z"/>
		</g>
		<g id="XMLID_122_">
			<path id="XMLID_123_" class="st4" d="M-208.9,333.8c0,4.5-3.7,8.2-8.2,8.2h-66.4c-4.5,0-8.2-3.7-8.2-8.2l0,0
				c0-4.5,3.7-8.2,8.2-8.2h66.4C-212.6,325.6-208.9,329.3-208.9,333.8L-208.9,333.8z"/>
		</g>
		<g id="XMLID_120_">
			<path id="XMLID_121_" class="st4" d="M-64.7,333.8c0,4.5-3.7,8.2-8.2,8.2h-66.4c-4.5,0-8.2-3.7-8.2-8.2l0,0
				c0-4.5,3.7-8.2,8.2-8.2h66.4C-68.4,325.6-64.7,329.3-64.7,333.8L-64.7,333.8z"/>
		</g>
		<g id="XMLID_118_">
			<path id="XMLID_119_" class="st4" d="M89.9,333.8c0,4.5-3.7,8.2-8.2,8.2H15.3c-4.5,0-8.2-3.7-8.2-8.2l0,0c0-4.5,3.7-8.2,8.2-8.2
				h66.4C86.2,325.6,89.9,329.3,89.9,333.8L89.9,333.8z"/>
		</g>
		<g id="XMLID_116_">
			<path id="XMLID_117_" class="st4" d="M-208.9,606.4c0,4.5-3.7,8.2-8.2,8.2h-66.4c-4.5,0-8.2-3.7-8.2-8.2l0,0
				c0-4.5,3.7-8.2,8.2-8.2h66.4C-212.6,598.2-208.9,601.9-208.9,606.4L-208.9,606.4z"/>
		</g>
		<g id="XMLID_114_">
			<path id="XMLID_115_" class="st4" d="M-65.4,606.4c0,4.5-3.7,8.2-8.2,8.2H-140c-4.5,0-8.2-3.7-8.2-8.2l0,0c0-4.5,3.7-8.2,8.2-8.2
				h66.4C-69,598.2-65.4,601.9-65.4,606.4L-65.4,606.4z"/>
		</g>
		<g id="XMLID_112_">
			<path id="XMLID_113_" class="st4" d="M91.7,606.4c0,4.5-3.7,8.2-8.2,8.2H17.1c-4.5,0-8.2-3.7-8.2-8.2l0,0c0-4.5,3.7-8.2,8.2-8.2
				h66.4C88,598.2,91.7,601.9,91.7,606.4L91.7,606.4z"/>
		</g>
		<g id="XMLID_110_">
			<rect id="XMLID_111_" x="-301.9" y="293" class="st5" width="403.6" height="32.7"/>
		</g>
		<g id="XMLID_108_">
			<rect id="XMLID_109_" x="-308" y="614.6" class="st3" width="403.6" height="20.7"/>
		</g>
		<g id="XMLID_106_">
			<rect id="XMLID_107_" x="-333.1" y="635.3" class="st4" width="450.6" height="20.7"/>
		</g>
		<g id="XMLID_104_">
			<polygon id="XMLID_105_" class="st3" points="-102.5,166 -335.6,293 128.2,293 			"/>
		</g>
		<g id="XMLID_102_">
			<polygon id="XMLID_103_" class="st5" points="165.3,292.2 -102.7,145.4 -102.8,145.3 -102.9,145.3 -102.9,145.3 -103,145.4 
				-371,292.2 -362.3,308.4 -102.9,166.3 156.6,308.4 			"/>
		</g>
		<g id="XMLID_100_">
			<circle id="XMLID_101_" class="st6" cx="-101.9" cy="234.1" r="53.4"/>
		</g>
		<g id="XMLID_98_">
			<path id="XMLID_99_" class="st5" d="M-56.6,234.1c0,25-20.2,45.2-45.2,45.2s-45.2-20.2-45.2-45.2s20.2-45.2,45.2-45.2
				C-76.9,188.8-56.6,209.1-56.6,234.1z"/>
		</g>
		<g id="XMLID_94_">
			<g id="XMLID_95_">
				<path id="XMLID_96_" class="st7" d="M-111.3,247.1c0.4,1.7,1.5,3.2,3.1,4.3c1.6,1.2,3.3,1.8,5,1.9c1.1,0.1,2.2-0.1,3.2-0.5
					c1.1-0.5,1.8-1.3,2.3-2.5c0.6-1.5,0.5-3-0.2-4.5c-0.8-1.5-2.2-2.8-4.4-3.8c-2.3-1-4.6-2-6.8-2.9c-2.2-0.9-4.2-2-6-3.4
					c-1.8-1.3-3.2-3-4.3-4.9c-1.1-2-1.6-4.5-1.6-7.6c0-4.8,1.1-8.5,3.4-11.2c2.3-2.7,5.8-4.3,10.6-4.8l-0.3-5.4h8.8l-0.3,5.3
					c2.3,0.1,4.5,0.7,6.9,1.7c2.3,1,4.3,2.6,6,4.8l-8.3,8.6c-0.2-0.9-0.6-1.6-1.1-2.3c-0.5-0.7-1.2-1.3-1.9-1.7
					c-0.7-0.5-1.5-0.9-2.3-1.1s-1.6-0.4-2.4-0.4c-0.9,0-1.8,0.1-2.6,0.4c-0.8,0.2-1.6,0.6-2.2,1.1s-1.2,1.1-1.6,1.9
					s-0.6,1.7-0.5,2.7c0,1.7,0.5,3.1,1.4,4.2s2.1,2,3.4,2.7c1.4,0.7,2.8,1.3,4.4,1.8s3,1,4.3,1.5c3.3,1.4,5.9,3.3,7.8,5.8
					c1.9,2.4,2.8,5.6,2.7,9.4c0,1.9-0.3,3.7-1,5.4c-0.6,1.7-1.6,3.3-2.8,4.6c-1.2,1.3-2.6,2.4-4.3,3.3c-1.7,0.8-3.6,1.3-5.7,1.3
					l0.4,5.6h-8.8l0.3-5.4c-2.5-0.3-5-1.1-7.6-2.5c-2.6-1.4-4.7-3.6-6.5-6.7L-111.3,247.1z"/>
			</g>
		</g>
	</g>
	<g id="Coin">
		<g id="XMLID_8_">
			<g id="XMLID_24_">
				<g id="XMLID_35_">
					<g id="XMLID_38_">
						<path id="XMLID_39_" class="st8" d="M-229.6,626.4c0-3.7-2.2-6.7-4.8-6.7h-56.2c-2.7,0-4.8,3-4.8,6.7v7c0,0.2,0,0.4,0,0.6
							c0,0.1,0,0.3,0,0.4c0,8.1,14.7,14.7,32.9,14.7s32.9-6.6,32.9-14.7c0-0.1,0-0.3,0-0.4c0-0.2,0-0.4,0-0.6V626.4z"/>
					</g>
					<g id="XMLID_36_">
						<path id="XMLID_37_" class="st7" d="M-229.6,625.4c0,8.1-14.7,14.7-32.9,14.7s-32.9-6.6-32.9-14.7c0-8.1,14.7-14.7,32.9-14.7
							S-229.6,617.3-229.6,625.4z"/>
					</g>
				</g>
				<g id="XMLID_30_">
					<g id="XMLID_33_">
						<path id="XMLID_34_" class="st8" d="M-236.9,612.4c0-3.7-2.2-6.7-4.8-6.7h-56.2c-2.7,0-4.8,3-4.8,6.7v7c0,0.2,0,0.4,0,0.6
							c0,0.1,0,0.3,0,0.4c0,8.1,14.7,14.7,32.9,14.7c18.2,0,32.9-6.6,32.9-14.7c0-0.1,0-0.3,0-0.4c0-0.2,0-0.4,0-0.6V612.4z"/>
					</g>
					<g id="XMLID_31_">
						<ellipse id="XMLID_32_" class="st7" cx="-269.8" cy="611.4" rx="32.9" ry="14.7"/>
					</g>
				</g>
				<g id="XMLID_25_">
					<g id="XMLID_28_">
						<path id="XMLID_29_" class="st8" d="M-226.9,598.7c0-3.7-2.2-6.7-4.8-6.7H-288c-2.7,0-4.8,3-4.8,6.7v7c0,0.2,0,0.4,0,0.6
							c0,0.1,0,0.3,0,0.4c0,8.1,14.7,14.7,32.9,14.7s32.9-6.6,32.9-14.7c0-0.1,0-0.3,0-0.4c0-0.2,0-0.4,0-0.6v-7H-226.9z"/>
					</g>
					<g id="XMLID_26_">
						<path id="XMLID_27_" class="st7" d="M-226.9,597.6c0,8.1-14.7,14.7-32.9,14.7s-32.9-6.6-32.9-14.7s14.7-14.7,32.9-14.7
							C-241.7,583-226.9,589.5-226.9,597.6z"/>
					</g>
				</g>
			</g>
			<g id="XMLID_19_">
				<g id="XMLID_22_">
					<path id="XMLID_23_" class="st8" d="M-305.2,634.3c0.1-3.6-1.9-6.5-4.5-6.5l-54.3-1.2c-2.6-0.1-4.7,2.8-4.8,6.3l-0.1,6.7
						c0,0.2,0,0.4,0,0.6c0,0.1,0,0.3,0,0.4c-0.2,7.8,13.9,14.5,31.5,14.9c17.6,0.4,31.9-5.6,32.1-13.5c0-0.1,0-0.3,0-0.4
						c0-0.2,0-0.4,0-0.6L-305.2,634.3z"/>
				</g>
				<g id="XMLID_20_">
					<path id="XMLID_21_" class="st7" d="M-305.2,633.3c-0.2,7.8-14.5,13.8-32.1,13.5c-17.6-0.4-31.6-7-31.5-14.9
						c0.2-7.8,14.5-13.8,32.1-13.5C-319.1,618.9-305,625.5-305.2,633.3z"/>
				</g>
			</g>
			<g id="XMLID_14_">
				<g id="XMLID_17_">
					<path id="XMLID_18_" class="st8" d="M-236.9,587.3c0.1-3.6-1.9-6.5-4.5-6.5l-54.3-1.2c-2.6-0.1-4.7,2.8-4.8,6.3l-0.1,6.7
						c0,0.2,0,0.4,0,0.6c0,0.1,0,0.3,0,0.4c-0.2,7.8,13.9,14.5,31.5,14.9c17.6,0.4,31.9-5.6,32.1-13.5c0-0.1,0-0.3,0-0.4
						c0-0.2,0-0.4,0-0.6L-236.9,587.3z"/>
				</g>
				<g id="XMLID_15_">
					<path id="XMLID_16_" class="st7" d="M-236.9,586.3c-0.2,7.8-14.5,13.8-32.1,13.5c-17.6-0.4-31.6-7-31.5-14.9
						c0.2-7.8,14.5-13.8,32.1-13.5C-250.8,571.8-236.7,578.5-236.9,586.3z"/>
				</g>
			</g>
			<g id="XMLID_9_">
				<g id="XMLID_12_">
					<path id="XMLID_13_" class="st8" d="M-291.6,582.9c-2.6-2.5-6.1-3-7.9-1.1l-37.7,39.2c-1.8,1.9-1.2,5.4,1.4,7.8l4.9,4.7
						c0.1,0.1,0.3,0.3,0.4,0.4c0.1,0.1,0.2,0.2,0.3,0.3c5.7,5.4,20.1-0.4,32.3-13.1c12.3-12.7,17.6-27.4,11.9-32.8
						c-0.1-0.1-0.2-0.2-0.3-0.3c-0.1-0.1-0.3-0.3-0.4-0.4L-291.6,582.9z"/>
				</g>
				<g id="XMLID_10_">
					<path id="XMLID_11_" class="st7" d="M-292.3,582.2c5.7,5.4,0.3,20.1-11.9,32.8c-12.2,12.7-26.7,18.6-32.3,13.1
						c-5.7-5.4-0.3-20.1,11.9-32.8C-312.4,582.7-297.9,576.8-292.3,582.2z"/>
				</g>
			</g>
		</g>
	</g>
</g>
</svg>
