<?xml version="1.0" encoding="utf-8"?>
<!-- Generator: Adobe Illustrator 19.0.0, SVG Export Plug-In . SVG Version: 6.00 Build 0)  -->
<svg version="1.1" id="Layer_1" xmlns="http://www.w3.org/2000/svg" xmlns:xlink="http://www.w3.org/1999/xlink" x="0px" y="0px"
	 viewBox="-288 169.7 702.7 462.3" style="enable-background:new -288 169.7 702.7 462.3;" xml:space="preserve">
<style type="text/css">
	.st0{fill:#141414;}
	.st1{fill:#2A2A2A;}
	.st2{fill:#080808;}
	.st3{fill:#0E0E0E;}
	.st4{fill:#575757;}
	.st5{fill:#8D8D8D;}
	.st6{fill:#4A4A4A;}
	.st7{fill:#0D0D0D;}
	.st8{fill:#F6F6F6;}
	.st9{fill:#424242;}
	.st10{fill:#A2A2A2;}
	.st11{opacity:0.5;}
	.st12{fill:#D0D0D0;}
	.st13{fill:#E1E1E1;}
	.st14{fill:#A0A0A0;}
	.st15{fill:#D8D8D8;}
	.st16{fill:#C0C0C0;}
	.st17{fill:#1D1D1D;}
	.st18{opacity:0.4;fill:#F5F5F5;enable-background:new    ;}
	.st19{fill:#EDEDED;}
	.st20{fill:#C6C6C6;}
	.st21{fill:#414141;}
	.st22{fill:#9C9C9C;}
	.st23{fill:#2D2D2D;}
	.st24{fill:#454545;}
	.st25{fill:#989898;}
</style>
<g id="Book_Shop">
	<g>
		<path id="XMLID_127_" class="st0" d="M406.8,230.8c0-4.3-3.5-7.8-7.8-7.8H-32.8c-4.3,0-7.8,3.5-7.8,7.8v105.9
			c0,4.3,3.5,7.8,7.8,7.8h431.7c4.3,0,7.8-3.5,7.8-7.8L406.8,230.8L406.8,230.8z"/>
		<path id="XMLID_126_" class="st1" d="M406.8,624.7c0,4-3.5,7.2-7.8,7.2H-32.8c-4.3,0-7.8-3.2-7.8-7.2V317.5c0-4,3.5-7.2,7.8-7.2
			h431.7c4.3,0,7.8,3.2,7.8,7.2L406.8,624.7L406.8,624.7z"/>
		<path id="XMLID_125_" class="st2" d="M414.7,227.1c0,4.3-3.5,7.9-7.9,7.9H-40.4c-4.4,0-7.9-3.5-7.9-7.9v-13.7
			c0-4.3,3.5-7.9,7.9-7.9h447.2c4.4,0,7.9,3.5,7.9,7.9L414.7,227.1L414.7,227.1z"/>
		<g>
			<path id="XMLID_124_" class="st3" d="M-20.8,558c0,4.3,3.5,7.8,7.8,7.8h95.5c4.3,0,7.8-3.5,7.8-7.8V374.2c0-4.3-3.5-7.9-7.8-7.9
				H-13c-4.3,0-7.8,3.5-7.8,7.9V558z"/>
			<path id="XMLID_123_" class="st4" d="M84.5,551.7c0,4.3-3.5,7.8-7.8,7.8H-6.6c-4.3,0-7.8-3.5-7.8-7.8V536c0-4.3,3.5-7.8,7.8-7.8
				h83.3c4.3,0,7.8,3.5,7.8,7.8V551.7z"/>
			<g>
				<path id="XMLID_122_" class="st5" d="M28.9,375.5c-1.3-0.9-2.9-1.5-4.6-1.5h-31c-4.3,0-7.8,3.5-7.8,7.8v44v10.9
					c0,4.3,3.5,7.8,7.8,7.8h3.1h27.9c4.3,0,7.8-3.5,7.8-7.8v-33.5v-21.4C32.1,379.3,30.9,377,28.9,375.5z"/>
				<path id="XMLID_121_" class="st5" d="M82.8,377.1c-1.4-1.9-3.7-3.1-6.2-3.1H68H51.7h-6.1c-4.3,0-7.8,3.5-7.8,7.8v14.9v13.7v2.1
					v24.4c0,3.7,2.6,6.8,6,7.6c0.6,0.1,1.2,0.2,1.8,0.2H70h6.6c4.3,0,7.8-3.5,7.8-7.8V382C84.5,380.1,83.9,378.4,82.8,377.1z"/>
				<path id="XMLID_120_" class="st5" d="M31.9,458.3c-0.9-3.3-3.9-5.8-7.6-5.8h-31c-4.3,0-7.8,3.5-7.8,7.9v54.9
					c0,4.3,3.5,7.9,7.8,7.9h31c4.3,0,7.8-3.5,7.8-7.9v-26.7v-28.2C32.1,459.6,32,459,31.9,458.3z"/>
				<path id="XMLID_119_" class="st5" d="M83.6,456.8c-1.3-2.5-3.9-4.3-7-4.3H63.2H45.6c-4.3,0-7.8,3.5-7.8,7.9V482v33.3
					c0,4.3,3.5,7.9,7.8,7.9h31c4.3,0,7.8-3.5,7.8-7.9v-40.1v-14.9C84.5,459.1,84.2,457.9,83.6,456.8z"/>
				<g>
					<path id="XMLID_118_" class="st6" d="M0.5,486.9V484c0-2.5-2-4.5-4.5-4.5h-6.8c-1.5,0-2.8,0.7-3.7,1.9v5.5H0.5z"/>
					<path class="st7" d="M-14.5,486.9v28.4c0,4.3,3.5,7.9,7.8,7.9h7.1v-36.3H-14.5z M-2.7,504.1H-12v-1.7h9.2L-2.7,504.1
						L-2.7,504.1z M-12,500.9V490h9.2v10.9H-12z"/>
					<rect id="XMLID_114_" x="-12" y="490" class="st8" width="9.2" height="10.9"/>
					<rect id="XMLID_113_" x="-12" y="502.4" class="st8" width="9.2" height="1.7"/>
					<path id="XMLID_112_" class="st9" d="M11.8,485.3H5c-2.5,0-4.5,2-4.5,4.5v2.9h15.8v-2.9C16.3,487.4,14.3,485.3,11.8,485.3z"/>
					<rect id="XMLID_111_" x="0.5" y="492.8" class="st10" width="15.8" height="30.4"/>
					<path id="XMLID_110_" class="st7" d="M27.8,482h-6.9c-2.5,0-4.6,2-4.6,4.5v2.9h15.8V485C31.5,483.3,29.8,482,27.8,482z"/>
					<path id="XMLID_109_" class="st6" d="M16.3,489.9v2.9v30.4h8c4.3,0,7.8-3.5,7.8-7.9v-25.8H16.3V489.9z"/>
				</g>
				<g>
					<path id="XMLID_108_" class="st6" d="M69.5,486.9V484c0-2.5,2-4.5,4.5-4.5h6.8c1.5,0,2.8,0.7,3.7,1.9v5.5H69.5z"/>
					<path class="st7" d="M69.5,486.9v36.3h7.1c4.3,0,7.8-3.5,7.8-7.9v-28.4H69.5z M72.7,502.4h9.2v1.7h-9.2V502.4z M72.7,500.9V490
						h9.2v10.9H72.7z"/>
					<rect id="XMLID_104_" x="72.7" y="490" class="st8" width="9.2" height="10.9"/>
					<rect id="XMLID_103_" x="72.7" y="502.4" class="st8" width="9.2" height="1.7"/>
					<path id="XMLID_102_" class="st9" d="M58.2,485.3H65c2.5,0,4.5,2,4.5,4.5v2.9H53.7v-2.9C53.7,487.4,55.7,485.3,58.2,485.3z"/>
					<rect id="XMLID_101_" x="53.7" y="492.8" class="st10" width="15.8" height="30.4"/>
					<path id="XMLID_100_" class="st7" d="M42.1,482H49c2.5,0,4.6,2,4.6,4.5v2.9H37.8V485C38.5,483.3,40.1,482,42.1,482z"/>
					<path id="XMLID_99_" class="st6" d="M53.7,489.9v2.9v30.4h-8c-4.3,0-7.8-3.5-7.8-7.9v-25.8h15.8V489.9z"/>
				</g>
				<g class="st11">
					<path id="XMLID_98_" class="st12" d="M28.9,375.5l-43.4,50.4v10.9c0,4.3,3.5,7.8,7.8,7.8h3.1c0.2-0.2,0.4-0.4,0.6-0.7
						l35.1-40.7v-21.4C32.1,379.3,30.9,377,28.9,375.5z"/>
					<path id="XMLID_97_" class="st12" d="M51.8,374h-6.1c-4.3,0-7.8,3.5-7.8,7.8v14.9l12-14C52,380.2,52.6,376.9,51.8,374z"/>
					<path id="XMLID_96_" class="st12" d="M39.7,415.7l1.3,1.1c2.4,2.1,6.1,1.8,8.2-0.7l33.6-39c-1.4-1.9-3.7-3.1-6.2-3.1H68
						l-28.9,33.4c-0.7,0.9-1.2,1.9-1.4,2.9v2.1C38,413.7,38.7,414.8,39.7,415.7z"/>
					<path id="XMLID_95_" class="st12" d="M70,444.7l7-8.1c3.2-3.8,2.9-9.3-0.7-12.5l-1.9-1.6c-3.6-3.1-9.2-2.7-12.5,1.1l-18.1,20.9
						c0.6,0.1,1.2,0.2,1.8,0.2H70z"/>
					<path id="XMLID_94_" class="st12" d="M31.9,458.3l-21.3,24.6c-3.2,3.8-2.9,9.3,0.7,12.5l1.9,1.6c3.6,3.1,9.2,2.7,12.5-1.1
						l6.4-7.4v-28.2C32.1,459.6,32,459,31.9,458.3z"/>
					<path id="XMLID_93_" class="st12" d="M45.7,452.5c-4.3,0-7.8,3.5-7.8,7.9V482l25.4-29.5H45.7z"/>
					<path id="XMLID_92_" class="st12" d="M83.6,456.8L55.9,489c-2.1,2.4-1.8,5.9,0.5,7.9l1.2,1c2.3,2,5.9,1.7,7.9-0.7l19-22v-14.9
						C84.5,459.1,84.2,457.9,83.6,456.8z"/>
				</g>
			</g>
		</g>
		<g>
			<path id="XMLID_91_" class="st3" d="M273.5,558c0,4.3,3.5,7.8,7.8,7.8h95.5c4.3,0,7.8-3.5,7.8-7.8V374.2c0-4.3-3.5-7.9-7.8-7.9
				h-95.5c-4.3,0-7.8,3.5-7.8,7.9V558z"/>
			<path id="XMLID_90_" class="st4" d="M378.6,551.7c0,4.3-3.5,7.8-7.9,7.8h-83.3c-4.3,0-7.8-3.5-7.8-7.8V536c0-4.3,3.5-7.8,7.8-7.8
				h83.3c4.3,0,7.9,3.5,7.9,7.8V551.7z"/>
			<g>
				<path id="XMLID_89_" class="st5" d="M320.1,374.2c-0.6-0.1-1.1-0.2-1.7-0.2h-31c-4.3,0-7.8,3.5-7.8,7.8v38.3v16.7
					c0,3.6,2.5,6.7,5.9,7.6c0.6,0.2,1.3,0.3,2,0.3h31c4.3,0,7.8-3.5,7.8-7.8v-38.7v-16.3C326.2,378.1,323.6,375,320.1,374.2z"/>
				<path id="XMLID_88_" class="st5" d="M372,374.1c-0.4-0.1-0.9-0.1-1.3-0.1h-23.2h-7.8c-4.3,0-7.8,3.5-7.8,7.8v9.8v45.1
					c0,4.3,3.5,7.8,7.8,7.8h13.9h17.1c4.3,0,7.8-3.5,7.8-7.8v-20.4v-31.9v-2.6C378.6,378,375.7,374.8,372,374.1z"/>
				<path id="XMLID_87_" class="st5" d="M318.4,452.5h-31c-4.3,0-7.8,3.5-7.8,7.9v54.9c0,4.3,3.5,7.9,7.8,7.9h31
					c4.3,0,7.8-3.5,7.8-7.9v-11.9v-27.7v-15.4C326.2,456,322.7,452.5,318.4,452.5z"/>
				<path id="XMLID_86_" class="st5" d="M371.8,452.6c-0.4,0-0.7-0.1-1.1-0.1h-24h-7c-4.3,0-7.8,3.5-7.8,7.9v8.9v28.5v17.5
					c0,4.3,3.5,7.9,7.8,7.9h31c4.3,0,7.8-3.5,7.8-7.9v-54.9C378.6,456.4,375.6,453.1,371.8,452.6z"/>
				<g>
					<path id="XMLID_85_" class="st6" d="M311.3,486.9V484c0-2.5,2-4.5,4.5-4.5h6.8c1.5,0,2.8,0.7,3.7,1.9v5.5H311.3z"/>
					<path class="st7" d="M311.3,486.9v36.3h7.1c4.3,0,7.8-3.5,7.8-7.9v-28.4H311.3z M314.5,502.4h9.2v1.7h-9.2V502.4z M314.5,500.9
						V490h9.2v10.9H314.5z"/>
					<rect id="XMLID_81_" x="314.5" y="490" class="st8" width="9.2" height="10.9"/>
					<rect id="XMLID_80_" x="314.5" y="502.4" class="st8" width="9.2" height="1.7"/>
					<path id="XMLID_79_" class="st9" d="M299.9,485.3h6.8c2.5,0,4.5,2,4.5,4.5v2.9h-15.8v-2.9C295.4,487.4,297.4,485.3,299.9,485.3
						z"/>
					<rect id="XMLID_78_" x="295.4" y="492.8" class="st10" width="15.8" height="30.4"/>
					<path id="XMLID_77_" class="st7" d="M283.9,482h6.9c2.5,0,4.6,2,4.6,4.5v2.9h-15.8V485C280.2,483.3,281.9,482,283.9,482z"/>
					<path id="XMLID_76_" class="st6" d="M295.4,489.9v2.9v30.4h-8c-4.3,0-7.8-3.5-7.8-7.9v-25.8h15.8V489.9z"/>
				</g>
				<g>
					<path id="XMLID_75_" class="st6" d="M363.6,486.9V484c0-2.5,2-4.5,4.5-4.5h6.8c1.5,0,2.8,0.7,3.7,1.9v5.5H363.6z"/>
					<path class="st7" d="M363.6,486.9v36.3h7.1c4.3,0,7.8-3.5,7.8-7.9v-28.4H363.6z M366.8,502.4h9.2v1.7h-9.2V502.4z M366.8,500.9
						V490h9.2v10.9H366.8z"/>
					<rect id="XMLID_71_" x="366.8" y="490" class="st8" width="9.2" height="10.9"/>
					<rect id="XMLID_70_" x="366.8" y="502.4" class="st8" width="9.2" height="1.7"/>
					<path id="XMLID_69_" class="st9" d="M352.3,485.3h6.8c2.5,0,4.5,2,4.5,4.5v2.9h-15.8v-2.9C347.7,487.4,349.8,485.3,352.3,485.3
						z"/>
					<rect id="XMLID_68_" x="347.7" y="492.8" class="st10" width="15.8" height="30.4"/>
					<path id="XMLID_67_" class="st7" d="M336.2,482h6.9c2.5,0,4.6,2,4.6,4.5v2.9h-15.8V485C332.5,483.3,334.2,482,336.2,482z"/>
					<path id="XMLID_66_" class="st6" d="M347.7,489.9v2.9v30.4h-8c-4.3,0-7.8-3.5-7.8-7.9v-25.8h15.8V489.9z"/>
				</g>
				<g class="st11">
					<path id="XMLID_65_" class="st12" d="M320.1,374.2l-40.5,45.9v16.7c0,3.6,2.5,6.7,5.9,7.6l40.8-46.2v-16.3
						C326.2,378.1,323.6,375,320.1,374.2z"/>
					<path id="XMLID_64_" class="st12" d="M339.8,374c-4.3,0-7.8,3.5-7.8,7.8v9.8l15.6-17.7L339.8,374L339.8,374z"/>
					<path id="XMLID_63_" class="st12" d="M341.9,415.1l2,1.8c1.9,1.7,4.7,1.5,6.4-0.4l28.2-32v-2.6c0-3.9-2.8-7.1-6.5-7.7
						l-30.5,34.5C339.9,410.6,340.1,413.4,341.9,415.1z"/>
					<path id="XMLID_62_" class="st12" d="M378.6,436.8v-20.4l-25,28.3h17.1C375,444.7,378.6,441.1,378.6,436.8z"/>
					<path id="XMLID_61_" class="st12" d="M314.4,489.2c-2.6,3-2.4,7.6,0.6,10.2l3.3,2.9c2.3,2,5.4,2.3,7.9,1.1v-27.7L314.4,489.2z"
						/>
					<path id="XMLID_60_" class="st12" d="M346.7,452.5l-14.8,16.8v28.5l39.9-45.2c-0.4,0-0.7-0.1-1.1-0.1L346.7,452.5L346.7,452.5z
						"/>
				</g>
			</g>
		</g>
		<g>
			<path id="XMLID_59_" class="st3" d="M253.5,624.1c0,4.3-2.9,7.8-6.4,7.8H116.3c-3.5,0-6.4-3.5-6.4-7.8V374.2
				c0-4.3,2.9-7.9,6.4-7.9h130.8c3.5,0,6.4,3.5,6.4,7.9V624.1z"/>
			<path class="st1" d="M229.6,620.2h-96.3c-5.7,0-10.3-4.6-10.3-10.3v-45.4c0-5.7,4.6-10.3,10.3-10.3h96.3
				c5.7,0,10.3,4.6,10.3,10.3v45.4C240,615.5,235.3,620.2,229.6,620.2z M133.3,559.7c-2.6,0-4.7,2.1-4.7,4.7v45.4
				c0,2.6,2.1,4.7,4.7,4.7h96.3c2.6,0,4.7-2.1,4.7-4.7v-45.4c0-2.6-2.1-4.7-4.7-4.7H133.3z"/>
			<g>
				<path id="XMLID_56_" class="st5" d="M234.2,378.8h-46.7h-24.1h-33c-4.3,0-7.8,3.5-7.8,7.9v18.7c0,4,3.1,7.4,7,7.8
					c0.3,0,0.6,0.1,0.9,0.1h23.2H183h35.5h15.7c4.3,0,7.8-3.5,7.8-7.8v-18.8C242.1,382.3,238.6,378.8,234.2,378.8z"/>
				<path id="XMLID_55_" class="st5" d="M233.4,421.4h-17H175h-29.4h-14.3c-4.3,0-7.8,3.5-7.8,7.8v14.6v29.9v42.5v22.9
					c0,4.3,3.5,7.8,7.8,7.8h102c4.3,0,7.9-3.5,7.9-7.8v-84.5v-19v-6.3C241.2,425,237.7,421.4,233.4,421.4z"/>
				<g>
					<path class="st13" d="M214.4,541.2h-64.9c-3.5,0-6.4-2.7-6.4-6.1v-81c0-14.9,17.4-27,38.9-27c21.4,0,38.9,12.1,38.9,27v81
						C220.8,538.5,218,541.2,214.4,541.2z M182,432.4c-18.5,0-33.6,9.8-33.6,21.8v81c0,0.5,0.5,0.9,1.2,0.9h64.9
						c0.6,0,1.2-0.4,1.2-0.9v-81C215.6,442.1,200.5,432.4,182,432.4z"/>
					<path id="XMLID_52_" class="st13" d="M200.9,468.1c0,10.5-8.5,19-19,19s-19-8.5-19-19s8.5-19,19-19S200.9,457.6,200.9,468.1z"
						/>
					<path id="XMLID_51_" class="st13" d="M158.5,455.1c-0.2,0-0.5-0.1-0.7-0.2c-0.8-0.4-1.1-1.4-0.7-2.2
						c0.3-0.5,6.9-13.4,24.7-13.4c20.5,0,25.9,12.7,26.1,13.2c0.3,0.8-0.1,1.8-0.9,2.1c-0.8,0.3-1.8-0.1-2.1-0.9
						c-0.2-0.4-4.8-11.2-23-11.2c-15.7,0-21.5,11.1-21.8,11.6C159.6,454.8,159.1,455.1,158.5,455.1z"/>
				</g>
				<rect id="XMLID_50_" x="159.3" y="495.9" class="st6" width="43.2" height="13.1"/>
				<g class="st11">
					<path id="XMLID_49_" class="st12" d="M153.7,413.3l33.9-34.4h-24.1l-33.9,34.4c0.3,0,0.6,0.1,0.9,0.1h23.2V413.3z"/>
					<path id="XMLID_48_" class="st12" d="M131.4,421.4c-4.3,0-7.8,3.5-7.8,7.8v14.6l22.1-22.5h-14.3V421.4z"/>
					<path id="XMLID_47_" class="st12" d="M212.6,402.6c-5.4-5.3-14-5.2-19.2,0.2L183,413.3h35.5c-0.2-3.2-1.5-6.4-4-8.9
						L212.6,402.6z"/>
					<path id="XMLID_46_" class="st12" d="M216.4,421.4H175l-51.5,52.3v42.5l91.1-92.6C215.3,422.9,215.9,422.2,216.4,421.4z"/>
					<path id="XMLID_45_" class="st12" d="M177.3,500.5c-2.4,2.4-2.3,6.3,0.1,8.6l0.8,0.8c2.4,2.4,6.3,2.3,8.6-0.1l54.4-55.3v-19
						L177.3,500.5z"/>
				</g>
			</g>
			<g>
				<path id="XMLID_44_" class="st14" d="M244,548.6c0,1.3-1.2,2.3-2.6,2.3l0,0c-1.4,0-2.6-1-2.6-2.3v-3.5c0-1.3,1.2-2.3,2.6-2.3
					l0,0c1.4,0,2.6,1,2.6,2.3V548.6z"/>
				<path id="XMLID_43_" class="st14" d="M207.7,548.6c0,1.3-1.2,2.3-2.6,2.3l0,0c-1.4,0-2.6-1-2.6-2.3v-3.5c0-1.3,1.2-2.3,2.6-2.3
					l0,0c1.4,0,2.6,1,2.6,2.3V548.6z"/>
				<path id="XMLID_42_" class="st15" d="M237.5,542.8h-13.1h-15.8c-2.3,0-4.1,1.8-4.1,4.1c0,2.3,1.8,4.1,4.1,4.1h11.2h17.8
					c2.3,0,4.1-1.8,4.1-4.1C241.6,544.6,239.8,542.8,237.5,542.8z"/>
				<path id="XMLID_41_" class="st16" d="M241.6,546.9c0-2.3-1.8-4.1-4.1-4.1h-13.1l-4.6,8.2h17.8
					C239.8,551,241.6,549.2,241.6,546.9z"/>
			</g>
		</g>
		<g>
			<path id="XMLID_40_" class="st13" d="M267.7,283.8h-22.2h-16.7H216h-55.6H94.1c-4.8,0-8.7,3.9-8.7,8.7V335c0,4.8,3.9,8.7,8.7,8.7
				h14.6h55.6h103.4c4.8,0,8.7-3.9,8.7-8.7v-42.5C276.4,287.7,272.5,283.8,267.7,283.8z"/>
			
				<rect id="XMLID_39_" x="94" y="307.6" transform="matrix(-0.6745 0.7382 -0.7382 -0.6745 397.1625 450.7024)" class="st17" width="10.5" height="10.5"/>
			<g>
				<path class="st17" d="M126.9,305.1v1c0,3-0.9,4.9-3,5.8v0.1c2.5,1,3.4,3.1,3.4,6.2v2.4c0,4.5-2.4,6.9-6.9,6.9h-7.2v-29.1h6.9
					C124.9,298.4,126.9,300.6,126.9,305.1z M117.8,302.6v7.7h1.8c1.7,0,2.7-0.7,2.7-3.1v-1.6c0-2.1-0.7-3-2.3-3L117.8,302.6
					L117.8,302.6z M117.8,314.5v8.9h2.6c1.5,0,2.4-0.7,2.4-2.9V318c0-2.7-0.9-3.5-3-3.5H117.8z"/>
				<path class="st17" d="M129.8,305.4c0-4.7,2.5-7.3,6.9-7.3c4.5,0,6.9,2.7,6.9,7.3v15.1c0,4.7-2.5,7.3-6.9,7.3
					c-4.5,0-6.9-2.7-6.9-7.3V305.4z M134.3,320.9c0,2.1,0.9,2.9,2.4,2.9s2.4-0.8,2.4-2.9v-15.7c0-2.1-0.9-2.9-2.4-2.9
					s-2.4,0.8-2.4,2.9V320.9z"/>
				<path class="st17" d="M146.2,305.4c0-4.7,2.5-7.3,6.9-7.3c4.5,0,6.9,2.7,6.9,7.3v15.1c0,4.7-2.5,7.3-6.9,7.3
					c-4.5,0-6.9-2.7-6.9-7.3V305.4z M150.8,320.9c0,2.1,0.9,2.9,2.4,2.9s2.4-0.8,2.4-2.9v-15.7c0-2.1-0.9-2.9-2.4-2.9
					s-2.4,0.8-2.4,2.9V320.9z"/>
				<path class="st17" d="M169.1,316l-1.4,2.7v8.9h-4.6v-29.1h4.6v12.6h0.1l5.9-12.6h4.6l-6.4,13l6.4,16.1h-4.7L169.1,316z"/>
				<path class="st17" d="M192.9,298.1c4.5,0,6.7,2.7,6.7,7.3v0.9h-4.3v-1.2c0-2.1-0.8-2.9-2.3-2.9s-2.3,0.8-2.3,2.9
					s0.9,3.7,3.9,6.3c3.8,3.4,5,5.8,5,9.1c0,4.7-2.3,7.3-6.8,7.3s-6.8-2.7-6.8-7.3v-1.8h4.3v2.1c0,2.1,0.9,2.8,2.4,2.8
					s2.4-0.7,2.4-2.8s-0.9-3.7-3.9-6.3c-3.8-3.4-5-5.8-5-9.1C186.2,300.8,188.5,298.1,192.9,298.1z"/>
				<path class="st17" d="M206.9,327.6h-4.6v-29.1h4.6V311h5.2v-12.5h4.7v29.1h-4.7v-12.5h-5.2V327.6z"/>
				<path class="st17" d="M219.7,305.4c0-4.7,2.5-7.3,6.9-7.3c4.5,0,6.9,2.7,6.9,7.3v15.1c0,4.7-2.5,7.3-6.9,7.3
					c-4.5,0-6.9-2.7-6.9-7.3L219.7,305.4L219.7,305.4z M224.3,320.9c0,2.1,0.9,2.9,2.4,2.9s2.4-0.8,2.4-2.9v-15.7
					c0-2.1-0.9-2.9-2.4-2.9s-2.4,0.8-2.4,2.9V320.9z"/>
				<path class="st17" d="M250.1,305.6v3.8c0,4.7-2.2,7.2-6.8,7.2h-2.2v10.9h-4.6v-29.1h6.7C247.9,298.4,250.1,301,250.1,305.6z
					 M241.1,302.6v9.9h2.2c1.5,0,2.2-0.7,2.2-2.7v-4.4c0-2.1-0.8-2.7-2.2-2.7h-2.2V302.6z"/>
			</g>
			
				<rect id="XMLID_24_" x="258.4" y="307.6" transform="matrix(-0.6745 0.7382 -0.7382 -0.6745 672.3712 329.2787)" class="st17" width="10.5" height="10.5"/>
			<polygon id="XMLID_23_" class="st18" points="160.5,283.8 108.8,343.8 164.3,343.8 216,283.8 			"/>
			<path id="XMLID_22_" class="st18" d="M195.4,325.5l6.6,5.7c0.8,0.7,3.1-0.6,5.1-2.9l38.3-44.5h-16.7L197.5,320
				C195.6,322.4,194.6,324.8,195.4,325.5z"/>
		</g>
	</g>
	<g id="Book_12_">
		<g id="Books_24_">
			<g>
				<path id="XMLID_21_" class="st7" d="M-26.1,571.4c1.7,0,3.1-1.4,3.1-3.1c0-1.7-1.4-3.1-3.1-3.1c0,0-203.1-0.1-203.2-0.1
					c-18.7,0-33.9,14.6-33.9,32.6s15.2,32.6,33.9,32.6c0.1,0,202.2,0.1,202.2,0.1c1.7,0,3.2-1.4,3.2-3.2s-1.4-3.2-3.2-3.2h-1.1
					v-52.4h2.1V571.4z"/>
				<path id="XMLID_20_" class="st19" d="M-213.7,571.4c-18,0-32.6,11.7-32.6,26.2s14.6,26.2,32.6,26.2c0.1,0,185.5,0,185.5,0v-52.4
					C-28.2,571.4-213.6,571.4-213.7,571.4z"/>
				<path id="XMLID_19_" class="st20" d="M-164.6,580.2c0,0.9,0.7,1.7,1.7,1.7h134.7v-3.4H-163
					C-163.9,578.6-164.6,579.3-164.6,580.2z"/>
				<path id="XMLID_18_" class="st20" d="M-186.1,590.3c0,1.3,1,2.3,2.3,2.3h155.6v-4.7h-155.6C-185.1,588-186.1,589-186.1,590.3z"
					/>
				<path id="XMLID_17_" class="st20" d="M-111.4,597.6c-1.4,0-2.6,1.1-2.6,2.6c0,1.4,1.1,2.6,2.6,2.6h83.2v-5.1h-83.2V597.6z"/>
			</g>
			<g>
				<path id="XMLID_16_" class="st21" d="M-7.9,506.2c1.7,0,3.1-1.4,3.1-3.1s-1.4-3.1-3.1-3.1c0,0-203.1-0.1-203.2-0.1
					c-18.7,0-33.9,14.6-33.9,32.6s15.2,32.6,33.9,32.6c0.1,0,202.2,0.1,202.2,0.1c1.7,0,3.1-1.4,3.1-3.2c0-1.8-1.4-3.2-3.1-3.2H-10
					v-52.4h2.1V506.2z"/>
				<path id="XMLID_15_" class="st19" d="M-195.5,506.2c-18,0-32.6,11.7-32.6,26.2s14.6,26.2,32.6,26.2c0.1,0,185.5,0,185.5,0v-52.4
					C-10,506.2-195.4,506.2-195.5,506.2z"/>
				<path id="XMLID_14_" class="st20" d="M-146.4,548.8c0-0.9,0.7-1.7,1.7-1.7H-10v3.4h-134.7C-145.7,550.5-146.4,549.8-146.4,548.8
					z"/>
				<path id="XMLID_13_" class="st20" d="M-167.9,538.8c0-1.3,1.1-2.4,2.3-2.4H-10v4.7h-155.5C-166.8,541.1-167.9,540.1-167.9,538.8
					z"/>
			</g>
			<g>
				<g>
					<path id="XMLID_12_" class="st22" d="M-50.9,441c1.7,0,3.2-1.4,3.2-3.1s-1.4-3.1-3.2-3.1c0,0-203.1-0.1-203.2-0.1
						c-18.7,0-33.9,14.5-33.9,32.5s15.2,32.6,33.9,32.6c0.1,0,202.2,0.1,202.2,0.1c1.7,0,3.1-1.4,3.1-3.2c0-1.8-1.4-3.2-3.1-3.2H-53
						v-52.4h2.1V441z"/>
					<path id="XMLID_11_" class="st19" d="M-238.5,441c-18,0-32.6,11.7-32.6,26.2s14.6,26.2,32.6,26.2c0.1,0,185.5,0,185.5,0V441
						C-53,441-238.4,441-238.5,441z"/>
					<path id="XMLID_10_" class="st20" d="M-210.9,473.6c0-1.3,1-2.3,2.3-2.3H-53v4.7h-155.6C-209.9,475.9-210.9,474.9-210.9,473.6z
						"/>
				</g>
				<path id="XMLID_9_" class="st20" d="M-136.2,462.6c-1.4,0-2.6,1.1-2.6,2.6c0,1.4,1.1,2.6,2.6,2.6H-53v-5.1h-83.2V462.6z"/>
			</g>
		</g>
		<g>
			<path id="XMLID_8_" class="st7" d="M-129.7,222.8l-49-6.6c-3.4-0.5-6.6,1.9-7.1,5.4l-3.2,24.2l-20.3,150.8l-3.4,25.1
				c-0.5,3.4,1.9,6.6,5.4,7.1l49,6.6c3.4,0.5,6.6-1.9,7.1-5.4l3.4-25.1l20.3-150.8l3.3-24.2C-123.9,226.4-126.3,223.3-129.7,222.8z"
				/>
			
				<rect id="XMLID_7_" x="-244.5" y="294.3" transform="matrix(-0.1337 0.991 -0.991 -0.1337 131.3848 535.7855)" class="st23" width="152.1" height="62"/>
			<path id="XMLID_6_" class="st19" d="M-136.3,264.3c-0.3,2.4-2.5,4.1-5,3.8l-38-5.1c-2.4-0.3-4.1-2.5-3.8-5l0,0
				c0.3-2.4,2.5-4.1,5-3.8l38,5.1C-137.7,259.7-136,261.9-136.3,264.3L-136.3,264.3z"/>
			<path id="XMLID_5_" class="st19" d="M-138,276.8c-0.3,2.4-2.5,4.1-5,3.8l-38-5.1c-2.4-0.3-4.1-2.5-3.8-5l0,0
				c0.3-2.4,2.5-4.1,5-3.8l38,5.1C-139.4,272.2-137.7,274.4-138,276.8L-138,276.8z"/>
		</g>
		<g>
			<path id="XMLID_4_" class="st24" d="M-56.2,169.7l-61,0.1c-4.3,0-7.7,3.5-7.7,7.8v30.2l0.3,187.7v31.2c0,4.3,3.5,7.7,7.8,7.7
				l61-0.1c4.3,0,7.7-3.5,7.7-7.8v-31.2l-0.3-187.7v-30.2C-48.4,173.2-51.9,169.7-56.2,169.7z"/>
			<polygon id="XMLID_3_" class="st25" points="-124.8,207.7 -124.6,395.3 -48.1,395.2 -48.4,207.6 			"/>
			<path id="XMLID_2_" class="st19" d="M-57.4,221.6c0,3-2.4,5.4-5.4,5.4l-47.3,0.1c-3,0-5.4-2.4-5.4-5.4l0,0c0-3,2.4-5.4,5.4-5.4
				l47.3-0.1C-59.8,216.1-57.4,218.6-57.4,221.6L-57.4,221.6z"/>
			<path id="XMLID_1_" class="st19" d="M-57.4,237.1c0,3-2.4,5.4-5.4,5.4l-47.3,0.1c-3,0-5.4-2.4-5.4-5.4l0,0c0-3,2.4-5.4,5.4-5.4
				l47.3-0.1C-59.8,231.6-57.4,234.1-57.4,237.1L-57.4,237.1z"/>
		</g>
	</g>
</g>
</svg>
