<?xml version="1.0" encoding="utf-8"?>
<!-- Generator: Adobe Illustrator 19.0.0, SVG Export Plug-In . SVG Version: 6.00 Build 0)  -->
<svg version="1.1" id="Layer_1" xmlns="http://www.w3.org/2000/svg" xmlns:xlink="http://www.w3.org/1999/xlink" x="0px" y="0px"
	 viewBox="0 0 702.7 462.3" style="enable-background:new 0 0 702.7 462.3;" xml:space="preserve">
<style type="text/css">
	.st0{fill:#350704;}
	.st1{fill:#6E0F04;}
	.st2{fill:#140302;}
	.st3{fill:#210604;}
	.st4{fill:#7D4E24;}
	.st5{fill:#27B7C5;}
	.st6{fill:#BE1622;}
	.st7{fill:#1B002D;}
	.st8{fill:#F6F6F6;}
	.st9{fill:#006633;}
	.st10{fill:#95C11F;}
	.st11{opacity:0.5;}
	.st12{fill:#A3E4E1;}
	.st13{fill:#E8E6B3;}
	.st14{fill:#DA9F0B;}
	.st15{fill:#FFD773;}
	.st16{fill:#FAC11E;}
	.st17{fill:#1D1D1B;}
	.st18{opacity:0.4;fill:#F5F5F5;}
	.st19{fill:#1F0026;}
	.st20{fill:#EDEDED;}
	.st21{fill:#C6C6C6;}
	.st22{fill:#950E6C;}
	.st23{fill:#B4A629;}
	.st24{fill:#1A0227;}
	.st25{fill:#5E0C56;}
	.st26{fill:#603F19;}
	.st27{fill:#E28A1A;}
</style>
<g id="Book_Shop">
	<g>
		<path id="XMLID_127_" class="st0" d="M694.8,61.1c0-4.3-3.5-7.8-7.8-7.8H255.2c-4.3,0-7.8,3.5-7.8,7.8v105.9
			c0,4.3,3.5,7.8,7.8,7.8h431.7c4.3,0,7.8-3.5,7.8-7.8V61.1z"/>
		<path id="XMLID_126_" class="st1" d="M694.8,455c0,4-3.5,7.2-7.8,7.2H255.2c-4.3,0-7.8-3.2-7.8-7.2V147.8c0-4,3.5-7.2,7.8-7.2
			h431.7c4.3,0,7.8,3.2,7.8,7.2V455z"/>
		<path id="XMLID_125_" class="st2" d="M702.7,57.4c0,4.3-3.5,7.9-7.9,7.9H247.6c-4.4,0-7.9-3.5-7.9-7.9V43.7c0-4.3,3.5-7.9,7.9-7.9
			h447.2c4.4,0,7.9,3.5,7.9,7.9V57.4z"/>
		<g>
			<path id="XMLID_124_" class="st3" d="M267.2,388.3c0,4.3,3.5,7.8,7.8,7.8h95.5c4.3,0,7.8-3.5,7.8-7.8V204.5
				c0-4.3-3.5-7.9-7.8-7.9H275c-4.3,0-7.8,3.5-7.8,7.9V388.3z"/>
			<path id="XMLID_123_" class="st4" d="M372.5,382c0,4.3-3.5,7.8-7.8,7.8h-83.3c-4.3,0-7.8-3.5-7.8-7.8v-15.7
				c0-4.3,3.5-7.8,7.8-7.8h83.3c4.3,0,7.8,3.5,7.8,7.8V382z"/>
			<g>
				<path id="XMLID_122_" class="st5" d="M316.9,205.8c-1.3-0.9-2.9-1.5-4.6-1.5h-31c-4.3,0-7.8,3.5-7.8,7.8v44v10.9
					c0,4.3,3.5,7.8,7.8,7.8h3.1h27.9c4.3,0,7.8-3.5,7.8-7.8v-33.5v-21.4C320.1,209.6,318.9,207.3,316.9,205.8z"/>
				<path id="XMLID_121_" class="st5" d="M370.8,207.4c-1.4-1.9-3.7-3.1-6.2-3.1H356h-16.3h-6.1c-4.3,0-7.8,3.5-7.8,7.8V227v13.7
					v2.1v24.4c0,3.7,2.6,6.8,6,7.6c0.6,0.1,1.2,0.2,1.8,0.2H358h6.6c4.3,0,7.8-3.5,7.8-7.8v-54.9
					C372.5,210.4,371.9,208.7,370.8,207.4z"/>
				<path id="XMLID_120_" class="st5" d="M319.9,288.6c-0.9-3.3-3.9-5.8-7.6-5.8h-31c-4.3,0-7.8,3.5-7.8,7.9v54.9
					c0,4.3,3.5,7.9,7.8,7.9h31c4.3,0,7.8-3.5,7.8-7.9v-26.7v-28.2C320.1,289.9,320,289.3,319.9,288.6z"/>
				<path id="XMLID_119_" class="st5" d="M371.6,287.1c-1.3-2.5-3.9-4.3-7-4.3h-13.4h-17.6c-4.3,0-7.8,3.5-7.8,7.9v21.6v33.3
					c0,4.3,3.5,7.9,7.8,7.9h31c4.3,0,7.8-3.5,7.8-7.9v-40.1v-14.9C372.5,289.4,372.2,288.2,371.6,287.1z"/>
				<g>
					<path id="XMLID_118_" class="st6" d="M288.5,317.2v-2.9c0-2.5-2-4.5-4.5-4.5h-6.8c-1.5,0-2.8,0.7-3.7,1.9v5.5H288.5z"/>
					<path class="st7" d="M273.5,317.2v28.4c0,4.3,3.5,7.9,7.8,7.9h7.1v-36.3H273.5z M285.3,334.4H276v-1.7h9.2V334.4z M276,331.2
						v-10.9h9.2v10.9H276z"/>
					<rect id="XMLID_114_" x="276" y="320.3" class="st8" width="9.2" height="10.9"/>
					<rect id="XMLID_113_" x="276" y="332.7" class="st8" width="9.2" height="1.7"/>
					<path id="XMLID_112_" class="st9" d="M299.8,315.6H293c-2.5,0-4.5,2-4.5,4.5v2.9h15.8v-2.9
						C304.3,317.7,302.3,315.6,299.8,315.6z"/>
					<rect id="XMLID_111_" x="288.5" y="323.1" class="st10" width="15.8" height="30.4"/>
					<path id="XMLID_110_" class="st7" d="M315.8,312.3h-6.9c-2.5,0-4.6,2-4.6,4.5v2.9h15.8v-4.4
						C319.5,313.6,317.8,312.3,315.8,312.3z"/>
					<path id="XMLID_109_" class="st6" d="M304.3,320.2v2.9v30.4h8c4.3,0,7.8-3.5,7.8-7.9v-25.8h-15.8V320.2z"/>
				</g>
				<g>
					<path id="XMLID_108_" class="st6" d="M357.5,317.2v-2.9c0-2.5,2-4.5,4.5-4.5h6.8c1.5,0,2.8,0.7,3.7,1.9v5.5H357.5z"/>
					<path class="st7" d="M357.5,317.2v36.3h7.1c4.3,0,7.8-3.5,7.8-7.9v-28.4H357.5z M360.7,332.7h9.2v1.7h-9.2V332.7z M360.7,331.2
						v-10.9h9.2v10.9H360.7z"/>
					<rect id="XMLID_104_" x="360.7" y="320.3" class="st8" width="9.2" height="10.9"/>
					<rect id="XMLID_103_" x="360.7" y="332.7" class="st8" width="9.2" height="1.7"/>
					<path id="XMLID_102_" class="st9" d="M346.2,315.6h6.8c2.5,0,4.5,2,4.5,4.5v2.9h-15.8v-2.9
						C341.7,317.7,343.7,315.6,346.2,315.6z"/>
					<rect id="XMLID_101_" x="341.7" y="323.1" class="st10" width="15.8" height="30.4"/>
					<path id="XMLID_100_" class="st7" d="M330.1,312.3h6.9c2.5,0,4.6,2,4.6,4.5v2.9h-15.8v-4.4
						C326.5,313.6,328.1,312.3,330.1,312.3z"/>
					<path id="XMLID_99_" class="st6" d="M341.7,320.2v2.9v30.4h-8c-4.3,0-7.8-3.5-7.8-7.9v-25.8h15.8V320.2z"/>
				</g>
				<g class="st11">
					<path id="XMLID_98_" class="st12" d="M316.9,205.8l-43.4,50.4v10.9c0,4.3,3.5,7.8,7.8,7.8h3.1c0.2-0.2,0.4-0.4,0.6-0.7
						l35.1-40.7v-21.4C320.1,209.6,318.9,207.3,316.9,205.8z"/>
					<path id="XMLID_97_" class="st12" d="M339.8,204.3h-6.1c-4.3,0-7.8,3.5-7.8,7.8V227l12-14C340,210.5,340.6,207.2,339.8,204.3z"
						/>
					<path id="XMLID_96_" class="st12" d="M327.7,246l1.3,1.1c2.4,2.1,6.1,1.8,8.2-0.7l33.6-39c-1.4-1.9-3.7-3.1-6.2-3.1H356
						l-28.9,33.4c-0.7,0.9-1.2,1.9-1.4,2.9v2.1C326,244,326.7,245.1,327.7,246z"/>
					<path id="XMLID_95_" class="st12" d="M358,275l7-8.1c3.2-3.8,2.9-9.3-0.7-12.5l-1.9-1.6c-3.6-3.1-9.2-2.7-12.5,1.1l-18.1,20.9
						c0.6,0.1,1.2,0.2,1.8,0.2H358z"/>
					<path id="XMLID_94_" class="st12" d="M319.9,288.6l-21.3,24.6c-3.2,3.8-2.9,9.3,0.7,12.5l1.9,1.6c3.6,3.1,9.2,2.7,12.5-1.1
						l6.4-7.4v-28.2C320.1,289.9,320,289.3,319.9,288.6z"/>
					<path id="XMLID_93_" class="st12" d="M333.7,282.8c-4.3,0-7.8,3.5-7.8,7.9v21.6l25.4-29.5H333.7z"/>
					<path id="XMLID_92_" class="st12" d="M371.6,287.1l-27.7,32.2c-2.1,2.4-1.8,5.9,0.5,7.9l1.2,1c2.3,2,5.9,1.7,7.9-0.7l19-22
						v-14.9C372.5,289.4,372.2,288.2,371.6,287.1z"/>
				</g>
			</g>
		</g>
		<g>
			<path id="XMLID_91_" class="st3" d="M561.5,388.3c0,4.3,3.5,7.8,7.8,7.8h95.5c4.3,0,7.8-3.5,7.8-7.8V204.5c0-4.3-3.5-7.9-7.8-7.9
				h-95.5c-4.3,0-7.8,3.5-7.8,7.9V388.3z"/>
			<path id="XMLID_90_" class="st4" d="M666.6,382c0,4.3-3.5,7.8-7.9,7.8h-83.3c-4.3,0-7.8-3.5-7.8-7.8v-15.7c0-4.3,3.5-7.8,7.8-7.8
				h83.3c4.3,0,7.9,3.5,7.9,7.8V382z"/>
			<g>
				<path id="XMLID_89_" class="st5" d="M608.1,204.5c-0.6-0.1-1.1-0.2-1.7-0.2h-31c-4.3,0-7.8,3.5-7.8,7.8v38.3v16.7
					c0,3.6,2.5,6.7,5.9,7.6c0.6,0.2,1.3,0.3,2,0.3h31c4.3,0,7.8-3.5,7.8-7.8v-38.7v-16.3C614.2,208.4,611.6,205.3,608.1,204.5z"/>
				<path id="XMLID_88_" class="st5" d="M660,204.4c-0.4-0.1-0.9-0.1-1.3-0.1h-23.2h-7.8c-4.3,0-7.8,3.5-7.8,7.8v9.8v45.1
					c0,4.3,3.5,7.8,7.8,7.8h13.9h17.1c4.3,0,7.8-3.5,7.8-7.8v-20.4v-31.9v-2.6C666.6,208.3,663.7,205.1,660,204.4z"/>
				<path id="XMLID_87_" class="st5" d="M606.4,282.8h-31c-4.3,0-7.8,3.5-7.8,7.9v54.9c0,4.3,3.5,7.9,7.8,7.9h31
					c4.3,0,7.8-3.5,7.8-7.9v-11.9V306v-15.4C614.2,286.3,610.7,282.8,606.4,282.8z"/>
				<path id="XMLID_86_" class="st5" d="M659.8,282.9c-0.4,0-0.7-0.1-1.1-0.1h-24h-7c-4.3,0-7.8,3.5-7.8,7.9v8.9v28.5v17.5
					c0,4.3,3.5,7.9,7.8,7.9h31c4.3,0,7.8-3.5,7.8-7.9v-54.9C666.6,286.7,663.6,283.4,659.8,282.9z"/>
				<g>
					<path id="XMLID_85_" class="st6" d="M599.3,317.2v-2.9c0-2.5,2-4.5,4.5-4.5h6.8c1.5,0,2.8,0.7,3.7,1.9v5.5H599.3z"/>
					<path class="st7" d="M599.3,317.2v36.3h7.1c4.3,0,7.8-3.5,7.8-7.9v-28.4H599.3z M602.5,332.7h9.2v1.7h-9.2V332.7z M602.5,331.2
						v-10.9h9.2v10.9H602.5z"/>
					<rect id="XMLID_81_" x="602.5" y="320.3" class="st8" width="9.2" height="10.9"/>
					<rect id="XMLID_80_" x="602.5" y="332.7" class="st8" width="9.2" height="1.7"/>
					<path id="XMLID_79_" class="st9" d="M587.9,315.6h6.8c2.5,0,4.5,2,4.5,4.5v2.9h-15.8v-2.9C583.4,317.7,585.4,315.6,587.9,315.6
						z"/>
					<rect id="XMLID_78_" x="583.4" y="323.1" class="st10" width="15.8" height="30.4"/>
					<path id="XMLID_77_" class="st7" d="M571.9,312.3h6.9c2.5,0,4.6,2,4.6,4.5v2.9h-15.8v-4.4C568.2,313.6,569.9,312.3,571.9,312.3
						z"/>
					<path id="XMLID_76_" class="st6" d="M583.4,320.2v2.9v30.4h-8c-4.3,0-7.8-3.5-7.8-7.9v-25.8h15.8V320.2z"/>
				</g>
				<g>
					<path id="XMLID_75_" class="st6" d="M651.6,317.2v-2.9c0-2.5,2-4.5,4.5-4.5h6.8c1.5,0,2.8,0.7,3.7,1.9v5.5H651.6z"/>
					<path class="st7" d="M651.6,317.2v36.3h7.1c4.3,0,7.8-3.5,7.8-7.9v-28.4H651.6z M654.8,332.7h9.2v1.7h-9.2V332.7z M654.8,331.2
						v-10.9h9.2v10.9H654.8z"/>
					<rect id="XMLID_71_" x="654.8" y="320.3" class="st8" width="9.2" height="10.9"/>
					<rect id="XMLID_70_" x="654.8" y="332.7" class="st8" width="9.2" height="1.7"/>
					<path id="XMLID_69_" class="st9" d="M640.3,315.6h6.8c2.5,0,4.5,2,4.5,4.5v2.9h-15.8v-2.9C635.7,317.7,637.8,315.6,640.3,315.6
						z"/>
					<rect id="XMLID_68_" x="635.7" y="323.1" class="st10" width="15.8" height="30.4"/>
					<path id="XMLID_67_" class="st7" d="M624.2,312.3h6.9c2.5,0,4.6,2,4.6,4.5v2.9h-15.8v-4.4C620.5,313.6,622.2,312.3,624.2,312.3
						z"/>
					<path id="XMLID_66_" class="st6" d="M635.7,320.2v2.9v30.4h-8c-4.3,0-7.8-3.5-7.8-7.9v-25.8h15.8V320.2z"/>
				</g>
				<g class="st11">
					<path id="XMLID_65_" class="st12" d="M608.1,204.5l-40.5,45.9v16.7c0,3.6,2.5,6.7,5.9,7.6l40.8-46.2v-16.3
						C614.2,208.4,611.6,205.3,608.1,204.5z"/>
					<path id="XMLID_64_" class="st12" d="M627.8,204.3c-4.3,0-7.8,3.5-7.8,7.8v9.8l15.6-17.7H627.8z"/>
					<path id="XMLID_63_" class="st12" d="M629.9,245.4l2,1.8c1.9,1.7,4.7,1.5,6.4-0.4l28.2-32v-2.6c0-3.9-2.8-7.1-6.5-7.7
						L629.5,239C627.9,240.9,628.1,243.7,629.9,245.4z"/>
					<path id="XMLID_62_" class="st12" d="M666.6,267.1v-20.4L641.6,275h17.1C663,275,666.6,271.4,666.6,267.1z"/>
					<path id="XMLID_61_" class="st12" d="M602.4,319.5c-2.6,3-2.4,7.6,0.6,10.2l3.3,2.9c2.3,2,5.4,2.3,7.9,1.1V306L602.4,319.5z"/>
					<path id="XMLID_60_" class="st12" d="M634.7,282.8l-14.8,16.8v28.5l39.9-45.2c-0.4,0-0.7-0.1-1.1-0.1H634.7z"/>
				</g>
			</g>
		</g>
		<g>
			<path id="XMLID_59_" class="st3" d="M541.5,454.4c0,4.3-2.9,7.8-6.4,7.8H404.3c-3.5,0-6.4-3.5-6.4-7.8V204.5
				c0-4.3,2.9-7.9,6.4-7.9h130.8c3.5,0,6.4,3.5,6.4,7.9V454.4z"/>
			<path class="st1" d="M517.6,450.5h-96.3c-5.7,0-10.3-4.6-10.3-10.3v-45.4c0-5.7,4.6-10.3,10.3-10.3h96.3
				c5.7,0,10.3,4.6,10.3,10.3v45.4C528,445.8,523.3,450.5,517.6,450.5z M421.3,390c-2.6,0-4.7,2.1-4.7,4.7v45.4
				c0,2.6,2.1,4.7,4.7,4.7h96.3c2.6,0,4.7-2.1,4.7-4.7v-45.4c0-2.6-2.1-4.7-4.7-4.7H421.3z"/>
			<g>
				<path id="XMLID_56_" class="st5" d="M522.2,209.1h-46.7h-24.1h-33c-4.3,0-7.8,3.5-7.8,7.9v18.7c0,4,3.1,7.4,7,7.8
					c0.3,0,0.6,0.1,0.9,0.1h23.2H471h35.5h15.7c4.3,0,7.8-3.5,7.8-7.8V217C530.1,212.6,526.6,209.1,522.2,209.1z"/>
				<path id="XMLID_55_" class="st5" d="M521.4,251.7h-17H463h-29.4h-14.3c-4.3,0-7.8,3.5-7.8,7.8v14.6V304v42.5v22.9
					c0,4.3,3.5,7.8,7.8,7.8h102c4.3,0,7.9-3.5,7.9-7.8v-84.5v-19v-6.3C529.2,255.3,525.7,251.7,521.4,251.7z"/>
				<g>
					<path class="st13" d="M502.4,371.5h-64.9c-3.5,0-6.4-2.7-6.4-6.1v-81c0-14.9,17.4-27,38.9-27c21.4,0,38.9,12.1,38.9,27v81
						C508.8,368.8,506,371.5,502.4,371.5z M470,262.7c-18.5,0-33.6,9.8-33.6,21.8v81c0,0.5,0.5,0.9,1.2,0.9h64.9
						c0.6,0,1.2-0.4,1.2-0.9v-81C503.6,272.4,488.5,262.7,470,262.7z"/>
					<path id="XMLID_52_" class="st13" d="M488.9,298.4c0,10.5-8.5,19-19,19c-10.5,0-19-8.5-19-19c0-10.5,8.5-19,19-19
						C480.4,279.4,488.9,287.9,488.9,298.4z"/>
					<path id="XMLID_51_" class="st13" d="M446.5,285.4c-0.2,0-0.5-0.1-0.7-0.2c-0.8-0.4-1.1-1.4-0.7-2.2
						c0.3-0.5,6.9-13.4,24.7-13.4c20.5,0,25.9,12.7,26.1,13.2c0.3,0.8-0.1,1.8-0.9,2.1c-0.8,0.3-1.8-0.1-2.1-0.9
						c-0.2-0.4-4.8-11.2-23-11.2c-15.7,0-21.5,11.1-21.8,11.6C447.6,285.1,447.1,285.4,446.5,285.4z"/>
				</g>
				<rect id="XMLID_50_" x="447.3" y="326.2" class="st6" width="43.2" height="13.1"/>
				<g class="st11">
					<path id="XMLID_49_" class="st12" d="M441.7,243.6l33.9-34.4h-24.1l-33.9,34.4c0.3,0,0.6,0.1,0.9,0.1H441.7z"/>
					<path id="XMLID_48_" class="st12" d="M419.4,251.7c-4.3,0-7.8,3.5-7.8,7.8v14.6l22.1-22.5H419.4z"/>
					<path id="XMLID_47_" class="st12" d="M500.6,232.9c-5.4-5.3-14-5.2-19.2,0.2L471,243.6h35.5c-0.2-3.2-1.5-6.4-4-8.9
						L500.6,232.9z"/>
					<path id="XMLID_46_" class="st12" d="M504.4,251.7H463L411.5,304v42.5l91.1-92.6C503.3,253.2,503.9,252.5,504.4,251.7z"/>
					<path id="XMLID_45_" class="st12" d="M465.3,330.8c-2.4,2.4-2.3,6.3,0.1,8.6l0.8,0.8c2.4,2.4,6.3,2.3,8.6-0.1l54.4-55.3v-19
						L465.3,330.8z"/>
				</g>
			</g>
			<g>
				<path id="XMLID_44_" class="st14" d="M532,378.9c0,1.3-1.2,2.3-2.6,2.3l0,0c-1.4,0-2.6-1-2.6-2.3v-3.5c0-1.3,1.2-2.3,2.6-2.3
					l0,0c1.4,0,2.6,1,2.6,2.3V378.9z"/>
				<path id="XMLID_43_" class="st14" d="M495.7,378.9c0,1.3-1.2,2.3-2.6,2.3l0,0c-1.4,0-2.6-1-2.6-2.3v-3.5c0-1.3,1.2-2.3,2.6-2.3
					l0,0c1.4,0,2.6,1,2.6,2.3V378.9z"/>
				<path id="XMLID_42_" class="st15" d="M525.5,373.1h-13.1h-15.8c-2.3,0-4.1,1.8-4.1,4.1c0,2.3,1.8,4.1,4.1,4.1h11.2h17.8
					c2.3,0,4.1-1.8,4.1-4.1C529.6,374.9,527.8,373.1,525.5,373.1z"/>
				<path id="XMLID_41_" class="st16" d="M529.6,377.2c0-2.3-1.8-4.1-4.1-4.1h-13.1l-4.6,8.2h17.8
					C527.8,381.3,529.6,379.5,529.6,377.2z"/>
			</g>
		</g>
		<g>
			<path id="XMLID_40_" class="st13" d="M555.7,114.1h-22.2h-16.7H504h-55.6h-66.3c-4.8,0-8.7,3.9-8.7,8.7v42.5
				c0,4.8,3.9,8.7,8.7,8.7h14.6h55.6h103.4c4.8,0,8.7-3.9,8.7-8.7v-42.5C564.4,118,560.5,114.1,555.7,114.1z"/>
			
				<rect id="XMLID_39_" x="382" y="137.9" transform="matrix(0.6745 -0.7382 0.7382 0.6745 20.3589 332.5115)" class="st17" width="10.5" height="10.5"/>
			<g>
				<path class="st17" d="M414.9,135.4v1c0,3-0.9,4.9-3,5.8v0.1c2.5,1,3.4,3.1,3.4,6.2v2.4c0,4.5-2.4,6.9-6.9,6.9h-7.2v-29.1h6.9
					C412.9,128.7,414.9,130.9,414.9,135.4z M405.8,132.9v7.7h1.8c1.7,0,2.7-0.7,2.7-3.1v-1.6c0-2.1-0.7-3-2.3-3H405.8z M405.8,144.8
					v8.9h2.6c1.5,0,2.4-0.7,2.4-2.9v-2.5c0-2.7-0.9-3.5-3-3.5H405.8z"/>
				<path class="st17" d="M417.8,135.7c0-4.7,2.5-7.3,6.9-7.3c4.5,0,6.9,2.7,6.9,7.3v15.1c0,4.7-2.5,7.3-6.9,7.3
					c-4.5,0-6.9-2.7-6.9-7.3V135.7z M422.3,151.2c0,2.1,0.9,2.9,2.4,2.9c1.5,0,2.4-0.8,2.4-2.9v-15.7c0-2.1-0.9-2.9-2.4-2.9
					c-1.5,0-2.4,0.8-2.4,2.9V151.2z"/>
				<path class="st17" d="M434.2,135.7c0-4.7,2.5-7.3,6.9-7.3c4.5,0,6.9,2.7,6.9,7.3v15.1c0,4.7-2.5,7.3-6.9,7.3
					c-4.5,0-6.9-2.7-6.9-7.3V135.7z M438.8,151.2c0,2.1,0.9,2.9,2.4,2.9c1.5,0,2.4-0.8,2.4-2.9v-15.7c0-2.1-0.9-2.9-2.4-2.9
					c-1.5,0-2.4,0.8-2.4,2.9V151.2z"/>
				<path class="st17" d="M457.1,146.3l-1.4,2.7v8.9h-4.6v-29.1h4.6v12.6h0.1l5.9-12.6h4.6l-6.4,13l6.4,16.1h-4.7L457.1,146.3z"/>
				<path class="st17" d="M480.9,128.4c4.5,0,6.7,2.7,6.7,7.3v0.9h-4.3v-1.2c0-2.1-0.8-2.9-2.3-2.9c-1.5,0-2.3,0.8-2.3,2.9
					c0,2.1,0.9,3.7,3.9,6.3c3.8,3.4,5,5.8,5,9.1c0,4.7-2.3,7.3-6.8,7.3c-4.5,0-6.8-2.7-6.8-7.3v-1.8h4.3v2.1c0,2.1,0.9,2.8,2.4,2.8
					s2.4-0.7,2.4-2.8c0-2.1-0.9-3.7-3.9-6.3c-3.8-3.4-5-5.8-5-9.1C474.2,131.1,476.5,128.4,480.9,128.4z"/>
				<path class="st17" d="M494.9,157.9h-4.6v-29.1h4.6v12.5h5.2v-12.5h4.7v29.1h-4.7v-12.5h-5.2V157.9z"/>
				<path class="st17" d="M507.7,135.7c0-4.7,2.5-7.3,6.9-7.3c4.5,0,6.9,2.7,6.9,7.3v15.1c0,4.7-2.5,7.3-6.9,7.3
					c-4.5,0-6.9-2.7-6.9-7.3V135.7z M512.3,151.2c0,2.1,0.9,2.9,2.4,2.9c1.5,0,2.4-0.8,2.4-2.9v-15.7c0-2.1-0.9-2.9-2.4-2.9
					c-1.5,0-2.4,0.8-2.4,2.9V151.2z"/>
				<path class="st17" d="M538.1,135.9v3.8c0,4.7-2.2,7.2-6.8,7.2h-2.2v10.9h-4.6v-29.1h6.7C535.9,128.7,538.1,131.3,538.1,135.9z
					 M529.1,132.9v9.9h2.2c1.5,0,2.2-0.7,2.2-2.7v-4.4c0-2.1-0.8-2.7-2.2-2.7H529.1z"/>
			</g>
			
				<rect id="XMLID_24_" x="546.4" y="137.9" transform="matrix(0.6745 -0.7382 0.7382 0.6745 73.841 453.8244)" class="st17" width="10.5" height="10.5"/>
			<polygon id="XMLID_23_" class="st18" points="448.5,114.1 396.8,174.1 452.3,174.1 504,114.1 			"/>
			<path id="XMLID_22_" class="st18" d="M483.4,155.8l6.6,5.7c0.8,0.7,3.1-0.6,5.1-2.9l38.3-44.5h-16.7l-31.2,36.2
				C483.6,152.7,482.6,155.1,483.4,155.8z"/>
		</g>
	</g>
	<g id="Book_12_">
		<g id="Books_24_">
			<g>
				<path id="XMLID_21_" class="st19" d="M261.9,401.7c1.7,0,3.1-1.4,3.1-3.1c0-1.7-1.4-3.1-3.1-3.1c0,0-203.1-0.1-203.2-0.1
					c-18.7,0-33.9,14.6-33.9,32.6c0,18,15.2,32.6,33.9,32.6c0.1,0,202.2,0.1,202.2,0.1c1.7,0,3.2-1.4,3.2-3.2c0-1.8-1.4-3.2-3.2-3.2
					h-1.1v-52.4H261.9z"/>
				<path id="XMLID_20_" class="st20" d="M74.3,401.7c-18,0-32.6,11.7-32.6,26.2c0,14.5,14.6,26.2,32.6,26.2c0.1,0,185.5,0,185.5,0
					v-52.4C259.8,401.7,74.4,401.7,74.3,401.7z"/>
				<path id="XMLID_19_" class="st21" d="M123.4,410.5c0,0.9,0.7,1.7,1.7,1.7h134.7v-3.4H125C124.1,408.9,123.4,409.6,123.4,410.5z"
					/>
				<path id="XMLID_18_" class="st21" d="M101.9,420.6c0,1.3,1,2.3,2.3,2.3h155.6v-4.7H104.2C102.9,418.3,101.9,419.3,101.9,420.6z"
					/>
				<path id="XMLID_17_" class="st21" d="M176.6,427.9c-1.4,0-2.6,1.1-2.6,2.6c0,1.4,1.1,2.6,2.6,2.6h83.2v-5.1H176.6z"/>
			</g>
			<g>
				<path id="XMLID_16_" class="st22" d="M280.1,336.5c1.7,0,3.1-1.4,3.1-3.1c0-1.7-1.4-3.1-3.1-3.1c0,0-203.1-0.1-203.2-0.1
					c-18.7,0-33.9,14.6-33.9,32.6c0,18,15.2,32.6,33.9,32.6c0.1,0,202.2,0.1,202.2,0.1c1.7,0,3.1-1.4,3.1-3.2c0-1.8-1.4-3.2-3.1-3.2
					H278v-52.4H280.1z"/>
				<path id="XMLID_15_" class="st20" d="M92.5,336.5c-18,0-32.6,11.7-32.6,26.2c0,14.5,14.6,26.2,32.6,26.2c0.1,0,185.5,0,185.5,0
					v-52.4C278,336.5,92.6,336.5,92.5,336.5z"/>
				<path id="XMLID_14_" class="st21" d="M141.6,379.1c0-0.9,0.7-1.7,1.7-1.7H278v3.4H143.3C142.3,380.8,141.6,380.1,141.6,379.1z"
					/>
				<path id="XMLID_13_" class="st21" d="M120.1,369.1c0-1.3,1.1-2.4,2.3-2.4H278v4.7H122.5C121.2,371.4,120.1,370.4,120.1,369.1z"
					/>
			</g>
			<g>
				<g>
					<path id="XMLID_12_" class="st23" d="M237.1,271.3c1.7,0,3.2-1.4,3.2-3.1c0-1.7-1.4-3.1-3.2-3.1c0,0-203.1-0.1-203.2-0.1
						C15.2,265,0,279.5,0,297.5c0,18,15.2,32.6,33.9,32.6c0.1,0,202.2,0.1,202.2,0.1c1.7,0,3.1-1.4,3.1-3.2c0-1.8-1.4-3.2-3.1-3.2
						H235v-52.4H237.1z"/>
					<path id="XMLID_11_" class="st20" d="M49.5,271.3c-18,0-32.6,11.7-32.6,26.2c0,14.5,14.6,26.2,32.6,26.2c0.1,0,185.5,0,185.5,0
						v-52.4C235,271.3,49.6,271.3,49.5,271.3z"/>
					<path id="XMLID_10_" class="st21" d="M77.1,303.9c0-1.3,1-2.3,2.3-2.3H235v4.7H79.4C78.1,306.2,77.1,305.2,77.1,303.9z"/>
				</g>
				<path id="XMLID_9_" class="st21" d="M151.8,292.9c-1.4,0-2.6,1.1-2.6,2.6c0,1.4,1.1,2.6,2.6,2.6H235v-5.1H151.8z"/>
			</g>
		</g>
		<g>
			<path id="XMLID_8_" class="st24" d="M158.3,53.1l-49-6.6c-3.4-0.5-6.6,1.9-7.1,5.4L99,76.1L78.7,226.9l-3.4,25.1
				c-0.5,3.4,1.9,6.6,5.4,7.1l49,6.6c3.4,0.5,6.6-1.9,7.1-5.4l3.4-25.1l20.3-150.8l3.3-24.2C164.1,56.7,161.7,53.6,158.3,53.1z"/>
			
				<rect id="XMLID_7_" x="43.5" y="124.6" transform="matrix(0.1337 -0.991 0.991 0.1337 -50.6683 253.2878)" class="st25" width="152.1" height="62"/>
			<path id="XMLID_6_" class="st20" d="M151.7,94.6c-0.3,2.4-2.5,4.1-5,3.8l-38-5.1c-2.4-0.3-4.1-2.5-3.8-5l0,0
				c0.3-2.4,2.5-4.1,5-3.8l38,5.1C150.3,90,152,92.2,151.7,94.6L151.7,94.6z"/>
			<path id="XMLID_5_" class="st20" d="M150,107.1c-0.3,2.4-2.5,4.1-5,3.8l-38-5.1c-2.4-0.3-4.1-2.5-3.8-5l0,0
				c0.3-2.4,2.5-4.1,5-3.8l38,5.1C148.6,102.5,150.3,104.7,150,107.1L150,107.1z"/>
		</g>
		<g>
			<path id="XMLID_4_" class="st26" d="M231.8,0l-61,0.1c-4.3,0-7.7,3.5-7.7,7.8l0,30.2l0.3,187.7l0,31.2c0,4.3,3.5,7.7,7.8,7.7
				l61-0.1c4.3,0,7.7-3.5,7.7-7.8l0-31.2l-0.3-187.7l0-30.2C239.6,3.5,236.1,0,231.8,0z"/>
			<polygon id="XMLID_3_" class="st27" points="163.2,38 163.4,225.6 239.9,225.5 239.6,37.9 			"/>
			<path id="XMLID_2_" class="st20" d="M230.6,51.9c0,3-2.4,5.4-5.4,5.4l-47.3,0.1c-3,0-5.4-2.4-5.4-5.4l0,0c0-3,2.4-5.4,5.4-5.4
				l47.3-0.1C228.2,46.4,230.6,48.9,230.6,51.9L230.6,51.9z"/>
			<path id="XMLID_1_" class="st20" d="M230.6,67.4c0,3-2.4,5.4-5.4,5.4l-47.3,0.1c-3,0-5.4-2.4-5.4-5.4l0,0c0-3,2.4-5.4,5.4-5.4
				l47.3-0.1C228.2,61.9,230.6,64.4,230.6,67.4L230.6,67.4z"/>
		</g>
	</g>
</g>
</svg>
