<?xml version="1.0" encoding="utf-8"?>
<!-- Generator: Adobe Illustrator 19.0.0, SVG Export Plug-In . SVG Version: 6.00 Build 0)  -->
<svg version="1.1" id="Layer_1" xmlns="http://www.w3.org/2000/svg" xmlns:xlink="http://www.w3.org/1999/xlink" x="0px" y="0px"
	 viewBox="-358 153.6 562.4 494.4" style="enable-background:new -358 153.6 562.4 494.4;" xml:space="preserve">
<style type="text/css">
	.st0{fill:#4A4A4A;}
	.st1{fill:#373737;}
	.st2{fill:#DADADA;}
	.st3{fill:#9D9D9D;}
	.st4{fill:#B7B7B7;}
	.st5{fill:#1E1E1E;}
	.st6{fill:#2F2F2F;}
	.st7{fill:#070707;}
	.st8{fill:#8D8D8D;}
	.st9{opacity:0.5;fill:#D0D0D0;enable-background:new    ;}
	.st10{fill:#A1A1A1;}
	.st11{fill:#C1C1C1;}
	.st12{fill:#C6C6C6;}
	.st13{fill:#888888;}
	.st14{fill:#D2D2D2;}
	.st15{fill:#8A8A8A;}
	.st16{fill:#0D0D0D;}
	.st17{opacity:0.4;fill:#F5F5F5;enable-background:new    ;}
	.st18{fill:#6D6D6D;}
</style>
<g id="Cup_2_">
	<g id="XMLID_199_">
		<path id="XMLID_203_" class="st0" d="M-65.1,230.9h-77.7v12.3c-2.9-1.7-6.3-3-10.1-3l0,0c-4.4,0-10.8,1.7-16.6,9.9
			c-7,9.9-8.2,22.4-3.2,34.3c5.3,12.6,16.5,22.2,29.9,25.6v3.9c0,13.6,10.6,24.7,24,25.5c0.5,0,1,0,1.5,0h63.8
			c14.1,0,25.5-11.4,25.5-25.5v-83H-65.1z M-142.9,297.3c-8.3-3.1-15.2-9.4-18.6-17.6c-3.3-7.9-2.6-16.1,1.9-22.5
			c2.2-3.2,4.5-4.8,6.6-4.8l0,0c3.8,0,8.5,4.7,10.1,7V297.3z"/>
		<path id="XMLID_200_" class="st1" d="M-142.9,230.9v12.3c-2.9-1.7-6.3-3-10.1-3l0,0c-4.4,0-10.8,1.7-16.6,9.9
			c-7,9.9-8.2,22.4-3.2,34.3c5.3,12.6,16.5,22.2,29.9,25.6v3.9c0,13.6,10.6,24.7,24,25.5l53.7-108.5H-142.9z M-142.9,297.3
			c-8.3-3.1-15.2-9.4-18.6-17.6c-3.3-7.9-2.6-16.1,1.9-22.5c2.2-3.2,4.5-4.8,6.6-4.8l0,0c3.8,0,8.5,4.7,10.1,7V297.3z"/>
	</g>
	<path id="XMLID_76_" class="st2" d="M-62.4,153.6h-6c-5.3,0-9.6,4.3-9.6,9.6v21.1c-5.8,0.1-10.4,4.9-10.4,10.7v17.3
		c0,5.9,4.8,10.7,10.7,10.7h4.5c0.9,0,4,0,4.8,0h6c5.3,0,9.6-4.3,9.6-9.6v-50.2C-52.9,157.9-57.2,153.6-62.4,153.6z"/>
	<path id="XMLID_75_" class="st2" d="M-95.7,189.6c0,6.2-5.1,11.3-11.3,11.3h-0.9c-6.2,0-11.3-5.1-11.3-11.3v-15.1
		c0-6.3,5.1-11.3,11.3-11.3h0.9c6.2,0,11.3,5.1,11.3,11.3V189.6z"/>
</g>
<g id="Building_2_">
	<g id="XMLID_186_">
		<rect id="XMLID_69_" x="-255.7" y="351.8" class="st3" width="440.8" height="66"/>
		<path id="XMLID_68_" class="st4" d="M185.1,638.8c0,5.1-4.1,9.2-9.2,9.2h-422.4c-5.1,0-9.2-4.1-9.2-9.2v-218
			c0-5.1,4.1-9.2,9.2-9.2h422.4c5.1,0,9.2,4.1,9.2,9.2V638.8z"/>
		<path id="XMLID_67_" class="st5" d="M204.3,348.7c0-5.1-4.1-9.2-9.2-9.2h-458.6c-5.1,0-9.2,4.1-9.2,9.2v5c0,5.1,4.1,9.2,9.2,9.2
			h458.6c5.1,0,9.2-4.1,9.2-9.2V348.7L204.3,348.7z"/>
	</g>
	<g id="XMLID_175_">
		<path id="XMLID_66_" class="st6" d="M151.4,449.8H47.8c-4.5,0-8.2,3.7-8.2,8.4v181.4c0,4.6,3.7,8.4,8.2,8.4h103.5
			c4.5,0,8.2-3.7,8.2-8.4V458.2C159.6,453.6,155.9,449.8,151.4,449.8z"/>
		<path id="XMLID_65_" class="st5" d="M47.8,449.8c-4.5,0-8.2,3.7-8.2,8.4v181.4c0,4.6,3.7,8.4,8.2,8.4h8l70.9-198.1L47.8,449.8
			L47.8,449.8z"/>
		<path id="XMLID_181_" class="st7" d="M139.5,636.5H60.8c-6.3,0-11.4-5.1-11.4-11.4v-40.6c0-6.3,5.1-11.4,11.4-11.4h78.7
			c6.3,0,11.4,5.1,11.4,11.4v40.6C151,631.4,145.8,636.5,139.5,636.5z M60.8,580.6c-2.1,0-3.8,1.7-3.8,3.8V625
			c0,2.1,1.7,3.8,3.8,3.8h78.7c2.1,0,3.8-1.7,3.8-3.8v-40.6c0-2.1-1.7-3.8-3.8-3.8H60.8z"/>
		<path id="XMLID_62_" class="st8" d="M142.8,460.7H135h-19.1h-25H57.2c-4.4,0-7.9,3.5-7.9,7.9v39.5v28.5v21.2
			c0,4.4,3.5,7.9,7.9,7.9h85.6c4.4,0,7.9-3.5,7.9-7.9v-74.7v-14.5C150.7,464.3,147.2,460.7,142.8,460.7z"/>
		<polygon id="XMLID_61_" class="st9" points="90.9,460.7 49.3,508.1 49.3,536.6 115.9,460.7 		"/>
		<path id="XMLID_60_" class="st9" d="M142.8,460.7H135l-53.5,60.9c-4.7,5.3-4.2,13.5,1.2,18.2l0.6,0.6c5.3,4.7,13.5,4.2,18.2-1.2
			l49.2-56.1v-14.5C150.7,464.3,147.2,460.7,142.8,460.7z"/>
		<path id="XMLID_59_" class="st10" d="M116.1,567.1c0,1.5-1.4,2.7-3,2.7l0,0c-1.7,0-3-1.2-3-2.7V563c0-1.5,1.4-2.7,3-2.7l0,0
			c1.7,0,3,1.2,3,2.7V567.1z"/>
		<path id="XMLID_58_" class="st11" d="M155.8,565c0,2.6-2.2,4.8-4.8,4.8h-33.9c-2.6,0-4.8-2.2-4.8-4.8l0,0c0-2.6,2.2-4.8,4.8-4.8
			H151C153.7,560.2,155.8,562.4,155.8,565L155.8,565z"/>
	</g>
	<g id="XMLID_150_">
		<path id="XMLID_57_" class="st8" d="M-127.2,449.8h-16.7h-17.6h-57.8c-5.1,0-9.2,4.1-9.2,9.2v58.6v42.1v32.1
			c0,3.7,2.2,6.9,5.4,8.4c1.2,0.5,2.5,0.8,3.8,0.8h8.1h72.5h11.5c0.1,0,0.3,0,0.4,0c4.9-0.2,8.8-4.2,8.8-9.2V486.7v-27.6V459
			C-118,454-122.1,449.8-127.2,449.8z"/>
		<path id="XMLID_56_" class="st9" d="M-139.9,453.8l-4-4h-17.6l-67,67.7v42.1l88.7-89.7C-135.3,465.5-135.4,458.3-139.9,453.8z"/>
		<path id="XMLID_55_" class="st9" d="M-179.6,521.4c-2.9,3-2.9,7.7,0.1,10.6l3.1,3.1c3,2.9,7.7,2.9,10.6-0.1l47.8-48.3v-27.6
			L-179.6,521.4z"/>
		<g id="XMLID_161_">
			<polygon id="XMLID_54_" class="st1" points="-210.6,485.7 -236.5,485.7 -226.1,449.8 -202.2,449.8 			"/>
			<polygon id="XMLID_53_" class="st12" points="-184.7,485.7 -210.6,485.7 -202.2,449.8 -181.4,449.8 			"/>
			<polygon id="XMLID_52_" class="st1" points="-158.8,485.7 -184.7,485.7 -181.4,449.8 -161.5,449.8 			"/>
			<polygon id="XMLID_51_" class="st12" points="-132.8,485.7 -158.8,485.7 -161.5,449.8 -140.8,449.8 			"/>
			<polygon id="XMLID_50_" class="st1" points="-106.9,485.7 -132.8,485.7 -140.8,449.8 -119.9,449.8 			"/>
			<path id="XMLID_49_" class="st0" d="M-223.5,504.4c7.2,0,13-8.6,13-19.2h-25.9C-236.5,495.9-230.7,504.4-223.5,504.4z"/>
			<path id="XMLID_48_" class="st2" d="M-197.6,504.4c7.2,0,13-8.6,13-19.2h-25.9C-210.6,495.9-204.8,504.4-197.6,504.4z"/>
			<path id="XMLID_47_" class="st0" d="M-171.7,504.4c7.2,0,13-8.6,13-19.2h-25.9C-184.7,495.9-178.9,504.4-171.7,504.4z"/>
			<path id="XMLID_46_" class="st2" d="M-145.8,504.4c7.2,0,13-8.6,13-19.2h-25.9C-158.8,495.9-152.9,504.4-145.8,504.4z"/>
			<path id="XMLID_45_" class="st0" d="M-119.9,504.4c7.2,0,13-8.6,13-19.2h-25.9C-132.8,495.9-127,504.4-119.9,504.4z"/>
		</g>
		<path id="XMLID_44_" class="st6" d="M-146.1,584.6c0,2.4-1.9,4.3-4.3,4.3h-48.3c-2.4,0-4.3-1.9-4.3-4.3l0,0c0-2.4,1.9-4.3,4.3-4.3
			h48.3C-148,580.3-146.1,582.2-146.1,584.6L-146.1,584.6z"/>
		<path id="XMLID_43_" class="st1" d="M-217.2,562c-3.3,0-5.9,2.7-5.9,5.9v32.2c1.2,0.5,2.5,0.8,3.8,0.8h8.1v-33
			C-211.2,564.7-213.9,562-217.2,562z"/>
		<path id="XMLID_42_" class="st1" d="M-132.8,562c-3.3,0-5.9,2.7-5.9,5.9v33h11.5c0.1,0,0.3,0,0.4,0v-33
			C-126.8,564.7-129.5,562-132.8,562z"/>
		<rect id="XMLID_41_" x="-198.4" y="588.9" class="st13" width="46.8" height="12.1"/>
		<g id="XMLID_151_">
			<path id="XMLID_40_" class="st14" d="M-170.1,564c0-2,0-0.1-3.7-0.1c-4.1,0-3.7-1.9-3.7,0.1c0,0,2.2,2.3,1.4,4.8
				c-2.5,7-1.4,11.5-1.4,11.5h7.4c0,0,1-5.3-1.4-11.4C-172.5,566.4-170.1,564-170.1,564z"/>
			<path id="XMLID_39_" class="st6" d="M-174.2,563.9c0,0-0.1-4.9-2.5-7.3l0.5-0.5c2.6,2.6,2.7,7.5,2.7,7.7L-174.2,563.9z"/>
			<g id="XMLID_152_">
				<path id="XMLID_38_" class="st15" d="M-175.8,555c0.5,0.6,0.4,1.4-0.2,1.9l0,0c-0.6,0.5-1.4,0.4-1.9-0.2l-2-2.4
					c-0.5-0.6-0.4-1.4,0.2-1.9l0,0c0.6-0.5,1.4-0.4,1.9,0.2L-175.8,555z"/>
				<path id="XMLID_37_" class="st0" d="M-175.4,554.8l-1.2-1.3c-0.6-0.7-1.5-1.8-2.3-1.8c0,0,1.2,0.7,1.8,3.3
					c0,0.2,0.1,0.4,0.1,0.7c-0.2-0.1-0.4-0.2-0.6-0.3c-2.6-1.2-3-2.4-3-2.4c-0.2,0.7,0.8,1.8,1.4,2.6l1,1.4c0.5,0.7,1.7,0.9,2.5,0.4
					l0.1-0.1l0.1-0.1C-174.8,556.5-174.7,555.5-175.4,554.8z"/>
			</g>
		</g>
	</g>
	<g id="XMLID_124_">
		<path id="XMLID_36_" class="st8" d="M10.9,449.8h-92.1c-5.1,0-9.2,4.1-9.2,9.2v94.4v22.7v15.7c0,5.1,4.1,9.2,9.2,9.2h92.1
			c5.1,0,9.2-4.1,9.2-9.2v-84.9v-29.7V459C20.1,454,16,449.8,10.9,449.8z"/>
		<g id="XMLID_138_">
			<path id="XMLID_35_" class="st6" d="M-8,584.6c0,2.4-1.9,4.3-4.3,4.3h-48.3c-2.4,0-4.3-1.9-4.3-4.3l0,0c0-2.4,1.9-4.3,4.3-4.3
				h48.3C-9.9,580.3-8,582.2-8,584.6L-8,584.6z"/>
			<path id="XMLID_34_" class="st1" d="M-79.1,562c-3.3,0-5.9,2.7-5.9,5.9v32.2c1.2,0.5,2.5,0.8,3.8,0.8h8.1v-33
				C-73.1,564.7-75.8,562-79.1,562z"/>
			<path id="XMLID_33_" class="st1" d="M5.3,562c-3.3,0-5.9,2.7-5.9,5.9v33h11.5c0.1,0,0.3,0,0.4,0v-33C11.3,564.7,8.6,562,5.3,562z
				"/>
			<rect id="XMLID_32_" x="-60.3" y="588.9" class="st13" width="46.8" height="12.1"/>
			<g id="XMLID_139_">
				<path id="XMLID_31_" class="st14" d="M-32,564c0-2,0-0.1-3.7-0.1c-4.1,0-3.7-1.9-3.7,0.1c0,0,2.2,2.3,1.4,4.8
					c-2.5,7-1.4,11.5-1.4,11.5h7.4c0,0,1-5.3-1.4-11.4C-34.3,566.4-32,564-32,564z"/>
				<path id="XMLID_30_" class="st6" d="M-36.1,563.9c0,0-0.1-4.9-2.5-7.3l0.4-0.5c2.6,2.6,2.7,7.5,2.7,7.7L-36.1,563.9z"/>
				<g id="XMLID_140_">
					<path id="XMLID_29_" class="st15" d="M-37.7,555c0.5,0.6,0.4,1.4-0.2,1.9l0,0c-0.6,0.5-1.4,0.4-1.9-0.2l-2-2.4
						c-0.5-0.6-0.4-1.4,0.2-1.9l0,0c0.6-0.5,1.4-0.4,1.9,0.2L-37.7,555z"/>
					<path id="XMLID_28_" class="st0" d="M-37.3,554.8l-1.2-1.3c-0.6-0.7-1.5-1.8-2.3-1.8c0,0,1.2,0.7,1.8,3.3
						c0,0.2,0.1,0.4,0.1,0.7c-0.2-0.1-0.4-0.2-0.6-0.3c-2.6-1.2-3-2.4-3-2.4c-0.1,0.7,0.8,1.8,1.4,2.6l1,1.4
						c0.5,0.7,1.7,0.9,2.5,0.4l0.1-0.1l0.1-0.1C-36.7,556.5-36.6,555.5-37.3,554.8z"/>
				</g>
			</g>
		</g>
		<path id="XMLID_27_" class="st9" d="M16.9,479.3l-76.1,76.9c-3.3,3.3-3.2,8.6,0.1,11.9l3.5,3.5c3.3,3.3,8.6,3.2,11.9-0.1
			l63.9-64.6v-29.7C18.9,477.7,17.8,478.4,16.9,479.3z"/>
		<path id="XMLID_26_" class="st9" d="M-37.2,513.6l-2.6-2.5c-2.4-2.4-6.3-2.4-8.7,0l-41.9,42.3v22.7l53.2-53.8
			C-34.8,519.9-34.8,516-37.2,513.6z"/>
		<g id="XMLID_125_">
			<polygon id="XMLID_25_" class="st1" points="-73.2,485.7 -99.2,485.7 -88.7,449.8 -64.8,449.8 			"/>
			<polygon id="XMLID_24_" class="st12" points="-47.3,485.7 -73.2,485.7 -64.8,449.8 -44.1,449.8 			"/>
			<polygon id="XMLID_23_" class="st1" points="-21.4,485.7 -47.3,485.7 -44.1,449.8 -24.2,449.8 			"/>
			<polygon id="XMLID_22_" class="st12" points="4.5,485.7 -21.4,485.7 -24.2,449.8 -3.4,449.8 			"/>
			<polygon id="XMLID_21_" class="st1" points="30.4,485.7 4.5,485.7 -3.4,449.8 17.5,449.8 			"/>
			<path id="XMLID_20_" class="st0" d="M-86.2,504.4c7.2,0,13-8.6,13-19.2h-25.9C-99.2,495.9-93.3,504.4-86.2,504.4z"/>
			<path id="XMLID_19_" class="st2" d="M-60.3,504.4c7.2,0,13-8.6,13-19.2h-25.9C-73.2,495.9-67.4,504.4-60.3,504.4z"/>
			<path id="XMLID_18_" class="st0" d="M-34.4,504.4c7.2,0,13-8.6,13-19.2h-25.9C-47.3,495.9-41.5,504.4-34.4,504.4z"/>
			<path id="XMLID_17_" class="st2" d="M-8.4,504.4c7.2,0,13-8.6,13-19.2h-25.9C-21.4,495.9-15.6,504.4-8.4,504.4z"/>
			<path id="XMLID_16_" class="st0" d="M17.5,504.4c7.2,0,13-8.6,13-19.2H4.6C4.5,495.9,10.3,504.4,17.5,504.4z"/>
		</g>
	</g>
	<g id="XMLID_103_">
		<path id="XMLID_15_" class="st16" d="M172.8,330.3c0,5.1-4.1,9.2-9.2,9.2h-213c-5.1,0-9.2-4.1-9.2-9.2v-66.8
			c0-5.1,4.1-9.2,9.2-9.2h213.1c5.1,0,9.2,4.1,9.2,9.2L172.8,330.3L172.8,330.3z"/>
		<g id="XMLID_113_">
			<path id="XMLID_121_" class="st14" d="M17.8,267.5h2c0.5,0,0.8,0.2,1,0.5s0.4,1.2,0.5,2.7l0.9,12.1c0,0.2,0,0.5,0,0.7
				c0,0.9-0.1,1.5-0.5,1.8c-0.3,0.3-0.9,0.5-1.8,0.5c-1.1,0-1.9-0.3-2.3-0.9c-0.4-0.6-0.8-1.9-1.2-4.1c-1-5.5-2.5-8.2-4.4-8.2
				c-1.6,0-2.4,2-2.4,5.9v42.2c0,2.8,0.8,4.2,2.5,4.2c2.1,0,3.3-2.3,3.5-7c0.1-1.4,0.3-2.3,0.8-2.8c0.4-0.5,1.4-0.8,2.8-0.8
				c1.1,0,1.8,0.2,2.2,0.6c0.4,0.4,0.6,1.1,0.6,2.3c0,3.6-1.1,6.6-3.2,8.9c-2.2,2.4-4.8,3.5-8,3.5c-3.1,0-5.8-1-8.2-3
				s-4.4-5.4-6.1-10.2c-1.7-4.8-2.6-11-2.6-18.6c0-7.1,0.7-12.8,2.2-17.1c1.4-4.3,3.3-7.6,5.5-9.9s4.8-3.5,7.8-3.5
				c1.8,0,3.4,0.5,4.7,1.5c0.5,0.4,0.9,0.5,1.1,0.5c0.3,0,0.7-0.4,1.3-1.1C16.9,267.8,17.4,267.5,17.8,267.5z"/>
			<path id="XMLID_118_" class="st14" d="M42,316.1h-9.4l-0.4,3.5c0,0.1,0,0.2-0.1,0.3c-0.2,0.7-0.3,1.4-0.3,2
				c0,0.9,0.6,1.7,1.8,2.3c0.6,0.3,1,0.7,1.2,1c0.1,0.4,0.2,0.9,0.2,1.7c0,1-0.1,1.6-0.2,1.9c-0.1,0.2-0.4,0.3-0.8,0.3h-9.9
				c-0.6,0-0.8-0.6-0.8-1.7c0-1.4,0.4-2.5,1.3-3.3c0.8-0.8,1.3-1.6,1.4-2.5l7-44.2c0.1-0.7,0.2-1.3,0.2-1.8c0-0.8-0.5-1.5-1.6-2.1
				c-0.5-0.3-0.8-1-0.8-2c0-1.4,0.1-2.2,0.2-2.6c0.2-0.3,0.6-0.5,1.2-0.5h14.3c0.9,0,1.5,0.4,1.8,1.2c0.4,0.8,0.7,2.6,1.1,5.4
				c0.1,1.1,0.3,2.1,0.4,3.2l6.2,41.3c0.3,2,1,3.5,2.2,4.6c0.3,0.3,0.5,0.5,0.6,0.7s0.1,0.7,0.1,1.5c0,1.3-0.1,2.1-0.3,2.3
				c-0.2,0.3-0.6,0.4-1.1,0.4H40.8c-0.5,0-0.7-0.5-0.7-1.4c0-1.2,0.1-1.9,0.2-2.2c0.1-0.3,0.5-0.7,1.1-1.1c0.9-0.6,1.3-1.3,1.3-2.1
				C42.8,321.4,42.5,319.3,42,316.1z M37.5,282.5l-4.2,29.3h8.4L37.5,282.5z"/>
			<path id="XMLID_116_" class="st14" d="M77.7,298.6v22.8c0,1.2,0.7,2,2.2,2.4c0.7,0.2,1.2,0.4,1.4,0.7c0.2,0.3,0.3,0.8,0.3,1.7
				c0,1.4-0.1,2.2-0.3,2.5c-0.2,0.3-0.7,0.4-1.6,0.4H62.5c-1,0-1.6-0.2-1.9-0.6s-0.4-1.2-0.4-2.4c0-0.8,0.1-1.3,0.2-1.5
				s0.5-0.5,1.2-0.8c0.9-0.4,1.5-0.7,1.7-1s0.3-0.7,0.3-1.3v-45.4c0-0.7-0.1-1.2-0.4-1.5c-0.3-0.4-0.8-0.7-1.7-1.1
				c-0.6-0.3-0.9-0.9-0.9-1.8c0-0.1,0-0.7,0-1.7c0.1-1.1,0.7-1.6,1.8-1.6h23.4c0.7,0,1.2,0.1,1.5,0.3c0.3,0.2,0.5,0.8,0.6,1.7
				c0,0.2,0.1,0.4,0.1,0.6l1.7,8.3c0.1,0.5,0.1,1,0.1,1.4c0,0.8-0.6,1.2-1.8,1.2c-1.6,0-2.6-0.3-3-0.9s-1-2.1-1.9-4.5
				c-0.5-1.5-1-2.4-1.6-2.9c-0.5-0.5-1.3-0.7-2.4-0.7c-0.3,0-0.9,0-1.7,0.1v21.4h1.9c1,0,1.7-0.2,2.1-0.7s0.7-1.3,0.8-2.4
				c0.2-1.3,0.4-2.1,0.6-2.5c0.2-0.4,1-0.5,2.5-0.5c1,0,1.6,0.1,1.8,0.3c0.2,0.2,0.3,0.6,0.3,1.2v13.6c0,0.6-0.1,1-0.3,1.1
				c-0.2,0.2-0.8,0.3-1.9,0.3c-1.3,0-2.1-0.2-2.5-0.6c-0.3-0.4-0.6-1.5-0.8-3.1c-0.2-1.7-1.1-2.5-2.7-2.5L77.7,298.6L77.7,298.6z"/>
			<path id="XMLID_114_" class="st14" d="M109.3,273.1v21.4h2.6c0.7,0,1.2-0.2,1.5-0.5s0.6-1,0.7-1.9c0.3-1.8,0.5-2.8,0.7-3.2
				c0.2-0.3,0.5-0.5,0.9-0.5c2,0,3.1,0.1,3.4,0.2c0.3,0.2,0.4,0.8,0.4,1.9V303c0,0.8-0.1,1.3-0.4,1.5s-1,0.4-2.3,0.4
				c-0.8,0-1.4-0.2-1.7-0.5s-0.6-1.2-0.8-2.6c-0.3-1.3-0.5-2.1-0.8-2.4s-0.7-0.4-1.2-0.4h-2.9v25.9h2c1.2,0,2.1-0.3,2.5-1
				c0.5-0.7,1.2-2.7,2.2-6c0.4-1.4,0.9-2.3,1.3-2.7c0.5-0.4,1.2-0.6,2.4-0.6c1.6,0,2.3,0.5,2.3,1.5c0,0.3,0,0.7-0.1,1.3l-1.4,8.5
				c-0.2,1.5-0.5,2.5-0.6,2.8c-0.2,0.3-0.7,0.5-1.5,0.5h-25c-0.6,0-1-0.1-1.2-0.4s-0.3-1.1-0.3-2.5c0-0.9,0.4-1.5,1.4-1.9
				c1.4-0.6,2.1-1.4,2.1-2.4v-46.8c0-0.5-0.6-1-1.7-1.4c-0.8-0.3-1.2-0.6-1.3-0.9s-0.2-1-0.2-2.2c0-1,0.1-1.6,0.2-1.7
				c0.2-0.2,0.6-0.3,1.3-0.3h23.9c0.6,0,1,0.1,1.3,0.3c0.3,0.2,0.5,0.7,0.6,1.4l1.9,9.7c0.1,0.5,0.2,0.8,0.2,1c0,0.7-0.6,1-1.8,1
				c-1.4,0-2.3-0.2-2.7-0.5s-0.9-1.1-1.3-2.3c-0.8-2.3-1.4-3.8-2-4.7c-0.6-0.9-1.2-1.3-1.9-1.3h-2.7V273.1z"/>
		</g>
		<polygon id="XMLID_9_" class="st17" points="28.9,254.3 -44.4,339.4 34.4,339.4 107.8,254.3 		"/>
		<path id="XMLID_8_" class="st17" d="M78.6,313.5l9.4,8.1c1.2,1,4.4-0.8,7.3-4.1l54.4-63.1H126l-44.3,51.4
			C78.8,309,77.4,312.5,78.6,313.5z"/>
		
			<rect id="XMLID_7_" x="-41.5" y="291.2" transform="matrix(0.7071 -0.7071 0.7071 0.7071 -221.1893 63.4793)" class="st14" width="15.1" height="15.1"/>
		
			<rect id="XMLID_6_" x="139.6" y="291.2" transform="matrix(0.7071 -0.7071 0.7071 0.7071 -168.1464 191.5333)" class="st14" width="15.1" height="15.1"/>
	</g>
</g>
<g id="Table_and_Chair">
	<g id="XMLID_97_">
		<path id="XMLID_5_" class="st18" d="M-249.7,638.8l-18.5-13.8l18.5-13.8c1.9-1.4,2.3-4.1,0.9-6.1c-1.4-1.9-4.1-2.3-6.1-0.9
			l-20.5,15.4l-20.5-15.3c-1.9-1.4-4.6-1.1-6.1,0.9c-1.4,1.9-1.1,4.6,0.9,6.1l18.5,13.8l-18.5,13.8c-1.9,1.4-2.3,4.1-0.9,6.1
			c1.4,1.9,4.1,2.3,6.1,0.9l20.5-15.4l20.5,15.4c1.9,1.4,4.6,1.1,6.1-0.9C-247.4,643-247.8,640.2-249.7,638.8z"/>
		<path id="XMLID_4_" class="st5" d="M-236.5,604.8c0,3-2.4,5.4-5.4,5.4h-66.2c-3,0-5.4-2.4-5.4-5.4v-4.6c0-3,2.4-5.4,5.4-5.4h66.2
			c3,0,5.4,2.4,5.4,5.4V604.8z"/>
	</g>
	<g id="XMLID_93_">
		<path id="XMLID_3_" class="st5" d="M-349.4,645c0,1.6-1.4,3-3,3l0,0c-1.6,0-3-1.4-3-3v-26.8c0-1.6,1.4-3,3-3l0,0c1.6,0,3,1.4,3,3
			V645z"/>
		<path id="XMLID_2_" class="st5" d="M-316.5,645c0,1.6-1.4,3-3,3l0,0c-1.6,0-3-1.4-3-3v-26.8c0-1.6,1.4-3,3-3l0,0c1.6,0,3,1.4,3,3
			V645z"/>
		<path id="XMLID_1_" class="st1" d="M-317.2,609.9h-28.9v-42.4c0-3.3-2.4-5.9-5.4-5.9h-1.1c-3,0-5.4,2.6-5.4,5.9v49
			c0,3,2,5.4,4.5,5.4h36.4c2.5,0,4.5-2.4,4.5-5.4v-1.1C-312.7,612.3-314.7,609.9-317.2,609.9z"/>
	</g>
</g>
</svg>
