<?xml version="1.0" encoding="utf-8"?>
<!-- Generator: Adobe Illustrator 19.0.0, SVG Export Plug-In . SVG Version: 6.00 Build 0)  -->
<svg version="1.1" id="Layer_1" xmlns="http://www.w3.org/2000/svg" xmlns:xlink="http://www.w3.org/1999/xlink" x="0px" y="0px"
	 viewBox="-297.5 194.5 519 394.5" style="enable-background:new -297.5 194.5 519 394.5;" xml:space="preserve">
<style type="text/css">
	.st0{fill:#3C3C3B;}
	.st1{opacity:0.5;fill:#1D1D1B;enable-background:new    ;}
	.st2{fill:#ED0F68;}
	.st3{fill:#432918;}
	.st4{fill:#2D190E;}
	.st5{fill:#0C0603;}
	.st6{fill:#27B7C5;}
	.st7{opacity:0.5;fill:#A3E4E1;enable-background:new    ;}
	.st8{fill:#DBA00B;}
	.st9{fill:#FBC21E;}
	.st10{fill:#1C0F08;}
	.st11{fill:#E21742;}
	.st12{opacity:0.5;fill:#ACCACC;enable-background:new    ;}
	.st13{fill:#9B0A1B;}
	.st14{fill:#C6C6C6;}
	.st15{fill:#BE1622;}
	.st16{fill:#DADADA;}
	.st17{fill:#878787;}
	.st18{fill:#EDEDED;}
	.st19{fill:#7D4E24;}
	.st20{fill:#F498A6;}
	.st21{fill:#9E0719;}
	.st22{fill:#F9B7BE;}
	.st23{fill:#F2C300;}
	.st24{fill:#E94E1B;}
</style>
<g id="Candy_Shop_1_">
	<g id="Candy_Shop">
		<g id="Shop">
			<path class="st0" d="M121.1,341c0-4.9-3.6-8.8-8.1-8.8h-319.3c-4.5,0-8.1,3.9-8.1,8.8v51.9c0,4.9,3.6,8.8,8.1,8.8h319.4
				c4.5,0,8.1-3.9,8.1-8.8V341H121.1z"/>
			<polygon class="st1" points="138.7,572.3 -47.5,572.1 -47.5,589 114.9,589 			"/>
			<path class="st2" d="M121.1,581.7c0,4-3.2,7.2-7.2,7.2h-321c-4,0-7.2-3.2-7.2-7.2v-185c0-4,3.2-7.2,7.2-7.2h321
				c4,0,7.2,3.2,7.2,7.2V581.7z"/>
			<g>
				<path class="st3" d="M-88.1,415.3h-90.7c-4,0-7.2,3.3-7.2,7.3v159c0,4.1,3.2,7.3,7.2,7.3h90.7c4,0,7.2-3.3,7.2-7.3v-159
					C-80.8,418.6-84.1,415.3-88.1,415.3z"/>
				<path class="st4" d="M-178.8,415.3c-4,0-7.2,3.3-7.2,7.3v159c0,4.1,3.2,7.3,7.2,7.3h7l62.1-173.7h-69.1V415.3z"/>
				<path class="st5" d="M-98.4,578.9h-69c-5.5,0-10-4.5-10-10v-35.6c0-5.5,4.5-10,10-10h69c5.5,0,10,4.5,10,10v35.6
					C-88.4,574.4-92.9,578.9-98.4,578.9z M-167.4,529.9c-1.8,0-3.3,1.5-3.3,3.3v35.6c0,1.8,1.5,3.3,3.3,3.3h69
					c1.8,0,3.3-1.5,3.3-3.3v-35.6c0-1.8-1.5-3.3-3.3-3.3H-167.4z"/>
				<path class="st6" d="M-95.5,424.8h-6.9h-16.7H-141h-29.5c-3.8,0-6.9,3.1-6.9,6.9v34.7v24.9v18.6c0,3.8,3.1,6.9,6.9,6.9h75
					c3.8,0,6.9-3.1,6.9-6.9v-65.5v-12.7C-88.6,427.9-91.7,424.8-95.5,424.8z"/>
				<polygon class="st7" points="-141,424.8 -177.5,466.4 -177.5,491.3 -119.1,424.8 				"/>
				<path class="st7" d="M-95.5,424.8h-6.9l-46.9,53.4c-4.1,4.7-3.7,11.8,1,15.9l0.6,0.5c4.7,4.1,11.8,3.6,15.9-1l43.2-49.2v-12.7
					C-88.6,427.9-91.7,424.8-95.5,424.8z"/>
				<path class="st8" d="M-119,518c0,1.3-1.2,2.4-2.7,2.4l0,0c-1.5,0-2.7-1.1-2.7-2.4v-3.6c0-1.3,1.2-2.4,2.7-2.4l0,0
					c1.5,0,2.7,1.1,2.7,2.4V518z"/>
				<path class="st9" d="M-84.1,516.2c0,2.3-1.9,4.2-4.2,4.2H-118c-2.3,0-4.2-1.9-4.2-4.2l0,0c0-2.3,1.9-4.2,4.2-4.2h29.7
					C-86,512-84.1,513.9-84.1,516.2L-84.1,516.2z"/>
			</g>
			<g>
				<path class="st6" d="M98.6,447.8h-5.2H66H38H-7.7h-47c-4,0-7.2,3.2-7.2,7.2v52.5v37.7c0,3.3,2.2,6.1,5.2,6.9
					c0.6,0.2,1.3,0.3,2,0.3H98.5c4,0,7.2-3.2,7.2-7.2v-90.1C105.8,451,102.6,447.8,98.6,447.8z"/>
				<path class="st10" d="M76.3,541.8c0,0.7-0.5,1.2-1.2,1.2h-98.5c-0.7,0-1.2-0.5-1.2-1.2l0,0c0-0.7,0.5-1.2,1.2-1.2h98.5
					C75.8,540.6,76.3,541.1,76.3,541.8L76.3,541.8z"/>
				<rect x="-19.6" y="532.5" class="st11" width="28.5" height="8.1"/>
				<rect x="12.9" y="532.5" class="st11" width="26.3" height="8.1"/>
				<rect x="42.8" y="532.5" class="st11" width="27.5" height="8.1"/>
				<path class="st10" d="M76.3,523.8c0,0.7-0.5,1.2-1.2,1.2h-98.5c-0.7,0-1.2-0.5-1.2-1.2l0,0c0-0.7,0.5-1.2,1.2-1.2h98.5
					C75.8,522.6,76.3,523.1,76.3,523.8L76.3,523.8z"/>
				<rect x="-19.6" y="514.4" class="st11" width="28.5" height="8.1"/>
				<rect x="12.9" y="514.4" class="st11" width="26.3" height="8.1"/>
				<rect x="42.8" y="514.4" class="st11" width="27.5" height="8.1"/>
				<path class="st12" d="M82,540.6c0,4-3.2,7.2-7.2,7.2H-21c-4,0-7.2-3.2-7.2-7.2v-31.2c0-4,3.2-7.2,7.2-7.2h95.8
					c4,0,7.2,3.2,7.2,7.2V540.6z"/>
				<path class="st7" d="M-7.7,447.8l-54.2,59.7v37.7c0,3.3,2.2,6.1,5.2,6.9l94.6-104.3L-7.7,447.8L-7.7,447.8z"/>
				<path class="st7" d="M-3.4,524.3c-3.8,4.1-3.4,10.5,0.7,14.3s10.5,3.4,14.3-0.7l81.8-90.1H66L-3.4,524.3z"/>
				<path class="st10" d="M108.5,545c0,1.4-1.1,2.5-2.5,2.5H-62c-1.4,0-2.5-1.1-2.5-2.5l0,0c0-1.4,1.1-2.5,2.5-2.5h168
					C107.4,542.4,108.5,543.6,108.5,545L108.5,545z"/>
				<path class="st3" d="M112.2,550.7c0,2.8-2.2,5-5,5H-64.6c-2.8,0-5-2.2-5-5l0,0c0-2.8,2.2-5,5-5h171.9
					C110,545.7,112.2,547.9,112.2,550.7L112.2,550.7z"/>
			</g>
			<g>
				<polygon class="st13" points="-42.9,482.9 -86.2,482.9 -68.8,442.4 -28.9,442.4 				"/>
				<polygon class="st14" points="0.3,482.9 -42.9,482.9 -28.9,442.4 5.7,442.4 				"/>
				<polygon class="st13" points="43.6,482.9 0.3,482.9 5.7,442.4 39,442.4 				"/>
				<polygon class="st14" points="86.9,482.9 43.6,482.9 39,442.4 73.6,442.4 				"/>
				<polygon class="st13" points="130.1,482.9 86.9,482.9 73.6,442.4 108.5,442.4 				"/>
				<path class="st15" d="M-64.6,504.1c11.9,0,21.6-9.7,21.6-21.6h-43.3C-86.2,494.4-76.5,504.1-64.6,504.1z"/>
				<path class="st16" d="M-21.3,504.1c11.9,0,21.6-9.7,21.6-21.6h-43.2C-42.9,494.4-33.2,504.1-21.3,504.1z"/>
				<path class="st15" d="M22,504.1c12,0,21.6-9.7,21.6-21.6H0.3C0.3,494.4,10,504.1,22,504.1z"/>
				<path class="st16" d="M65.2,504.1c11.9,0,21.6-9.7,21.6-21.6H43.6C43.6,494.4,53.3,504.1,65.2,504.1z"/>
				<path class="st15" d="M108.5,504.1c12,0,21.6-9.7,21.6-21.6H86.9C86.9,494.4,96.5,504.1,108.5,504.1z"/>
			</g>
			<g>
				<path class="st9" d="M108.5,429.7c0,4-3.2,7.2-7.2,7.2H-57.4c-4,0-7.2-3.2-7.2-7.2v-7.2c0-4,3.2-7.2,7.2-7.2h158.6
					c4,0,7.2,3.2,7.2,7.2L108.5,429.7L108.5,429.7z"/>
				<g>
					<path class="st17" d="M-48.7,418.2c1.1,0,2.1,0.2,3.1,0.7c0.5,0.2,0.8,0.3,1,0.3c0.1,0,0.4,0,0.6-0.1c0.1,0,0.2,0,0.3,0
						c0.4,0,0.7,0.2,1,0.5c0.7,0.9,1.1,1.9,1.1,3.2c0,0.9-0.3,1.6-0.9,2c-0.3,0.2-0.7,0.3-1.1,0.3c-0.4,0-0.7-0.1-0.9-0.2
						c-0.2-0.2-0.5-0.5-0.7-0.9c-0.3-0.6-0.6-1-0.8-1.3s-0.4-0.5-0.7-0.7c-0.7-0.5-1.5-0.8-2.3-0.8s-1.4,0.3-1.8,0.8
						c-0.4,0.6-0.7,1.3-0.7,2.2c0,1.3,0.3,2.4,1,3.5c0.9,1.4,2.1,2.1,3.8,2.1c0.6,0,1.2-0.1,1.8-0.3s1-0.5,1.4-0.8
						c0.3-0.3,0.5-0.4,0.7-0.4c0.3,0,0.5,0.1,0.7,0.4c0.2,0.2,0.3,0.5,0.3,0.9c0,0.4-0.1,0.9-0.4,1.5c-0.3,0.5-0.6,1-0.9,1.3
						c-0.2,0.1-0.5,0.2-1,0.3c-0.3,0.1-0.7,0.2-1.1,0.4c-1.1,0.5-2.2,0.8-3.4,0.8s-2.5-0.3-3.7-0.8c-1.4-0.6-2.6-1.6-3.4-3
						c-0.8-1.3-1.2-2.7-1.2-4.1c0-1.7,0.5-3.2,1.5-4.5c0.9-1.2,2.1-2.1,3.5-2.7C-51,418.4-49.9,418.2-48.7,418.2z"/>
					<path class="st17" d="M-26.6,426l2.1,4.5c0.2,0.4,0.4,0.7,0.5,0.8c0.1,0.1,0.3,0.2,0.6,0.3c0.5,0.1,0.8,0.4,0.8,0.8
						c0,0.5-0.3,0.9-1,1.2c-0.7,0.2-1.7,0.4-3.2,0.4c-1.7,0-2.9-0.1-3.7-0.2c-0.4-0.1-0.7-0.2-0.9-0.4c-0.2-0.2-0.3-0.5-0.3-0.7
						s0.1-0.4,0.2-0.5c0.1-0.1,0.3-0.2,0.6-0.3c0.4-0.1,0.5-0.3,0.5-0.6c0-0.5-0.3-0.8-0.9-0.9c-0.6-0.1-1.6-0.1-2.7-0.1
						c-1,0-1.6,0.1-1.8,0.2c-0.1,0.1-0.2,0.2-0.3,0.4c-0.1,0.2-0.1,0.4-0.1,0.6s0,0.3,0.1,0.3c0.1,0,0.3,0.1,0.6,0.2
						c0.5,0.1,0.7,0.4,0.7,0.8c0,0.9-1.1,1.3-3.2,1.3c-1.2,0-2.1-0.1-2.7-0.2c-0.5-0.2-0.8-0.5-0.8-1c0-0.2,0.1-0.4,0.2-0.5
						c0.1-0.1,0.3-0.2,0.6-0.3c0.5-0.2,0.9-0.4,1.1-0.7s0.6-1,1.1-2l1.6-3.4c0.6-1.3,1-2.2,1.2-2.8s0.3-1.2,0.3-1.8s0-1.1,0.1-1.3
						c0.1-0.2,0.2-0.5,0.5-0.7c0.5-0.5,1.2-0.8,2-0.8s1.5,0.3,2.2,0.9C-29.8,419.8-28.4,422.1-26.6,426z M-34.4,427.4h2.2
						c0.4,0,0.6-0.1,0.6-0.3c0-0.2-0.3-0.8-0.8-1.8c-0.3-0.4-0.4-0.7-0.6-0.9c-0.1-0.1-0.3-0.2-0.4-0.2c-0.3,0-0.5,0.2-0.7,0.7
						c0,0.1-0.1,0.3-0.3,0.8c-0.3,0.8-0.5,1.2-0.5,1.4C-34.9,427.3-34.7,427.4-34.4,427.4z"/>
					<path class="st17" d="M-16,419l5.6,4.9c0.5,0.5,0.9,0.7,1.1,0.7c0.4,0,0.6-0.4,0.6-1.2c0-0.9-0.1-1.6-0.2-1.9
						c-0.1-0.3-0.3-0.6-0.7-0.8c-0.3-0.1-0.5-0.3-0.6-0.4c-0.1-0.2-0.2-0.4-0.2-0.6c0-0.6,0.4-1,1.3-1.2c0.4-0.1,1-0.1,1.8-0.1
						c1.1,0,1.9,0.1,2.3,0.2c0.7,0.2,1,0.6,1,1.2c0,0.5-0.3,0.8-0.8,1.1c-0.2,0.1-0.4,0.2-0.5,0.3c-0.1,0.1-0.2,0.2-0.2,0.3
						c-0.2,0.5-0.3,1.4-0.3,2.8v3.6c0,0.6,0,1.3,0,2.3c0,1.3-0.1,2.3-0.2,2.8c-0.2,0.7-0.6,1.1-1.1,1.1c-0.2,0-0.4,0-0.6-0.1
						c-0.2-0.1-0.4-0.3-0.8-0.7l-6.6-5.9c-0.5-0.4-0.8-0.6-1.1-0.6c-0.5,0-0.7,0.6-0.7,1.9c0,1,0.1,1.7,0.2,2.1
						c0.1,0.4,0.4,0.7,0.7,0.8c0.5,0.2,0.7,0.6,0.7,1c0,1-1.1,1.6-3.3,1.6c-1,0-1.8-0.1-2.3-0.4c-0.6-0.3-0.8-0.6-0.8-1.1
						c0-0.3,0-0.4,0.2-0.6c0.1-0.1,0.3-0.3,0.7-0.5c0.3-0.2,0.6-0.6,0.6-1.1c0.1-1,0.2-2.3,0.2-4.1c0-1.9-0.1-3.3-0.3-4.2
						c-0.1-0.3-0.2-0.6-0.3-0.7c-0.1-0.2-0.3-0.3-0.6-0.4c-0.3-0.2-0.6-0.3-0.7-0.5s-0.2-0.3-0.2-0.6c0-0.7,0.6-1.2,1.8-1.3
						c0.4-0.1,1.1-0.1,2.2-0.1c0.6,0,1,0,1.3,0.1C-16.7,418.5-16.4,418.7-16,419z"/>
					<path class="st17" d="M1.5,433.7H0.7c-0.5,0-1,0-1.6,0.1c-0.4,0-0.6,0-0.8,0c-0.5,0-0.9-0.1-1.2-0.3s-0.5-0.5-0.5-0.9
						c0-0.3,0.1-0.5,0.2-0.6c0.1-0.1,0.4-0.3,0.7-0.4c0.3-0.1,0.5-0.2,0.6-0.4s0.2-0.5,0.2-1c0.1-0.6,0.1-1.6,0.2-3.3
						c0-1.6,0.1-3.2,0.1-4.8c0-0.6,0-1-0.1-1.2s-0.3-0.4-0.7-0.5c-0.5-0.2-0.8-0.5-0.8-1c0-0.4,0.2-0.6,0.5-0.9
						c0.4-0.2,0.8-0.3,1.5-0.3c0.2,0,0.5,0,0.7,0c0.6,0,1.1,0,1.4,0c1.1,0,2.3,0,3.6-0.1c0.3,0,0.6,0,1.1,0c1.7,0,3,0.2,4,0.6
						c1.5,0.6,2.6,1.6,3.3,2.9c0.7,1.2,1,2.6,1,4.3c0,0.8-0.1,1.7-0.4,2.5c-0.2,0.8-0.6,1.6-1,2.2c-0.9,1.2-2.1,2.1-3.6,2.6
						c-0.9,0.3-1.8,0.4-2.9,0.4H4.9H3.7C3,433.7,2.2,433.7,1.5,433.7z M3.8,421.6v8.6c0,0.5,0.1,0.8,0.3,1c0.2,0.2,0.5,0.3,1,0.3
						c2.2,0,3.3-1.6,3.3-4.9c0-1.8-0.3-3.2-0.8-4.2c-0.6-1.1-1.5-1.7-2.8-1.7c-0.4,0-0.6,0.1-0.8,0.2C3.9,421,3.8,421.3,3.8,421.6z"
						/>
					<path class="st17" d="M18.7,418.2c1.5,0,2.6,0.1,3.3,0.2c0.4,0.1,0.6,0.2,0.8,0.4c0.2,0.2,0.3,0.4,0.3,0.7
						c0,0.2-0.1,0.4-0.2,0.6c-0.2,0.3-0.4,0.5-0.4,0.7c0,0.3,0.2,0.7,0.6,1.3c0.3,0.4,0.5,0.6,0.8,0.6c0.2,0,0.3-0.1,0.5-0.2
						c0.2-0.1,0.3-0.3,0.6-0.6c0.3-0.4,0.4-0.7,0.4-0.9c0-0.1,0-0.2-0.1-0.3c0-0.1-0.2-0.2-0.4-0.5c-0.1-0.2-0.2-0.4-0.2-0.7
						c0-0.8,1.1-1.3,3.4-1.3c1.3,0,2.1,0.1,2.5,0.2c0.2,0.1,0.4,0.2,0.6,0.4c0.2,0.2,0.2,0.4,0.2,0.7c0,0.3-0.1,0.5-0.3,0.7
						s-0.5,0.3-1,0.4c-0.4,0.1-0.8,0.2-1.1,0.5c-0.3,0.2-0.9,0.8-1.7,1.7c-1,1.1-1.6,1.9-1.9,2.4c-0.2,0.5-0.4,1.3-0.4,2.3
						c0,0.9,0,1.7,0.1,2.4c0,0.5,0.1,0.8,0.2,0.9c0.1,0.2,0.3,0.3,0.6,0.5c0.5,0.3,0.8,0.6,0.8,1.1c0,1-1.5,1.5-4.5,1.5
						c-1.2,0-2.4-0.1-3.5-0.4c-0.9-0.2-1.4-0.6-1.4-1.2c0-0.5,0.3-0.8,0.9-1c0.4-0.1,0.7-0.3,0.8-0.6c0.2-0.5,0.4-1.7,0.4-3.6
						c0-0.6-0.1-1.1-0.2-1.4s-0.4-0.8-0.8-1.3c-0.8-1.1-1.7-2.1-2.6-3c-0.4-0.4-0.8-0.6-1.1-0.8c-0.5-0.2-0.8-0.3-0.9-0.4
						c-0.2-0.2-0.3-0.4-0.3-0.7c0-0.5,0.4-0.9,1.1-1.1C15.7,418.4,16.9,418.2,18.7,418.2z"/>
					<path class="st17" d="M44.5,418.2c0.8,0,1.8,0.2,3,0.6c0.1,0,0.3,0.1,0.4,0.1c0.1,0,0.3-0.1,0.7-0.2c0.1,0,0.2-0.1,0.4-0.1
						c0.5,0,1,0.4,1.6,1.2s0.8,1.5,0.8,2.3c0,0.4-0.1,0.8-0.4,1.1c-0.2,0.3-0.6,0.4-0.9,0.4c-0.3,0-0.5-0.1-0.7-0.2
						c-0.2-0.1-0.6-0.5-1.2-1.1c-0.9-0.8-1.8-1.3-2.6-1.3c-0.4,0-0.7,0.1-1,0.3c-0.2,0.2-0.4,0.5-0.4,0.8c0,0.6,0.6,1.1,1.7,1.5
						c1.5,0.5,2.5,0.8,3,1c1.9,0.9,2.8,2.3,2.8,4.1c0,1.6-0.6,2.9-1.9,3.9c-1.3,1-3.1,1.5-5.2,1.5c-1,0-2-0.1-3-0.3
						c-1.1-0.2-1.8-0.5-2.3-0.8c-0.4-0.2-0.7-0.8-1-1.6c-0.3-0.8-0.4-1.6-0.4-2.3c0-0.4,0.1-0.6,0.2-0.8c0.2-0.2,0.4-0.4,0.7-0.4
						s0.6,0.1,0.8,0.4c0.2,0.2,0.5,0.7,1.1,1.6c0.3,0.4,0.7,0.8,1.3,1c0.6,0.3,1.2,0.4,1.9,0.4c0.6,0,1-0.1,1.3-0.3s0.5-0.5,0.5-0.8
						s-0.1-0.6-0.4-0.8c-0.3-0.2-0.7-0.4-1.3-0.6c-1.1-0.3-1.9-0.6-2.4-0.9c-0.6-0.3-1.1-0.6-1.6-1.1c-1.2-1-1.8-2.2-1.8-3.5
						c0-0.7,0.2-1.3,0.5-1.9c0.3-0.6,0.7-1.2,1.3-1.6C41.2,418.7,42.7,418.2,44.5,418.2z"/>
					<path class="st17" d="M57.3,418.2c2.3,0,3.5,0.5,3.5,1.4c0,0.3-0.1,0.5-0.2,0.6c-0.1,0.2-0.3,0.3-0.7,0.5
						c-0.3,0.2-0.5,0.4-0.6,0.7c-0.1,0.3-0.1,0.9-0.1,1.8c0,0.5,0.1,0.8,0.3,1c0.1,0.1,0.3,0.1,0.5,0.1s0.8,0,1.6,0
						c0.8,0,1.2,0,1.4-0.1c0.2-0.1,0.3-0.3,0.3-0.6c0-1,0-1.7-0.1-2.1c-0.1-0.4-0.3-0.7-0.5-0.8c-0.3-0.2-0.5-0.3-0.6-0.5
						c-0.1-0.1-0.2-0.3-0.2-0.5c0-0.3,0.1-0.6,0.3-0.8c0.2-0.2,0.5-0.4,0.9-0.5c0.8-0.2,1.7-0.3,2.9-0.3c1.4,0,2.4,0.1,3,0.4
						c0.7,0.2,1,0.6,1,1.2c0,0.4-0.2,0.8-0.7,1c-0.3,0.1-0.5,0.3-0.6,0.4c-0.1,0.1-0.2,0.4-0.2,0.7c0,0.2-0.1,1-0.1,2.5
						s-0.1,2.6-0.1,3.5c0,1.5,0.1,2.5,0.2,2.9c0.1,0.2,0.1,0.4,0.2,0.4c0.1,0.1,0.3,0.2,0.7,0.4c0.3,0.2,0.4,0.4,0.4,0.7
						c0,0.6-0.3,1-1,1.2c-0.7,0.3-1.8,0.4-3.3,0.4c-1.3,0-2.3-0.1-2.9-0.4c-0.6-0.2-0.9-0.6-0.9-1.1c0-0.4,0.2-0.8,0.7-1
						c0.2-0.1,0.4-0.2,0.4-0.4c0.1-0.1,0.2-0.3,0.2-0.7c0.1-0.6,0.2-1.4,0.2-2.3c0-0.5-0.1-0.8-0.2-0.9c-0.1-0.1-0.5-0.2-1.1-0.2
						c-1.3,0-2.2,0.1-2.5,0.2c-0.1,0.1-0.2,0.2-0.3,0.5c0,0.4-0.1,0.8-0.1,1.3c0,0.8,0.1,1.5,0.4,1.8c0.1,0.1,0.3,0.3,0.6,0.5
						c0.3,0.2,0.5,0.5,0.5,0.9c0,0.5-0.4,0.9-1.1,1.2s-1.8,0.4-3.1,0.4c-1.2,0-2.2-0.1-3-0.4c-0.3-0.1-0.6-0.3-0.8-0.5
						s-0.3-0.4-0.3-0.7c0-0.2,0.1-0.4,0.2-0.6c0.1-0.1,0.4-0.3,0.8-0.5c0.2-0.1,0.4-0.2,0.4-0.4c0.1-0.2,0.2-0.4,0.2-0.8
						c0.1-0.9,0.2-2,0.2-3.4c0-0.3,0-0.6,0-0.9c0-1.8,0-2.8,0-3.1c0-0.6,0-1.1-0.2-1.3c-0.1-0.2-0.4-0.4-0.9-0.7
						c-0.3-0.2-0.5-0.4-0.5-0.7c0-0.7,0.7-1.3,2.2-1.6C55.5,418.3,56.4,418.2,57.3,418.2z"/>
					<path class="st17" d="M79.4,418.2c1.9,0,3.6,0.5,5,1.6c1,0.7,1.8,1.7,2.4,2.9s0.9,2.4,0.9,3.6c0,1.8-0.6,3.3-1.7,4.7
						c-1,1.2-2.3,2-3.8,2.5c-1,0.3-2,0.5-2.9,0.5c-1.3,0-2.5-0.3-3.7-0.8c-1.4-0.6-2.5-1.6-3.3-2.9s-1.2-2.7-1.2-4.2
						c0-1.8,0.5-3.3,1.5-4.7c0.9-1.2,2.1-2.1,3.6-2.7C77,418.4,78.1,418.2,79.4,418.2z M78.3,421.4c-0.6,0-1.1,0.3-1.5,0.8
						c-0.3,0.4-0.4,0.9-0.4,1.5c0,0.8,0.2,1.8,0.5,2.9c0.3,1.1,0.8,2.1,1.3,2.9c0.2,0.4,0.5,0.7,0.9,0.9c0.3,0.2,0.7,0.3,1,0.3
						c0.6,0,1-0.2,1.4-0.6c0.3-0.4,0.5-1,0.5-1.7c0-0.9-0.1-1.9-0.4-2.9s-0.7-1.9-1.1-2.7c-0.3-0.5-0.6-0.8-1-1.1
						C79.1,421.5,78.7,421.4,78.3,421.4z"/>
					<path class="st17" d="M90.5,428.5v-5.9c0-0.8-0.1-1.2-0.2-1.4s-0.4-0.4-0.8-0.5c-0.7-0.2-1-0.5-1-1c0-0.3,0.1-0.6,0.4-0.8
						s0.7-0.3,1.2-0.3c0.2,0,0.6,0,1.3,0h0.7c1.2,0,2,0,2.2,0s1-0.1,2.3-0.2c0.4,0,0.8-0.1,1.2-0.1c1.2,0,2.3,0.2,3.3,0.7
						c1.7,0.9,2.5,2.2,2.5,4.1c0,1.5-0.6,2.7-1.7,3.6c-1.1,0.9-2.4,1.3-4,1.3c-0.4,0-0.9,0-1.5-0.1c-0.3,0-0.5,0-0.6,0
						c-0.2,0-0.3,0.1-0.3,0.4v0.1l0.1,1.8c0,0.4,0.1,0.6,0.2,0.8c0.1,0.2,0.3,0.4,0.7,0.5c0.5,0.3,0.7,0.5,0.7,0.8
						c0,0.5-0.4,0.8-1.1,1.1c-0.7,0.3-1.7,0.4-3,0.4c-2.8,0-4.1-0.5-4.1-1.4c0-0.2,0.1-0.4,0.2-0.5c0.1-0.1,0.4-0.3,0.8-0.5
						c0.3-0.1,0.4-0.3,0.5-0.6C90.4,430.6,90.4,429.8,90.5,428.5z M95.5,421.2v3.8c0,0.3,0.1,0.5,0.2,0.5c0.2,0.1,0.5,0.2,0.8,0.2
						c0.5,0,0.9-0.1,1.2-0.4c0.5-0.4,0.7-1.1,0.7-2c0-1-0.3-1.7-0.9-2.1c-0.4-0.3-0.8-0.4-1.3-0.4C95.8,420.7,95.5,420.9,95.5,421.2
						z"/>
				</g>
				<g>
					<path class="st18" d="M-49.9,418.2c1.1,0,2.1,0.2,3.1,0.7c0.5,0.2,0.8,0.3,1,0.3c0.1,0,0.3,0,0.6-0.1c0.1,0,0.2,0,0.3,0
						c0.4,0,0.7,0.2,1,0.5c0.7,0.9,1.1,1.9,1.1,3.2c0,0.9-0.3,1.6-0.9,2c-0.3,0.2-0.7,0.3-1.1,0.3c-0.4,0-0.7-0.1-0.9-0.2
						c-0.2-0.2-0.5-0.5-0.7-0.9c-0.3-0.6-0.6-1-0.8-1.3s-0.4-0.5-0.7-0.7c-0.7-0.5-1.5-0.8-2.3-0.8s-1.4,0.3-1.8,0.8
						c-0.4,0.6-0.7,1.3-0.7,2.2c0,1.3,0.3,2.4,1,3.5c0.9,1.4,2.1,2.1,3.8,2.1c0.6,0,1.2-0.1,1.8-0.3s1-0.5,1.4-0.8
						c0.3-0.3,0.5-0.4,0.7-0.4c0.3,0,0.5,0.1,0.7,0.4c0.2,0.2,0.3,0.5,0.3,0.9c0,0.4-0.1,0.9-0.4,1.5c-0.3,0.5-0.6,1-0.9,1.3
						c-0.2,0.1-0.5,0.2-1,0.3c-0.3,0.1-0.7,0.2-1.1,0.4c-1.1,0.5-2.2,0.8-3.4,0.8s-2.5-0.3-3.7-0.8c-1.4-0.6-2.6-1.6-3.4-3
						c-0.8-1.3-1.2-2.7-1.2-4.1c0-1.7,0.5-3.2,1.5-4.5c0.9-1.2,2.1-2.1,3.5-2.7C-52.2,418.4-51.1,418.2-49.9,418.2z"/>
					<path class="st18" d="M-27.8,426l2.1,4.5c0.2,0.4,0.4,0.7,0.5,0.8c0.1,0.1,0.3,0.2,0.6,0.3c0.5,0.1,0.8,0.4,0.8,0.8
						c0,0.5-0.3,0.9-1,1.2c-0.7,0.2-1.7,0.4-3.2,0.4c-1.7,0-2.9-0.1-3.7-0.2c-0.4-0.1-0.7-0.2-0.9-0.4c-0.2-0.2-0.3-0.5-0.3-0.7
						s0.1-0.4,0.2-0.5c0.1-0.1,0.3-0.2,0.6-0.3c0.4-0.1,0.5-0.3,0.5-0.6c0-0.5-0.3-0.8-0.9-0.9c-0.6-0.1-1.6-0.1-2.7-0.1
						c-1,0-1.6,0.1-1.8,0.2c-0.1,0.1-0.2,0.2-0.3,0.4c-0.1,0.2-0.1,0.4-0.1,0.6s0,0.3,0.1,0.3c0.1,0,0.3,0.1,0.6,0.2
						c0.5,0.1,0.7,0.4,0.7,0.8c0,0.9-1.1,1.3-3.2,1.3c-1.2,0-2.1-0.1-2.7-0.2c-0.5-0.2-0.8-0.5-0.8-1c0-0.2,0.1-0.4,0.2-0.5
						c0.1-0.1,0.3-0.2,0.6-0.3c0.5-0.2,0.9-0.4,1.1-0.7s0.6-1,1.1-2l1.6-3.4c0.6-1.3,1-2.2,1.2-2.8s0.3-1.2,0.3-1.8s0-1.1,0.1-1.3
						c0.1-0.2,0.2-0.5,0.5-0.7c0.5-0.5,1.2-0.8,2-0.8s1.5,0.3,2.2,0.9C-31,419.8-29.6,422.1-27.8,426z M-35.6,427.4h2.2
						c0.4,0,0.6-0.1,0.6-0.3c0-0.2-0.3-0.8-0.8-1.8c-0.3-0.4-0.4-0.7-0.6-0.9c-0.1-0.1-0.3-0.2-0.4-0.2c-0.3,0-0.5,0.2-0.7,0.7
						c0,0.1-0.1,0.3-0.3,0.8c-0.3,0.8-0.5,1.2-0.5,1.4C-36.1,427.3-35.9,427.4-35.6,427.4z"/>
					<path class="st18" d="M-17.2,419l5.6,4.9c0.5,0.5,0.9,0.7,1.1,0.7c0.4,0,0.6-0.4,0.6-1.2c0-0.9-0.1-1.6-0.2-1.9
						c-0.1-0.3-0.3-0.6-0.7-0.8c-0.3-0.1-0.5-0.3-0.6-0.4c-0.1-0.2-0.2-0.4-0.2-0.6c0-0.6,0.4-1,1.3-1.2c0.3-0.1,1-0.1,1.8-0.1
						c1.1,0,1.9,0.1,2.3,0.2c0.7,0.2,1,0.6,1,1.2c0,0.5-0.3,0.8-0.8,1.1c-0.2,0.1-0.4,0.2-0.5,0.3c-0.1,0.1-0.2,0.2-0.2,0.3
						c-0.2,0.5-0.3,1.4-0.3,2.8v3.6c0,0.6,0,1.3,0,2.3c0,1.3-0.1,2.3-0.2,2.8c-0.2,0.7-0.6,1.1-1.1,1.1c-0.2,0-0.4,0-0.6-0.1
						c-0.2-0.1-0.4-0.3-0.8-0.7l-6.6-5.9c-0.5-0.4-0.8-0.6-1.1-0.6c-0.5,0-0.7,0.6-0.7,1.9c0,1,0.1,1.7,0.2,2.1
						c0.1,0.4,0.4,0.7,0.7,0.8c0.5,0.2,0.7,0.6,0.7,1c0,1-1.1,1.6-3.3,1.6c-1,0-1.8-0.1-2.3-0.4c-0.6-0.3-0.8-0.6-0.8-1.1
						c0-0.3,0.1-0.4,0.2-0.6c0.1-0.1,0.3-0.3,0.7-0.5s0.6-0.6,0.6-1.1c0.1-1,0.2-2.3,0.2-4.1c0-1.9-0.1-3.3-0.3-4.2
						c-0.1-0.3-0.2-0.6-0.3-0.7c-0.1-0.2-0.3-0.3-0.6-0.4c-0.3-0.2-0.6-0.3-0.7-0.5s-0.2-0.3-0.2-0.6c0-0.7,0.6-1.2,1.8-1.3
						c0.4-0.1,1.1-0.1,2.2-0.1c0.6,0,1,0,1.3,0.1C-17.9,418.5-17.6,418.7-17.2,419z"/>
					<path class="st18" d="M0.3,433.7h-0.8c-0.5,0-1,0-1.6,0.1c-0.4,0-0.6,0-0.8,0c-0.5,0-0.9-0.1-1.2-0.3c-0.3-0.2-0.5-0.5-0.5-0.9
						c0-0.3,0.1-0.5,0.2-0.6c0.1-0.1,0.4-0.3,0.7-0.4c0.3-0.1,0.5-0.2,0.6-0.4s0.2-0.5,0.2-1c0.1-0.6,0.1-1.6,0.2-3.3
						c0-1.6,0.1-3.2,0.1-4.8c0-0.6,0-1-0.1-1.2s-0.3-0.4-0.7-0.5c-0.5-0.2-0.8-0.5-0.8-1c0-0.4,0.2-0.6,0.5-0.9
						c0.4-0.2,0.8-0.3,1.5-0.3c0.2,0,0.5,0,0.7,0c0.6,0,1.1,0,1.4,0c1.1,0,2.3,0,3.6-0.1c0.3,0,0.6,0,1.1,0c1.7,0,3,0.2,4,0.6
						c1.5,0.6,2.6,1.6,3.3,2.9c0.7,1.2,1,2.6,1,4.3c0,0.8-0.1,1.7-0.4,2.5c-0.2,0.8-0.6,1.6-1,2.2c-0.9,1.2-2.1,2.1-3.6,2.6
						c-0.9,0.3-1.8,0.4-2.9,0.4H3.7H2.5C1.8,433.7,1,433.7,0.3,433.7z M2.6,421.6v8.6c0,0.5,0.1,0.8,0.3,1s0.5,0.3,1,0.3
						c2.2,0,3.3-1.6,3.3-4.9c0-1.8-0.3-3.2-0.8-4.2c-0.6-1.1-1.5-1.7-2.8-1.7c-0.4,0-0.6,0.1-0.8,0.2C2.7,421,2.6,421.3,2.6,421.6z"
						/>
					<path class="st18" d="M17.5,418.2c1.5,0,2.6,0.1,3.3,0.2c0.4,0.1,0.6,0.2,0.8,0.4c0.2,0.2,0.3,0.4,0.3,0.7
						c0,0.2-0.1,0.4-0.2,0.6c-0.2,0.3-0.4,0.5-0.4,0.7c0,0.3,0.2,0.7,0.6,1.3c0.3,0.4,0.5,0.6,0.8,0.6c0.2,0,0.3-0.1,0.5-0.2
						c0.2-0.1,0.3-0.3,0.6-0.6c0.3-0.4,0.4-0.7,0.4-0.9c0-0.1,0-0.2-0.1-0.3c0-0.1-0.2-0.2-0.4-0.5c-0.1-0.2-0.2-0.4-0.2-0.7
						c0-0.8,1.1-1.3,3.4-1.3c1.3,0,2.1,0.1,2.5,0.2c0.2,0.1,0.4,0.2,0.6,0.4c0.2,0.2,0.2,0.4,0.2,0.7c0,0.3-0.1,0.5-0.3,0.7
						s-0.5,0.3-1,0.4c-0.4,0.1-0.8,0.2-1.1,0.5c-0.3,0.2-0.9,0.8-1.7,1.7c-1,1.1-1.6,1.9-1.9,2.4c-0.2,0.5-0.4,1.3-0.4,2.3
						c0,0.9,0,1.7,0.1,2.4c0,0.5,0.1,0.8,0.2,0.9c0.1,0.2,0.3,0.3,0.6,0.5c0.5,0.3,0.8,0.6,0.8,1.1c0,1-1.5,1.5-4.5,1.5
						c-1.2,0-2.4-0.1-3.5-0.4c-0.9-0.2-1.4-0.6-1.4-1.2c0-0.5,0.3-0.8,0.9-1c0.4-0.1,0.7-0.3,0.8-0.6c0.2-0.5,0.4-1.7,0.4-3.6
						c0-0.6-0.1-1.1-0.2-1.4s-0.4-0.8-0.8-1.3c-0.8-1.1-1.7-2.1-2.6-3c-0.4-0.4-0.8-0.6-1.1-0.8c-0.5-0.2-0.8-0.3-0.9-0.4
						c-0.2-0.2-0.3-0.4-0.3-0.7c0-0.5,0.4-0.9,1.1-1.1C14.5,418.4,15.7,418.2,17.5,418.2z"/>
					<path class="st18" d="M43.3,418.2c0.8,0,1.8,0.2,3,0.6c0.1,0,0.3,0.1,0.4,0.1c0.1,0,0.3-0.1,0.7-0.2c0.1,0,0.2-0.1,0.4-0.1
						c0.5,0,1,0.4,1.6,1.2s0.8,1.5,0.8,2.3c0,0.4-0.1,0.8-0.4,1.1c-0.2,0.3-0.6,0.4-0.9,0.4c-0.3,0-0.5-0.1-0.7-0.2
						c-0.2-0.1-0.6-0.5-1.2-1.1c-0.9-0.8-1.8-1.3-2.6-1.3c-0.4,0-0.7,0.1-1,0.3c-0.2,0.2-0.4,0.5-0.4,0.8c0,0.6,0.6,1.1,1.7,1.5
						c1.5,0.5,2.5,0.8,3,1c1.9,0.9,2.8,2.3,2.8,4.1c0,1.6-0.6,2.9-1.9,3.9c-1.3,1-3.1,1.5-5.2,1.5c-1,0-2-0.1-3-0.3
						c-1.1-0.2-1.8-0.5-2.3-0.8c-0.4-0.2-0.7-0.8-1-1.6c-0.3-0.8-0.4-1.6-0.4-2.3c0-0.4,0.1-0.6,0.2-0.8c0.2-0.2,0.4-0.4,0.7-0.4
						s0.6,0.1,0.8,0.4c0.2,0.2,0.5,0.7,1.1,1.6c0.3,0.4,0.7,0.8,1.3,1c0.6,0.3,1.2,0.4,1.9,0.4c0.6,0,1-0.1,1.3-0.3s0.5-0.5,0.5-0.8
						s-0.1-0.6-0.4-0.8c-0.3-0.2-0.7-0.4-1.3-0.6c-1.1-0.3-1.9-0.6-2.4-0.9c-0.6-0.3-1.1-0.6-1.6-1.1c-1.2-1-1.8-2.2-1.8-3.5
						c0-0.7,0.2-1.3,0.5-1.9c0.3-0.6,0.7-1.2,1.3-1.6C40,418.7,41.5,418.2,43.3,418.2z"/>
					<path class="st18" d="M56.1,418.2c2.3,0,3.5,0.5,3.5,1.4c0,0.3-0.1,0.5-0.2,0.6c-0.1,0.2-0.3,0.3-0.7,0.5
						c-0.3,0.2-0.5,0.4-0.6,0.7c-0.1,0.3-0.1,0.9-0.1,1.8c0,0.5,0.1,0.8,0.3,1c0.1,0.1,0.3,0.1,0.5,0.1s0.8,0,1.6,0
						c0.8,0,1.2,0,1.4-0.1c0.2-0.1,0.3-0.3,0.3-0.6c0-1,0-1.7-0.1-2.1c-0.1-0.4-0.3-0.7-0.5-0.8c-0.3-0.2-0.5-0.3-0.6-0.5
						c-0.1-0.1-0.2-0.3-0.2-0.5c0-0.3,0.1-0.6,0.3-0.8c0.2-0.2,0.5-0.4,0.9-0.5c0.8-0.2,1.7-0.3,2.9-0.3c1.4,0,2.4,0.1,3,0.4
						c0.7,0.2,1,0.6,1,1.2c0,0.4-0.2,0.8-0.7,1c-0.3,0.1-0.5,0.3-0.6,0.4c-0.1,0.1-0.2,0.4-0.2,0.7c0,0.2-0.1,1-0.1,2.5
						s-0.1,2.6-0.1,3.5c0,1.5,0.1,2.5,0.2,2.9c0.1,0.2,0.1,0.4,0.2,0.4c0.1,0.1,0.3,0.2,0.7,0.4c0.3,0.2,0.4,0.4,0.4,0.7
						c0,0.6-0.3,1-1,1.2c-0.7,0.3-1.8,0.4-3.3,0.4c-1.3,0-2.3-0.1-2.9-0.4c-0.6-0.2-0.9-0.6-0.9-1.1c0-0.4,0.2-0.8,0.7-1
						c0.2-0.1,0.4-0.2,0.4-0.4c0.1-0.1,0.2-0.3,0.2-0.7c0.1-0.6,0.2-1.4,0.2-2.3c0-0.5-0.1-0.8-0.2-0.9c-0.1-0.1-0.5-0.2-1.1-0.2
						c-1.3,0-2.2,0.1-2.5,0.2c-0.1,0.1-0.2,0.2-0.3,0.5c0,0.4-0.1,0.8-0.1,1.3c0,0.8,0.1,1.5,0.4,1.8c0.1,0.1,0.3,0.3,0.6,0.5
						c0.3,0.2,0.5,0.5,0.5,0.9c0,0.5-0.4,0.9-1.1,1.2s-1.8,0.4-3.1,0.4c-1.2,0-2.2-0.1-3-0.4c-0.3-0.1-0.6-0.3-0.8-0.5
						S51,432.3,51,432c0-0.2,0.1-0.4,0.2-0.6c0.1-0.1,0.4-0.3,0.8-0.5c0.2-0.1,0.4-0.2,0.4-0.4c0.1-0.2,0.2-0.4,0.2-0.8
						c0.1-0.9,0.2-2,0.2-3.4c0-0.3,0-0.6,0-0.9c0-1.8,0-2.8,0-3.1c0-0.6,0-1.1-0.2-1.3c-0.1-0.2-0.4-0.4-0.9-0.7
						c-0.3-0.2-0.5-0.4-0.5-0.7c0-0.7,0.7-1.3,2.2-1.6C54.3,418.3,55.2,418.2,56.1,418.2z"/>
					<path class="st18" d="M78.2,418.2c1.9,0,3.6,0.5,5,1.6c1,0.7,1.8,1.7,2.4,2.9s0.9,2.4,0.9,3.6c0,1.8-0.6,3.3-1.7,4.7
						c-1,1.2-2.3,2-3.8,2.5c-1,0.3-2,0.5-2.9,0.5c-1.3,0-2.5-0.3-3.7-0.8c-1.4-0.6-2.5-1.6-3.3-2.9s-1.2-2.7-1.2-4.2
						c0-1.8,0.5-3.3,1.5-4.7c0.9-1.2,2.1-2.1,3.6-2.7C75.8,418.4,76.9,418.2,78.2,418.2z M77.1,421.4c-0.6,0-1.1,0.3-1.5,0.8
						c-0.3,0.4-0.4,0.9-0.4,1.5c0,0.8,0.2,1.8,0.5,2.9c0.3,1.1,0.8,2.1,1.3,2.9c0.2,0.4,0.5,0.7,0.9,0.9c0.3,0.2,0.7,0.3,1,0.3
						c0.6,0,1-0.2,1.4-0.6c0.3-0.4,0.5-1,0.5-1.7c0-0.9-0.1-1.9-0.4-2.9s-0.7-1.9-1.1-2.7c-0.3-0.5-0.6-0.8-1-1.1
						C77.9,421.5,77.5,421.4,77.1,421.4z"/>
					<path class="st18" d="M89.2,428.5v-5.9c0-0.8-0.1-1.2-0.2-1.4s-0.4-0.4-0.8-0.5c-0.7-0.2-1-0.5-1-1c0-0.3,0.1-0.6,0.4-0.8
						s0.7-0.3,1.2-0.3c0.2,0,0.6,0,1.3,0h0.7c1.2,0,2,0,2.2,0s1-0.1,2.3-0.2c0.4,0,0.8-0.1,1.2-0.1c1.2,0,2.3,0.2,3.3,0.7
						c1.7,0.9,2.5,2.2,2.5,4.1c0,1.5-0.6,2.7-1.7,3.6c-1.1,0.9-2.4,1.3-4,1.3c-0.4,0-0.9,0-1.5-0.1c-0.3,0-0.5,0-0.6,0
						c-0.2,0-0.3,0.1-0.3,0.4v0.1l0.1,1.8c0,0.4,0.1,0.6,0.2,0.8c0.1,0.2,0.4,0.4,0.7,0.5c0.5,0.3,0.7,0.5,0.7,0.8
						c0,0.5-0.4,0.8-1.1,1.1c-0.7,0.3-1.7,0.4-3,0.4c-2.8,0-4.1-0.5-4.1-1.4c0-0.2,0.1-0.4,0.2-0.5c0.1-0.1,0.4-0.3,0.8-0.5
						c0.3-0.1,0.4-0.3,0.5-0.6C89.2,430.6,89.2,429.8,89.2,428.5z M94.3,421.2v3.8c0,0.3,0.1,0.5,0.2,0.5c0.2,0.1,0.5,0.2,0.8,0.2
						c0.5,0,0.9-0.1,1.2-0.4c0.5-0.4,0.7-1.1,0.7-2c0-1-0.3-1.7-0.9-2.1c-0.4-0.3-0.8-0.4-1.3-0.4C94.6,420.7,94.3,420.9,94.3,421.2
						z"/>
				</g>
			</g>
			<g>
				<g>
					<path class="st19" d="M85.8,317.3l-25-5.9l-138.9-32.8c-5.6-1.3-11.2,2.2-12.5,7.8s2.2,11.2,7.8,12.5l52.9,12.5l111,26.2
						c5.6,1.3,11.2-2.1,12.5-7.8C94.8,324.3,91.4,318.7,85.8,317.3z"/>
					<path class="st3" d="M93.5,329.9c1.3-5.6-2.1-11.2-7.8-12.5l-25-5.9h-90.8l111,26.2C86.6,339,92.2,335.5,93.5,329.9z"/>
				</g>
				<g>
					<path class="st20" d="M-52.2,254.7c-2.5-11.7-7.6-22.3-14.8-31.4c-5-6.2-10.9-11.7-17.5-16.1c-9.9-6.6-21.5-11-34-12.3
						c-2.7-0.3-5.3-0.4-8.1-0.4c-5.6,0-11.1,0.6-16.3,1.8c-11.4,2.5-21.9,7.6-30.7,14.6c-6.5,5.1-12.2,11.3-16.7,18.3
						c-6.7,10.3-11,22.4-12,35.4c-0.2,2-0.2,4-0.2,6c0,6.4,0.8,12.6,2.3,18.5c3,12.1,9,23,17,32.1c5.4,6,11.6,11.1,18.6,15.2
						c11.2,6.5,24.2,10.2,38.1,10.2c0.1,0,0.3,0,0.4,0c8,0,15.8-1.3,23-3.7c10.2-3.3,19.4-8.7,27.1-15.6
						c5.7-5.1,10.7-11.1,14.6-17.7c5.7-9.4,9.3-20.2,10.4-31.8c0.2-2.4,0.3-4.8,0.3-7.3C-50.6,265.1-51.2,259.8-52.2,254.7z"/>
					<path class="st2" d="M-143.1,213.2c1.2,37.2,17.5,58.5,18.8,60.2h0.1c-0.4-2.2-5.5-33.1,1-60.4c1.5-6.2,3.1-12.3,4.7-18.1
						c-2.7-0.3-5.3-0.4-8.1-0.4c-5.6,0-11.1,0.6-16.3,1.8C-143.2,201.7-143.3,207.4-143.1,213.2z"/>
					<path class="st2" d="M-94.9,217.5c-26.6,28.3-29.3,56-29.3,56s0,0,0.1-0.1l0,0l0,0c1.2-1.7,19.4-27.3,43.4-42
						c4.6-2.8,9.2-5.5,13.7-8.1c-5-6.2-10.9-11.7-17.5-16.1C-88,210.4-91.5,213.9-94.9,217.5z"/>
					<path class="st2" d="M-63.9,254.7c-37.2,1.2-58.5,17.5-60.2,18.8l0,0h0.1c3.1-0.5,33.4-5.4,60.3,1c4.3,1,8.6,2.1,12.8,3.3
						c0.2-2.4,0.3-4.8,0.3-7.3c0-5.4-0.6-10.7-1.7-15.9C-56,254.6-59.9,254.6-63.9,254.7z"/>
					<path class="st2" d="M-61.4,309.6c-2.2-2.3-4.5-4.5-6.9-6.8c-26.7-25.1-52.9-28.9-55.8-29.3h-0.1c0,0,0.1,0.1,0.2,0.2
						c3.1,2.2,27.5,20,41.8,43.3c2.1,3.4,4.2,6.9,6.1,10.3C-70.3,322.2-65.3,316.2-61.4,309.6z"/>
					<path class="st2" d="M-123.9,273.8c-0.1-0.1-0.2-0.1-0.2-0.2c0.5,2.4,6.5,33,0.8,60.4c-0.9,4.3-1.8,8.5-2.8,12.6
						c8,0,15.8-1.3,23-3.7c0-3.2-0.2-6.4-0.4-9.7C-105.7,297.2-121.7,276.5-123.9,273.8z"/>
					<path class="st2" d="M-124.2,273.5c0,0-19.8,26.1-45.2,40.2c-4.7,2.6-9.4,5.1-13.9,7.4c5.4,6,11.6,11.1,18.6,15.2
						c2.9-2.6,5.9-5.3,8.8-8.1C-128.1,301.1-124.2,273.5-124.2,273.5z"/>
					<path class="st2" d="M-124.4,273.5c-0.1,0-0.2,0-0.3,0c-4,0.5-33.9,3.9-60-3.5c-6.1-1.7-12.1-3.6-17.7-5.4c-0.2,2-0.2,4-0.2,6
						c0,6.4,0.8,12.6,2.3,18.5c4.8,0.4,9.9,0.7,15.1,0.7C-148.2,290.2-126.3,274.9-124.4,273.5z"/>
					<path class="st2" d="M-124.7,273.5c0.1,0,0.2,0,0.3,0c-2.1-1.6-26.5-20.8-40.1-45.1c-3.3-5.9-6.4-11.9-9.2-17.5
						c-6.5,5.1-12.2,11.3-16.7,18.3c3.5,4.2,7.3,8.5,11.5,12.7C-153.8,267.6-128.3,272.8-124.7,273.5z"/>
				</g>
			</g>
		</g>
		<g id="Candy">
			<g>
				<path class="st21" d="M147.4,551.3c-0.2,1.5-1.5,2.5-3,2.2l-26.8,6.4c-1.5-0.2-2.5-1.5-2.2-3l5.2-33.6c0.2-1.5,1.6-2.5,3-2.2
					l23.4,15.2c1.5,0.2,2.5,1.6,2.2,3L147.4,551.3z"/>
				<path class="st21" d="M186.9,558.1c-0.3,1.5,0.7,2.9,2.2,3.1l23,15c1.5,0.3,2.9-0.7,3.1-2.2l6.3-33.4c0.2-1.5-0.7-2.9-2.2-3.1
					l-27.1,6.6c-1.5-0.3-2.9,0.7-3.1,2.1L186.9,558.1z"/>
				<path class="st15" d="M151.6,523.1c-2.6-0.5-5.1,1.3-5.5,3.9l-5.9,34.1c-0.5,2.6,1.3,5.1,3.9,5.5l12.7,2.2l7.5-43.5L151.6,523.1
					z"/>
				<path class="st15" d="M191,529.9l-12.7-2.2l-7.5,43.5l12.7,2.2c2.6,0.5,5.1-1.3,5.5-3.9l5.9-34.1
					C195.4,532.8,193.7,530.3,191,529.9z"/>
				
					<rect x="145.5" y="541.1" transform="matrix(-0.1692 0.9856 -0.9856 -0.1692 736.3298 475.8022)" class="st16" width="44.2" height="14.3"/>
			</g>
			<g>
				<path class="st20" d="M79.2,567.1c0.2,1.2-0.6,2.4-1.9,2.6l-20.1,12.2c-1.2,0.2-2.4-0.6-2.6-1.9l-4.5-28.7
					c-0.2-1.2,0.6-2.4,1.9-2.6l23,6.3c1.2-0.2,2.4,0.7,2.6,1.9L79.2,567.1z"/>
				<path class="st20" d="M120.3,561.3c0.2,1.2,1.4,2.1,2.6,1.9l22.9,5.5c1.2-0.2,2.1-1.4,1.9-2.6l-4.5-28.7
					c-0.2-1.2-1.4-2.1-2.6-1.9l-19.9,13.1c-1.2,0.2-2.1,1.4-1.9,2.6L120.3,561.3z"/>
				<path class="st22" d="M124,549.5c-1.2-2.9-2.9-5.5-5.1-7.7c-0.8-0.8-1.6-1.5-2.6-2.2c-2.8-2.2-6.1-3.8-9.7-4.8
					c-0.9-0.2-1.7-0.4-2.6-0.5c-3.2-0.5-6.5-0.6-9.9-0.2c-0.2,0-0.3,0.1-0.5,0.1c-15.3,2.4-26.1,15.3-24,28.8c0.4,2.2,1,4.3,2,6.3
					c1.3,2.7,3.2,5.1,5.4,7.1c0.6,0.5,1.2,1.1,1.9,1.6c2.9,2.1,6.3,3.7,9.9,4.6c1.2,0.3,2.3,0.5,3.5,0.6c2.9,0.4,5.8,0.3,8.8-0.2
					c0.5-0.1,0.9-0.2,1.4-0.2c14.5-2.9,24.6-15.5,22.5-28.5C125,552.6,124.6,551,124,549.5z"/>
				<path class="st3" d="M106.6,534.8L79.1,578c2.9,2.1,6.3,3.7,9.9,4.6l27.4-42.9C113.6,537.4,110.2,535.7,106.6,534.8z"/>
				<path class="st3" d="M94.2,534l-22.4,35.1c1.3,2.7,3.2,5.1,5.4,7.1l26.8-42.1C100.9,533.6,97.6,533.6,94.2,534z"/>
				<path class="st3" d="M92.5,583.1c2.9,0.4,5.8,0.3,8.8-0.2c0.5-0.1,0.9-0.2,1.4-0.2l21.3-33.3c-1.2-2.9-2.9-5.5-5.1-7.7
					L92.5,583.1z"/>
			</g>
			<g>
				<path class="st18" d="M138.5,548L123,561l-21,17.6c-9.4,9.4,1.2,9.9,4.3,9.9l29.5-1.6l15.3-0.9l14.3-0.8c2.5-1,3.7-3.8,2.7-6.3
					l-14.2-36c-1-2.5-3.8-3.7-6.3-2.7L138.5,548z"/>
				<path class="st23" d="M165.4,585.4c2.5-1,3.7-3.8,2.7-6.3l-14.2-36c-1-2.5-3.8-3.7-6.3-2.7l-9.1,7.7L123,561
					c8.3,7,9.6,22.3,4.1,26.4l24-1.3L165.4,585.4z"/>
				<path class="st24" d="M168.2,579.1l-14.2-36c-1-2.5-3.8-3.7-6.3-2.7l-9.1,7.7c8.6,14.8,11.6,30.5,12.5,38.1l14.3-0.8
					C167.9,584.4,169.1,581.6,168.2,579.1z"/>
			</g>
			<g>
				<path class="st2" d="M-262.2,563.7c0.2,1.5-0.8,2.9-2.3,3.1l-24.3,14.9c-1.5,0.2-2.9-0.8-3.1-2.3l-5.5-34.7
					c-0.2-1.5,0.8-2.9,2.3-3.1l27.9,7.6c1.5-0.2,2.9,0.8,3.1,2.3L-262.2,563.7z"/>
				<path class="st2" d="M-221,557.9c0.2,1.5,1.6,2.6,3.1,2.4l27.5,7.5c1.5-0.2,2.6-1.6,2.4-3l-4.4-34.9c-0.2-1.5-1.6-2.6-3-2.4
					l-24.7,15.1c-1.5,0.2-2.6,1.6-2.4,3L-221,557.9z"/>
				<path class="st20" d="M-267,534.6c-2.7,0.4-4.6,2.9-4.2,5.6l5,35.5c0.4,2.7,2.9,4.6,5.6,4.2l13.1-1.8l-6.5-45.2L-267,534.6z"/>
				<path class="st20" d="M-226,528.8l-13.1,1.8l6.4,45.2l13.1-1.8c2.7-0.4,4.6-2.9,4.2-5.6l-5-35.5
					C-220.7,530.3-223.3,528.4-226,528.8z"/>
				
					<rect x="-266.1" y="546.9" transform="matrix(0.1411 0.99 -0.99 0.1411 339.8382 716.9299)" class="st3" width="45.7" height="14.8"/>
			</g>
			<g>
				<path class="st18" d="M-192.2,571.3l-5-20.4l-6.9-27.5c-4.5-12.9-9.8-3.4-11.2-0.5l-11.8,28.2l-6.2,14.7l-5.8,13.7
					c-0.2,2.7,1.8,5.1,4.6,5.4l40,3c2.7,0.2,5.1-1.8,5.4-4.6L-192.2,571.3z"/>
				<path class="st23" d="M-239.1,579.4c-0.2,2.7,1.8,5.1,4.6,5.4l40,3c2.7,0.2,5.1-1.8,5.4-4.6l-3-11.9l-5-20.4
					c-10.2,4.6-25.1-1.2-26.4-8.2l-9.7,23L-239.1,579.4z"/>
				<path class="st24" d="M-234.6,584.7l40,3c2.7,0.2,5.1-1.8,5.4-4.6l-3-11.9c-17.7,1.3-33.6-3-41.2-5.6l-5.8,13.7
					C-239.3,582.2-237.3,584.5-234.6,584.7z"/>
			</g>
		</g>
	</g>
</g>
</svg>
