<?xml version="1.0" encoding="utf-8"?>
<!-- Generator: Adobe Illustrator 19.0.0, SVG Export Plug-In . SVG Version: 6.00 Build 0)  -->
<svg version="1.1" id="Layer_1" xmlns="http://www.w3.org/2000/svg" xmlns:xlink="http://www.w3.org/1999/xlink" x="0px" y="0px"
	 viewBox="-380 203.5 519 394.5" style="enable-background:new -380 203.5 519 394.5;" xml:space="preserve">
<style type="text/css">
	.st0{fill:#3C3C3C;}
	.st1{opacity:0.5;fill:#1D1D1D;enable-background:new    ;}
	.st2{fill:#5B5B5B;}
	.st3{fill:#2F2F2F;}
	.st4{fill:#1E1E1E;}
	.st5{fill:#070707;}
	.st6{fill:#8D8D8D;}
	.st7{opacity:0.5;fill:#D0D0D0;enable-background:new    ;}
	.st8{fill:#A1A1A1;}
	.st9{fill:#C1C1C1;}
	.st10{fill:#121212;}
	.st11{fill:#595959;}
	.st12{opacity:0.5;fill:#C1C1C1;enable-background:new    ;}
	.st13{fill:#373737;}
	.st14{fill:#C6C6C6;}
	.st15{fill:#4A4A4A;}
	.st16{fill:#DADADA;}
	.st17{fill:#878787;}
	.st18{fill:#EDEDED;}
	.st19{fill:#575757;}
	.st20{fill:#B5B5B5;}
	.st21{fill:#363636;}
	.st22{fill:#CCCCCC;}
	.st23{fill:#BCBCBC;}
	.st24{fill:#777777;}
</style>
<g id="Candy_Shop_1_">
	<g id="Candy_Shop">
		<g id="Shop">
			<path class="st0" d="M38.5,350c0-4.9-3.6-8.8-8.1-8.8h-319.3c-4.5,0-8.1,3.9-8.1,8.8v51.9c0,4.9,3.6,8.8,8.1,8.8H30.5
				c4.5,0,8.1-3.9,8.1-8.8V350H38.5z"/>
			<polygon class="st1" points="56.1,581.3 -130.1,581.1 -130.1,598 32.3,598 			"/>
			<path class="st2" d="M38.5,590.7c0,4-3.2,7.2-7.2,7.2h-321c-4,0-7.2-3.2-7.2-7.2v-185c0-4,3.2-7.2,7.2-7.2h321
				c4,0,7.2,3.2,7.2,7.2C38.5,405.7,38.5,590.7,38.5,590.7z"/>
			<g>
				<path class="st3" d="M-170.7,424.3h-90.7c-4,0-7.2,3.3-7.2,7.3v159c0,4.1,3.2,7.3,7.2,7.3h90.7c4,0,7.2-3.3,7.2-7.3v-159
					C-163.4,427.6-166.7,424.3-170.7,424.3z"/>
				<path class="st4" d="M-261.4,424.3c-4,0-7.2,3.3-7.2,7.3v159c0,4.1,3.2,7.3,7.2,7.3h7l62.1-173.7h-69.1V424.3z"/>
				<path class="st5" d="M-181,587.9h-69c-5.5,0-10-4.5-10-10v-35.6c0-5.5,4.5-10,10-10h69c5.5,0,10,4.5,10,10v35.6
					C-171,583.4-175.5,587.9-181,587.9z M-250,538.9c-1.8,0-3.3,1.5-3.3,3.3v35.6c0,1.8,1.5,3.3,3.3,3.3h69c1.8,0,3.3-1.5,3.3-3.3
					v-35.6c0-1.8-1.5-3.3-3.3-3.3H-250z"/>
				<path class="st6" d="M-178.1,433.8h-6.9h-16.7h-21.9h-29.5c-3.8,0-6.9,3.1-6.9,6.9v34.7v24.9v18.6c0,3.8,3.1,6.9,6.9,6.9h75
					c3.8,0,6.9-3.1,6.9-6.9v-65.5v-12.7C-171.2,436.9-174.3,433.8-178.1,433.8z"/>
				<polygon class="st7" points="-223.6,433.8 -260.1,475.4 -260.1,500.3 -201.7,433.8 				"/>
				<path class="st7" d="M-178.1,433.8h-6.9l-46.9,53.4c-4.1,4.7-3.7,11.8,1,15.9l0.6,0.5c4.7,4.1,11.8,3.6,15.9-1l43.2-49.2v-12.7
					C-171.2,436.9-174.3,433.8-178.1,433.8z"/>
				<path class="st8" d="M-201.6,527c0,1.3-1.2,2.4-2.7,2.4l0,0c-1.5,0-2.7-1.1-2.7-2.4v-3.6c0-1.3,1.2-2.4,2.7-2.4l0,0
					c1.5,0,2.7,1.1,2.7,2.4V527z"/>
				<path class="st9" d="M-166.7,525.2c0,2.3-1.9,4.2-4.2,4.2h-29.7c-2.3,0-4.2-1.9-4.2-4.2l0,0c0-2.3,1.9-4.2,4.2-4.2h29.7
					C-168.6,521-166.7,522.9-166.7,525.2L-166.7,525.2z"/>
			</g>
			<g>
				<path class="st6" d="M16,456.8h-5.2h-27.4h-28h-45.7h-47c-4,0-7.2,3.2-7.2,7.2v52.5v37.7c0,3.3,2.2,6.1,5.2,6.9
					c0.6,0.2,1.3,0.3,2,0.3H15.9c4,0,7.2-3.2,7.2-7.2v-90.1C23.2,460,20,456.8,16,456.8z"/>
				<path class="st10" d="M-6.3,550.8c0,0.7-0.5,1.2-1.2,1.2H-106c-0.7,0-1.2-0.5-1.2-1.2l0,0c0-0.7,0.5-1.2,1.2-1.2h98.5
					C-6.8,549.6-6.3,550.1-6.3,550.8L-6.3,550.8z"/>
				<rect x="-102.2" y="541.5" class="st11" width="28.5" height="8.1"/>
				<rect x="-69.7" y="541.5" class="st11" width="26.3" height="8.1"/>
				<rect x="-39.8" y="541.5" class="st11" width="27.5" height="8.1"/>
				<path class="st10" d="M-6.3,532.8c0,0.7-0.5,1.2-1.2,1.2H-106c-0.7,0-1.2-0.5-1.2-1.2l0,0c0-0.7,0.5-1.2,1.2-1.2h98.5
					C-6.8,531.6-6.3,532.1-6.3,532.8L-6.3,532.8z"/>
				<rect x="-102.2" y="523.4" class="st11" width="28.5" height="8.1"/>
				<rect x="-69.7" y="523.4" class="st11" width="26.3" height="8.1"/>
				<rect x="-39.8" y="523.4" class="st11" width="27.5" height="8.1"/>
				<path class="st12" d="M-0.6,549.6c0,4-3.2,7.2-7.2,7.2h-95.8c-4,0-7.2-3.2-7.2-7.2v-31.2c0-4,3.2-7.2,7.2-7.2h95.8
					c4,0,7.2,3.2,7.2,7.2V549.6z"/>
				<path class="st7" d="M-90.3,456.8l-54.2,59.7v37.7c0,3.3,2.2,6.1,5.2,6.9l94.6-104.3L-90.3,456.8L-90.3,456.8z"/>
				<path class="st7" d="M-86,533.3c-3.8,4.1-3.4,10.5,0.7,14.3s10.5,3.4,14.3-0.7l81.8-90.1h-27.4L-86,533.3z"/>
				<path class="st10" d="M25.9,554c0,1.4-1.1,2.5-2.5,2.5h-168c-1.4,0-2.5-1.1-2.5-2.5l0,0c0-1.4,1.1-2.5,2.5-2.5h168
					C24.8,551.4,25.9,552.6,25.9,554L25.9,554z"/>
				<path class="st3" d="M29.6,559.7c0,2.8-2.2,5-5,5h-171.8c-2.8,0-5-2.2-5-5l0,0c0-2.8,2.2-5,5-5H24.7
					C27.4,554.7,29.6,556.9,29.6,559.7L29.6,559.7z"/>
			</g>
			<g>
				<polygon class="st13" points="-125.5,491.9 -168.8,491.9 -151.4,451.4 -111.5,451.4 				"/>
				<polygon class="st14" points="-82.3,491.9 -125.5,491.9 -111.5,451.4 -76.9,451.4 				"/>
				<polygon class="st13" points="-39,491.9 -82.3,491.9 -76.9,451.4 -43.6,451.4 				"/>
				<polygon class="st14" points="4.3,491.9 -39,491.9 -43.6,451.4 -9,451.4 				"/>
				<polygon class="st13" points="47.5,491.9 4.3,491.9 -9,451.4 25.9,451.4 				"/>
				<path class="st15" d="M-147.2,513.1c11.9,0,21.6-9.7,21.6-21.6h-43.3C-168.8,503.4-159.1,513.1-147.2,513.1z"/>
				<path class="st16" d="M-103.9,513.1c11.9,0,21.6-9.7,21.6-21.6h-43.2C-125.5,503.4-115.8,513.1-103.9,513.1z"/>
				<path class="st15" d="M-60.6,513.1c12,0,21.6-9.7,21.6-21.6h-43.3C-82.3,503.4-72.6,513.1-60.6,513.1z"/>
				<path class="st16" d="M-17.4,513.1c11.9,0,21.6-9.7,21.6-21.6H-39C-39,503.4-29.3,513.1-17.4,513.1z"/>
				<path class="st15" d="M25.9,513.1c12,0,21.6-9.7,21.6-21.6H4.3C4.3,503.4,13.9,513.1,25.9,513.1z"/>
			</g>
			<g>
				<path class="st9" d="M25.9,438.7c0,4-3.2,7.2-7.2,7.2H-140c-4,0-7.2-3.2-7.2-7.2v-7.2c0-4,3.2-7.2,7.2-7.2H18.6
					c4,0,7.2,3.2,7.2,7.2L25.9,438.7L25.9,438.7z"/>
				<g>
					<path class="st17" d="M-131.3,427.2c1.1,0,2.1,0.2,3.1,0.7c0.5,0.2,0.8,0.3,1,0.3c0.1,0,0.4,0,0.6-0.1c0.1,0,0.2,0,0.3,0
						c0.4,0,0.7,0.2,1,0.5c0.7,0.9,1.1,1.9,1.1,3.2c0,0.9-0.3,1.6-0.9,2c-0.3,0.2-0.7,0.3-1.1,0.3c-0.4,0-0.7-0.1-0.9-0.2
						c-0.2-0.2-0.5-0.5-0.7-0.9c-0.3-0.6-0.6-1-0.8-1.3s-0.4-0.5-0.7-0.7c-0.7-0.5-1.5-0.8-2.3-0.8s-1.4,0.3-1.8,0.8
						c-0.4,0.6-0.7,1.3-0.7,2.2c0,1.3,0.3,2.4,1,3.5c0.9,1.4,2.1,2.1,3.8,2.1c0.6,0,1.2-0.1,1.8-0.3c0.6-0.2,1-0.5,1.4-0.8
						c0.3-0.3,0.5-0.4,0.7-0.4c0.3,0,0.5,0.1,0.7,0.4c0.2,0.2,0.3,0.5,0.3,0.9s-0.1,0.9-0.4,1.5c-0.3,0.5-0.6,1-0.9,1.3
						c-0.2,0.1-0.5,0.2-1,0.3c-0.3,0.1-0.7,0.2-1.1,0.4c-1.1,0.5-2.2,0.8-3.4,0.8c-1.2,0-2.5-0.3-3.7-0.8c-1.4-0.6-2.6-1.6-3.4-3
						c-0.8-1.3-1.2-2.7-1.2-4.1c0-1.7,0.5-3.2,1.5-4.5c0.9-1.2,2.1-2.1,3.5-2.7C-133.6,427.4-132.5,427.2-131.3,427.2z"/>
					<path class="st17" d="M-109.2,435l2.1,4.5c0.2,0.4,0.4,0.7,0.5,0.8c0.1,0.1,0.3,0.2,0.6,0.3c0.5,0.1,0.8,0.4,0.8,0.8
						c0,0.5-0.3,0.9-1,1.2c-0.7,0.2-1.7,0.4-3.2,0.4c-1.7,0-2.9-0.1-3.7-0.2c-0.4-0.1-0.7-0.2-0.9-0.4c-0.2-0.2-0.3-0.5-0.3-0.7
						s0.1-0.4,0.2-0.5c0.1-0.1,0.3-0.2,0.6-0.3c0.4-0.1,0.5-0.3,0.5-0.6c0-0.5-0.3-0.8-0.9-0.9s-1.6-0.1-2.7-0.1
						c-1,0-1.6,0.1-1.8,0.2c-0.1,0.1-0.2,0.2-0.3,0.4c-0.1,0.2-0.1,0.4-0.1,0.6s0,0.3,0.1,0.3c0.1,0,0.3,0.1,0.6,0.2
						c0.5,0.1,0.7,0.4,0.7,0.8c0,0.9-1.1,1.3-3.2,1.3c-1.2,0-2.1-0.1-2.7-0.2c-0.5-0.2-0.8-0.5-0.8-1c0-0.2,0.1-0.4,0.2-0.5
						c0.1-0.1,0.3-0.2,0.6-0.3c0.5-0.2,0.9-0.4,1.1-0.7s0.6-1,1.1-2l1.6-3.4c0.6-1.3,1-2.2,1.2-2.8c0.2-0.6,0.3-1.2,0.3-1.8
						s0-1.1,0.1-1.3c0.1-0.2,0.2-0.5,0.5-0.7c0.5-0.5,1.2-0.8,2-0.8s1.5,0.3,2.2,0.9C-112.4,428.8-111,431.1-109.2,435z M-117,436.4
						h2.2c0.4,0,0.6-0.1,0.6-0.3c0-0.2-0.3-0.8-0.8-1.8c-0.3-0.4-0.4-0.7-0.6-0.9c-0.1-0.1-0.3-0.2-0.4-0.2c-0.3,0-0.5,0.2-0.7,0.7
						c0,0.1-0.1,0.3-0.3,0.8c-0.3,0.8-0.5,1.2-0.5,1.4S-117.3,436.4-117,436.4z"/>
					<path class="st17" d="M-98.6,428l5.6,4.9c0.5,0.5,0.9,0.7,1.1,0.7c0.4,0,0.6-0.4,0.6-1.2c0-0.9-0.1-1.6-0.2-1.9
						s-0.3-0.6-0.7-0.8c-0.3-0.1-0.5-0.3-0.6-0.4c-0.1-0.2-0.2-0.4-0.2-0.6c0-0.6,0.4-1,1.3-1.2c0.4-0.1,1-0.1,1.8-0.1
						c1.1,0,1.9,0.1,2.3,0.2c0.7,0.2,1,0.6,1,1.2c0,0.5-0.3,0.8-0.8,1.1c-0.2,0.1-0.4,0.2-0.5,0.3c-0.1,0.1-0.2,0.2-0.2,0.3
						c-0.2,0.5-0.3,1.4-0.3,2.8v3.6c0,0.6,0,1.3,0,2.3c0,1.3-0.1,2.3-0.2,2.8c-0.2,0.7-0.6,1.1-1.1,1.1c-0.2,0-0.4,0-0.6-0.1
						c-0.2-0.1-0.4-0.3-0.8-0.7l-6.6-5.9c-0.5-0.4-0.8-0.6-1.1-0.6c-0.5,0-0.7,0.6-0.7,1.9c0,1,0.1,1.7,0.2,2.1s0.4,0.7,0.7,0.8
						c0.5,0.2,0.7,0.6,0.7,1c0,1-1.1,1.6-3.3,1.6c-1,0-1.8-0.1-2.3-0.4c-0.6-0.3-0.8-0.6-0.8-1.1c0-0.3,0-0.4,0.2-0.6
						c0.1-0.1,0.3-0.3,0.7-0.5c0.3-0.2,0.6-0.6,0.6-1.1c0.1-1,0.2-2.3,0.2-4.1c0-1.9-0.1-3.3-0.3-4.2c-0.1-0.3-0.2-0.6-0.3-0.7
						c-0.1-0.2-0.3-0.3-0.6-0.4c-0.3-0.2-0.6-0.3-0.7-0.5c-0.1-0.2-0.2-0.3-0.2-0.6c0-0.7,0.6-1.2,1.8-1.3c0.4-0.1,1.1-0.1,2.2-0.1
						c0.6,0,1,0,1.3,0.1C-99.3,427.5-99,427.7-98.6,428z"/>
					<path class="st17" d="M-81.1,442.7h-0.8c-0.5,0-1,0-1.6,0.1c-0.4,0-0.6,0-0.8,0c-0.5,0-0.9-0.1-1.2-0.3
						c-0.3-0.2-0.5-0.5-0.5-0.9c0-0.3,0.1-0.5,0.2-0.6s0.4-0.3,0.7-0.4c0.3-0.1,0.5-0.2,0.6-0.4s0.2-0.5,0.2-1
						c0.1-0.6,0.1-1.6,0.2-3.3c0-1.6,0.1-3.2,0.1-4.8c0-0.6,0-1-0.1-1.2c-0.1-0.2-0.3-0.4-0.7-0.5c-0.5-0.2-0.8-0.5-0.8-1
						c0-0.4,0.2-0.6,0.5-0.9c0.4-0.2,0.8-0.3,1.5-0.3c0.2,0,0.5,0,0.7,0c0.6,0,1.1,0,1.4,0c1.1,0,2.3,0,3.6-0.1c0.3,0,0.6,0,1.1,0
						c1.7,0,3,0.2,4,0.6c1.5,0.6,2.6,1.6,3.3,2.9c0.7,1.2,1,2.6,1,4.3c0,0.8-0.1,1.7-0.4,2.5c-0.2,0.8-0.6,1.6-1,2.2
						c-0.9,1.2-2.1,2.1-3.6,2.6c-0.9,0.3-1.8,0.4-2.9,0.4h-1.3h-1.2C-79.6,442.7-80.4,442.7-81.1,442.7z M-78.8,430.6v8.6
						c0,0.5,0.1,0.8,0.3,1c0.2,0.2,0.5,0.3,1,0.3c2.2,0,3.3-1.6,3.3-4.9c0-1.8-0.3-3.2-0.8-4.2c-0.6-1.1-1.5-1.7-2.8-1.7
						c-0.4,0-0.6,0.1-0.8,0.2C-78.7,430-78.8,430.3-78.8,430.6z"/>
					<path class="st17" d="M-63.9,427.2c1.5,0,2.6,0.1,3.3,0.2c0.4,0.1,0.6,0.2,0.8,0.4c0.2,0.2,0.3,0.4,0.3,0.7
						c0,0.2-0.1,0.4-0.2,0.6c-0.2,0.3-0.4,0.5-0.4,0.7c0,0.3,0.2,0.7,0.6,1.3c0.3,0.4,0.5,0.6,0.8,0.6c0.2,0,0.3-0.1,0.5-0.2
						s0.3-0.3,0.6-0.6c0.3-0.4,0.4-0.7,0.4-0.9c0-0.1,0-0.2-0.1-0.3c0-0.1-0.2-0.2-0.4-0.5c-0.1-0.2-0.2-0.4-0.2-0.7
						c0-0.8,1.1-1.3,3.4-1.3c1.3,0,2.1,0.1,2.5,0.2c0.2,0.1,0.4,0.2,0.6,0.4c0.2,0.2,0.2,0.4,0.2,0.7c0,0.3-0.1,0.5-0.3,0.7
						s-0.5,0.3-1,0.4c-0.4,0.1-0.8,0.2-1.1,0.5c-0.3,0.2-0.9,0.8-1.7,1.7c-1,1.1-1.6,1.9-1.9,2.4c-0.2,0.5-0.4,1.3-0.4,2.3
						c0,0.9,0,1.7,0.1,2.4c0,0.5,0.1,0.8,0.2,0.9c0.1,0.2,0.3,0.3,0.6,0.5c0.5,0.3,0.8,0.6,0.8,1.1c0,1-1.5,1.5-4.5,1.5
						c-1.2,0-2.4-0.1-3.5-0.4c-0.9-0.2-1.4-0.6-1.4-1.2c0-0.5,0.3-0.8,0.9-1c0.4-0.1,0.7-0.3,0.8-0.6c0.2-0.5,0.4-1.7,0.4-3.6
						c0-0.6-0.1-1.1-0.2-1.4s-0.4-0.8-0.8-1.3c-0.8-1.1-1.7-2.1-2.6-3c-0.4-0.4-0.8-0.6-1.1-0.8c-0.5-0.2-0.8-0.3-0.9-0.4
						c-0.2-0.2-0.3-0.4-0.3-0.7c0-0.5,0.4-0.9,1.1-1.1C-66.9,427.4-65.7,427.2-63.9,427.2z"/>
					<path class="st17" d="M-38.1,427.2c0.8,0,1.8,0.2,3,0.6c0.1,0,0.3,0.1,0.4,0.1c0.1,0,0.3-0.1,0.7-0.2c0.1,0,0.2-0.1,0.4-0.1
						c0.5,0,1,0.4,1.6,1.2s0.8,1.5,0.8,2.3c0,0.4-0.1,0.8-0.4,1.1c-0.2,0.3-0.6,0.4-0.9,0.4c-0.3,0-0.5-0.1-0.7-0.2
						s-0.6-0.5-1.2-1.1c-0.9-0.8-1.8-1.3-2.6-1.3c-0.4,0-0.7,0.1-1,0.3c-0.2,0.2-0.4,0.5-0.4,0.8c0,0.6,0.6,1.1,1.7,1.5
						c1.5,0.5,2.5,0.8,3,1c1.9,0.9,2.8,2.3,2.8,4.1c0,1.6-0.6,2.9-1.9,3.9c-1.3,1-3.1,1.5-5.2,1.5c-1,0-2-0.1-3-0.3
						c-1.1-0.2-1.8-0.5-2.3-0.8c-0.4-0.2-0.7-0.8-1-1.6c-0.3-0.8-0.4-1.6-0.4-2.3c0-0.4,0.1-0.6,0.2-0.8c0.2-0.2,0.4-0.4,0.7-0.4
						s0.6,0.1,0.8,0.4c0.2,0.2,0.5,0.7,1.1,1.6c0.3,0.4,0.7,0.8,1.3,1c0.6,0.3,1.2,0.4,1.9,0.4c0.6,0,1-0.1,1.3-0.3s0.5-0.5,0.5-0.8
						s-0.1-0.6-0.4-0.8c-0.3-0.2-0.7-0.4-1.3-0.6c-1.1-0.3-1.9-0.6-2.4-0.9c-0.6-0.3-1.1-0.6-1.6-1.1c-1.2-1-1.8-2.2-1.8-3.5
						c0-0.7,0.2-1.3,0.5-1.9s0.7-1.2,1.3-1.6C-41.4,427.7-39.9,427.2-38.1,427.2z"/>
					<path class="st17" d="M-25.3,427.2c2.3,0,3.5,0.5,3.5,1.4c0,0.3-0.1,0.5-0.2,0.6c-0.1,0.2-0.3,0.3-0.7,0.5
						c-0.3,0.2-0.5,0.4-0.6,0.7c-0.1,0.3-0.1,0.9-0.1,1.8c0,0.5,0.1,0.8,0.3,1c0.1,0.1,0.3,0.1,0.5,0.1s0.8,0,1.6,0s1.2,0,1.4-0.1
						s0.3-0.3,0.3-0.6c0-1,0-1.7-0.1-2.1s-0.3-0.7-0.5-0.8c-0.3-0.2-0.5-0.3-0.6-0.5c-0.1-0.1-0.2-0.3-0.2-0.5
						c0-0.3,0.1-0.6,0.3-0.8c0.2-0.2,0.5-0.4,0.9-0.5c0.8-0.2,1.7-0.3,2.9-0.3c1.4,0,2.4,0.1,3,0.4c0.7,0.2,1,0.6,1,1.2
						c0,0.4-0.2,0.8-0.7,1c-0.3,0.1-0.5,0.3-0.6,0.4s-0.2,0.4-0.2,0.7c0,0.2-0.1,1-0.1,2.5s-0.1,2.6-0.1,3.5c0,1.5,0.1,2.5,0.2,2.9
						c0.1,0.2,0.1,0.4,0.2,0.4c0.1,0.1,0.3,0.2,0.7,0.4c0.3,0.2,0.4,0.4,0.4,0.7c0,0.6-0.3,1-1,1.2c-0.7,0.3-1.8,0.4-3.3,0.4
						c-1.3,0-2.3-0.1-2.9-0.4c-0.6-0.2-0.9-0.6-0.9-1.1c0-0.4,0.2-0.8,0.7-1c0.2-0.1,0.4-0.2,0.4-0.4c0.1-0.1,0.2-0.3,0.2-0.7
						c0.1-0.6,0.2-1.4,0.2-2.3c0-0.5-0.1-0.8-0.2-0.9c-0.1-0.1-0.5-0.2-1.1-0.2c-1.3,0-2.2,0.1-2.5,0.2c-0.1,0.1-0.2,0.2-0.3,0.5
						c0,0.4-0.1,0.8-0.1,1.3c0,0.8,0.1,1.5,0.4,1.8c0.1,0.1,0.3,0.3,0.6,0.5s0.5,0.5,0.5,0.9c0,0.5-0.4,0.9-1.1,1.2
						s-1.8,0.4-3.1,0.4c-1.2,0-2.2-0.1-3-0.4c-0.3-0.1-0.6-0.3-0.8-0.5s-0.3-0.4-0.3-0.7c0-0.2,0.1-0.4,0.2-0.6
						c0.1-0.1,0.4-0.3,0.8-0.5c0.2-0.1,0.4-0.2,0.4-0.4c0.1-0.2,0.2-0.4,0.2-0.8c0.1-0.9,0.2-2,0.2-3.4c0-0.3,0-0.6,0-0.9
						c0-1.8,0-2.8,0-3.1c0-0.6,0-1.1-0.2-1.3c-0.1-0.2-0.4-0.4-0.9-0.7c-0.3-0.2-0.5-0.4-0.5-0.7c0-0.7,0.7-1.3,2.2-1.6
						C-27.1,427.3-26.2,427.2-25.3,427.2z"/>
					<path class="st17" d="M-3.2,427.2c1.9,0,3.6,0.5,5,1.6c1,0.7,1.8,1.7,2.4,2.9s0.9,2.4,0.9,3.6c0,1.8-0.6,3.3-1.7,4.7
						c-1,1.2-2.3,2-3.8,2.5c-1,0.3-2,0.5-2.9,0.5c-1.3,0-2.5-0.3-3.7-0.8c-1.4-0.6-2.5-1.6-3.3-2.9s-1.2-2.7-1.2-4.2
						c0-1.8,0.5-3.3,1.5-4.7c0.9-1.2,2.1-2.1,3.6-2.7C-5.6,427.4-4.5,427.2-3.2,427.2z M-4.3,430.4c-0.6,0-1.1,0.3-1.5,0.8
						c-0.3,0.4-0.4,0.9-0.4,1.5c0,0.8,0.2,1.8,0.5,2.9s0.8,2.1,1.3,2.9c0.2,0.4,0.5,0.7,0.9,0.9c0.3,0.2,0.7,0.3,1,0.3
						c0.6,0,1-0.2,1.4-0.6c0.3-0.4,0.5-1,0.5-1.7c0-0.9-0.1-1.9-0.4-2.9s-0.7-1.9-1.1-2.7c-0.3-0.5-0.6-0.8-1-1.1
						C-3.5,430.5-3.9,430.4-4.3,430.4z"/>
					<path class="st17" d="M7.9,437.5v-5.9c0-0.8-0.1-1.2-0.2-1.4s-0.4-0.4-0.8-0.5c-0.7-0.2-1-0.5-1-1c0-0.3,0.1-0.6,0.4-0.8
						s0.7-0.3,1.2-0.3c0.2,0,0.6,0,1.3,0h0.7c1.2,0,2,0,2.2,0s1-0.1,2.3-0.2c0.4,0,0.8-0.1,1.2-0.1c1.2,0,2.3,0.2,3.3,0.7
						c1.7,0.9,2.5,2.2,2.5,4.1c0,1.5-0.6,2.7-1.7,3.6s-2.4,1.3-4,1.3c-0.4,0-0.9,0-1.5-0.1c-0.3,0-0.5,0-0.6,0
						c-0.2,0-0.3,0.1-0.3,0.4v0.1l0.1,1.8c0,0.4,0.1,0.6,0.2,0.8c0.1,0.2,0.3,0.4,0.7,0.5c0.5,0.3,0.7,0.5,0.7,0.8
						c0,0.5-0.4,0.8-1.1,1.1c-0.7,0.3-1.7,0.4-3,0.4c-2.8,0-4.1-0.5-4.1-1.4c0-0.2,0.1-0.4,0.2-0.5s0.4-0.3,0.8-0.5
						c0.3-0.1,0.4-0.3,0.5-0.6C7.8,439.6,7.8,438.8,7.9,437.5z M12.9,430.2v3.8c0,0.3,0.1,0.5,0.2,0.5c0.2,0.1,0.5,0.2,0.8,0.2
						c0.5,0,0.9-0.1,1.2-0.4c0.5-0.4,0.7-1.1,0.7-2c0-1-0.3-1.7-0.9-2.1c-0.4-0.3-0.8-0.4-1.3-0.4C13.2,429.7,12.9,429.9,12.9,430.2
						z"/>
				</g>
				<g>
					<path class="st18" d="M-132.5,427.2c1.1,0,2.1,0.2,3.1,0.7c0.5,0.2,0.8,0.3,1,0.3c0.1,0,0.3,0,0.6-0.1c0.1,0,0.2,0,0.3,0
						c0.4,0,0.7,0.2,1,0.5c0.7,0.9,1.1,1.9,1.1,3.2c0,0.9-0.3,1.6-0.9,2c-0.3,0.2-0.7,0.3-1.1,0.3s-0.7-0.1-0.9-0.2
						c-0.2-0.2-0.5-0.5-0.7-0.9c-0.3-0.6-0.6-1-0.8-1.3s-0.4-0.5-0.7-0.7c-0.7-0.5-1.5-0.8-2.3-0.8s-1.4,0.3-1.8,0.8
						c-0.4,0.6-0.7,1.3-0.7,2.2c0,1.3,0.3,2.4,1,3.5c0.9,1.4,2.1,2.1,3.8,2.1c0.6,0,1.2-0.1,1.8-0.3c0.6-0.2,1-0.5,1.4-0.8
						c0.3-0.3,0.5-0.4,0.7-0.4c0.3,0,0.5,0.1,0.7,0.4c0.2,0.2,0.3,0.5,0.3,0.9s-0.1,0.9-0.4,1.5c-0.3,0.5-0.6,1-0.9,1.3
						c-0.2,0.1-0.5,0.2-1,0.3c-0.3,0.1-0.7,0.2-1.1,0.4c-1.1,0.5-2.2,0.8-3.4,0.8c-1.2,0-2.5-0.3-3.7-0.8c-1.4-0.6-2.6-1.6-3.4-3
						c-0.8-1.3-1.2-2.7-1.2-4.1c0-1.7,0.5-3.2,1.5-4.5c0.9-1.2,2.1-2.1,3.5-2.7C-134.8,427.4-133.7,427.2-132.5,427.2z"/>
					<path class="st18" d="M-110.4,435l2.1,4.5c0.2,0.4,0.4,0.7,0.5,0.8c0.1,0.1,0.3,0.2,0.6,0.3c0.5,0.1,0.8,0.4,0.8,0.8
						c0,0.5-0.3,0.9-1,1.2c-0.7,0.2-1.7,0.4-3.2,0.4c-1.7,0-2.9-0.1-3.7-0.2c-0.4-0.1-0.7-0.2-0.9-0.4c-0.2-0.2-0.3-0.5-0.3-0.7
						s0.1-0.4,0.2-0.5s0.3-0.2,0.6-0.3c0.4-0.1,0.5-0.3,0.5-0.6c0-0.5-0.3-0.8-0.9-0.9s-1.6-0.1-2.7-0.1c-1,0-1.6,0.1-1.8,0.2
						c-0.1,0.1-0.2,0.2-0.3,0.4c-0.1,0.2-0.1,0.4-0.1,0.6s0,0.3,0.1,0.3c0.1,0,0.3,0.1,0.6,0.2c0.5,0.1,0.7,0.4,0.7,0.8
						c0,0.9-1.1,1.3-3.2,1.3c-1.2,0-2.1-0.1-2.7-0.2c-0.5-0.2-0.8-0.5-0.8-1c0-0.2,0.1-0.4,0.2-0.5s0.3-0.2,0.6-0.3
						c0.5-0.2,0.9-0.4,1.1-0.7s0.6-1,1.1-2l1.6-3.4c0.6-1.3,1-2.2,1.2-2.8c0.2-0.6,0.3-1.2,0.3-1.8s0-1.1,0.1-1.3
						c0.1-0.2,0.2-0.5,0.5-0.7c0.5-0.5,1.2-0.8,2-0.8s1.5,0.3,2.2,0.9C-113.6,428.8-112.2,431.1-110.4,435z M-118.2,436.4h2.2
						c0.4,0,0.6-0.1,0.6-0.3c0-0.2-0.3-0.8-0.8-1.8c-0.3-0.4-0.4-0.7-0.6-0.9c-0.1-0.1-0.3-0.2-0.4-0.2c-0.3,0-0.5,0.2-0.7,0.7
						c0,0.1-0.1,0.3-0.3,0.8c-0.3,0.8-0.5,1.2-0.5,1.4S-118.5,436.4-118.2,436.4z"/>
					<path class="st18" d="M-99.8,428l5.6,4.9c0.5,0.5,0.9,0.7,1.1,0.7c0.4,0,0.6-0.4,0.6-1.2c0-0.9-0.1-1.6-0.2-1.9
						c-0.1-0.3-0.3-0.6-0.7-0.8c-0.3-0.1-0.5-0.3-0.6-0.4c-0.1-0.2-0.2-0.4-0.2-0.6c0-0.6,0.4-1,1.3-1.2c0.3-0.1,1-0.1,1.8-0.1
						c1.1,0,1.9,0.1,2.3,0.2c0.7,0.2,1,0.6,1,1.2c0,0.5-0.3,0.8-0.8,1.1c-0.2,0.1-0.4,0.2-0.5,0.3c-0.1,0.1-0.2,0.2-0.2,0.3
						c-0.2,0.5-0.3,1.4-0.3,2.8v3.6c0,0.6,0,1.3,0,2.3c0,1.3-0.1,2.3-0.2,2.8c-0.2,0.7-0.6,1.1-1.1,1.1c-0.2,0-0.4,0-0.6-0.1
						c-0.2-0.1-0.4-0.3-0.8-0.7l-6.6-5.9c-0.5-0.4-0.8-0.6-1.1-0.6c-0.5,0-0.7,0.6-0.7,1.9c0,1,0.1,1.7,0.2,2.1s0.4,0.7,0.7,0.8
						c0.5,0.2,0.7,0.6,0.7,1c0,1-1.1,1.6-3.3,1.6c-1,0-1.8-0.1-2.3-0.4c-0.6-0.3-0.8-0.6-0.8-1.1c0-0.3,0.1-0.4,0.2-0.6
						c0.1-0.1,0.3-0.3,0.7-0.5s0.6-0.6,0.6-1.1c0.1-1,0.2-2.3,0.2-4.1c0-1.9-0.1-3.3-0.3-4.2c-0.1-0.3-0.2-0.6-0.3-0.7
						c-0.1-0.2-0.3-0.3-0.6-0.4c-0.3-0.2-0.6-0.3-0.7-0.5s-0.2-0.3-0.2-0.6c0-0.7,0.6-1.2,1.8-1.3c0.4-0.1,1.1-0.1,2.2-0.1
						c0.6,0,1,0,1.3,0.1C-100.5,427.5-100.2,427.7-99.8,428z"/>
					<path class="st18" d="M-82.3,442.7h-0.8c-0.5,0-1,0-1.6,0.1c-0.4,0-0.6,0-0.8,0c-0.5,0-0.9-0.1-1.2-0.3
						c-0.3-0.2-0.5-0.5-0.5-0.9c0-0.3,0.1-0.5,0.2-0.6s0.4-0.3,0.7-0.4c0.3-0.1,0.5-0.2,0.6-0.4c0.1-0.2,0.2-0.5,0.2-1
						c0.1-0.6,0.1-1.6,0.2-3.3c0-1.6,0.1-3.2,0.1-4.8c0-0.6,0-1-0.1-1.2s-0.3-0.4-0.7-0.5c-0.5-0.2-0.8-0.5-0.8-1
						c0-0.4,0.2-0.6,0.5-0.9c0.4-0.2,0.8-0.3,1.5-0.3c0.2,0,0.5,0,0.7,0c0.6,0,1.1,0,1.4,0c1.1,0,2.3,0,3.6-0.1c0.3,0,0.6,0,1.1,0
						c1.7,0,3,0.2,4,0.6c1.5,0.6,2.6,1.6,3.3,2.9c0.7,1.2,1,2.6,1,4.3c0,0.8-0.1,1.7-0.4,2.5c-0.2,0.8-0.6,1.6-1,2.2
						c-0.9,1.2-2.1,2.1-3.6,2.6c-0.9,0.3-1.8,0.4-2.9,0.4h-1.3h-1.2C-80.8,442.7-81.6,442.7-82.3,442.7z M-80,430.6v8.6
						c0,0.5,0.1,0.8,0.3,1c0.2,0.2,0.5,0.3,1,0.3c2.2,0,3.3-1.6,3.3-4.9c0-1.8-0.3-3.2-0.8-4.2c-0.6-1.1-1.5-1.7-2.8-1.7
						c-0.4,0-0.6,0.1-0.8,0.2C-79.9,430-80,430.3-80,430.6z"/>
					<path class="st18" d="M-65.1,427.2c1.5,0,2.6,0.1,3.3,0.2c0.4,0.1,0.6,0.2,0.8,0.4c0.2,0.2,0.3,0.4,0.3,0.7
						c0,0.2-0.1,0.4-0.2,0.6c-0.2,0.3-0.4,0.5-0.4,0.7c0,0.3,0.2,0.7,0.6,1.3c0.3,0.4,0.5,0.6,0.8,0.6c0.2,0,0.3-0.1,0.5-0.2
						s0.3-0.3,0.6-0.6c0.3-0.4,0.4-0.7,0.4-0.9c0-0.1,0-0.2-0.1-0.3c0-0.1-0.2-0.2-0.4-0.5c-0.1-0.2-0.2-0.4-0.2-0.7
						c0-0.8,1.1-1.3,3.4-1.3c1.3,0,2.1,0.1,2.5,0.2c0.2,0.1,0.4,0.2,0.6,0.4c0.2,0.2,0.2,0.4,0.2,0.7c0,0.3-0.1,0.5-0.3,0.7
						s-0.5,0.3-1,0.4c-0.4,0.1-0.8,0.2-1.1,0.5c-0.3,0.2-0.9,0.8-1.7,1.7c-1,1.1-1.6,1.9-1.9,2.4c-0.2,0.5-0.4,1.3-0.4,2.3
						c0,0.9,0,1.7,0.1,2.4c0,0.5,0.1,0.8,0.2,0.9c0.1,0.2,0.3,0.3,0.6,0.5c0.5,0.3,0.8,0.6,0.8,1.1c0,1-1.5,1.5-4.5,1.5
						c-1.2,0-2.4-0.1-3.5-0.4c-0.9-0.2-1.4-0.6-1.4-1.2c0-0.5,0.3-0.8,0.9-1c0.4-0.1,0.7-0.3,0.8-0.6c0.2-0.5,0.4-1.7,0.4-3.6
						c0-0.6-0.1-1.1-0.2-1.4s-0.4-0.8-0.8-1.3c-0.8-1.1-1.7-2.1-2.6-3c-0.4-0.4-0.8-0.6-1.1-0.8c-0.5-0.2-0.8-0.3-0.9-0.4
						c-0.2-0.2-0.3-0.4-0.3-0.7c0-0.5,0.4-0.9,1.1-1.1C-68.1,427.4-66.9,427.2-65.1,427.2z"/>
					<path class="st18" d="M-39.3,427.2c0.8,0,1.8,0.2,3,0.6c0.1,0,0.3,0.1,0.4,0.1c0.1,0,0.3-0.1,0.7-0.2c0.1,0,0.2-0.1,0.4-0.1
						c0.5,0,1,0.4,1.6,1.2s0.8,1.5,0.8,2.3c0,0.4-0.1,0.8-0.4,1.1c-0.2,0.3-0.6,0.4-0.9,0.4c-0.3,0-0.5-0.1-0.7-0.2
						s-0.6-0.5-1.2-1.1c-0.9-0.8-1.8-1.3-2.6-1.3c-0.4,0-0.7,0.1-1,0.3c-0.2,0.2-0.4,0.5-0.4,0.8c0,0.6,0.6,1.1,1.7,1.5
						c1.5,0.5,2.5,0.8,3,1c1.9,0.9,2.8,2.3,2.8,4.1c0,1.6-0.6,2.9-1.9,3.9c-1.3,1-3.1,1.5-5.2,1.5c-1,0-2-0.1-3-0.3
						c-1.1-0.2-1.8-0.5-2.3-0.8c-0.4-0.2-0.7-0.8-1-1.6c-0.3-0.8-0.4-1.6-0.4-2.3c0-0.4,0.1-0.6,0.2-0.8c0.2-0.2,0.4-0.4,0.7-0.4
						s0.6,0.1,0.8,0.4c0.2,0.2,0.5,0.7,1.1,1.6c0.3,0.4,0.7,0.8,1.3,1c0.6,0.3,1.2,0.4,1.9,0.4c0.6,0,1-0.1,1.3-0.3s0.5-0.5,0.5-0.8
						s-0.1-0.6-0.4-0.8c-0.3-0.2-0.7-0.4-1.3-0.6c-1.1-0.3-1.9-0.6-2.4-0.9c-0.6-0.3-1.1-0.6-1.6-1.1c-1.2-1-1.8-2.2-1.8-3.5
						c0-0.7,0.2-1.3,0.5-1.9s0.7-1.2,1.3-1.6C-42.6,427.7-41.1,427.2-39.3,427.2z"/>
					<path class="st18" d="M-26.5,427.2c2.3,0,3.5,0.5,3.5,1.4c0,0.3-0.1,0.5-0.2,0.6c-0.1,0.2-0.3,0.3-0.7,0.5
						c-0.3,0.2-0.5,0.4-0.6,0.7c-0.1,0.3-0.1,0.9-0.1,1.8c0,0.5,0.1,0.8,0.3,1c0.1,0.1,0.3,0.1,0.5,0.1s0.8,0,1.6,0s1.2,0,1.4-0.1
						s0.3-0.3,0.3-0.6c0-1,0-1.7-0.1-2.1s-0.3-0.7-0.5-0.8c-0.3-0.2-0.5-0.3-0.6-0.5c-0.1-0.1-0.2-0.3-0.2-0.5
						c0-0.3,0.1-0.6,0.3-0.8c0.2-0.2,0.5-0.4,0.9-0.5c0.8-0.2,1.7-0.3,2.9-0.3c1.4,0,2.4,0.1,3,0.4c0.7,0.2,1,0.6,1,1.2
						c0,0.4-0.2,0.8-0.7,1c-0.3,0.1-0.5,0.3-0.6,0.4s-0.2,0.4-0.2,0.7c0,0.2-0.1,1-0.1,2.5s-0.1,2.6-0.1,3.5c0,1.5,0.1,2.5,0.2,2.9
						c0.1,0.2,0.1,0.4,0.2,0.4c0.1,0.1,0.3,0.2,0.7,0.4c0.3,0.2,0.4,0.4,0.4,0.7c0,0.6-0.3,1-1,1.2c-0.7,0.3-1.8,0.4-3.3,0.4
						c-1.3,0-2.3-0.1-2.9-0.4c-0.6-0.2-0.9-0.6-0.9-1.1c0-0.4,0.2-0.8,0.7-1c0.2-0.1,0.4-0.2,0.4-0.4c0.1-0.1,0.2-0.3,0.2-0.7
						c0.1-0.6,0.2-1.4,0.2-2.3c0-0.5-0.1-0.8-0.2-0.9c-0.1-0.1-0.5-0.2-1.1-0.2c-1.3,0-2.2,0.1-2.5,0.2c-0.1,0.1-0.2,0.2-0.3,0.5
						c0,0.4-0.1,0.8-0.1,1.3c0,0.8,0.1,1.5,0.4,1.8c0.1,0.1,0.3,0.3,0.6,0.5s0.5,0.5,0.5,0.9c0,0.5-0.4,0.9-1.1,1.2
						s-1.8,0.4-3.1,0.4c-1.2,0-2.2-0.1-3-0.4c-0.3-0.1-0.6-0.3-0.8-0.5s-0.3-0.4-0.3-0.7c0-0.2,0.1-0.4,0.2-0.6
						c0.1-0.1,0.4-0.3,0.8-0.5c0.2-0.1,0.4-0.2,0.4-0.4c0.1-0.2,0.2-0.4,0.2-0.8c0.1-0.9,0.2-2,0.2-3.4c0-0.3,0-0.6,0-0.9
						c0-1.8,0-2.8,0-3.1c0-0.6,0-1.1-0.2-1.3c-0.1-0.2-0.4-0.4-0.9-0.7c-0.3-0.2-0.5-0.4-0.5-0.7c0-0.7,0.7-1.3,2.2-1.6
						C-28.3,427.3-27.4,427.2-26.5,427.2z"/>
					<path class="st18" d="M-4.4,427.2c1.9,0,3.6,0.5,5,1.6c1,0.7,1.8,1.7,2.4,2.9s0.9,2.4,0.9,3.6c0,1.8-0.6,3.3-1.7,4.7
						c-1,1.2-2.3,2-3.8,2.5c-1,0.3-2,0.5-2.9,0.5c-1.3,0-2.5-0.3-3.7-0.8c-1.4-0.6-2.5-1.6-3.3-2.9s-1.2-2.7-1.2-4.2
						c0-1.8,0.5-3.3,1.5-4.7c0.9-1.2,2.1-2.1,3.6-2.7C-6.8,427.4-5.7,427.2-4.4,427.2z M-5.5,430.4c-0.6,0-1.1,0.3-1.5,0.8
						c-0.3,0.4-0.4,0.9-0.4,1.5c0,0.8,0.2,1.8,0.5,2.9s0.8,2.1,1.3,2.9c0.2,0.4,0.5,0.7,0.9,0.9c0.3,0.2,0.7,0.3,1,0.3
						c0.6,0,1-0.2,1.4-0.6c0.3-0.4,0.5-1,0.5-1.7c0-0.9-0.1-1.9-0.4-2.9s-0.7-1.9-1.1-2.7c-0.3-0.5-0.6-0.8-1-1.1
						C-4.7,430.5-5.1,430.4-5.5,430.4z"/>
					<path class="st18" d="M6.6,437.5v-5.9c0-0.8-0.1-1.2-0.2-1.4s-0.4-0.4-0.8-0.5c-0.7-0.2-1-0.5-1-1c0-0.3,0.1-0.6,0.4-0.8
						s0.7-0.3,1.2-0.3c0.2,0,0.6,0,1.3,0h0.7c1.2,0,2,0,2.2,0s1-0.1,2.3-0.2c0.4,0,0.8-0.1,1.2-0.1c1.2,0,2.3,0.2,3.3,0.7
						c1.7,0.9,2.5,2.2,2.5,4.1c0,1.5-0.6,2.7-1.7,3.6s-2.4,1.3-4,1.3c-0.4,0-0.9,0-1.5-0.1c-0.3,0-0.5,0-0.6,0
						c-0.2,0-0.3,0.1-0.3,0.4v0.1l0.1,1.8c0,0.4,0.1,0.6,0.2,0.8c0.1,0.2,0.4,0.4,0.7,0.5c0.5,0.3,0.7,0.5,0.7,0.8
						c0,0.5-0.4,0.8-1.1,1.1c-0.7,0.3-1.7,0.4-3,0.4c-2.8,0-4.1-0.5-4.1-1.4c0-0.2,0.1-0.4,0.2-0.5s0.4-0.3,0.8-0.5
						c0.3-0.1,0.4-0.3,0.5-0.6C6.6,439.6,6.6,438.8,6.6,437.5z M11.7,430.2v3.8c0,0.3,0.1,0.5,0.2,0.5c0.2,0.1,0.5,0.2,0.8,0.2
						c0.5,0,0.9-0.1,1.2-0.4c0.5-0.4,0.7-1.1,0.7-2c0-1-0.3-1.7-0.9-2.1c-0.4-0.3-0.8-0.4-1.3-0.4C12,429.7,11.7,429.9,11.7,430.2z"
						/>
				</g>
			</g>
			<g>
				<g>
					<path class="st19" d="M3.2,326.3l-25-5.9l-138.9-32.8c-5.6-1.3-11.2,2.2-12.5,7.8s2.2,11.2,7.8,12.5l52.9,12.5l111,26.2
						c5.6,1.3,11.2-2.1,12.5-7.8C12.2,333.3,8.8,327.7,3.2,326.3z"/>
					<path class="st3" d="M10.9,338.9c1.3-5.6-2.1-11.2-7.8-12.5l-25-5.9h-90.8l111,26.2C4,348,9.6,344.5,10.9,338.9z"/>
				</g>
				<g>
					<path class="st20" d="M-134.8,263.7c-2.5-11.7-7.6-22.3-14.8-31.4c-5-6.2-10.9-11.7-17.5-16.1c-9.9-6.6-21.5-11-34-12.3
						c-2.7-0.3-5.3-0.4-8.1-0.4c-5.6,0-11.1,0.6-16.3,1.8c-11.4,2.5-21.9,7.6-30.7,14.6c-6.5,5.1-12.2,11.3-16.7,18.3
						c-6.7,10.3-11,22.4-12,35.4c-0.2,2-0.2,4-0.2,6c0,6.4,0.8,12.6,2.3,18.5c3,12.1,9,23,17,32.1c5.4,6,11.6,11.1,18.6,15.2
						c11.2,6.5,24.2,10.2,38.1,10.2c0.1,0,0.3,0,0.4,0c8,0,15.8-1.3,23-3.7c10.2-3.3,19.4-8.7,27.1-15.6
						c5.7-5.1,10.7-11.1,14.6-17.7c5.7-9.4,9.3-20.2,10.4-31.8c0.2-2.4,0.3-4.8,0.3-7.3C-133.2,274.1-133.8,268.8-134.8,263.7z"/>
					<path class="st2" d="M-225.7,222.2c1.2,37.2,17.5,58.5,18.8,60.2h0.1c-0.4-2.2-5.5-33.1,1-60.4c1.5-6.2,3.1-12.3,4.7-18.1
						c-2.7-0.3-5.3-0.4-8.1-0.4c-5.6,0-11.1,0.6-16.3,1.8C-225.8,210.7-225.9,216.4-225.7,222.2z"/>
					<path class="st2" d="M-177.5,226.5c-26.6,28.3-29.3,56-29.3,56s0,0,0.1-0.1l0,0l0,0c1.2-1.7,19.4-27.3,43.4-42
						c4.6-2.8,9.2-5.5,13.7-8.1c-5-6.2-10.9-11.7-17.5-16.1C-170.6,219.4-174.1,222.9-177.5,226.5z"/>
					<path class="st2" d="M-146.5,263.7c-37.2,1.2-58.5,17.5-60.2,18.8l0,0h0.1c3.1-0.5,33.4-5.4,60.3,1c4.3,1,8.6,2.1,12.8,3.3
						c0.2-2.4,0.3-4.8,0.3-7.3c0-5.4-0.6-10.7-1.7-15.9C-138.6,263.6-142.5,263.6-146.5,263.7z"/>
					<path class="st2" d="M-144,318.6c-2.2-2.3-4.5-4.5-6.9-6.8c-26.7-25.1-52.9-28.9-55.8-29.3h-0.1c0,0,0.1,0.1,0.2,0.2
						c3.1,2.2,27.5,20,41.8,43.3c2.1,3.4,4.2,6.9,6.1,10.3C-152.9,331.2-147.9,325.2-144,318.6z"/>
					<path class="st2" d="M-206.5,282.8c-0.1-0.1-0.2-0.1-0.2-0.2c0.5,2.4,6.5,33,0.8,60.4c-0.9,4.3-1.8,8.5-2.8,12.6
						c8,0,15.8-1.3,23-3.7c0-3.2-0.2-6.4-0.4-9.7C-188.3,306.2-204.3,285.5-206.5,282.8z"/>
					<path class="st2" d="M-206.8,282.5c0,0-19.8,26.1-45.2,40.2c-4.7,2.6-9.4,5.1-13.9,7.4c5.4,6,11.6,11.1,18.6,15.2
						c2.9-2.6,5.9-5.3,8.8-8.1C-210.7,310.1-206.8,282.5-206.8,282.5z"/>
					<path class="st2" d="M-207,282.5c-0.1,0-0.2,0-0.3,0c-4,0.5-33.9,3.9-60-3.5c-6.1-1.7-12.1-3.6-17.7-5.4c-0.2,2-0.2,4-0.2,6
						c0,6.4,0.8,12.6,2.3,18.5c4.8,0.4,9.9,0.7,15.1,0.7C-230.8,299.2-208.9,283.9-207,282.5z"/>
					<path class="st2" d="M-207.3,282.5c0.1,0,0.2,0,0.3,0c-2.1-1.6-26.5-20.8-40.1-45.1c-3.3-5.9-6.4-11.9-9.2-17.5
						c-6.5,5.1-12.2,11.3-16.7,18.3c3.5,4.2,7.3,8.5,11.5,12.7C-236.4,276.6-210.9,281.8-207.3,282.5z"/>
				</g>
			</g>
		</g>
		<g id="Candy">
			<g>
				<path class="st21" d="M64.8,560.3c-0.2,1.5-1.5,2.5-3,2.2L35,568.9c-1.5-0.2-2.5-1.5-2.2-3l5.2-33.6c0.2-1.5,1.6-2.5,3-2.2
					l23.4,15.2c1.5,0.2,2.5,1.6,2.2,3L64.8,560.3z"/>
				<path class="st21" d="M104.3,567.1c-0.3,1.5,0.7,2.9,2.2,3.1l23,15c1.5,0.3,2.9-0.7,3.1-2.2l6.3-33.4c0.2-1.5-0.7-2.9-2.2-3.1
					l-27.1,6.6c-1.5-0.3-2.9,0.7-3.1,2.1L104.3,567.1z"/>
				<path class="st15" d="M69,532.1c-2.6-0.5-5.1,1.3-5.5,3.9l-5.9,34.1c-0.5,2.6,1.3,5.1,3.9,5.5l12.7,2.2l7.5-43.5L69,532.1z"/>
				<path class="st15" d="M108.4,538.9l-12.7-2.2l-7.5,43.5l12.7,2.2c2.6,0.5,5.1-1.3,5.5-3.9l5.9-34.1
					C112.8,541.8,111.1,539.3,108.4,538.9z"/>
				
					<rect x="63" y="550.1" transform="matrix(0.1692 -0.9856 0.9856 0.1692 -478.5182 546.7832)" class="st16" width="44.2" height="14.3"/>
			</g>
			<g>
				<path class="st20" d="M-3.4,576.1c0.2,1.2-0.6,2.4-1.9,2.6l-20.1,12.2c-1.2,0.2-2.4-0.6-2.6-1.9l-4.5-28.7
					c-0.2-1.2,0.6-2.4,1.9-2.6l23,6.3c1.2-0.2,2.4,0.7,2.6,1.9L-3.4,576.1z"/>
				<path class="st20" d="M37.7,570.3c0.2,1.2,1.4,2.1,2.6,1.9l22.9,5.5c1.2-0.2,2.1-1.4,1.9-2.6l-4.5-28.7
					c-0.2-1.2-1.4-2.1-2.6-1.9l-19.9,13.1c-1.2,0.2-2.1,1.4-1.9,2.6L37.7,570.3z"/>
				<path class="st22" d="M41.4,558.5c-1.2-2.9-2.9-5.5-5.1-7.7c-0.8-0.8-1.6-1.5-2.6-2.2c-2.8-2.2-6.1-3.8-9.7-4.8
					c-0.9-0.2-1.7-0.4-2.6-0.5c-3.2-0.5-6.5-0.6-9.9-0.2c-0.2,0-0.3,0.1-0.5,0.1c-15.3,2.4-26.1,15.3-24,28.8c0.4,2.2,1,4.3,2,6.3
					c1.3,2.7,3.2,5.1,5.4,7.1c0.6,0.5,1.2,1.1,1.9,1.6c2.9,2.1,6.3,3.7,9.9,4.6c1.2,0.3,2.3,0.5,3.5,0.6c2.9,0.4,5.8,0.3,8.8-0.2
					c0.5-0.1,0.9-0.2,1.4-0.2c14.5-2.9,24.6-15.5,22.5-28.5C42.4,561.6,42,560,41.4,558.5z"/>
				<path class="st3" d="M24,543.8L-3.5,587c2.9,2.1,6.3,3.7,9.9,4.6l27.4-42.9C31,546.4,27.6,544.7,24,543.8z"/>
				<path class="st3" d="M11.6,543l-22.4,35.1c1.3,2.7,3.2,5.1,5.4,7.1l26.8-42.1C18.3,542.6,15,542.6,11.6,543z"/>
				<path class="st3" d="M9.9,592.1c2.9,0.4,5.8,0.3,8.8-0.2c0.5-0.1,0.9-0.2,1.4-0.2l21.3-33.3c-1.2-2.9-2.9-5.5-5.1-7.7L9.9,592.1
					z"/>
			</g>
			<g>
				<path class="st18" d="M55.9,557l-15.5,13l-21,17.6c-9.4,9.4,1.2,9.9,4.3,9.9l29.5-1.6l15.3-0.9l14.3-0.8c2.5-1,3.7-3.8,2.7-6.3
					l-14.2-36c-1-2.5-3.8-3.7-6.3-2.7L55.9,557z"/>
				<path class="st23" d="M82.8,594.4c2.5-1,3.7-3.8,2.7-6.3l-14.2-36c-1-2.5-3.8-3.7-6.3-2.7l-9.1,7.7L40.4,570
					c8.3,7,9.6,22.3,4.1,26.4l24-1.3L82.8,594.4z"/>
				<path class="st24" d="M85.6,588.1l-14.2-36c-1-2.5-3.8-3.7-6.3-2.7l-9.1,7.7c8.6,14.8,11.6,30.5,12.5,38.1l14.3-0.8
					C85.3,593.4,86.5,590.6,85.6,588.1z"/>
			</g>
			<g>
				<path class="st2" d="M-344.8,572.7c0.2,1.5-0.8,2.9-2.3,3.1l-24.3,14.9c-1.5,0.2-2.9-0.8-3.1-2.3l-5.5-34.7
					c-0.2-1.5,0.8-2.9,2.3-3.1l27.9,7.6c1.5-0.2,2.9,0.8,3.1,2.3L-344.8,572.7z"/>
				<path class="st2" d="M-303.6,566.9c0.2,1.5,1.6,2.6,3.1,2.4l27.5,7.5c1.5-0.2,2.6-1.6,2.4-3l-4.4-34.9c-0.2-1.5-1.6-2.6-3-2.4
					l-24.7,15.1c-1.5,0.2-2.6,1.6-2.4,3L-303.6,566.9z"/>
				<path class="st20" d="M-349.6,543.6c-2.7,0.4-4.6,2.9-4.2,5.6l5,35.5c0.4,2.7,2.9,4.6,5.6,4.2l13.1-1.8l-6.5-45.2L-349.6,543.6z
					"/>
				<path class="st20" d="M-308.6,537.8l-13.1,1.8l6.4,45.2l13.1-1.8c2.7-0.4,4.6-2.9,4.2-5.6l-5-35.5
					C-303.3,539.3-305.9,537.4-308.6,537.8z"/>
				
					<rect x="-348.6" y="555.9" transform="matrix(-0.1411 -0.99 0.99 -0.1411 -929.45 320.2756)" class="st3" width="45.7" height="14.8"/>
			</g>
			<g>
				<path class="st18" d="M-274.8,580.3l-5-20.4l-6.9-27.5c-4.5-12.9-9.8-3.4-11.2-0.5l-11.8,28.2l-6.2,14.7l-5.8,13.7
					c-0.2,2.7,1.8,5.1,4.6,5.4l40,3c2.7,0.2,5.1-1.8,5.4-4.6L-274.8,580.3z"/>
				<path class="st23" d="M-321.7,588.4c-0.2,2.7,1.8,5.1,4.6,5.4l40,3c2.7,0.2,5.1-1.8,5.4-4.6l-3-11.9l-5-20.4
					c-10.2,4.6-25.1-1.2-26.4-8.2l-9.7,23L-321.7,588.4z"/>
				<path class="st24" d="M-317.2,593.7l40,3c2.7,0.2,5.1-1.8,5.4-4.6l-3-11.9c-17.7,1.3-33.6-3-41.2-5.6l-5.8,13.7
					C-321.9,591.2-319.9,593.5-317.2,593.7z"/>
			</g>
		</g>
	</g>
</g>
</svg>
