<?xml version="1.0" encoding="utf-8"?>
<!-- Generator: Adobe Illustrator 19.0.0, SVG Export Plug-In . SVG Version: 6.00 Build 0)  -->
<svg version="1.1" id="Layer_1" xmlns="http://www.w3.org/2000/svg" xmlns:xlink="http://www.w3.org/1999/xlink" x="0px" y="0px"
	 viewBox="0 0 536.6 380.9" style="enable-background:new 0 0 536.6 380.9;" xml:space="preserve">
<style type="text/css">
	.st0{fill:#CC8229;}
	.st1{fill:#6C98AF;}
	.st2{fill:#6487A9;}
	.st3{fill:#526D7F;}
	.st4{fill:#DCA327;}
	.st5{fill:#EDBA21;}
	.st6{fill:#FBD476;}
	.st7{fill:#FAE5A8;}
	.st8{fill:#FFD34C;}
	.st9{fill:#7AB9E5;}
	.st10{fill:#90CFF1;}
	.st11{fill:#88B4CD;}
	.st12{fill:#5C83AA;}
	.st13{fill:#49688E;}
	.st14{fill:#668FB2;}
	.st15{fill:#5A84AC;}
	.st16{fill:#2E598C;}
	.st17{fill:#A6C5E0;}
	.st18{fill:#C1D9EA;}
	.st19{fill:#457893;}
	.st20{fill:#1F3F59;}
	.st21{fill:#9DD6F4;}
	.st22{fill:#B2E2F9;}
	.st23{fill:#122A3A;}
	.st24{fill:#3D6984;}
	.st25{fill:#356077;}
	.st26{fill:#B6D2E5;}
	.st27{fill:#9BBACD;}
</style>
<g>
	<path class="st0" d="M107.7,370.4l291.1,10.6L383,353.3l153.6,8.2v-4.6c-121.3-42.8-255.9-39.1-385.5-33
		c-44.7,2.1-89.9,4.4-133.1,16.2c-4.3,1.2-8.5,2.4-12.7,3.8l99.9,4.6L107.7,370.4z"/>
</g>
<g id="XMLID_436_">
	<path id="XMLID_560_" class="st1" d="M371.5,288.2c-7.4,5.2-17.8,18.1-20.8,49.5c35.4,0.9,71.3,2.5,106.6,4.8l6.3-26.7
		c-25.1-20.3-90.9-27.5-90.9-27.5L371.5,288.2z"/>
	<path id="XMLID_559_" class="st2" d="M378.9,284.8c-1.1,0.2-3.9,1-7.4,3.4l1.1,0.1c0,0,65.8,7.2,90.9,27.5l4.4-18.7
		C468,297.1,433.8,290.7,378.9,284.8z"/>
	<polygon id="XMLID_558_" class="st3" points="356.3,228.4 352.6,241.7 430.1,253.6 432.1,232.5 	"/>
	<g id="XMLID_549_">
		<g id="XMLID_552_">
			<path id="XMLID_557_" class="st4" d="M215.2,103.5c-54.8,17.1-51.7,60.9-51.7,60.9l26.2,0.5C183.8,134.4,203.1,113.4,215.2,103.5
				z"/>
			<path id="XMLID_556_" class="st5" d="M230.3,99.8c-5.4,1-10.5,2.3-15,3.7c-12.1,9.9-31.5,31-25.5,61.4l25.5,0.5
				C212.6,127.7,223.6,108.1,230.3,99.8z"/>
			<path id="XMLID_555_" class="st6" d="M262,109.3c-9.1-4.4-17.6-7.3-22.9-8.8c6.9,10.2,19.6,33.6,18.7,65.5l24.6,0.4
				C286.1,140.2,272.1,120.1,262,109.3z"/>
			<path id="XMLID_554_" class="st7" d="M262,109.3c10.2,10.8,24.1,30.9,20.4,57.2l16.7,0.3C305.2,137.3,282.3,119.3,262,109.3z"/>
			<path id="XMLID_553_" class="st8" d="M233.8,99.1c-1.2,0.2-2.4,0.4-3.5,0.6c-6.7,8.3-17.7,27.9-15.1,65.5l42.6,0.8
				c0.9-31.9-11.8-55.3-18.7-65.5C235.8,99.6,233.8,99.1,233.8,99.1z"/>
		</g>
		<path id="XMLID_551_" class="st9" d="M263.3,171.8l-2.4-21c-1.2-0.2-2.4-0.5-3.7-0.7c-7.3-1.3-15.4-2.1-24.3-2
			c-6.3,0-12.3,0.4-17.9,1c-9.9,1-18.7,2.8-26.3,4.9c-21.7,5.9-33.7,14.2-33.7,14.2l-3,12.8L119.8,197l190.3,0.4
			C260.9,176.8,207,168.1,207,168.1C240,164.6,263.3,171.8,263.3,171.8z"/>
		<path id="XMLID_550_" class="st10" d="M308.2,186l-1.5-13.6c0,0-7.9-7.9-23.7-14.7c-6.2-2.7-13.6-5.2-22.2-7l2.4,21
			c0,0-23.3-7.2-56.3-3.8c0,0,53.9,8.7,103.1,29.4l26,0.1L308.2,186z"/>
	</g>
	<g id="XMLID_538_">
		<path id="XMLID_548_" class="st11" d="M386.2,90.9c-1.7,3.9-19.2,4.7-24.3,4.8l0.5-21.3l22.7-9.3
			C385.8,69.8,387.7,87.7,386.2,90.9z"/>
		<path id="XMLID_547_" class="st12" d="M386.2,90.9c1.4-3.2-0.4-21.2-1.1-25.8l4.9,9.8l-2.3,55.4l-3.8-0.1
			c0.2-6.3,0.6-25.9-0.6-28.5c-1.1-2.7-16.7-1.8-21.5-2l0.1-3.9C367,95.6,384.5,94.8,386.2,90.9z"/>
		<path id="XMLID_546_" class="st11" d="M383.4,101.7c1.1,2.7,0.7,22.2,0.6,28.5l-22.7-0.7l0.7-29.8
			C366.7,99.9,382.3,99,383.4,101.7z"/>
		<path id="XMLID_545_" class="st7" d="M379,0l-2.5,11.4l5.8,61c2.5,0.5,5.1,1.3,7.8,2.6L379,0z"/>
		<path id="XMLID_544_" class="st8" d="M362.5,74.4c0,0,8.1-4.5,19.8-2.1l-5.8-61L362.5,74.4z"/>
		<path id="XMLID_543_" class="st13" d="M391.3,152.8l7.5-2.1c0,0-10.2-6.4-28.6-7.2c-18.4-0.8-24.6,5.2-24.6,5.2l8,3L391.3,152.8z"
			/>
		<polygon id="XMLID_542_" class="st13" points="387.7,220.7 391.3,152.8 378.5,148 374.6,215.4 		"/>
		<polygon id="XMLID_541_" class="st14" points="378.5,148 363.6,147.4 358.6,208.8 374.6,215.4 		"/>
		<polygon id="XMLID_540_" class="st11" points="363.6,147.4 353.6,151.7 348.9,204.8 358.6,208.8 		"/>
		<path id="XMLID_539_" class="st15" d="M346.9,132.3c14.4-4.8,27.5-4.5,37.1-3c0,1.7-0.1,2.8-0.1,2.8s0-1.1,0.1-2.8
			c9.9,1.6,16,4.5,16,4.5l-1.2,16.9c-32.5-13.4-53.3-2-53.3-2L346.9,132.3z"/>
	</g>
	<path id="XMLID_537_" class="st16" d="M119.8,197c-4,0.8-68.1,26.1-68.1,26.1l244.5,0.2l-27.7-33.1
		C191,186.4,122.9,196.5,119.8,197z"/>
	<path id="XMLID_536_" class="st16" d="M410.4,223.4l-73.1-25.6c-8.8-1.6-17.6-2.9-26.5-4l27,29.5L410.4,223.4z"/>
	<path id="XMLID_535_" class="st14" d="M310.9,193.8c-14.2-1.7-28.5-2.9-42.4-3.6l27.7,33.1l41.6,0L310.9,193.8z"/>
	<polygon id="XMLID_534_" class="st3" points="37.9,236.5 38.1,249.9 90.3,244.5 90.1,233.3 	"/>
	<path id="XMLID_531_" class="st2" d="M77.4,281.3c0.7,2.7,0.8,4.4,0.8,4.4l-17.8,1.8c0,0,3.3,0.4,7.6,5.9c0.9,0,1.3,0.1,1.3,0.1
		s-0.5,0-1.3-0.1c4.9,6.3,11.1,19.3,15.2,46.2c61.8-2.3,162.2-4.7,267.4-2c3-31.4,13.4-44.3,20.8-49.5l-4.4-0.4l4.4,0.4
		c3.4-2.4,6.3-3.2,7.4-3.4C305.1,276.9,193.8,270.1,77.4,281.3z M96.5,301l3.9,30.2L96.5,301z"/>
	<path id="XMLID_530_" class="st2" d="M68.1,293.4c-4.3-5.5-7.6-5.9-7.6-5.9l17.8-1.8c0,0-0.2-1.7-0.8-4.4
		c-23,2.2-46.3,5.1-69.4,8.9l2.2,8.9C25,291.9,60.8,293.1,68.1,293.4z"/>
	<path id="XMLID_529_" class="st1" d="M83.3,339.7c-4-26.9-10.2-39.9-15.2-46.2c-7.4-0.3-43.1-1.5-57.9,5.7l10.6,43.4
		C20.8,342.5,44.4,341.1,83.3,339.7z"/>
	<path id="XMLID_528_" class="st17" d="M57.1,259.3c-36.3,5.4-57.7,10.3-57.7,10.3l0.2,3.6l66.5-9.8
		C62.9,261.5,59.4,260.1,57.1,259.3z"/>
	<path id="XMLID_527_" class="st1" d="M78.2,285.7c0,0-0.7-6.2-4.2-14.6c-1.3-3.2-4.5-5.8-7.9-7.8l-66.5,9.8L1,293.8
		c20.1-2.5,40-4.5,59.5-6.2c0,0-0.1,0-0.1,0L78.2,285.7z"/>
	<path id="XMLID_526_" class="st2" d="M357.9,282.2c3.9-15.9,12.6-23.8,18.7-27.4c-37.2-5.2-82.8-9.2-133.8-9.2
		c-76,0-141.8,7.2-185.8,13.8c2.3,0.8,5.8,2.2,9,4.1l1.3-0.2l-1.3,0.2c3.4,2,6.6,4.6,7.9,7.8c3.5,8.4,4.2,14.6,4.2,14.6l-17.8,1.8
		c0,0,0,0,0.1,0c123.6-10.5,235.3-5.9,311.3,0.4c4.3-2.9,7.5-3.3,7.5-3.3L357.9,282.2z"/>
	<path id="XMLID_525_" class="st17" d="M480,275.7c0,0-39.4-12-103.4-20.9c-1.5,0.9-3.2,2.1-5,3.6c14.8,2.4,77.3,12.8,107.1,22.1
		L480,275.7z"/>
	<path id="XMLID_524_" class="st1" d="M371.7,258.3c-5.2,4.5-10.9,11.9-13.8,23.9l21.5,2.5c0,0-3.2,0.4-7.5,3.3
		c63.5,5.3,102.1,11.8,102.1,11.8l4.8-19.3C449,271.1,386.5,260.7,371.7,258.3z"/>
	<polygon id="XMLID_523_" class="st1" points="360.1,232.1 87.5,232.1 88.7,241.3 358.9,241.3 	"/>
	<polygon id="XMLID_522_" class="st17" points="88.7,241.3 99.3,322.7 96.5,301 99.3,322.7 101.5,340 346.5,338 358.9,241.3 	"/>
	<path id="XMLID_521_" class="st17" d="M24.3,228.9v9.6l137.4-6.3c0,0,216.8-2.3,279.6,4.3l0.7-7.5C327.9,215,72.8,226.5,24.3,228.9
		z"/>
	<path id="XMLID_520_" class="st18" d="M442,229l0.3-3.6c0,0-252.2-19.6-418,0.5v3C72.8,226.5,327.9,215,442,229z"/>
	<path id="XMLID_519_" class="st1" d="M160.5,221.4l5.7,117.9h113.5l8.7-123.9C288.4,215.4,211.1,217.7,160.5,221.4z"/>
	<path id="XMLID_518_" class="st18" d="M293,211.5l-0.2-2.5c0,0-88.4,1.7-137.7,5.5l0.1,2.9C175.3,216.1,265.3,210.4,293,211.5z"/>
	<path id="XMLID_517_" class="st17" d="M155.3,217.4l0.2,4.3l5-0.3l128.2-5.3l4.8,0.3l-0.4-4.8C265.3,210.4,175.3,216.1,155.3,217.4
		z"/>
	<path id="XMLID_516_" class="st16" d="M54.3,258.4c0,0,1.8,0.5,4.2,1.4l31.9-5L89,243.7c0,0-49.4,5.5-51.1,5.5
		c-1.7,0-31.2,19.1-31.2,19.1l51.8-8.5C56.1,258.9,54.3,258.4,54.3,258.4z"/>
	<path id="XMLID_515_" class="st16" d="M358.7,241.9l-1.3,10.3c6.6,0.8,13,1.7,19.2,2.6c19.2,2.8,35.9,5.7,49.4,8.3l-11.7-13.9
		C393.4,246.5,358.7,241.9,358.7,241.9z"/>
	<path id="XMLID_514_" class="st14" d="M429.8,251.4c-0.4-0.1-6.8-1-15.5-2.1l11.7,13.9c23.5,4.6,37.3,8.2,37.3,8.2
		S431.3,251.7,429.8,251.4z"/>
	<path id="XMLID_513_" class="st19" d="M28.7,299.4c-3.3,2-8.5,10-8.2,12.2c0.3,2.2,4.5,22.6,4.5,22.6l22.6-1.3
		c0,0-3.2-20.9-4.4-23.6C42.1,306.6,32,297.4,28.7,299.4z"/>
	<path id="XMLID_512_" class="st20" d="M26.7,334.3c0,0-3.9-18.9-4.2-20.9c-0.3-2,4.5-9.4,7.6-11.3c3.1-1.9,12.4,6.6,13.4,9.1
		c1.1,2.5,4,21.8,4,21.8L26.7,334.3z"/>
	<path id="XMLID_511_" class="st19" d="M71.9,307.7c-1.2-2.7-11.2-11.9-14.6-9.9c-3.3,2-8.5,10-8.2,12.2c0.3,2.2,4.5,22.6,4.5,22.6
		l22.6-1.3C76.2,331.3,73.1,310.3,71.9,307.7z"/>
	<path id="XMLID_510_" class="st20" d="M72.2,309.6c-1.1-2.5-10.4-11-13.4-9.1c-3.1,1.9-7.9,9.3-7.6,11.3c0.3,2,4.2,20.9,4.2,20.9
		l20.9-1.2C76.2,331.4,73.3,312.1,72.2,309.6z"/>
	<g id="XMLID_504_">
		<path id="XMLID_509_" class="st21" d="M235.5,315.7c-3.6-4.9-8.9-10.7-12.5-10.4c-3.6,0.3-9.6,8.1-11.9,11.2c0,0,0,0.1,0,0.1
			c-0.1,2,0.1,19.5,0.1,20.2l0,1.5l23.8,0.2l0.1-1.4c0.2-3,1.2-18.2,0.6-20.7C235.7,316.2,235.6,315.9,235.5,315.7z"/>
		<path id="XMLID_508_" class="st22" d="M223,305.2c3.5-0.3,8.8,5.5,12.5,10.4c-1.2-2.9-6.2-9.4-10.1-11.1c-1.4-0.6-2.6-0.7-3.7-0.1
			c-3.5,1.8-10.3,9.2-10.6,12C213.4,313.3,219.4,305.5,223,305.2z"/>
		<path id="XMLID_507_" class="st20" d="M223.6,310.5v26.4l10,0.1c0,0,0.6-8.8,0.8-14.9C232.1,318.5,227.1,311.2,223.6,310.5z"/>
		<path id="XMLID_506_" class="st20" d="M212.6,320c0,5.8,0.1,16.8,0.1,16.8l10.4,0.1v-26.4c-0.1,0-0.3,0-0.4,0
			C219.3,311.1,214.6,317.2,212.6,320z"/>
		<path id="XMLID_505_" class="st23" d="M234.3,316.7c-0.5-2.1-6.8-10.6-10.6-11.1c-0.2,0-0.3,0-0.5,0c-0.3,0-0.5,0.1-0.7,0.2
			c-3.5,1.8-9.7,9-9.8,10.9c0,0.4,0,1.7,0,3.4c2-2.9,6.7-8.9,10.2-9.5c0.1,0,0.2,0,0.4,0v26.4l0.5,0v-26.4c3.5,0.7,8.5,8,10.8,11.5
			C234.4,319.5,234.4,317.4,234.3,316.7z"/>
	</g>
	<g id="XMLID_498_">
		<path id="XMLID_503_" class="st21" d="M267.7,318.3c-1.9-2.6-4.7-5.6-6.6-5.5c-1.9,0.1-5.1,4.2-6.3,5.9c0,0,0,0,0,0.1
			c0,1,0,10.3,0,10.7l0,0.8l12.6,0.1l0.1-0.7c0.1-1.6,0.6-9.6,0.3-10.9C267.8,318.5,267.7,318.4,267.7,318.3z"/>
		<path id="XMLID_502_" class="st22" d="M261.1,312.8c1.9-0.1,4.7,2.9,6.6,5.5c-0.6-1.6-3.3-5-5.3-5.9c-0.7-0.3-1.4-0.4-1.9-0.1
			c-1.8,1-5.4,4.9-5.6,6.4C256,317,259.2,312.9,261.1,312.8z"/>
		<path id="XMLID_501_" class="st24" d="M261.4,315.6v13.9l5.3,0c0,0,0.3-4.7,0.4-7.9C265.9,319.8,263.2,315.9,261.4,315.6z"/>
		<path id="XMLID_500_" class="st24" d="M255.6,320.6c0,3.1,0.1,8.8,0.1,8.8l5.5,0v-13.9c-0.1,0-0.1,0-0.2,0
			C259.1,315.9,256.7,319.1,255.6,320.6z"/>
		<path id="XMLID_499_" class="st25" d="M267,318.8c-0.3-1.1-3.6-5.6-5.6-5.9c-0.1,0-0.2,0-0.3,0c-0.1,0-0.3,0-0.4,0.1
			c-1.8,0.9-5.1,4.7-5.2,5.7c0,0.2,0,0.9,0,1.8c1.1-1.5,3.6-4.7,5.4-5c0.1,0,0.1,0,0.2,0v13.9l0.3,0v-13.9c1.8,0.3,4.5,4.2,5.7,6.1
			C267.1,320.3,267.1,319.2,267,318.8z"/>
	</g>
	<g id="XMLID_492_">
		<path id="XMLID_497_" class="st21" d="M252.5,318.3c-1.9-2.6-4.7-5.6-6.6-5.5c-1.9,0.1-5.1,4.2-6.3,5.9c0,0,0,0,0,0.1
			c0,1,0,10.3,0,10.7l0,0.8l12.6,0.1l0.1-0.7c0.1-1.6,0.6-9.6,0.3-10.9C252.6,318.5,252.6,318.4,252.5,318.3z"/>
		<path id="XMLID_496_" class="st22" d="M246,312.8c1.9-0.1,4.7,2.9,6.6,5.5c-0.6-1.6-3.3-5-5.3-5.9c-0.7-0.3-1.4-0.4-1.9-0.1
			c-1.8,1-5.4,4.9-5.6,6.4C240.9,317,244,312.9,246,312.8z"/>
		<path id="XMLID_495_" class="st24" d="M246.3,315.6v13.9l5.3,0c0,0,0.3-4.7,0.4-7.9C250.8,319.8,248.1,315.9,246.3,315.6z"/>
		<path id="XMLID_494_" class="st24" d="M240.5,320.6c0,3.1,0.1,8.8,0.1,8.8l5.5,0v-13.9c-0.1,0-0.1,0-0.2,0
			C244,315.9,241.5,319.1,240.5,320.6z"/>
		<path id="XMLID_493_" class="st25" d="M251.9,318.8c-0.3-1.1-3.6-5.6-5.6-5.9c-0.1,0-0.2,0-0.3,0c-0.1,0-0.3,0-0.4,0.1
			c-1.8,0.9-5.1,4.7-5.2,5.7c0,0.2,0,0.9,0,1.8c1.1-1.5,3.6-4.7,5.4-5c0.1,0,0.1,0,0.2,0v13.9l0.3,0v-13.9c1.8,0.3,4.5,4.2,5.7,6.1
			C252,320.3,252,319.2,251.9,318.8z"/>
	</g>
	<g id="XMLID_486_">
		<path id="XMLID_491_" class="st21" d="M205.8,318.3c-1.9-2.6-4.7-5.6-6.6-5.5c-1.9,0.1-5.1,4.2-6.3,5.9c0,0,0,0,0,0.1
			c0,1,0,10.3,0,10.7l0,0.8l12.6,0.1l0.1-0.7c0.1-1.6,0.6-9.6,0.3-10.9C205.9,318.5,205.8,318.4,205.8,318.3z"/>
		<path id="XMLID_490_" class="st22" d="M199.2,312.8c1.9-0.1,4.7,2.9,6.6,5.5c-0.6-1.6-3.3-5-5.3-5.9c-0.7-0.3-1.4-0.4-1.9-0.1
			c-1.8,1-5.4,4.9-5.6,6.4C194.1,317,197.3,312.9,199.2,312.8z"/>
		<path id="XMLID_489_" class="st24" d="M199.5,315.6v13.9l5.3,0c0,0,0.3-4.7,0.4-7.9C204,319.8,201.4,315.9,199.5,315.6z"/>
		<path id="XMLID_488_" class="st24" d="M193.7,320.6c0,3.1,0.1,8.8,0.1,8.8l5.5,0v-13.9c-0.1,0-0.1,0-0.2,0
			C197.3,315.9,194.8,319.1,193.7,320.6z"/>
		<path id="XMLID_487_" class="st25" d="M205.1,318.8c-0.3-1.1-3.6-5.6-5.6-5.9c-0.1,0-0.2,0-0.3,0c-0.1,0-0.3,0-0.4,0.1
			c-1.8,0.9-5.1,4.7-5.2,5.7c0,0.2,0,0.9,0,1.8c1.1-1.5,3.6-4.7,5.4-5c0.1,0,0.1,0,0.2,0v13.9l0.3,0v-13.9c1.8,0.3,4.5,4.2,5.7,6.1
			C205.2,320.3,205.2,319.2,205.1,318.8z"/>
	</g>
	<g id="XMLID_480_">
		<path id="XMLID_485_" class="st21" d="M190.7,318.3c-1.9-2.6-4.7-5.6-6.6-5.5c-1.9,0.1-5.1,4.2-6.3,5.9c0,0,0,0,0,0.1
			c0,1,0,10.3,0,10.7l0,0.8l12.6,0.1l0.1-0.7c0.1-1.6,0.6-9.6,0.3-10.9C190.8,318.5,190.7,318.4,190.7,318.3z"/>
		<path id="XMLID_484_" class="st22" d="M184.1,312.8c1.9-0.1,4.7,2.9,6.6,5.5c-0.6-1.6-3.3-5-5.3-5.9c-0.7-0.3-1.4-0.4-1.9-0.1
			c-1.8,1-5.4,4.9-5.6,6.4C179,317,182.2,312.9,184.1,312.8z"/>
		<path id="XMLID_483_" class="st24" d="M184.4,315.6v13.9l5.3,0c0,0,0.3-4.7,0.4-7.9C188.9,319.8,186.2,315.9,184.4,315.6z"/>
		<path id="XMLID_482_" class="st24" d="M178.6,320.6c0,3.1,0.1,8.8,0.1,8.8l5.5,0v-13.9c-0.1,0-0.1,0-0.2,0
			C182.1,315.9,179.7,319.1,178.6,320.6z"/>
		<path id="XMLID_481_" class="st25" d="M190,318.8c-0.3-1.1-3.6-5.6-5.6-5.9c-0.1,0-0.2,0-0.3,0c-0.1,0-0.3,0-0.4,0.1
			c-1.8,0.9-5.1,4.7-5.2,5.7c0,0.2,0,0.9,0,1.8c1.1-1.5,3.6-4.7,5.4-5c0.1,0,0.1,0,0.2,0v13.9l0.3,0v-13.9c1.8,0.3,4.5,4.2,5.7,6.1
			C190.1,320.3,190.1,319.2,190,318.8z"/>
	</g>
	<path id="XMLID_479_" class="st19" d="M96.5,301.1c-3.4-2.9-7.4-5.3-9.4-4.2c-3.3,2-8.5,10-8.2,12.2c0.3,2.2,4.5,22.6,4.5,22.6
		l16.8-1L96.5,301.1z"/>
	<path id="XMLID_478_" class="st20" d="M96.8,303.1c-3-2.5-6.5-4.5-8.1-3.5c-3.1,1.9-7.9,9.3-7.6,11.3c0.3,2,4.2,20.9,4.2,20.9
		l15.1-0.9L96.8,303.1z"/>
	<g id="XMLID_472_">
		<path id="XMLID_477_" class="st4" d="M219.2,224.4c-29.8,9.3-28.2,33.2-28.2,33.2l14.3,0.3C202,241.3,212.6,229.8,219.2,224.4z"/>
		<path id="XMLID_476_" class="st5" d="M227.4,222.4c-3,0.6-5.7,1.2-8.2,2c-6.6,5.4-17.1,16.9-13.9,33.4l13.9,0.2
			C217.7,237.6,223.7,226.9,227.4,222.4z"/>
		<path id="XMLID_475_" class="st6" d="M244.6,227.6c-4.9-2.4-9.6-4-12.4-4.8c3.8,5.6,10.7,18.3,10.2,35.7l13.4,0.2
			C257.7,244.4,250.1,233.5,244.6,227.6z"/>
		<path id="XMLID_474_" class="st7" d="M244.6,227.6c5.5,5.9,13.1,16.8,11.1,31.1l9.1,0.2C268.1,242.8,255.7,233,244.6,227.6z"/>
		<path id="XMLID_473_" class="st8" d="M229.3,222.1c-0.7,0.1-1.3,0.2-1.9,0.3c-3.7,4.5-9.6,15.2-8.2,35.7l23.2,0.4
			c0.5-17.4-6.5-30.1-10.2-35.7C230.4,222.3,229.3,222.1,229.3,222.1z"/>
	</g>
	<path id="XMLID_471_" class="st9" d="M144.6,284.8l1.5-13.1c0,0,7.7-7.6,22.9-14.2c6.8-2.9,15.1-5.7,25-7.4c7.1-1.3,14.9-2,23.6-2
		c6.1,0,11.9,0.4,17.3,1c9.5,1,17.9,2.7,25.2,4.7l5.4,18.7c-56.7-7.3-96.3,7.7-96.3,7.7c67.7-12.7,122.5,2.5,122.5,2.5l19.9,12.8
		l-191.7-1.3L144.6,284.8z"/>
	<path id="XMLID_470_" class="st10" d="M169.1,280.2c0,0,39.7-15,96.3-7.7l-5.4-18.7c0.1,0,0.2,0,0.3,0.1
		c21,5.7,32.6,13.7,32.6,13.7l2.9,12.4l31.1,15.6l-15.4-0.1l-19.9-12.8C291.6,282.7,236.7,267.5,169.1,280.2z"/>
	<g id="XMLID_459_">
		<path id="XMLID_469_" class="st11" d="M63.8,90.9c1.7,3.9,19.2,4.7,24.3,4.8l-0.5-21.3l-22.7-9.3C64.3,69.8,62.4,87.7,63.8,90.9z"
			/>
		<path id="XMLID_468_" class="st12" d="M63.8,90.9c-1.4-3.2,0.4-21.2,1.1-25.8L60,74.9l2.3,55.4l3.8-0.1
			c-0.2-6.3-0.6-25.9,0.6-28.5c1.1-2.7,16.7-1.8,21.5-2l-0.1-3.9C83.1,95.6,65.6,94.8,63.8,90.9z"/>
		<path id="XMLID_467_" class="st11" d="M66.7,101.7c-1.1,2.7-0.7,22.2-0.6,28.5l22.7-0.7l-0.7-29.8C83.4,99.9,67.8,99,66.7,101.7z"
			/>
		<path id="XMLID_466_" class="st8" d="M60,74.9c8.3-3.8,15.6-3.7,20.6-2.8L69.1,13.5L60,74.9z"/>
		<path id="XMLID_465_" class="st7" d="M71,0l-2,13.5l11.5,58.7c4.4,0.8,7.1,2.3,7.1,2.3L71,0z"/>
		<path id="XMLID_464_" class="st13" d="M58.7,152.8l-7.5-2.1c0,0,10.2-6.4,28.6-7.2c18.4-0.8,24.6,5.2,24.6,5.2l-8,3L58.7,152.8z"
			/>
		<polygon id="XMLID_463_" class="st13" points="62.3,220.7 58.7,152.8 71.5,148 75.4,215.4 		"/>
		<polygon id="XMLID_462_" class="st14" points="71.5,148 86.5,147.4 91.5,208.8 75.4,215.4 		"/>
		<polygon id="XMLID_461_" class="st11" points="86.5,147.4 96.5,151.7 101.2,204.8 91.5,208.8 		"/>
		<path id="XMLID_460_" class="st15" d="M103.2,132.3c-14.4-4.8-27.5-4.5-37.1-3c0,1.7,0.1,2.8,0.1,2.8s0-1.1-0.1-2.8
			c-9.9,1.6-16,4.5-16,4.5l1.2,16.9c32.5-13.4,53.3-2,53.3-2L103.2,132.3z"/>
	</g>
	<g id="XMLID_452_">
		<path id="XMLID_458_" class="st19" d="M419.2,297.7c-3.3-2-13.4,7.2-14.6,9.9c-1.2,2.7-4.4,23.6-4.4,23.6l22.6,1.3
			c0,0,4.2-20.4,4.5-22.6C427.7,307.7,422.5,299.7,419.2,297.7z"/>
		<path id="XMLID_457_" class="st20" d="M417.7,300.4c-3.1-1.9-12.4,6.6-13.4,9.1c-1.1,2.5-4,21.8-4,21.8l20.9,1.2
			c0,0,3.9-18.9,4.2-20.9C425.6,309.6,420.8,302.2,417.7,300.4z"/>
		<path id="XMLID_456_" class="st19" d="M390.5,296c-3.3-2-13.4,7.2-14.6,9.9c-1.2,2.7-4.4,23.6-4.4,23.6l22.6,1.3
			c0,0,4.2-20.4,4.5-22.6C399.1,306.1,393.9,298,390.5,296z"/>
		<path id="XMLID_455_" class="st20" d="M389.1,298.7c-3.1-1.9-12.4,6.6-13.4,9.1c-1.1,2.5-4,21.8-4,21.8l20.9,1.2
			c0,0,3.9-18.9,4.2-20.9C397,308,392.2,300.6,389.1,298.7z"/>
		<path id="XMLID_454_" class="st19" d="M360.7,295.1c-1.9-1.1-6,1.3-9.4,4.2l-3.8,29.6l16.8,1c0,0,4.2-20.4,4.5-22.6
			C369.2,305.2,364,297.1,360.7,295.1z"/>
		<path id="XMLID_453_" class="st20" d="M351.1,301.3c3-2.5,6.5-4.5,8.1-3.5c3.1,1.9,7.9,9.3,7.6,11.3s-4.2,20.9-4.2,20.9l-15.1-0.9
			L351.1,301.3z"/>
	</g>
	<polygon id="XMLID_451_" class="st26" points="293.9,336.2 276.1,336.2 282.3,343.5 306,343.5 	"/>
	<g id="XMLID_448_">
		<polygon id="XMLID_450_" class="st27" points="146.5,336.1 118.8,353.1 290.3,353.1 276.1,336.2 		"/>
		<polygon id="XMLID_449_" class="st27" points="306,343.5 282.3,343.5 290.3,353.1 322,353.3 		"/>
	</g>
	<polygon id="XMLID_447_" class="st26" points="322,353.3 290.3,353.1 118.8,353.1 109.9,358.5 333.3,360.2 	"/>
	<g id="XMLID_443_">
		<polygon id="XMLID_446_" class="st13" points="296.9,299.9 302.9,298 303.2,351.3 297.1,351.3 		"/>
		<polygon id="XMLID_445_" class="st14" points="302.9,298 309.8,298 310.7,351.3 303.2,351.3 		"/>
		<polygon id="XMLID_444_" class="st11" points="309.8,298 314.3,300.2 315.3,351.3 310.7,351.3 		"/>
	</g>
	<g id="XMLID_439_">
		<polygon id="XMLID_442_" class="st13" points="125.4,299.9 131.4,298 131.7,351.3 125.6,351.3 		"/>
		<polygon id="XMLID_441_" class="st14" points="131.4,298 138.3,298 139.2,351.3 131.7,351.3 		"/>
		<polygon id="XMLID_440_" class="st11" points="138.3,298 142.8,300.2 143.8,351.3 139.2,351.3 		"/>
	</g>
	<path id="XMLID_438_" class="st21" d="M120.5,295l0.6,9.2c0,0,130.1-6.3,205.8,0v-10.1C326.9,294.1,227.3,284.2,120.5,295z"/>
	<polygon id="XMLID_437_" class="st27" points="109.9,358.5 109.9,365.6 333,365.8 333.3,360.2 	"/>
</g>
</svg>
