<?xml version="1.0" encoding="utf-8"?>
<!-- Generator: Adobe Illustrator 19.0.0, SVG Export Plug-In . SVG Version: 6.00 Build 0)  -->
<svg version="1.1" id="Layer_1" xmlns="http://www.w3.org/2000/svg" xmlns:xlink="http://www.w3.org/1999/xlink" x="0px" y="0px"
	 viewBox="-352.7 221.5 455.8 361" style="enable-background:new -352.7 221.5 455.8 361;" xml:space="preserve">
<style type="text/css">
	.st0{fill:#3D0103;}
	.st1{fill:#EDEDED;}
	.st2{fill:#C6C6C6;}
	.st3{fill:#D55A2D;}
	.st4{fill:#F1AF00;}
	.st5{fill:#575756;}
	.st6{fill:#595751;}
	.st7{fill:#77746E;}
	.st8{fill:#FEF9E5;}
	.st9{fill:#CECAB7;}
	.st10{fill:#A09D90;}
	.st11{fill:#706F6F;}
	.st12{fill:#1D1D1B;}
</style>
<g id="Books_23_">
	<g>
		<path class="st0" d="M-154,513.7c1.3,0,2.4-1.1,2.4-2.4s-1.1-2.4-2.4-2.4l-154.2-0.1c-14.2,0-25.7,11.1-25.7,24.7
			c0,13.7,11.5,24.7,25.7,24.7c0.1,0,153.5,0.1,153.5,0.1c1.3,0,2.4-1.1,2.4-2.5s-1.1-2.5-2.4-2.5h-0.9v-39.7h1.6V513.7z"/>
		<path class="st1" d="M-296.4,513.7c-13.7,0-24.7,8.9-24.7,19.9s11.1,19.9,24.7,19.9c0.1,0,140.8,0,140.8,0v-39.7
			C-155.5,513.7-296.3,513.7-296.4,513.7z"/>
		<path class="st2" d="M-259.1,520.4c0,0.7,0.6,1.3,1.3,1.3h102.3v-2.5h-102.3C-258.5,519-259.1,519.7-259.1,520.4z"/>
		<path class="st2" d="M-275.4,528c0,1,0.8,1.8,1.8,1.8h118.1v-3.6h-118.1C-274.6,526.2-275.4,527-275.4,528z"/>
		<path class="st2" d="M-218.7,533.5c-1.1,0-1.9,0.9-1.9,1.9c0,1.1,0.9,1.9,1.9,1.9h63.1v-3.9L-218.7,533.5L-218.7,533.5z"/>
	</g>
	<g>
		<path class="st3" d="M-140.1,464.2c1.3,0,2.4-1.1,2.4-2.4s-1.1-2.4-2.4-2.4l-154.2-0.1c-14.2,0-25.7,11.1-25.7,24.7
			c0,13.7,11.5,24.7,25.7,24.7c0.1,0,153.5,0.1,153.5,0.1c1.3,0,2.4-1.1,2.4-2.5c0-1.4-1.1-2.5-2.4-2.5h-0.9v-39.7L-140.1,464.2
			L-140.1,464.2z"/>
		<path class="st1" d="M-282.5,464.2c-13.6,0-24.7,8.9-24.7,19.9s11.1,19.9,24.7,19.9c0.1,0,140.8,0,140.8,0v-39.7
			C-141.7,464.2-282.5,464.2-282.5,464.2z"/>
		<path class="st2" d="M-245.3,496.5c0-0.7,0.6-1.3,1.3-1.3h102.3v2.6H-244C-244.7,497.8-245.3,497.2-245.3,496.5z"/>
		<path class="st2" d="M-261.6,488.9c0-1,0.8-1.8,1.8-1.8h118.1v3.6h-118.1C-260.8,490.7-261.6,489.9-261.6,488.9z"/>
	</g>
	<g>
		<g>
			<path class="st4" d="M-172.8,414.7c1.3,0,2.4-1.1,2.4-2.4s-1.1-2.4-2.4-2.4l-154.2-0.1c-14.2,0-25.7,11.1-25.7,24.7
				c0,13.6,11.5,24.7,25.7,24.7c0.1,0,153.5,0.1,153.5,0.1c1.3,0,2.4-1.1,2.4-2.5c0-1.4-1.1-2.5-2.4-2.5h-0.9v-39.8h1.6V414.7z"/>
			<path class="st1" d="M-315.2,414.7c-13.7,0-24.7,8.9-24.7,19.9s11.1,19.9,24.7,19.9c0.1,0,140.8,0,140.8,0v-39.8
				C-174.4,414.7-315.1,414.7-315.2,414.7z"/>
			<path class="st2" d="M-294.2,439.4c0-1,0.8-1.8,1.8-1.8h118.1v3.6h-118.1C-293.4,441.2-294.2,440.4-294.2,439.4z"/>
		</g>
		<path class="st2" d="M-237.5,431c-1.1,0-1.9,0.9-1.9,1.9c0,1.1,0.9,1.9,1.9,1.9h63.1V431L-237.5,431L-237.5,431z"/>
	</g>
</g>
<g id="Pawn">
	<path class="st5" d="M-221.7,437.5c0,2.3-1.9,4.2-4.2,4.2h-33.4c-2.3,0-4.2-1.9-4.2-4.2v-3.2c0-2.3,1.9-4.2,4.2-4.2h33.4
		c2.3,0,4.2,1.9,4.2,4.2L-221.7,437.5L-221.7,437.5z"/>
	<polygon class="st5" points="-232.4,411.2 -232.4,418.4 -237.5,418.4 -237.5,411.2 -248.2,411.2 -248.2,418.4 -252.9,418.4 
		-252.9,411.2 -263.6,411.2 -263.6,418.4 -263.6,420.7 -263.6,428 -221.7,428 -221.7,420.7 -221.7,418.4 -221.7,411.2 	"/>
	<path class="st5" d="M-226,446c0,1.2-1,2.2-2.2,2.2h-28.4c-1.2,0-2.2-1-2.2-2.2l0,0c0-1.2,1-2.2,2.2-2.2h28.4
		C-227,443.8-226,444.7-226,446L-226,446z"/>
	<path class="st5" d="M-220.5,524.4c0,2.3-1.9,4.2-4.2,4.2h-36.2c-2.3,0-4.2-1.9-4.2-4.2l6.4-69.4c0-2.3,1.9-4.2,4.2-4.2h24.4
		c2.3,0,4.2,1.9,4.2,4.2L-220.5,524.4z"/>
	<path class="st5" d="M-211.6,560c0,1.6-1.1,2.9-2.5,2.9h-57.2c-1.4,0-2.5-1.3-2.5-2.9l7.1-25.4c0.6-1.8,1.1-2.9,2.5-2.9h43.8
		c1.4,0,1.9,1.1,2.5,2.9L-211.6,560z"/>
</g>
<g id="Building_13_">
	<rect x="-198.6" y="385" class="st6" width="241.5" height="173.3"/>
	<path class="st7" d="M-25.4,432.4c0-13.6-25.2-24.6-56.2-24.6s-56.2,11-56.2,24.6c0,0.3,0,0.6,0,0.9c0,0.2,0,0.4,0,0.6v115.3
		c0,2.8,2.2,5,5,5h102.4c2.8,0,5-2.2,5-5V434c0-0.2,0-0.4,0-0.6C-25.4,433-25.4,432.7-25.4,432.4z"/>
	<rect x="-198.6" y="399.7" class="st8" width="36.4" height="150"/>
	<rect x="-100.3" y="399.7" class="st8" width="36.4" height="150"/>
	<rect x="6.4" y="399.7" class="st8" width="36.4" height="150"/>
	<path class="st9" d="M-156.6,413.5c0,2.7-2.2,4.8-4.8,4.8h-38.9c-2.7,0-4.8-2.2-4.8-4.8l0,0c0-2.7,2.2-4.8,4.8-4.8h38.9
		C-158.8,408.8-156.6,411-156.6,413.5L-156.6,413.5z"/>
	<path class="st9" d="M-58.2,413.5c0,2.7-2.2,4.8-4.8,4.8h-38.9c-2.7,0-4.8-2.2-4.8-4.8l0,0c0-2.7,2.2-4.8,4.8-4.8H-63
		C-60.4,408.8-58.2,411-58.2,413.5L-58.2,413.5z"/>
	<path class="st9" d="M48.5,413.5c0,2.7-2.2,4.8-4.8,4.8h-39c-2.7,0-4.8-2.2-4.8-4.8l0,0c0-2.7,2.2-4.8,4.8-4.8h38.9
		C46.3,408.8,48.5,411,48.5,413.5L48.5,413.5z"/>
	<path class="st9" d="M-156.6,534.5c0,2.7-2.2,4.8-4.8,4.8h-38.9c-2.7,0-4.8-2.2-4.8-4.8l0,0c0-2.7,2.2-4.8,4.8-4.8h38.9
		C-158.8,529.7-156.6,531.8-156.6,534.5L-156.6,534.5z"/>
	<path class="st9" d="M-58.2,534.5c0,2.7-2.2,4.8-4.8,4.8h-38.9c-2.7,0-4.8-2.2-4.8-4.8l0,0c0-2.7,2.2-4.8,4.8-4.8H-63
		C-60.4,529.7-58.2,531.8-58.2,534.5L-58.2,534.5z"/>
	<path class="st9" d="M48.5,534.5c0,2.7-2.2,4.8-4.8,4.8h-39c-2.7,0-4.8-2.2-4.8-4.8l0,0c0-2.7,2.2-4.8,4.8-4.8h38.9
		C46.3,529.7,48.5,531.8,48.5,534.5L48.5,534.5z"/>
	<path class="st10" d="M-152.2,396.5c0,3.1-2.5,5.6-5.6,5.6h-45.3c-3.1,0-5.6-2.5-5.6-5.6l0,0c0-3.1,2.5-5.6,5.6-5.6h45.3
		C-154.7,390.9-152.2,393.4-152.2,396.5L-152.2,396.5z"/>
	<path class="st10" d="M-53.8,396.5c0,3.1-2.5,5.6-5.6,5.6h-45.3c-3.1,0-5.6-2.5-5.6-5.6l0,0c0-3.1,2.5-5.6,5.6-5.6h45.3
		C-56.3,390.9-53.8,393.4-53.8,396.5L-53.8,396.5z"/>
	<path class="st10" d="M51.6,396.5c0,3.1-2.5,5.6-5.6,5.6H0.7c-3.1,0-5.6-2.5-5.6-5.6l0,0c0-3.1,2.5-5.6,5.6-5.6H46
		C49.1,390.9,51.6,393.4,51.6,396.5L51.6,396.5z"/>
	<path class="st10" d="M-152.2,548.7c0,3.1-2.5,5.6-5.6,5.6h-45.3c-3.1,0-5.6-2.5-5.6-5.6l0,0c0-3.1,2.5-5.6,5.6-5.6h45.3
		C-154.7,543-152.2,545.5-152.2,548.7L-152.2,548.7z"/>
	<path class="st10" d="M-54.3,548.7c0,3.1-2.5,5.6-5.6,5.6h-45.3c-3.1,0-5.6-2.5-5.6-5.6l0,0c0-3.1,2.5-5.6,5.6-5.6h45.3
		C-56.8,543-54.3,545.5-54.3,548.7L-54.3,548.7z"/>
	<path class="st10" d="M52.9,548.7c0,3.1-2.5,5.6-5.6,5.6H2c-3.1,0-5.6-2.5-5.6-5.6l0,0c0-3.1,2.5-5.6,5.6-5.6h45.3
		C50.4,543,52.9,545.5,52.9,548.7L52.9,548.7z"/>
	<rect x="-215.6" y="368.5" class="st11" width="275.4" height="22.3"/>
	<rect x="-219.8" y="554.2" class="st9" width="275.4" height="14.1"/>
	<rect x="-236.9" y="568.3" class="st10" width="307.5" height="14.1"/>
	<polygon class="st9" points="-79.6,235.6 -238.1,311 78.4,311 	"/>
	<polygon class="st11" points="103.1,321.7 -79.7,221.6 -79.8,221.5 -79.8,221.5 -79.9,221.5 -80,221.6 -262.8,321.7 -256.9,332.7 
		-79.8,235.8 97.2,332.7 	"/>
	<rect x="-215.6" y="299.9" class="st11" width="275.4" height="22.3"/>
	<rect x="-208.7" y="322.2" class="st8" width="257.2" height="46.4"/>
	<g>
		<path class="st12" d="M-126.1,352.7l3.3-22.2h6.8v31.2h-4.6v-22.4l-3.4,22.4h-4.6l-3.7-22.1v22.1h-4.3v-31.2h6.8L-126.1,352.7z"/>
		<path class="st12" d="M-107.7,330.5v24.1c0,2.2,1,3,2.5,3s2.5-0.8,2.5-3v-24.1h4.6v23.8c0,5-2.5,7.8-7.3,7.8s-7.3-2.9-7.3-7.8
			v-23.8H-107.7z"/>
		<path class="st12" d="M-88.1,330.2c4.8,0,7.2,2.9,7.2,7.8v1h-4.6v-1.3c0-2.2-0.9-3.1-2.5-3.1s-2.5,0.8-2.5,3.1
			c0,6.4,9.6,7.6,9.6,16.5c0,5-2.5,7.8-7.3,7.8c-4.8,0-7.3-2.9-7.3-7.8v-1.9h4.6v2.2c0,2.2,1,3,2.5,3c1.6,0,2.5-0.8,2.5-3
			c0-6.4-9.6-7.6-9.6-16.5C-95.3,333-92.8,330.2-88.1,330.2z"/>
		<path class="st12" d="M-73.1,343.7h6.7v4.5h-6.7v9.1h8.5v4.5H-78v-31.2h13.4v4.5h-8.5C-73.1,335-73.1,343.7-73.1,343.7z"/>
		<path class="st12" d="M-56.9,330.5v24.1c0,2.2,1,3,2.5,3c1.6,0,2.5-0.8,2.5-3v-24.1h4.6v23.8c0,5-2.5,7.8-7.3,7.8
			s-7.3-2.9-7.3-7.8v-23.8H-56.9z"/>
		<path class="st12" d="M-33.4,352.7l3.3-22.2h6.8v31.2h-4.6v-22.4l-3.4,22.4h-4.6l-3.7-22.1v22.1h-4.3v-31.2h6.8L-33.4,352.7z"/>
	</g>
	
		<rect x="-182.1" y="338.3" transform="matrix(-0.7071 0.7071 -0.7071 -0.7071 -54.6947 713.3224)" class="st6" width="14.1" height="14.1"/>
	
		<rect x="5.8" y="338.3" transform="matrix(-0.7071 0.7071 -0.7071 -0.7071 266.0305 580.4191)" class="st6" width="14.1" height="14.1"/>
</g>
</svg>
