<?xml version="1.0" encoding="utf-8"?>
<!-- Generator: Adobe Illustrator 19.0.0, SVG Export Plug-In . SVG Version: 6.00 Build 0)  -->
<svg version="1.1" id="Layer_1" xmlns="http://www.w3.org/2000/svg" xmlns:xlink="http://www.w3.org/1999/xlink" x="0px" y="0px"
	 viewBox="0 0 671.1 831.8" style="enable-background:new 0 0 671.1 831.8;" xml:space="preserve">
<style type="text/css">
	.st0{fill:#1D1D1B;}
	.st1{fill:#575756;}
	.st2{fill:#F15547;}
	.st3{fill:#A3E4E1;}
	.st4{opacity:0.5;fill:#F6F6F6;}
	.st5{fill:#27B7C5;}
	.st6{fill:#021C24;}
	.st7{fill:#A8C422;}
</style>
<g id="Office">
	<g id="Building_2">
		<g id="XMLID_167_">
			<polygon id="XMLID_169_" class="st0" points="310.3,76.7 290.6,76.7 290.6,0 310.3,13.3 			"/>
			<path id="XMLID_168_" class="st1" d="M333.4,103.6c0,8.8-7.2,16-16,16H215.8c-8.8,0-16-7.2-16-16V68c0-8.8,7.2-16,16-16h101.6
				c8.8,0,16,7.2,16,16V103.6z"/>
		</g>
		<path id="XMLID_166_" class="st2" d="M353.3,815.8c0,8.8-7.2,16-16,16H16c-8.8,0-16-7.2-16-16V115.7c0-8.8,7.2-16,16-16h321.3
			c8.8,0,16,7.2,16,16V815.8z"/>
		<g id="XMLID_160_">
			<path id="XMLID_165_" class="st3" d="M223.3,668.4h-42.7v104.2v30.8v28.4h42.7c7.4,0,13.4-6,13.4-13.4V747v-31.6v-33.6
				C236.7,674.4,230.7,668.4,223.3,668.4z"/>
			<path id="XMLID_164_" class="st3" d="M127.4,668.4c-7.4,0-13.4,6-13.4,13.4v51.6v47.2v37.8c0,7.4,6,13.4,13.4,13.4h45.3v-30.5
				v-20.2V668.4H127.4z"/>
			<path id="XMLID_163_" class="st4" d="M163.7,710.3l-6.4-6c-4.7-4.4-12.1-4.2-16.6,0.6L114,733.4v47.2l50.3-53.8
				C168.7,722.1,168.5,714.7,163.7,710.3z"/>
			<path id="XMLID_162_" class="st4" d="M184,803.4l52.8-56.4v-31.6c0,0-0.1,0-0.1,0h-2.5l-53.5,57.2v30.8c0,0,0,0,0,0H184z"/>
			<path id="XMLID_161_" class="st4" d="M164.8,789.6c0.7,5,3.7,9.3,7.9,11.8v-20.2L164.8,789.6z"/>
		</g>
		<g id="XMLID_125_">
			<g id="XMLID_146_">
				<path id="XMLID_159_" class="st5" d="M206.6,137.9h-56c-8.8,0-16,7.2-16,16v48.9v7.1c0,8.8,7.2,16,16,16h6.5h49.5
					c8.8,0,16-7.2,16-16v-56C222.6,145.1,215.5,137.9,206.6,137.9z"/>
				<path id="XMLID_158_" class="st5" d="M334.5,151.8c-1-7.8-7.7-13.9-15.8-13.9h-3.3h-52.6c-8.8,0-16,7.2-16,16v56
					c0,0.5,0,0.9,0.1,1.3c0.7,8.2,7.6,14.7,15.9,14.7h2.5h53.5c8.8,0,16-7.2,16-16v-56C334.6,153.2,334.6,152.5,334.5,151.8z"/>
				<path id="XMLID_157_" class="st5" d="M318.6,244.6h-56c-8.8,0-16,7.2-16,16v56c0,2,0.4,3.9,1.1,5.7c2.3,6,8.1,10.3,14.9,10.3
					h4.6h51.4c8.8,0,16-7.2,16-16v-56C334.6,251.8,327.5,244.6,318.6,244.6z"/>
				<path id="XMLID_156_" class="st5" d="M95.9,138.2c-0.8-0.1-1.7-0.2-2.6-0.2h-56c-8.8,0-16,7.2-16,16v56c0,8.8,7.2,16,16,16h56
					c8.8,0,16-7.2,16-16V171v-17.1C109.3,146,103.5,139.4,95.9,138.2z"/>
				<path id="XMLID_155_" class="st5" d="M95.4,244.8c-0.7-0.1-1.4-0.2-2.1-0.2h-56c-8.8,0-16,7.2-16,16v16.3v25.4v14.2
					c0,2.2,0.4,4.2,1.2,6.1c2.4,5.8,8.1,9.9,14.8,9.9h20.1h35.9c8.8,0,16-7.2,16-16v-39.5v-16.5C109.3,252.5,103.3,245.8,95.4,244.8
					z"/>
				<path id="XMLID_154_" class="st5" d="M213.9,246.4c-2.2-1.1-4.6-1.8-7.3-1.8h-56c-8.8,0-16,7.2-16,16v56c0,8.8,7.2,16,16,16h56
					c8.8,0,16-7.2,16-16v-45.2v-10.8C222.6,254.4,219.1,249,213.9,246.4z"/>
				<path id="XMLID_153_" class="st3" d="M213.9,246.4l-63.1,67.5c-3.2,3.5-3,8.9,0.4,12.1l4.7,4.4c3.4,3.2,8.9,3,12.1-0.4
					l54.7-58.5v-10.8C222.6,254.4,219.1,249,213.9,246.4z"/>
				<path id="XMLID_152_" class="st3" d="M324,260.6l-4.2-4c-3.1-2.9-8-2.8-11,0.4l-61.1,65.3c2.3,6,8.1,10.3,14.9,10.3h4.6
					l57.1-61.1C327.3,268.4,327.1,263.5,324,260.6z"/>
				<path id="XMLID_151_" class="st3" d="M318.6,137.9h-3.3l-68.6,73.3c0.7,8.2,7.6,14.7,15.9,14.7h2.5l69.3-74.1
					C333.5,144,326.8,137.9,318.6,137.9z"/>
				<path id="XMLID_150_" class="st3" d="M44.7,210.1l6.4,6c4.7,4.4,12.1,4.2,16.6-0.6l41.6-44.5v-17.1c0-7.9-5.8-14.5-13.4-15.8
					l-51.7,55.3C39.7,198.2,40,205.7,44.7,210.1z"/>
				<path id="XMLID_149_" class="st3" d="M150.6,226h6.5l39.5-42.3c4.4-4.7,4.2-12.1-0.6-16.6l-6.4-6c-4.7-4.4-12.1-4.2-16.6,0.6
					l-38.5,41.2v7.1C134.6,218.8,141.8,226,150.6,226z"/>
				<path id="XMLID_148_" class="st3" d="M109.3,260.6c0-8.1-6.1-14.8-13.9-15.8l-72.9,78c2.4,5.8,8.1,9.9,14.8,9.9h20.1l51.9-55.5
					V260.6z"/>
				<path id="XMLID_147_" class="st3" d="M51.7,260.6l-3.5-3.2c-2.6-2.4-6.5-2.2-8.9,0.3l-18,19.3v25.4L52,269.5
					C54.4,267,54.3,263,51.7,260.6z"/>
			</g>
			<g id="XMLID_132_">
				<path id="XMLID_145_" class="st5" d="M149.3,548.6h56c8.8,0,16-7.2,16-16v-48.9v-7.1c0-8.8-7.2-16-16-16h-6.5h-49.5
					c-8.8,0-16,7.2-16,16v56C133.3,541.5,140.5,548.6,149.3,548.6z"/>
				<path id="XMLID_144_" class="st5" d="M21.5,534.7c1,7.8,7.7,13.9,15.8,13.9h3.4h52.6c8.8,0,16-7.2,16-16v-56
					c0-0.5,0-0.9-0.1-1.3c-0.7-8.2-7.5-14.7-15.9-14.7h-2.5H37.3c-8.8,0-16,7.2-16,16v56C21.3,533.3,21.4,534,21.5,534.7z"/>
				<path id="XMLID_143_" class="st5" d="M37.3,442h56c8.8,0,16-7.2,16-16v-56c0-2-0.4-3.9-1.1-5.7c-2.3-6-8.1-10.3-14.9-10.3h-4.6
					H37.3c-8.8,0-16,7.2-16,16v56C21.3,434.8,28.5,442,37.3,442z"/>
				<path id="XMLID_142_" class="st5" d="M260,548.4c0.9,0.1,1.7,0.2,2.6,0.2h56c8.8,0,16-7.2,16-16v-56c0-8.8-7.2-16-16-16h-56
					c-8.8,0-16,7.2-16,16v38.9v17.1C246.6,540.6,252.4,547.1,260,548.4z"/>
				<path id="XMLID_141_" class="st5" d="M260.5,441.8c0.7,0.1,1.4,0.2,2.1,0.2h56c8.8,0,16-7.2,16-16v-16.3v-25.4v-14.2
					c0-2.2-0.4-4.2-1.2-6.1c-2.4-5.8-8.1-9.9-14.8-9.9h-20.1h-35.9c-8.8,0-16,7.2-16,16v39.5V426
					C246.6,434.1,252.7,440.8,260.5,441.8z"/>
				<path id="XMLID_140_" class="st5" d="M142,440.2c2.2,1.1,4.6,1.8,7.3,1.8h56c8.8,0,16-7.2,16-16v-56c0-8.8-7.2-16-16-16h-56
					c-8.8,0-16,7.2-16,16v45.2V426C133.3,432.2,136.9,437.5,142,440.2z"/>
				<path id="XMLID_139_" class="st3" d="M142,440.2l63.1-67.5c3.2-3.5,3-8.9-0.4-12.1l-4.7-4.4c-3.5-3.2-8.9-3-12.1,0.4l-54.7,58.5
					V426C133.3,432.2,136.9,437.5,142,440.2z"/>
				<path id="XMLID_138_" class="st3" d="M32,426l4.2,4c3.1,2.9,8,2.8,11-0.4l61.1-65.3c-2.3-6-8.1-10.3-14.9-10.3h-4.6L31.6,415
					C28.7,418.2,28.9,423.1,32,426z"/>
				<path id="XMLID_137_" class="st3" d="M37.3,548.6h3.4l68.6-73.3c-0.7-8.2-7.5-14.7-15.9-14.7h-2.5l-69.3,74.1
					C22.5,542.6,29.2,548.6,37.3,548.6z"/>
				<path id="XMLID_136_" class="st3" d="M311.2,476.5l-6.4-6c-4.7-4.4-12.1-4.2-16.6,0.6l-41.6,44.5v17.1c0,7.9,5.8,14.5,13.4,15.8
					l51.7-55.3C316.2,488.3,316,480.9,311.2,476.5z"/>
				<path id="XMLID_135_" class="st3" d="M205.3,460.6h-6.5l-39.5,42.3c-4.4,4.7-4.2,12.1,0.6,16.6l6.4,6c4.7,4.4,12.1,4.2,16.6-0.6
					l38.5-41.2v-7.1C221.3,467.8,214.1,460.6,205.3,460.6z"/>
				<path id="XMLID_134_" class="st3" d="M246.6,426c0,8.1,6.1,14.8,13.9,15.8l72.9-78c-2.4-5.8-8.1-9.9-14.8-9.9h-20.1l-51.9,55.5
					V426z"/>
				<path id="XMLID_133_" class="st3" d="M304.2,426l3.5,3.2c2.5,2.4,6.5,2.3,8.9-0.3l18-19.3v-25.4L303.9,417
					C301.6,419.6,301.7,423.6,304.2,426z"/>
			</g>
			<path id="XMLID_131_" class="st5" d="M149.3,652.6h56c8.8,0,16-7.2,16-16v-48.9v-7.1c0-8.8-7.2-16-16-16h-6.5h-49.5
				c-8.8,0-16,7.2-16,16v56C133.3,645.5,140.5,652.6,149.3,652.6z"/>
			<path id="XMLID_130_" class="st5" d="M21.5,638.7c1,7.8,7.7,13.9,15.8,13.9h3.4h52.6c8.8,0,16-7.2,16-16v-56c0-0.4,0-0.9-0.1-1.3
				c-0.7-8.2-7.5-14.7-15.9-14.7h-2.5H37.3c-8.8,0-16,7.2-16,16v56C21.3,637.3,21.4,638,21.5,638.7z"/>
			<path id="XMLID_129_" class="st5" d="M260,652.4c0.9,0.1,1.7,0.2,2.6,0.2h56c8.8,0,16-7.2,16-16v-56c0-8.8-7.2-16-16-16h-56
				c-8.8,0-16,7.2-16,16v38.9v17.1C246.6,644.6,252.4,651.1,260,652.4z"/>
			<path id="XMLID_128_" class="st3" d="M37.3,652.6h3.4l68.6-73.3c-0.7-8.2-7.5-14.7-15.9-14.7h-2.5l-69.3,74.1
				C22.5,646.6,29.2,652.6,37.3,652.6z"/>
			<path id="XMLID_127_" class="st3" d="M311.2,580.5l-6.4-6c-4.7-4.4-12.1-4.2-16.6,0.6l-41.6,44.5v17.1c0,7.9,5.8,14.5,13.4,15.8
				l51.7-55.3C316.2,592.3,316,584.9,311.2,580.5z"/>
			<path id="XMLID_126_" class="st3" d="M205.3,564.6h-6.5l-39.5,42.3c-4.4,4.7-4.2,12.1,0.6,16.6l6.4,6c4.7,4.4,12.1,4.2,16.6-0.6
				l38.5-41.2v-7.1C221.3,571.8,214.1,564.6,205.3,564.6z"/>
		</g>
	</g>
	<g id="Building_1">
		<path id="XMLID_91_" class="st6" d="M353.3,368v60.4l0,0v387.3c0,8.8,7.2,16,16,16h285.8c8.8,0,16-7.2,16-16V428.4v-4.7V368H353.3
			z M659,374.7v33.6c-1.2-0.3-2.5-0.5-3.9-0.5h-6.3v-33.1H659z M645.7,374.7v33.1h-10.2v-33.1H645.7z M632.4,374.7v33.1h-10.2v-33.1
			H632.4z M619.1,374.7v33.1h-10.2v-33.1H619.1z M605.8,374.7v33.1h-10.2v-33.1H605.8z M592.5,374.7v33.1h-10.2v-33.1H592.5z
			 M579.2,374.7v33.1H569v-33.1H579.2z M565.9,374.7v33.1h-10.2v-33.1H565.9z M552.6,374.7v33.1h-10.2v-33.1H552.6z M539.4,374.7
			v33.1h-10.2v-33.1H539.4z M526.1,374.7v33.1h-10.2v-33.1H526.1z M512.8,374.7v33.1h-10.2v-33.1H512.8z M499.5,374.7v33.1h-10.2
			v-33.1H499.5z M486.2,374.7v33.1H476v-33.1H486.2z M472.9,374.7v33.1h-10.2v-33.1H472.9z M458.3,374.7v33.1h-10.2v-33.1H458.3z
			 M443.7,374.7v33.1h-10.2v-33.1H443.7z M429,374.7v33.1h-10.2v-33.1H429z M414.4,374.7v33.1h-10.2v-33.1H414.4z M399.8,374.7v33.1
			h-10.2v-33.1H399.8z M385.2,374.7v33.1H375v-33.1H385.2z M370.6,374.7v33.1h-1.3c-3.3,0-6.4,1-8.9,2.7v-35.8H370.6z"/>
		<g id="XMLID_88_">
			<rect id="XMLID_90_" x="547.4" y="714.1" class="st7" width="88.5" height="117.7"/>
			<path id="XMLID_89_" class="st6" d="M630.5,778.5c0,2.1-1.7,3.7-3.7,3.7h-17.4c-2.1,0-3.7-1.7-3.7-3.7l0,0c0-2.1,1.7-3.7,3.7-3.7
				h17.4C628.8,774.8,630.5,776.4,630.5,778.5L630.5,778.5z"/>
		</g>
		<g id="XMLID_60_">
			<g id="XMLID_69_">
				<g id="XMLID_81_">
					<path id="XMLID_87_" class="st5" d="M544.9,436.1c-2.1-1.2-4.5-1.9-7.1-1.9h-14.5h-35.6c-7.9,0-14.3,6.4-14.3,14.3v39.3v10.8
						c0,4.7,2.3,8.9,5.8,11.5c2.4,1.8,5.3,2.8,8.5,2.8h26h24.1c7.9,0,14.3-6.4,14.3-14.3v-13.3v-36.7
						C552.1,443.2,549.2,438.5,544.9,436.1z"/>
					<path id="XMLID_86_" class="st5" d="M652.3,447.8c-0.4-7.6-6.6-13.6-14.3-13.6h-6.1h-43.9c-7.9,0-14.3,6.4-14.3,14.3v48.2v1.9
						c0,7.9,6.4,14.3,14.3,14.3h3.7h44.3h2.1c7.9,0,14.3-6.4,14.3-14.3v-3.2v-46.8C652.3,448.2,652.3,448,652.3,447.8z"/>
					<path id="XMLID_85_" class="st5" d="M643.2,530.5c-1.6-0.6-3.4-1-5.2-1h-17.6h-32.5c-7.9,0-14.3,6.4-14.3,14.3v35.9v14.2
						c0,3.1,1,6,2.7,8.4c2.6,3.6,6.8,5.9,11.6,5.9H638c7.9,0,14.3-6.4,14.3-14.3v-50.1C652.3,537.8,648.5,532.6,643.2,530.5z"/>
					<path id="XMLID_84_" class="st5" d="M436.5,434.2h-16.6h-33.4c-7.9,0-14.3,6.4-14.3,14.3v36.9v13.2c0,7.9,6.4,14.3,14.3,14.3
						h6.6h43.5c7.9,0,14.3-6.4,14.3-14.3v-47.7v-2.4C450.8,440.6,444.4,434.2,436.5,434.2z"/>
					<path id="XMLID_83_" class="st5" d="M436.5,529.5h-2h-48.1c-7.9,0-14.3,6.4-14.3,14.3v50.1c0,7.9,6.4,14.3,14.3,14.3h38.5h11.6
						c7.9,0,14.3-6.4,14.3-14.3v-13.5v-36.6c0-1-0.1-2-0.3-2.9C449.1,534.4,443.4,529.5,436.5,529.5z"/>
					<path id="XMLID_82_" class="st5" d="M542.3,530.3c-1.4-0.5-2.9-0.7-4.4-0.7h-6.5h-33.1h-10.5c-7.9,0-14.3,6.4-14.3,14.3v12.3
						v35.5v2.3c0,7.9,6.4,14.3,14.3,14.3h50.1c7.9,0,14.3-6.4,14.3-14.3v-38.7v-11.4C552.1,537.5,548,532.1,542.3,530.3z"/>
				</g>
				<g id="XMLID_70_">
					<path id="XMLID_80_" class="st3" d="M386.4,512.9h6.6l57.8-62v-2.4c0-7.9-6.4-14.3-14.3-14.3h-16.6l-47.7,51.2v13.2
						C372.1,506.4,378.5,512.9,386.4,512.9z"/>
					<path id="XMLID_79_" class="st3" d="M479.3,510.1l63.2-67.8c1.6-1.8,2.5-4,2.5-6.2c-2.1-1.2-4.5-1.9-7.1-1.9h-14.5l-49.9,53.6
						v10.8C473.4,503.3,475.7,507.4,479.3,510.1z"/>
					<path id="XMLID_78_" class="st3" d="M404.9,574.9l0.6,0.5c3.8,3.5,9.7,3.3,13.2-0.5l31.8-34.1c-1.3-6.5-7.1-11.4-14-11.4h-2
						l-30,32.2C400.9,565.5,401.1,571.4,404.9,574.9z"/>
					<path id="XMLID_77_" class="st3" d="M537.6,487.2l-23.9,25.6h24.1c7.9,0,14.3-6.4,14.3-14.3v-13.3
						C547.5,482.4,541.4,483.2,537.6,487.2z"/>
					<path id="XMLID_76_" class="st3" d="M450.8,593.9v-13.5l-25.9,27.8h11.6C444.4,608.2,450.8,601.8,450.8,593.9z"/>
					<polygon id="XMLID_75_" class="st3" points="498.2,529.5 473.4,556.1 473.4,591.7 531.3,529.5 					"/>
					<path id="XMLID_74_" class="st3" d="M638,434.2h-6.1l-58.2,62.5v1.9c0,7.9,6.4,14.3,14.3,14.3h3.7l60.6-65.1
						C651.9,440.2,645.7,434.2,638,434.2z"/>
					<path id="XMLID_73_" class="st3" d="M542.3,530.3l-33,35.4c-4.4,4.7-4.1,12.1,0.6,16.4l0.7,0.7c4.7,4.4,12.1,4.1,16.4-0.6
						l25.1-26.9v-11.4C552.1,537.5,548,532.1,542.3,530.3z"/>
					<path id="XMLID_72_" class="st3" d="M652.3,498.5v-3.2l-16.4,17.6h2.1C645.9,512.9,652.3,506.4,652.3,498.5z"/>
					<path id="XMLID_71_" class="st3" d="M620.4,529.5l-46.8,50.2v14.2c0,3.1,1,6,2.7,8.4l66.9-71.8c-1.6-0.6-3.4-1-5.2-1H620.4z"/>
				</g>
			</g>
			<path id="XMLID_68_" class="st5" d="M643.2,623.9c-1.6-0.6-3.4-1-5.2-1h-17.6h-32.5c-7.9,0-14.3,6.4-14.3,14.3v35.9v14.2
				c0,3.1,1,6,2.7,8.4c2.6,3.6,6.8,5.9,11.6,5.9H638c7.9,0,14.3-6.4,14.3-14.3v-50.1C652.3,631.1,648.5,626,643.2,623.9z"/>
			<path id="XMLID_67_" class="st5" d="M436.5,622.9h-2h-48.1c-7.9,0-14.3,6.4-14.3,14.3v50.1c0,7.9,6.4,14.3,14.3,14.3h38.5h11.6
				c7.9,0,14.3-6.4,14.3-14.3v-13.5v-36.6c0-1-0.1-2-0.3-2.9C449.1,627.8,443.4,622.9,436.5,622.9z"/>
			<path id="XMLID_66_" class="st5" d="M542.3,623.6c-1.4-0.5-2.9-0.7-4.4-0.7h-6.5h-33.1h-10.5c-7.9,0-14.3,6.4-14.3,14.3v12.3V685
				v2.3c0,7.9,6.4,14.3,14.3,14.3h50.1c7.9,0,14.3-6.4,14.3-14.3v-38.7v-11.4C552.1,630.8,548,625.5,542.3,623.6z"/>
			<path id="XMLID_65_" class="st3" d="M404.9,668.3l0.6,0.5c3.8,3.5,9.7,3.3,13.2-0.5l31.8-34.1c-1.3-6.5-7.1-11.4-14-11.4h-2
				l-30,32.2C400.9,658.8,401.1,664.8,404.9,668.3z"/>
			<path id="XMLID_64_" class="st3" d="M450.8,687.3v-13.5l-25.9,27.8h11.6C444.4,701.6,450.8,695.2,450.8,687.3z"/>
			<polygon id="XMLID_63_" class="st3" points="498.2,622.9 473.4,649.4 473.4,685 531.3,622.9 			"/>
			<path id="XMLID_62_" class="st3" d="M542.3,623.6l-33,35.4c-4.4,4.7-4.1,12.1,0.6,16.4l0.7,0.7c4.7,4.4,12.1,4.1,16.4-0.6
				l25.1-26.9v-11.4C552.1,630.8,548,625.5,542.3,623.6z"/>
			<path id="XMLID_61_" class="st3" d="M620.4,622.9l-46.8,50.2v14.2c0,3.1,1,6,2.7,8.4l66.9-71.8c-1.6-0.6-3.4-1-5.2-1H620.4z"/>
		</g>
	</g>
</g>
</svg>
