<?xml version="1.0" encoding="utf-8"?>
<!-- Generator: Adobe Illustrator 19.0.0, SVG Export Plug-In . SVG Version: 6.00 Build 0)  -->
<svg version="1.1" id="Layer_1" xmlns="http://www.w3.org/2000/svg" xmlns:xlink="http://www.w3.org/1999/xlink" x="0px" y="0px"
	 viewBox="-303 -15.8 671.1 831.8" style="enable-background:new -303 -15.8 671.1 831.8;" xml:space="preserve">
<style type="text/css">
	.st0{fill:#1D1D1D;}
	.st1{fill:#575757;}
	.st2{fill:#242424;}
	.st3{fill:#D0D0D0;}
	.st4{opacity:0.5;fill:#F6F6F6;enable-background:new    ;}
	.st5{fill:#8D8D8D;}
	.st6{fill:#151515;}
	.st7{fill:#AAAAAA;}
</style>
<g id="Office">
	<g id="Building_2">
		<g id="XMLID_167_">
			<polygon id="XMLID_169_" class="st0" points="7.3,60.9 -12.4,60.9 -12.4,-15.8 7.3,-2.5 			"/>
			<path id="XMLID_168_" class="st1" d="M30.4,87.8c0,8.8-7.2,16-16,16H-87.2c-8.8,0-16-7.2-16-16V52.2c0-8.8,7.2-16,16-16H14.4
				c8.8,0,16,7.2,16,16V87.8z"/>
		</g>
		<path id="XMLID_166_" class="st2" d="M50.3,800c0,8.8-7.2,16-16,16H-287c-8.8,0-16-7.2-16-16V99.9c0-8.8,7.2-16,16-16H34.3
			c8.8,0,16,7.2,16,16V800z"/>
		<g id="XMLID_160_">
			<path id="XMLID_165_" class="st3" d="M-79.7,652.6h-42.7v104.2v30.8V816h42.7c7.4,0,13.4-6,13.4-13.4v-71.4v-31.6V666
				C-66.3,658.6-72.3,652.6-79.7,652.6z"/>
			<path id="XMLID_164_" class="st3" d="M-175.6,652.6c-7.4,0-13.4,6-13.4,13.4v51.6v47.2v37.8c0,7.4,6,13.4,13.4,13.4h45.3v-30.5
				v-20.2V652.6H-175.6z"/>
			<path id="XMLID_163_" class="st4" d="M-139.3,694.5l-6.4-6c-4.7-4.4-12.1-4.2-16.6,0.6l-26.7,28.5v47.2l50.3-53.8
				C-134.3,706.3-134.5,698.9-139.3,694.5z"/>
			<path id="XMLID_162_" class="st4" d="M-119,787.6l52.8-56.4v-31.6h-0.1h-2.5l-53.5,57.2v30.8l0,0H-119z"/>
			<path id="XMLID_161_" class="st4" d="M-138.2,773.8c0.7,5,3.7,9.3,7.9,11.8v-20.2L-138.2,773.8z"/>
		</g>
		<g id="XMLID_125_">
			<g id="XMLID_146_">
				<path id="XMLID_159_" class="st5" d="M-96.4,122.1h-56c-8.8,0-16,7.2-16,16V187v7.1c0,8.8,7.2,16,16,16h6.5h49.5
					c8.8,0,16-7.2,16-16v-56C-80.4,129.3-87.5,122.1-96.4,122.1z"/>
				<path id="XMLID_158_" class="st5" d="M31.5,136c-1-7.8-7.7-13.9-15.8-13.9h-3.3h-52.6c-8.8,0-16,7.2-16,16v56
					c0,0.5,0,0.9,0.1,1.3c0.7,8.2,7.6,14.7,15.9,14.7h2.5h53.5c8.8,0,16-7.2,16-16v-56C31.6,137.4,31.6,136.7,31.5,136z"/>
				<path id="XMLID_157_" class="st5" d="M15.6,228.8h-56c-8.8,0-16,7.2-16,16v56c0,2,0.4,3.9,1.1,5.7c2.3,6,8.1,10.3,14.9,10.3h4.6
					h51.4c8.8,0,16-7.2,16-16v-56C31.6,236,24.5,228.8,15.6,228.8z"/>
				<path id="XMLID_156_" class="st5" d="M-207.1,122.4c-0.8-0.1-1.7-0.2-2.6-0.2h-56c-8.8,0-16,7.2-16,16v56c0,8.8,7.2,16,16,16h56
					c8.8,0,16-7.2,16-16v-39v-17.1C-193.7,130.2-199.5,123.6-207.1,122.4z"/>
				<path id="XMLID_155_" class="st5" d="M-207.6,229c-0.7-0.1-1.4-0.2-2.1-0.2h-56c-8.8,0-16,7.2-16,16v16.3v25.4v14.2
					c0,2.2,0.4,4.2,1.2,6.1c2.4,5.8,8.1,9.9,14.8,9.9h20.1h35.9c8.8,0,16-7.2,16-16v-39.5v-16.5C-193.7,236.7-199.7,230-207.6,229z"
					/>
				<path id="XMLID_154_" class="st5" d="M-89.1,230.6c-2.2-1.1-4.6-1.8-7.3-1.8h-56c-8.8,0-16,7.2-16,16v56c0,8.8,7.2,16,16,16h56
					c8.8,0,16-7.2,16-16v-45.2v-10.8C-80.4,238.6-83.9,233.2-89.1,230.6z"/>
				<path id="XMLID_153_" class="st3" d="M-89.1,230.6l-63.1,67.5c-3.2,3.5-3,8.9,0.4,12.1l4.7,4.4c3.4,3.2,8.9,3,12.1-0.4
					l54.7-58.5v-10.8C-80.4,238.6-83.9,233.2-89.1,230.6z"/>
				<path id="XMLID_152_" class="st3" d="M21,244.8l-4.2-4c-3.1-2.9-8-2.8-11,0.4l-61.1,65.3c2.3,6,8.1,10.3,14.9,10.3h4.6
					l57.1-61.1C24.3,252.6,24.1,247.7,21,244.8z"/>
				<path id="XMLID_151_" class="st3" d="M15.6,122.1h-3.3l-68.6,73.3c0.7,8.2,7.6,14.7,15.9,14.7h2.5L31.4,136
					C30.5,128.2,23.8,122.1,15.6,122.1z"/>
				<path id="XMLID_150_" class="st3" d="M-258.3,194.3l6.4,6c4.7,4.4,12.1,4.2,16.6-0.6l41.6-44.5v-17.1c0-7.9-5.8-14.5-13.4-15.8
					l-51.7,55.3C-263.3,182.4-263,189.9-258.3,194.3z"/>
				<path id="XMLID_149_" class="st3" d="M-152.4,210.2h6.5l39.5-42.3c4.4-4.7,4.2-12.1-0.6-16.6l-6.4-6c-4.7-4.4-12.1-4.2-16.6,0.6
					l-38.5,41.2v7.1C-168.4,203-161.2,210.2-152.4,210.2z"/>
				<path id="XMLID_148_" class="st3" d="M-193.7,244.8c0-8.1-6.1-14.8-13.9-15.8l-72.9,78c2.4,5.8,8.1,9.9,14.8,9.9h20.1l51.9-55.5
					V244.8z"/>
				<path id="XMLID_147_" class="st3" d="M-251.3,244.8l-3.5-3.2c-2.6-2.4-6.5-2.2-8.9,0.3l-18,19.3v25.4l30.7-32.9
					C-248.6,251.2-248.7,247.2-251.3,244.8z"/>
			</g>
			<g id="XMLID_132_">
				<path id="XMLID_145_" class="st5" d="M-153.7,532.8h56c8.8,0,16-7.2,16-16v-48.9v-7.1c0-8.8-7.2-16-16-16h-6.5h-49.5
					c-8.8,0-16,7.2-16,16v56C-169.7,525.7-162.5,532.8-153.7,532.8z"/>
				<path id="XMLID_144_" class="st5" d="M-281.5,518.9c1,7.8,7.7,13.9,15.8,13.9h3.4h52.6c8.8,0,16-7.2,16-16v-56
					c0-0.5,0-0.9-0.1-1.3c-0.7-8.2-7.5-14.7-15.9-14.7h-2.5h-53.5c-8.8,0-16,7.2-16,16v56C-281.7,517.5-281.6,518.2-281.5,518.9z"/>
				<path id="XMLID_143_" class="st5" d="M-265.7,426.2h56c8.8,0,16-7.2,16-16v-56c0-2-0.4-3.9-1.1-5.7c-2.3-6-8.1-10.3-14.9-10.3
					h-4.6h-51.4c-8.8,0-16,7.2-16,16v56C-281.7,419-274.5,426.2-265.7,426.2z"/>
				<path id="XMLID_142_" class="st5" d="M-43,532.6c0.9,0.1,1.7,0.2,2.6,0.2h56c8.8,0,16-7.2,16-16v-56c0-8.8-7.2-16-16-16h-56
					c-8.8,0-16,7.2-16,16v38.9v17.1C-56.4,524.8-50.6,531.3-43,532.6z"/>
				<path id="XMLID_141_" class="st5" d="M-42.5,426c0.7,0.1,1.4,0.2,2.1,0.2h56c8.8,0,16-7.2,16-16v-16.3v-25.4v-14.2
					c0-2.2-0.4-4.2-1.2-6.1c-2.4-5.8-8.1-9.9-14.8-9.9H-4.5h-35.9c-8.8,0-16,7.2-16,16v39.5v16.4C-56.4,418.3-50.3,425-42.5,426z"/>
				<path id="XMLID_140_" class="st5" d="M-161,424.4c2.2,1.1,4.6,1.8,7.3,1.8h56c8.8,0,16-7.2,16-16v-56c0-8.8-7.2-16-16-16h-56
					c-8.8,0-16,7.2-16,16v45.2v10.8C-169.7,416.4-166.1,421.7-161,424.4z"/>
				<path id="XMLID_139_" class="st3" d="M-161,424.4l63.1-67.5c3.2-3.5,3-8.9-0.4-12.1l-4.7-4.4c-3.5-3.2-8.9-3-12.1,0.4
					l-54.7,58.5v10.9C-169.7,416.4-166.1,421.7-161,424.4z"/>
				<path id="XMLID_138_" class="st3" d="M-271,410.2l4.2,4c3.1,2.9,8,2.8,11-0.4l61.1-65.3c-2.3-6-8.1-10.3-14.9-10.3h-4.6
					l-57.2,61C-274.3,402.4-274.1,407.3-271,410.2z"/>
				<path id="XMLID_137_" class="st3" d="M-265.7,532.8h3.4l68.6-73.3c-0.7-8.2-7.5-14.7-15.9-14.7h-2.5l-69.3,74.1
					C-280.5,526.8-273.8,532.8-265.7,532.8z"/>
				<path id="XMLID_136_" class="st3" d="M8.2,460.7l-6.4-6c-4.7-4.4-12.1-4.2-16.6,0.6l-41.6,44.5v17.1c0,7.9,5.8,14.5,13.4,15.8
					l51.7-55.3C13.2,472.5,13,465.1,8.2,460.7z"/>
				<path id="XMLID_135_" class="st3" d="M-97.7,444.8h-6.5l-39.5,42.3c-4.4,4.7-4.2,12.1,0.6,16.6l6.4,6c4.7,4.4,12.1,4.2,16.6-0.6
					l38.5-41.2v-7.1C-81.7,452-88.9,444.8-97.7,444.8z"/>
				<path id="XMLID_134_" class="st3" d="M-56.4,410.2c0,8.1,6.1,14.8,13.9,15.8l72.9-78c-2.4-5.8-8.1-9.9-14.8-9.9H-4.5l-51.9,55.5
					V410.2z"/>
				<path id="XMLID_133_" class="st3" d="M1.2,410.2l3.5,3.2c2.5,2.4,6.5,2.3,8.9-0.3l18-19.3v-25.4L0.9,401.2
					C-1.4,403.8-1.3,407.8,1.2,410.2z"/>
			</g>
			<path id="XMLID_131_" class="st5" d="M-153.7,636.8h56c8.8,0,16-7.2,16-16v-48.9v-7.1c0-8.8-7.2-16-16-16h-6.5h-49.5
				c-8.8,0-16,7.2-16,16v56C-169.7,629.7-162.5,636.8-153.7,636.8z"/>
			<path id="XMLID_130_" class="st5" d="M-281.5,622.9c1,7.8,7.7,13.9,15.8,13.9h3.4h52.6c8.8,0,16-7.2,16-16v-56
				c0-0.4,0-0.9-0.1-1.3c-0.7-8.2-7.5-14.7-15.9-14.7h-2.5h-53.5c-8.8,0-16,7.2-16,16v56C-281.7,621.5-281.6,622.2-281.5,622.9z"/>
			<path id="XMLID_129_" class="st5" d="M-43,636.6c0.9,0.1,1.7,0.2,2.6,0.2h56c8.8,0,16-7.2,16-16v-56c0-8.8-7.2-16-16-16h-56
				c-8.8,0-16,7.2-16,16v38.9v17.1C-56.4,628.8-50.6,635.3-43,636.6z"/>
			<path id="XMLID_128_" class="st3" d="M-265.7,636.8h3.4l68.6-73.3c-0.7-8.2-7.5-14.7-15.9-14.7h-2.5l-69.3,74.1
				C-280.5,630.8-273.8,636.8-265.7,636.8z"/>
			<path id="XMLID_127_" class="st3" d="M8.2,564.7l-6.4-6c-4.7-4.4-12.1-4.2-16.6,0.6l-41.6,44.5v17.1c0,7.9,5.8,14.5,13.4,15.8
				l51.7-55.3C13.2,576.5,13,569.1,8.2,564.7z"/>
			<path id="XMLID_126_" class="st3" d="M-97.7,548.8h-6.5l-39.5,42.3c-4.4,4.7-4.2,12.1,0.6,16.6l6.4,6c4.7,4.4,12.1,4.2,16.6-0.6
				l38.5-41.2v-7.1C-81.7,556-88.9,548.8-97.7,548.8z"/>
		</g>
	</g>
	<g id="Building_1">
		<path id="XMLID_91_" class="st6" d="M50.3,352.2v60.4l0,0v387.3c0,8.8,7.2,16,16,16h285.8c8.8,0,16-7.2,16-16V412.6v-4.7v-55.7
			H50.3z M356,358.9v33.6c-1.2-0.3-2.5-0.5-3.9-0.5h-6.3v-33.1H356z M342.7,358.9V392h-10.2v-33.1H342.7z M329.4,358.9V392h-10.2
			v-33.1H329.4z M316.1,358.9V392h-10.2v-33.1H316.1z M302.8,358.9V392h-10.2v-33.1H302.8z M289.5,358.9V392h-10.2v-33.1H289.5z
			 M276.2,358.9V392H266v-33.1H276.2z M262.9,358.9V392h-10.2v-33.1H262.9z M249.6,358.9V392h-10.2v-33.1H249.6z M236.4,358.9V392
			h-10.2v-33.1H236.4z M223.1,358.9V392h-10.2v-33.1H223.1z M209.8,358.9V392h-10.2v-33.1H209.8z M196.5,358.9V392h-10.2v-33.1
			H196.5z M183.2,358.9V392H173v-33.1H183.2z M169.9,358.9V392h-10.2v-33.1H169.9z M155.3,358.9V392h-10.2v-33.1H155.3z
			 M140.7,358.9V392h-10.2v-33.1H140.7z M126,358.9V392h-10.2v-33.1H126z M111.4,358.9V392h-10.2v-33.1H111.4z M96.8,358.9V392H86.6
			v-33.1H96.8z M82.2,358.9V392H72v-33.1H82.2z M67.6,358.9V392h-1.3c-3.3,0-6.4,1-8.9,2.7v-35.8L67.6,358.9L67.6,358.9z"/>
		<g id="XMLID_88_">
			<rect id="XMLID_90_" x="244.4" y="698.3" class="st7" width="88.5" height="117.7"/>
			<path id="XMLID_89_" class="st6" d="M327.5,762.7c0,2.1-1.7,3.7-3.7,3.7h-17.4c-2.1,0-3.7-1.7-3.7-3.7l0,0c0-2.1,1.7-3.7,3.7-3.7
				h17.4C325.8,759,327.5,760.6,327.5,762.7L327.5,762.7z"/>
		</g>
		<g id="XMLID_60_">
			<g id="XMLID_69_">
				<g id="XMLID_81_">
					<path id="XMLID_87_" class="st5" d="M241.9,420.3c-2.1-1.2-4.5-1.9-7.1-1.9h-14.5h-35.6c-7.9,0-14.3,6.4-14.3,14.3V472v10.8
						c0,4.7,2.3,8.9,5.8,11.5c2.4,1.8,5.3,2.8,8.5,2.8h26h24.1c7.9,0,14.3-6.4,14.3-14.3v-13.3v-36.7
						C249.1,427.4,246.2,422.7,241.9,420.3z"/>
					<path id="XMLID_86_" class="st5" d="M349.3,432c-0.4-7.6-6.6-13.6-14.3-13.6h-6.1H285c-7.9,0-14.3,6.4-14.3,14.3v48.2v1.9
						c0,7.9,6.4,14.3,14.3,14.3h3.7H333h2.1c7.9,0,14.3-6.4,14.3-14.3v-3.2v-46.8C349.3,432.4,349.3,432.2,349.3,432z"/>
					<path id="XMLID_85_" class="st5" d="M340.2,514.7c-1.6-0.6-3.4-1-5.2-1h-17.6h-32.5c-7.9,0-14.3,6.4-14.3,14.3v35.9v14.2
						c0,3.1,1,6,2.7,8.4c2.6,3.6,6.8,5.9,11.6,5.9H335c7.9,0,14.3-6.4,14.3-14.3V528C349.3,522,345.5,516.8,340.2,514.7z"/>
					<path id="XMLID_84_" class="st5" d="M133.5,418.4h-16.6H83.5c-7.9,0-14.3,6.4-14.3,14.3v36.9v13.2c0,7.9,6.4,14.3,14.3,14.3
						h6.6h43.5c7.9,0,14.3-6.4,14.3-14.3v-47.7v-2.4C147.8,424.8,141.4,418.4,133.5,418.4z"/>
					<path id="XMLID_83_" class="st5" d="M133.5,513.7h-2H83.4c-7.9,0-14.3,6.4-14.3,14.3v50.1c0,7.9,6.4,14.3,14.3,14.3h38.5h11.6
						c7.9,0,14.3-6.4,14.3-14.3v-13.5V528c0-1-0.1-2-0.3-2.9C146.1,518.6,140.4,513.7,133.5,513.7z"/>
					<path id="XMLID_82_" class="st5" d="M239.3,514.5c-1.4-0.5-2.9-0.7-4.4-0.7h-6.5h-33.1h-10.5c-7.9,0-14.3,6.4-14.3,14.3v12.3
						v35.5v2.3c0,7.9,6.4,14.3,14.3,14.3h50.1c7.9,0,14.3-6.4,14.3-14.3v-38.7v-11.4C249.1,521.7,245,516.3,239.3,514.5z"/>
				</g>
				<g id="XMLID_70_">
					<path id="XMLID_80_" class="st3" d="M83.4,497.1H90l57.8-62v-2.4c0-7.9-6.4-14.3-14.3-14.3h-16.6l-47.7,51.2v13.2
						C69.1,490.6,75.5,497.1,83.4,497.1z"/>
					<path id="XMLID_79_" class="st3" d="M176.3,494.3l63.2-67.8c1.6-1.8,2.5-4,2.5-6.2c-2.1-1.2-4.5-1.9-7.1-1.9h-14.5L170.5,472
						v10.8C170.4,487.5,172.7,491.6,176.3,494.3z"/>
					<path id="XMLID_78_" class="st3" d="M101.9,559.1l0.6,0.5c3.8,3.5,9.7,3.3,13.2-0.5l31.8-34.1c-1.3-6.5-7.1-11.4-14-11.4h-2
						l-30,32.2C97.9,549.7,98.1,555.6,101.9,559.1z"/>
					<path id="XMLID_77_" class="st3" d="M234.6,471.4L210.7,497h24.1c7.9,0,14.3-6.4,14.3-14.3v-13.3
						C244.5,466.6,238.4,467.4,234.6,471.4z"/>
					<path id="XMLID_76_" class="st3" d="M147.8,578.1v-13.5l-25.9,27.8h11.6C141.4,592.4,147.8,586,147.8,578.1z"/>
					<polygon id="XMLID_75_" class="st3" points="195.2,513.7 170.4,540.3 170.4,575.9 228.3,513.7 					"/>
					<path id="XMLID_74_" class="st3" d="M335,418.4h-6.1l-58.2,62.5v1.9c0,7.9,6.4,14.3,14.3,14.3h3.7l60.6-65.1
						C348.9,424.4,342.7,418.4,335,418.4z"/>
					<path id="XMLID_73_" class="st3" d="M239.3,514.5l-33,35.4c-4.4,4.7-4.1,12.1,0.6,16.4l0.7,0.7c4.7,4.4,12.1,4.1,16.4-0.6
						l25.1-26.9v-11.4C249.1,521.7,245,516.3,239.3,514.5z"/>
					<path id="XMLID_72_" class="st3" d="M349.3,482.7v-3.2l-16.4,17.6h2.1C342.9,497.1,349.3,490.6,349.3,482.7z"/>
					<path id="XMLID_71_" class="st3" d="M317.4,513.7l-46.8,50.2v14.2c0,3.1,1,6,2.7,8.4l66.9-71.8c-1.6-0.6-3.4-1-5.2-1
						L317.4,513.7L317.4,513.7z"/>
				</g>
			</g>
			<path id="XMLID_68_" class="st5" d="M340.2,608.1c-1.6-0.6-3.4-1-5.2-1h-17.6h-32.5c-7.9,0-14.3,6.4-14.3,14.3v35.9v14.2
				c0,3.1,1,6,2.7,8.4c2.6,3.6,6.8,5.9,11.6,5.9H335c7.9,0,14.3-6.4,14.3-14.3v-50.1C349.3,615.3,345.5,610.2,340.2,608.1z"/>
			<path id="XMLID_67_" class="st5" d="M133.5,607.1h-2H83.4c-7.9,0-14.3,6.4-14.3,14.3v50.1c0,7.9,6.4,14.3,14.3,14.3h38.5h11.6
				c7.9,0,14.3-6.4,14.3-14.3V658v-36.6c0-1-0.1-2-0.3-2.9C146.1,612,140.4,607.1,133.5,607.1z"/>
			<path id="XMLID_66_" class="st5" d="M239.3,607.8c-1.4-0.5-2.9-0.7-4.4-0.7h-6.5h-33.1h-10.5c-7.9,0-14.3,6.4-14.3,14.3v12.3
				v35.5v2.3c0,7.9,6.4,14.3,14.3,14.3h50.1c7.9,0,14.3-6.4,14.3-14.3v-38.7v-11.4C249.1,615,245,609.7,239.3,607.8z"/>
			<path id="XMLID_65_" class="st3" d="M101.9,652.5l0.6,0.5c3.8,3.5,9.7,3.3,13.2-0.5l31.8-34.1c-1.3-6.5-7.1-11.4-14-11.4h-2
				l-30,32.2C97.9,643,98.1,649,101.9,652.5z"/>
			<path id="XMLID_64_" class="st3" d="M147.8,671.5V658l-25.9,27.8h11.6C141.4,685.8,147.8,679.4,147.8,671.5z"/>
			<polygon id="XMLID_63_" class="st3" points="195.2,607.1 170.4,633.6 170.4,669.2 228.3,607.1 			"/>
			<path id="XMLID_62_" class="st3" d="M239.3,607.8l-33,35.4c-4.4,4.7-4.1,12.1,0.6,16.4l0.7,0.7c4.7,4.4,12.1,4.1,16.4-0.6
				l25.1-26.9v-11.4C249.1,615,245,609.7,239.3,607.8z"/>
			<path id="XMLID_61_" class="st3" d="M317.4,607.1l-46.8,50.2v14.2c0,3.1,1,6,2.7,8.4l66.9-71.8c-1.6-0.6-3.4-1-5.2-1L317.4,607.1
				L317.4,607.1z"/>
		</g>
	</g>
</g>
</svg>
