<?xml version="1.0" encoding="utf-8"?>
<!-- Generator: Adobe Illustrator 19.0.0, SVG Export Plug-In . SVG Version: 6.00 Build 0)  -->
<svg version="1.1" id="Layer_1" xmlns="http://www.w3.org/2000/svg" xmlns:xlink="http://www.w3.org/1999/xlink" x="0px" y="0px"
	 viewBox="-274 88.3 730.9 624.7" style="enable-background:new -274 88.3 730.9 624.7;" xml:space="preserve">
<style type="text/css">
	.st0{opacity:0.5;}
	.st1{fill:#1D1D1D;}
	.st2{fill:#666666;}
	.st3{fill:#A4A4A4;}
	.st4{fill:#8D8D8D;}
	.st5{fill:#CFCFCF;}
	.st6{fill:#3C3C3C;}
	.st7{fill:#EDEDED;}
	.st8{fill:#2E2E2E;}
	.st9{opacity:0.4;}
	.st10{fill:#F5F5F5;}
	.st11{fill:#B2B2B2;}
	.st12{fill:#A0A0A0;}
	.st13{fill:#D8D8D8;}
	.st14{fill:#C0C0C0;}
	.st15{fill:#494949;}
	.st16{fill:#373737;}
	.st17{fill:#202020;}
	.st18{fill:#DADADA;}
	.st19{fill:#878787;}
	.st20{fill:#9F9F9F;}
	.st21{fill:#C6C6C6;}
	.st22{fill:#868686;}
	.st23{fill:#575757;}
	.st24{opacity:0.1;enable-background:new    ;}
	.st25{fill:#1C1C1C;}
</style>
<g id="Pharmacy">
	<g id="Shop_1_">
		<g id="XMLID_123_" class="st0">
			<polygon id="XMLID_124_" class="st1" points="451.5,680 82.3,679.6 82.3,713 404.2,713 			"/>
		</g>
		<g id="XMLID_121_">
			<path id="XMLID_122_" class="st2" d="M416.7,224c0-11.1-7.2-20.1-16-20.1h-633c-8.8,0-16,9-16,20.1v118.3c0,11.1,7.2,20,16,20
				h633c8.8,0,16-9,16-20V224z"/>
		</g>
		<g id="XMLID_119_">
			<path id="XMLID_120_" class="st3" d="M416.7,698.7c0,7.9-6.4,14.3-14.3,14.3h-636.5c-7.9,0-14.3-6.4-14.3-14.3V331.8
				c0-7.9,6.4-14.3,14.3-14.3h636.4c7.9,0,14.3,6.4,14.3,14.3L416.7,698.7L416.7,698.7z"/>
		</g>
		<g id="XMLID_108_">
			<g id="XMLID_117_">
				<path id="XMLID_118_" class="st4" d="M371.9,433.2h-10.4h-54.2h-55.5h-90.6H68.1c-7.9,0-14.3,6.4-14.3,14.3v104v74.7
					c0,6.5,4.4,12,10.3,13.7c1.3,0.4,2.6,0.6,4,0.6h303.8c7.9,0,14.3-6.4,14.3-14.3V447.5C386.2,439.6,379.8,433.2,371.9,433.2z"/>
			</g>
			<g id="XMLID_115_" class="st0">
				<path id="XMLID_116_" class="st5" d="M161.3,433.2L53.9,551.5v74.7c0,6.5,4.4,12,10.3,13.7l187.6-206.7L161.3,433.2L161.3,433.2
					z"/>
			</g>
			<g id="XMLID_113_" class="st0">
				<path id="XMLID_114_" class="st5" d="M169.7,584.8c-7.4,8.2-6.8,20.9,1.4,28.3c8.2,7.4,20.9,6.8,28.3-1.4L361.5,433h-54.2
					L169.7,584.8z"/>
			</g>
			<g id="XMLID_111_">
				<path id="XMLID_112_" class="st6" d="M391.6,625.8c0,2.8-2.3,5.1-5.1,5.1h-333c-2.8,0-5.1-2.3-5.1-5.1l0,0
					c0-2.8,2.3-5.1,5.1-5.1h333C389.3,620.8,391.6,623,391.6,625.8L391.6,625.8z"/>
			</g>
			<g id="XMLID_109_">
				<path id="XMLID_110_" class="st7" d="M399.1,637.2c0,5.5-4.5,9.9-9.9,9.9H48.4c-5.5,0-9.9-4.4-9.9-9.9l0,0
					c0-5.5,4.4-9.9,9.9-9.9h340.7C394.6,627.2,399.1,631.7,399.1,637.2L399.1,637.2z"/>
			</g>
		</g>
		<g id="XMLID_76_">
			<g id="XMLID_106_">
				<path id="XMLID_107_" class="st8" d="M376.4,277.7h-40.8H305h-23.4H179.7H58.1c-8.8,0-16,7.2-16,16v77.9c0,8.8,7.2,16,16,16H85
					h101.9h189.6c8.8,0,16-7.2,16-16v-77.9C392.4,284.8,385.3,277.7,376.4,277.7z"/>
			</g>
			<g id="XMLID_85_">
				<path id="XMLID_103_" class="st7" d="M113.3,316.4v7.2c0,8.9-4.3,13.8-13.1,13.8h-4.1v21h-8.8v-55.8h12.9
					C109,302.7,113.3,307.5,113.3,316.4z M96.1,310.6v18.9h4.1c2.8,0,4.3-1.3,4.3-5.3v-8.4c0-4-1.5-5.3-4.3-5.3L96.1,310.6
					L96.1,310.6z"/>
				<path id="XMLID_101_" class="st7" d="M126.5,358.4h-8.8v-55.8h8.8v23.9h10v-23.9h8.9v55.8h-8.9v-23.9h-10V358.4z"/>
				<path id="XMLID_98_" class="st7" d="M180.1,358.4h-8.8l-1.5-10.1H159l-1.5,10.1h-8l8.9-55.8h12.8L180.1,358.4z M160.1,340.7h8.4
					l-4.2-28.2L160.1,340.7z"/>
				<path id="XMLID_95_" class="st7" d="M202.5,358.4c-0.5-1.4-0.8-2.3-0.8-6.9v-8.8c0-5.2-1.8-7.1-5.7-7.1h-3v22.7h-8.8v-55.8h13.2
					c9.1,0,13,4.2,13,12.8v4.4c0,5.7-1.8,9.5-5.7,11.3c4.4,1.8,5.8,6.1,5.8,11.9v8.6c0,2.7,0.1,4.7,1,6.8h-9V358.4z M193,310.6v17.1
					h3.4c3.3,0,5.3-1.4,5.3-5.9v-5.5c0-4-1.4-5.7-4.5-5.7L193,310.6L193,310.6z"/>
				<path id="XMLID_93_" class="st7" d="M234.8,342.3l6-39.6H253v55.8h-8.3v-40l-6,40h-8.3l-6.5-39.4v39.4h-7.6v-55.8h12.2
					L234.8,342.3z"/>
				<path id="XMLID_90_" class="st7" d="M287.7,358.4h-8.8l-1.5-10.1h-10.8l-1.5,10.1h-8l8.9-55.8h12.8L287.7,358.4z M267.7,340.7
					h8.4l-4.2-28.2L267.7,340.7z"/>
				<path id="XMLID_88_" class="st7" d="M317.1,337.6v7.4c0,8.9-4.5,14-13.1,14s-13.1-5.1-13.1-14v-29c0-8.9,4.5-14,13.1-14
					s13.1,5.1,13.1,14v5.4h-8.3v-6c0-4-1.8-5.5-4.5-5.5c-2.8,0-4.5,1.5-4.5,5.5v30.1c0,4,1.7,5.4,4.5,5.4s4.5-1.4,4.5-5.4v-8
					L317.1,337.6L317.1,337.6z"/>
				<path id="XMLID_86_" class="st7" d="M329.8,339.9l-11.1-37.3h9.2l6.7,25.4l6.7-25.4h8.4l-11.1,37.3v18.5h-8.8L329.8,339.9
					L329.8,339.9z"/>
			</g>
			<g id="XMLID_83_">
				<polygon id="XMLID_84_" class="st7" points="79,330.7 66,343.7 53,330.7 66,317.7 				"/>
			</g>
			<g id="XMLID_81_">
				
					<rect id="XMLID_82_" x="359.4" y="321.5" transform="matrix(-0.7071 0.7071 -0.7071 -0.7071 863.1196 303.9484)" class="st7" width="18.4" height="18.4"/>
			</g>
			<g id="XMLID_79_" class="st9">
				<polygon id="XMLID_80_" class="st10" points="179.7,277.7 85,387.6 186.9,387.6 281.6,277.7 				"/>
			</g>
			<g id="XMLID_77_" class="st9">
				<path id="XMLID_78_" class="st10" d="M243.9,354.1l12.1,10.4c1.5,1.3,5.7-1.1,9.4-5.4l70.3-81.5H305L247.8,344
					C244.1,348.3,242.4,352.8,243.9,354.1z"/>
			</g>
		</g>
		<g id="XMLID_45_">
			<g id="XMLID_46_">
				<g id="XMLID_53_">
					<g id="XMLID_74_">
						<path id="XMLID_75_" class="st7" d="M2,368.7h-179.9c-7.9,0-14.3,6.5-14.3,14.6v315.2c0,8,6.4,14.5,14.3,14.5H2
							c7.9,0,14.3-6.5,14.3-14.5V383.3C16.3,375.2,9.9,368.7,2,368.7z"/>
					</g>
					<g id="XMLID_72_">
						<path id="XMLID_73_" class="st11" d="M-177.9,368.7c-7.9,0-14.3,6.5-14.3,14.6v315.2c0,8,6.4,14.5,14.3,14.5h13.9l123.2-344.3
							L-177.9,368.7L-177.9,368.7z"/>
					</g>
					<g id="XMLID_68_">
						<path id="XMLID_69_" class="st6" d="M-18.6,693h-136.7c-11,0-19.9-8.9-19.9-19.9v-70.6c0-11,8.9-19.9,19.9-19.9h136.7
							c11,0,19.9,8.9,19.9,19.9v70.6C1.3,684.1-7.6,693-18.6,693z M-155.3,596c-3.6,0-6.6,3-6.6,6.6v70.6c0,3.7,3,6.6,6.6,6.6h136.7
							c3.6,0,6.6-3,6.6-6.6v-70.6c0-3.7-3-6.6-6.6-6.6H-155.3L-155.3,596z"/>
					</g>
					<g id="XMLID_66_">
						<path id="XMLID_67_" class="st4" d="M-12.9,387.6h-13.6h-33.2h-43.4h-58.5c-7.6,0-13.8,6.2-13.8,13.8V470v49.4v36.9
							c0,7.6,6.2,13.8,13.8,13.8h148.7c7.6,0,13.8-6.2,13.8-13.8V426.5v-25.1C0.9,393.8-5.3,387.6-12.9,387.6z"/>
					</g>
					<g id="XMLID_64_" class="st0">
						<polygon id="XMLID_65_" class="st5" points="-103.1,387.6 -175.4,469.9 -175.4,519.4 -59.7,387.6 						"/>
					</g>
					<g id="XMLID_62_" class="st0">
						<path id="XMLID_63_" class="st5" d="M-12.9,387.6h-13.6l-93,105.9c-8.2,9.3-7.2,23.4,2.1,31.6l1.1,1
							c9.3,8.2,23.4,7.2,31.6-2.1l85.6-97.4v-25.1C0.9,393.8-5.3,387.6-12.9,387.6z"/>
					</g>
					<g id="XMLID_60_">
						<path id="XMLID_61_" class="st12" d="M3.9,571.1c0,2.6-2.4,4.8-5.3,4.8l0,0c-2.9,0-5.3-2.1-5.3-4.8V564c0-2.6,2.4-4.8,5.3-4.8
							l0,0c2.9,0,5.3,2.1,5.3,4.8V571.1z"/>
					</g>
					<g id="XMLID_58_">
						<path id="XMLID_59_" class="st12" d="M-70,571.1c0,2.6-2.4,4.8-5.3,4.8l0,0c-2.9,0-5.3-2.1-5.3-4.8V564c0-2.6,2.4-4.8,5.3-4.8
							l0,0c2.9,0,5.3,2.1,5.3,4.8V571.1z"/>
					</g>
					<g id="XMLID_56_">
						<path id="XMLID_57_" class="st13" d="M-9.3,559.2H-36h-32.2c-4.6,0-8.3,3.7-8.3,8.3s3.7,8.3,8.3,8.3h22.7h36.2
							c4.6,0,8.3-3.7,8.3-8.3S-4.7,559.2-9.3,559.2z"/>
					</g>
					<g id="XMLID_54_">
						<path id="XMLID_55_" class="st14" d="M-1,567.5c0-4.6-3.7-8.3-8.3-8.3H-36l-9.5,16.7h36.2C-4.7,575.9-1,572.1-1,567.5z"/>
					</g>
				</g>
				<g id="XMLID_51_">
					<rect id="XMLID_52_" x="-28.7" y="507.9" class="st15" width="21.9" height="13.3"/>
				</g>
				<g id="XMLID_49_">
					<rect id="XMLID_50_" x="-40.8" y="525.8" class="st16" width="34.1" height="20.7"/>
				</g>
				<g id="XMLID_47_">
					<rect id="XMLID_48_" x="-16.5" y="528.3" class="st10" width="7.7" height="4.7"/>
				</g>
			</g>
		</g>
		<g id="XMLID_43_">
			<path id="XMLID_44_" class="st17" d="M438.9,209.2c0,8.8-7.2,16-16,16H-258c-8.8,0-16-7.2-16-16v-5.3c0-8.8,7.2-16,16-16h680.9
				c8.8,0,16,7.2,16,16V209.2z"/>
		</g>
	</g>
	<g id="Medicine">
		<g id="XMLID_36_">
			<g id="XMLID_41_">
				<path id="XMLID_42_" class="st15" d="M-75.3,145.5c-16.6,0-30.1,13.4-30.1,30V195c0,16.6,13.4,30,30,30.1h47.7v-79.6
					L-75.3,145.5z"/>
			</g>
			<g id="XMLID_39_">
				<path id="XMLID_40_" class="st18" d="M37.4,145.5h-47.7v79.6h47.7c16.6,0,30.1-13.4,30.1-30v-19.5C67.4,159,54,145.5,37.4,145.5
					z"/>
			</g>
			<g id="XMLID_37_">
				<polygon id="XMLID_38_" class="st7" points="-27.6,145.5 -27.6,225.1 -10.3,225.1 -10.3,145.5 				"/>
			</g>
		</g>
		<g id="XMLID_29_">
			<g id="XMLID_34_">
				<path id="XMLID_35_" class="st19" d="M-198.9,131c-15.4,6-23.1,23.4-17.1,38.9l7,18.2c6,15.5,23.4,23.2,38.9,17.2l44.5-17.2
					l-28.8-74.2L-198.9,131z"/>
			</g>
			<g id="XMLID_32_">
				<path id="XMLID_33_" class="st20" d="M-93.8,90.3l-44.5,17.2l28.8,74.2l44.5-17.2c15.5-6,23.2-23.4,17.2-38.9l-7.1-18.2
					C-60.9,92-78.3,84.3-93.8,90.3z"/>
			</g>
			<g id="XMLID_30_">
				<polygon id="XMLID_31_" class="st7" points="-154.4,113.8 -125.7,188 -109.5,181.8 -138.3,107.6 				"/>
			</g>
		</g>
		<g id="XMLID_22_">
			<g id="XMLID_27_">
				<path id="XMLID_28_" class="st7" d="M-114.7,162.3c-24.6-3.9-47.8,11.1-54.9,34.3l96.7,15.2C-72.6,187.6-90.1,166.2-114.7,162.3
					z"/>
			</g>
			<g id="XMLID_25_">
				<path id="XMLID_26_" class="st7" d="M-130.1,260.1c24.6,3.9,47.8-11.1,54.9-34.3l-96.7-15.2
					C-172.2,234.8-154.7,256.2-130.1,260.1z"/>
			</g>
			<g id="XMLID_23_">
				<path id="XMLID_24_" class="st21" d="M-171.3,203.5c-0.4,2.4-0.6,4.7-0.6,7.1l96.7,15.2c0.7-2.2,1.2-4.6,1.6-6.9
					c0.4-2.4,0.6-4.7,0.6-7.1l-96.7-15.2C-170.4,198.9-170.9,201.2-171.3,203.5z"/>
			</g>
		</g>
	</g>
	<g id="Bottle">
		<g id="bottle">
			<g id="XMLID_20_">
				<path id="XMLID_21_" class="st22" d="M457,546.8V529c0-0.3,0-0.6-0.1-0.8c0-0.2,0.1-0.4,0.1-0.6c0-4.6-13.2-12.7-36.2-16V502
					c-0.4,0.1-0.9,0.2-1.4,0.2h-20.2H379c-0.6,0-1.1-0.1-1.6-0.2v9.5c-23.4,3.3-36.6,11.4-36.6,16.1c0,0.2,0,0.4,0.1,0.6
					c0,0.3-0.1,0.5-0.1,0.8v17.8v129.5v24.8c0,0.2,0,1,0,1.2s0,0.4,0.1,0.6c0.4,1.2,1.8,2.3,4,3.3c8.6,4,29.5,6.8,53.9,6.8
					c0.1,0,0.2,0,0.3,0c31.9,0,57.8-4.8,57.8-10.7c0-0.2,0-0.3-0.1-0.5c0-0.2,0.1-0.5,0.1-0.7v-24.4h0.3L457,546.8z"/>
			</g>
			<g id="XMLID_18_">
				<polygon id="XMLID_19_" class="st23" points="340.9,676.3 341.1,676.3 341.1,547.2 399.2,547.2 399.2,546.8 340.9,546.8 				"/>
			</g>
			<polygon id="XMLID_17_" class="st8" points="341.1,547.2 341.1,676.3 457,676.3 457,546.8 			"/>
			<g id="XMLID_13_">
				<path id="XMLID_16_" class="st22" d="M429.2,594.3H369c-1.8,0-3.2-1.4-3.2-3.2V589c0-1.8,1.4-3.2,3.2-3.2h60.2
					c1.8,0,3.2,1.4,3.2,3.2v2.1C432.4,592.8,430.9,594.3,429.2,594.3z"/>
				<path id="XMLID_15_" class="st22" d="M435,611.8h-71.9c-2.4,0-4.3-1.9-4.3-4.3l0,0c0-2.4,1.9-4.3,4.3-4.3H435
					c2.4,0,4.3,1.9,4.3,4.3l0,0C439.3,609.9,437.4,611.8,435,611.8z"/>
				<path id="XMLID_14_" class="st22" d="M429.2,629.4H369c-1.8,0-3.2-1.4-3.2-3.2v-2.1c0-1.8,1.4-3.2,3.2-3.2h60.2
					c1.8,0,3.2,1.4,3.2,3.2v2.1C432.4,627.9,430.9,629.4,429.2,629.4z"/>
			</g>
			<rect id="XMLID_12_" x="399.2" y="546.8" class="st24" width="57.8" height="129.5"/>
			<g id="XMLID_10_">
				<path id="XMLID_11_" class="st8" d="M376.8,473.1c-0.4,0.1-0.8,0.3-1.1,0.6c-0.1,0.1-0.2,0.1-0.3,0.2c-1,0.6-1.5,1.3-1.5,2l0,0
					c0,0.1,0,22.4,0,22.4c0,1.7,1.5,3.2,3.6,3.7c0.5,0.1,1,0.2,1.6,0.2h20.2v-13.6v-18.7C389.5,470,381.1,471.2,376.8,473.1z"/>
			</g>
		</g>
		<g id="XMLID_8_">
			<path id="XMLID_9_" class="st25" d="M424.5,475.5c0-0.1-0.1-0.2-0.1-0.3l0,0l0,0c0-0.1-0.4-0.6-0.5-0.6c-0.1-0.1-0.3-0.3-0.4-0.3
				c-0.1-0.1-0.9-0.6-1.1-0.8c-0.2-0.1-0.7-0.3-0.7-0.3l0,0h-0.1l0,0c-4.3-1.9-12.7-3.2-22.4-3.2v18.7v13.6h20.2
				c0.5,0,1-0.1,1.4-0.2c2.2-0.5,3.8-2,3.8-3.8c0,0,0-22.3,0-22.4C424.6,475.8,424.5,475.7,424.5,475.5z"/>
		</g>
	</g>
</g>
</svg>
