<?xml version="1.0" encoding="utf-8"?>
<!-- Generator: Adobe Illustrator 19.0.0, SVG Export Plug-In . SVG Version: 6.00 Build 0)  -->
<svg version="1.1" id="Layer_1" xmlns="http://www.w3.org/2000/svg" xmlns:xlink="http://www.w3.org/1999/xlink" x="0px" y="0px"
	 viewBox="-532 282.2 198.4 237.8" style="enable-background:new -532 282.2 198.4 237.8;" xml:space="preserve">
<style type="text/css">
	.st0{fill:#FFFFFF;}
	.st1{fill:#343434;}
	.st2{fill:#8D8D8D;}
	.st3{fill:#D0D0D0;}
	.st4{fill:#F6F6F6;}
	.st5{fill:#1D1D1D;}
	.st6{fill:#BCBCBC;}
</style>
<g id="Police_Station">
	<g id="Building_14_">
		<path class="st0" d="M-338.1,514c0,3.3-2.7,5.9-5.9,5.9h-175.6c-3.3,0-5.9-2.7-5.9-5.9V409.8c0-3.3,2.7-5.9,5.9-5.9H-344
			c3.3,0,5.9,2.7,5.9,5.9C-338,409.8-338,514-338.1,514z"/>
		<path class="st0" d="M-338.6,322.4c0-3.3-2.7-5.9-5.9-5.9h-175.6c-3.3,0-5.9,2.7-5.9,5.9v72.1c0,3.3,2.7,5.9,5.9,5.9h175.6
			c3.3,0,5.9-2.7,5.9-5.9C-338.5,394.5-338.5,322.4-338.6,322.4z"/>
		<path class="st1" d="M-333.6,288.1c0-3.3-2.7-5.9-5.9-5.9h-186.6c-3.3,0-5.9,2.7-5.9,5.9v37.8c0,3.3,2.7,5.9,5.9,5.9h186.5
			c3.3,0,5.9-2.7,5.9-5.9L-333.6,288.1L-333.6,288.1z"/>
		<path class="st1" d="M-333.6,409c0,3.3-2.7,5.9-5.9,5.9h-186.6c-3.3,0-5.9-2.7-5.9-5.9v-12.8c0-3.3,2.7-5.9,5.9-5.9h186.5
			c3.3,0,5.9,2.7,5.9,5.9L-333.6,409L-333.6,409z"/>
		<g>
			<path class="st2" d="M-501.2,337.4h-6.9c-3.3,0-5.9,2.7-5.9,5.9v9.6v21.6v1.8c0,3.3,2.7,5.9,5.9,5.9h21.9v-19.3v-12.1v-9.9v-3.6
				h-15V337.4z"/>
			<path class="st3" d="M-486.2,341v-3.6h-14.9l-12.9,15.5v21.6l0.1-0.1L-486.2,341z"/>
			<polygon class="st2" points="-465.9,337.4 -475,337.4 -482,337.4 -482,345.8 -482,357.8 -482,382.3 -476.2,382.3 -466.8,382.3 
				-452.6,382.3 -452.6,365.3 -452.6,349 -452.6,337.4 			"/>
			<path class="st3" d="M-465.9,337.4h-9.2l-6.9,8.4v12.1l15.4-18.5C-466.2,338.8-465.9,338.1-465.9,337.4z"/>
			<path class="st3" d="M-497.4,364.3c-1.2,1.4-1,3.5,0.4,4.6l0.8,0.7c1.4,1.2,3.5,1,4.6-0.4l5.2-6.2v-12.1L-497.4,364.3z"/>
			<path class="st3" d="M-476,377.1c-1.3,1.5-1.3,3.7-0.3,5.2h9.5l14.1-17v-16.3L-476,377.1z"/>
			<polygon class="st2" points="-421.6,337.4 -434.8,337.4 -443.1,337.4 -448.4,337.4 -448.4,343.9 -448.4,360.1 -448.4,382.3 
				-418.1,382.3 -418.1,343.2 -418.1,337.4 			"/>
			<path class="st3" d="M-434.8,337.4h-8.3l-5.4,6.5v16.3l13.9-16.8C-433.1,341.6-433.1,339-434.8,337.4z"/>
			<polygon class="st2" points="-390.2,337.4 -413.9,337.4 -413.9,365.8 -413.9,373 -413.9,382.3 -400.8,382.3 -384.6,382.3 
				-384.6,362.8 -384.6,343.1 -384.6,337.4 			"/>
			<path class="st3" d="M-421.6,337.4l-20.6,24.9c-1,1.2-0.8,2.9,0.4,3.9l0.7,0.6c1.2,1,2.9,0.8,3.9-0.4l19.2-23.2v-5.8H-421.6z"/>
			<path class="st3" d="M-409,372.5l24.5-29.5v-5.7h-5.8l-23.6,28.5v7.1l0,0C-412.4,374.2-410.2,374-409,372.5z"/>
			<path class="st2" d="M-351.1,342.8c-0.3-3-2.8-5.3-5.9-5.3h-6.5h-16.7v20.2v20.2v4.6h23.2c3.3,0,5.9-2.7,5.9-5.9v-33.1
				C-351.1,343.1-351.1,342.9-351.1,342.8z"/>
			<polygon class="st3" points="-384.6,362.8 -400.8,382.3 -384.6,382.3 			"/>
			<path class="st3" d="M-357.1,337.4h-6.5l-16.7,20.2v20.2l29.1-35.1C-351.6,339.8-354.1,337.4-357.1,337.4z"/>
		</g>
		<g>
			<path class="st4" d="M-468.4,298.3v4.9c0,6.1-2.9,9.4-8.9,9.4h-2.8v14.3h-6V289h8.8C-471.2,288.9-468.4,292.2-468.4,298.3z
				 M-480,294.3v12.8h2.8c1.9,0,2.9-0.9,2.9-3.6v-5.7c0-2.7-1-3.6-2.9-3.6h-2.8V294.3z"/>
			<path class="st4" d="M-466,298c0-6.1,3.2-9.5,9.1-9.5c5.9,0,9.1,3.5,9.1,9.5v19.7c0,6.1-3.2,9.5-9.1,9.5s-9.1-3.5-9.1-9.5V298z
				 M-460.2,318.1c0,2.7,1.2,3.7,3.1,3.7s3.1-1,3.1-3.7v-20.5c0-2.7-1.2-3.7-3.1-3.7s-3.1,1-3.1,3.7V318.1z"/>
			<path class="st4" d="M-444.1,288.9h6v32.5h9.8v5.4h-15.8V288.9z"/>
			<path class="st4" d="M-425.8,288.9h6v37.9h-6V288.9z"/>
			<path class="st4" d="M-398.1,312.8v5c0,6.1-3,9.5-8.9,9.5c-5.9,0-8.9-3.5-8.9-9.5V298c0-6.1,3-9.5,8.9-9.5c5.9,0,8.9,3.5,8.9,9.5
				v3.7h-5.6v-4.1c0-2.7-1.2-3.7-3.1-3.7s-3.1,1-3.1,3.7v20.5c0,2.7,1.2,3.7,3.1,3.7s3.1-1,3.1-3.7v-5.4H-398.1z"/>
			<path class="st4" d="M-388.6,304.9h8.2v5.4h-8.2v11.1h10.3v5.4h-16.3v-37.9h16.3v5.4h-10.3V304.9z"/>
		</g>
		<polygon class="st5" points="-469.8,422 -469.8,520 -434.9,520 -430.6,520 -395.1,520 -395.1,422 		"/>
		<polygon class="st2" points="-430.6,424.3 -430.6,506.5 -430.6,520 -424.9,520 -397.1,520 -397.1,484.8 -397.1,466.6 
			-397.1,424.3 		"/>
		<path class="st3" d="M-421.1,453.3c-2.5,3-2.1,7.6,0.9,10.1l1.8,1.5c3,2.5,7.6,2.1,10.1-0.9l11.2-13.5v-26.2L-421.1,453.3z"/>
		<polygon class="st2" points="-438.5,424.3 -447.9,424.3 -467.7,424.3 -467.7,449.3 -467.7,461.3 -467.7,472.9 -467.7,493.5 
			-467.7,520 -441.1,520 -434.9,520 -434.9,512.2 -434.9,424.3 		"/>
		<path class="st3" d="M-466.7,460.4l27.5-34.8c0.3-0.4,0.5-0.8,0.7-1.3h-9.4l-19.8,25.1v11.9C-467.2,461.1-467,460.8-466.7,460.4z"
			/>
		<path class="st3" d="M-440.8,449.1c-2.8-2.2-6.8-1.7-8.9,1.1l-18,22.7v20.6l28-35.4C-437.6,455.3-438,451.3-440.8,449.1z"/>
		<polygon class="st3" points="-434.9,512.2 -441.1,520 -434.9,520 		"/>
		<path class="st3" d="M-400.9,468.9l-29.7,37.6V520h5.6l27.8-35.2v-18.1C-398.5,466.9-399.9,467.8-400.9,468.9z"/>
		<g>
			<path class="st6" d="M-346.8,463.1c-0.4,0-0.8,0.2-1.1,0.4c-2.9-2.6-8.2-7.7-8.2-10.6s5.3-8.4,8.1-11c0.3,0.3,0.8,0.5,1.2,0.5
				c1,0,1.8-0.8,1.8-1.8s-0.8-1.8-1.8-1.8s-1.8,0.8-1.8,1.8c0,0.2,0,0.4,0.1,0.5c-3.6,1.2-11,3.3-13.6,1.9
				c-2.5-1.4-4.5-8.6-5.5-12.4c0.8-0.2,1.5-0.9,1.5-1.8c0-1-0.8-1.8-1.8-1.8s-1.8,0.8-1.8,1.8c0,0.8,0.5,1.4,1.2,1.7
				c-0.8,3.8-2.6,11.1-5.1,12.6c-2.6,1.6-10.4-0.5-14-1.6c0-0.1,0-0.3,0-0.4c0-1-0.8-1.8-1.8-1.8s-1.8,0.8-1.8,1.8s0.8,1.8,1.8,1.8
				c0.6,0,1.1-0.3,1.4-0.7c2.8,2.4,8.6,8,8.7,11c0,3-5.4,8.5-8.2,11.1c-0.3-0.3-0.7-0.5-1.2-0.5c-1,0-1.8,0.8-1.8,1.8
				s0.8,1.8,1.8,1.8s1.8-0.8,1.8-1.8c0-0.2,0-0.4-0.1-0.6c3.6-1.2,11-3.4,13.6-1.9c2.5,1.4,4.5,8.5,5.4,12.3
				c-0.8,0.2-1.3,0.9-1.3,1.7c0,1,0.8,1.8,1.8,1.8s1.8-0.8,1.8-1.8c0-0.8-0.5-1.5-1.2-1.7c0.8-3.8,2.6-11,5.1-12.5
				c2.4-1.5,9.5,0.3,13.3,1.4c-0.1,0.2-0.1,0.4-0.1,0.5c0,1,0.8,1.8,1.8,1.8s1.8-0.8,1.8-1.8C-345,463.9-345.8,463.1-346.8,463.1z"
				/>
		</g>
		<g>
			<path class="st1" d="M-475.8,437.8c0-1.2-5.8-8.7-7-8.7c0,0-0.3,1.8-5.2,2c-7.5,0.3-10.1-2.4-10.1-2.4s-2.5,2.7-10.1,2.4
				c-4.9-0.2-5.2-2-5.2-2c-1.2,0-7,7.5-7,8.7c0,0,10.8,3.5,4.4,12.8c-11.8,17.1,17.9,26.8,17.9,26.8s29.8-9.7,17.9-26.8
				C-486.5,441.2-475.8,437.8-475.8,437.8z"/>
			<g>
				<path class="st4" d="M-491,445.3v3.4c0,4.2-2,6.6-6.2,6.6h-2v10h-4.2v-26.5h6.1C-493,438.8-491,441-491,445.3z M-499.2,442.5v9
					h2c1.3,0,2-0.6,2-2.5v-4c0-1.9-0.7-2.5-2-2.5H-499.2z"/>
			</g>
		</g>
	</g>
</g>
</svg>
