<?xml version="1.0" encoding="utf-8"?>
<!-- Generator: Adobe Illustrator 19.0.0, SVG Export Plug-In . SVG Version: 6.00 Build 0)  -->
<svg version="1.1" id="Layer_1" xmlns="http://www.w3.org/2000/svg" xmlns:xlink="http://www.w3.org/1999/xlink" x="0px" y="0px"
	 viewBox="-141.7 280.6 214.7 237.8" style="enable-background:new -141.7 280.6 214.7 237.8;" xml:space="preserve">
<style type="text/css">
	.st0{opacity:0.5;fill:#1D1D1B;}
	.st1{fill:#FFFFFF;}
	.st2{fill:#183F42;}
	.st3{fill:#27B7C5;}
	.st4{fill:#A3E4E1;}
	.st5{fill:#F6F6F6;}
	.st6{fill:#1D1D1B;}
	.st7{fill:#F6BF0C;}
</style>
<g id="Police_Station">
	<g id="Building_14_">
		<polygon class="st0" points="48.2,518.4 73,494 48.2,494 		"/>
		<path class="st1" d="M52.3,512.5c0,3.3-2.7,5.9-5.9,5.9h-175.6c-3.3,0-5.9-2.7-5.9-5.9V408.2c0-3.3,2.7-5.9,5.9-5.9H46.4
			c3.3,0,5.9,2.7,5.9,5.9V512.5z"/>
		<path class="st1" d="M51.8,320.9c0-3.3-2.7-5.9-5.9-5.9h-175.6c-3.3,0-5.9,2.7-5.9,5.9V393c0,3.3,2.7,5.9,5.9,5.9H45.9
			c3.3,0,5.9-2.7,5.9-5.9V320.9z"/>
		<path class="st2" d="M56.8,286.6c0-3.3-2.7-5.9-5.9-5.9h-186.6c-3.3,0-5.9,2.7-5.9,5.9v37.8c0,3.3,2.7,5.9,5.9,5.9H50.8
			c3.3,0,5.9-2.7,5.9-5.9V286.6z"/>
		<path class="st2" d="M56.8,407.5c0,3.3-2.7,5.9-5.9,5.9h-186.6c-3.3,0-5.9-2.7-5.9-5.9v-12.8c0-3.3,2.7-5.9,5.9-5.9H50.8
			c3.3,0,5.9,2.7,5.9,5.9V407.5z"/>
		<g>
			<path class="st3" d="M-110.8,335.9h-6.9c-3.3,0-5.9,2.7-5.9,5.9v9.6V373v1.8c0,3.3,2.7,5.9,5.9,5.9h21.9v-19.3v-12.1v-9.9v-3.6
				H-110.8z"/>
			<path class="st4" d="M-95.9,339.5v-3.6h-14.9l-12.9,15.5V373c0,0,0.1-0.1,0.1-0.1L-95.9,339.5z"/>
			<polygon class="st3" points="-75.5,335.9 -84.7,335.9 -91.6,335.9 -91.6,344.2 -91.6,356.3 -91.6,380.8 -85.9,380.8 -76.4,380.8 
				-62.3,380.8 -62.3,363.8 -62.3,347.5 -62.3,335.9 			"/>
			<path class="st4" d="M-75.5,335.9h-9.2l-6.9,8.4v12.1l15.4-18.5C-75.8,337.2-75.5,336.6-75.5,335.9z"/>
			<path class="st4" d="M-107,362.8c-1.2,1.4-1,3.5,0.4,4.6l0.8,0.7c1.4,1.2,3.5,1,4.6-0.4l5.2-6.2v-12.1L-107,362.8z"/>
			<path class="st4" d="M-85.6,375.6c-1.3,1.5-1.3,3.7-0.3,5.2h9.5l14.1-17v-16.3L-85.6,375.6z"/>
			<polygon class="st3" points="-31.3,335.9 -44.4,335.9 -52.7,335.9 -58,335.9 -58,342.4 -58,358.6 -58,380.8 -27.8,380.8 
				-27.8,341.7 -27.8,335.9 			"/>
			<path class="st4" d="M-44.4,335.9h-8.3l-5.4,6.5v16.3l13.9-16.8C-42.7,340.1-42.8,337.5-44.4,335.9z"/>
			<polygon class="st3" points="0.1,335.9 -23.5,335.9 -23.5,364.3 -23.5,371.5 -23.5,380.8 -10.4,380.8 5.8,380.8 5.8,361.2 
				5.8,341.6 5.8,335.9 			"/>
			<path class="st4" d="M-31.3,335.9l-20.6,24.9c-1,1.2-0.8,2.9,0.4,3.9l0.7,0.6c1.2,1,2.9,0.8,3.9-0.4l19.2-23.2v-5.8H-31.3z"/>
			<path class="st4" d="M-18.6,371l24.5-29.5v-5.7H0.1l-23.6,28.5v7.1l0,0C-22,372.7-19.9,372.5-18.6,371z"/>
			<path class="st3" d="M39.2,341.2c-0.3-3-2.8-5.3-5.9-5.3h-6.5H10.1v20.2v20.2v4.6h23.2c3.3,0,5.9-2.7,5.9-5.9v-33.1
				C39.2,341.6,39.2,341.4,39.2,341.2z"/>
			<polygon class="st4" points="5.8,361.2 -10.4,380.8 5.8,380.8 			"/>
			<path class="st4" d="M33.3,335.9h-6.5l-16.7,20.2v20.2l29.1-35.1C38.8,338.2,36.3,335.9,33.3,335.9z"/>
		</g>
		<g>
			<path class="st5" d="M-78,296.8v4.9c0,6.1-2.9,9.4-8.9,9.4h-2.8v14.3h-6v-37.9h8.8C-80.9,287.4-78,290.7-78,296.8z M-89.7,292.8
				v12.8h2.8c1.9,0,2.9-0.9,2.9-3.6v-5.7c0-2.7-1-3.6-2.9-3.6H-89.7z"/>
			<path class="st5" d="M-75.7,296.5c0-6.1,3.2-9.5,9.1-9.5s9.1,3.5,9.1,9.5v19.7c0,6.1-3.2,9.5-9.1,9.5s-9.1-3.5-9.1-9.5V296.5z
				 M-69.8,316.6c0,2.7,1.2,3.7,3.1,3.7c1.9,0,3.1-1,3.1-3.7v-20.5c0-2.7-1.2-3.7-3.1-3.7c-1.9,0-3.1,1-3.1,3.7V316.6z"/>
			<path class="st5" d="M-53.8,287.4h6v32.5h9.8v5.4h-15.8V287.4z"/>
			<path class="st5" d="M-35.4,287.4h6v37.9h-6V287.4z"/>
			<path class="st5" d="M-7.8,311.2v5c0,6.1-3,9.5-8.9,9.5c-5.9,0-8.9-3.5-8.9-9.5v-19.7c0-6.1,3-9.5,8.9-9.5c5.9,0,8.9,3.5,8.9,9.5
				v3.7h-5.6v-4.1c0-2.7-1.2-3.7-3.1-3.7c-1.9,0-3.1,1-3.1,3.7v20.5c0,2.7,1.2,3.7,3.1,3.7c1.9,0,3.1-1,3.1-3.7v-5.4H-7.8z"/>
			<path class="st5" d="M1.8,303.4H10v5.4H1.8v11.1h10.3v5.4H-4.2v-37.9h16.3v5.4H1.8V303.4z"/>
		</g>
		<polygon class="st6" points="-79.4,420.5 -79.4,518.4 -44.5,518.4 -40.2,518.4 -4.7,518.4 -4.7,420.5 		"/>
		<polygon class="st3" points="-40.2,422.8 -40.2,505 -40.2,518.4 -34.5,518.4 -6.7,518.4 -6.7,483.2 -6.7,465.1 -6.7,422.8 		"/>
		<path class="st4" d="M-30.8,451.8c-2.5,3-2.1,7.6,0.9,10.1l1.8,1.5c3,2.5,7.6,2.1,10.1-0.9l11.2-13.5v-26.2L-30.8,451.8z"/>
		<polygon class="st3" points="-48.1,422.8 -57.5,422.8 -77.3,422.8 -77.3,447.8 -77.3,459.8 -77.3,471.4 -77.3,492 -77.3,518.4 
			-50.7,518.4 -44.5,518.4 -44.5,510.6 -44.5,422.8 		"/>
		<path class="st4" d="M-76.3,458.9l27.5-34.8c0.3-0.4,0.5-0.8,0.7-1.3h-9.4l-19.8,25.1v11.9C-76.9,459.6-76.6,459.3-76.3,458.9z"/>
		<path class="st4" d="M-50.4,447.6c-2.8-2.2-6.8-1.7-8.9,1.1l-18,22.7V492l28-35.4C-47.2,453.8-47.6,449.8-50.4,447.6z"/>
		<polygon class="st4" points="-44.5,510.6 -50.7,518.4 -44.5,518.4 		"/>
		<path class="st4" d="M-10.5,467.4L-40.2,505v13.4h5.6l27.8-35.2v-18.1C-8.1,465.4-9.5,466.2-10.5,467.4z"/>
		<g>
			<path class="st7" d="M43.6,461.6c-0.4,0-0.8,0.2-1.1,0.4c-2.9-2.6-8.2-7.7-8.2-10.6c0-2.9,5.3-8.4,8.1-11
				c0.3,0.3,0.8,0.5,1.2,0.5c1,0,1.8-0.8,1.8-1.8c0-1-0.8-1.8-1.8-1.8c-1,0-1.8,0.8-1.8,1.8c0,0.2,0,0.4,0.1,0.5
				c-3.6,1.2-11,3.3-13.6,1.9c-2.5-1.4-4.5-8.6-5.5-12.4c0.8-0.2,1.5-0.9,1.5-1.8c0-1-0.8-1.8-1.8-1.8c-1,0-1.8,0.8-1.8,1.8
				c0,0.8,0.5,1.4,1.2,1.7c-0.8,3.8-2.6,11.1-5.1,12.6c-2.6,1.6-10.4-0.5-14-1.6c0-0.1,0-0.3,0-0.4c0-1-0.8-1.8-1.8-1.8
				c-1,0-1.8,0.8-1.8,1.8c0,1,0.8,1.8,1.8,1.8c0.6,0,1.1-0.3,1.4-0.7c2.8,2.4,8.6,8,8.7,11c0,3-5.4,8.5-8.2,11.1
				c-0.3-0.3-0.7-0.5-1.2-0.5c-1,0-1.8,0.8-1.8,1.8c0,1,0.8,1.8,1.8,1.8c1,0,1.8-0.8,1.8-1.8c0-0.2,0-0.4-0.1-0.6
				c3.6-1.2,11-3.4,13.6-1.9c2.5,1.4,4.5,8.5,5.4,12.3c-0.8,0.2-1.3,0.9-1.3,1.7c0,1,0.8,1.8,1.8,1.8c1,0,1.8-0.8,1.8-1.8
				c0-0.8-0.5-1.5-1.2-1.7c0.8-3.8,2.6-11,5.1-12.5c2.4-1.5,9.5,0.3,13.3,1.4c-0.1,0.2-0.1,0.4-0.1,0.5c0,1,0.8,1.8,1.8,1.8
				c1,0,1.8-0.8,1.8-1.8C45.4,462.4,44.6,461.6,43.6,461.6z"/>
		</g>
		<g>
			<path class="st2" d="M-85.4,436.2c0-1.2-5.8-8.7-7-8.7c0,0-0.3,1.8-5.2,2c-7.5,0.3-10.1-2.4-10.1-2.4s-2.5,2.7-10.1,2.4
				c-4.9-0.2-5.2-2-5.2-2c-1.2,0-7,7.5-7,8.7c0,0,10.8,3.5,4.4,12.8c-11.8,17.1,17.9,26.8,17.9,26.8s29.8-9.7,17.9-26.8
				C-96.2,439.7-85.4,436.2-85.4,436.2z"/>
			<g>
				<path class="st5" d="M-100.6,443.8v3.4c0,4.2-2,6.6-6.2,6.6h-2v10h-4.2v-26.5h6.1C-102.7,437.2-100.6,439.5-100.6,443.8z
					 M-108.8,441v9h2c1.3,0,2-0.6,2-2.5v-4c0-1.9-0.7-2.5-2-2.5H-108.8z"/>
			</g>
		</g>
	</g>
</g>
</svg>
