<?xml version="1.0" encoding="utf-8"?>
<!-- Generator: Adobe Illustrator 19.0.0, SVG Export Plug-In . SVG Version: 6.00 Build 0)  -->
<svg version="1.1" id="Layer_1" xmlns="http://www.w3.org/2000/svg" xmlns:xlink="http://www.w3.org/1999/xlink" x="0px" y="0px"
	 viewBox="-416 227.5 445.2 358.5" style="enable-background:new -416 227.5 445.2 358.5;" xml:space="preserve">
<style type="text/css">
	.st0{fill:#C0C0C0;}
	.st1{fill:#A2A2A2;}
	.st2{fill:#CACACA;}
	.st3{fill:#B1B1B1;}
	.st4{fill:#373737;}
	.st5{fill:#6F6F6F;}
	.st6{fill:#E5E5E5;}
	.st7{fill:#C6C6C6;}
	.st8{fill:#363636;}
	.st9{fill:#8D8D8D;}
	.st10{opacity:0.5;fill:#CFCFCF;enable-background:new    ;}
	.st11{fill:#A0A0A0;}
	.st12{fill:#D8D8D8;}
	.st13{fill:#494949;}
	.st14{fill:#F5F5F5;}
	.st15{fill:#656565;}
	.st16{fill:#AFAFAF;}
	.st17{fill:#1A1A1A;}
	.st18{opacity:0.4;fill:#F5F5F5;enable-background:new    ;}
	.st19{opacity:0.5;fill:#D0D0D0;enable-background:new    ;}
	.st20{fill:#4A4A4A;}
	.st21{fill:#1D1D1D;}
	.st22{fill:#2C2C2C;}
	.st23{fill:#212121;}
	.st24{fill:#DADADA;}
	.st25{fill:#424242;}
	.st26{fill:#009254;}
	.st27{fill:#3D0103;}
	.st28{fill:#005E26;}
</style>
<g id="Post_Office">
	<g id="Mail">
		<g>
			<polygon class="st0" points="0.5,476.4 -90.5,433 -62.2,373.8 28.8,417.2 			"/>
			<g>
				<path class="st1" d="M-89.4,433.1c-0.2-0.1-0.3-0.3-0.4-0.5c-0.1-0.4,0.1-0.8,0.5-0.9l1.5-0.4c0.4-0.1,0.8,0.1,0.9,0.6
					c0.1,0.4-0.1,0.8-0.5,0.9l-1.5,0.4C-89,433.2-89.2,433.2-89.4,433.1z"/>
				<path class="st1" d="M-85.1,432.1c-0.2-0.1-0.3-0.3-0.4-0.5c-0.1-0.4,0.1-0.8,0.5-0.9l2.8-0.7c0.4-0.1,0.8,0.1,0.9,0.5
					s-0.1,0.8-0.6,0.9l-2.8,0.7C-84.8,432.2-84.9,432.2-85.1,432.1z M-79.5,430.7c-0.2-0.1-0.4-0.3-0.4-0.5
					c-0.1-0.4,0.1-0.8,0.6-0.9l2.8-0.7c0.4-0.1,0.8,0.1,0.9,0.6c0.1,0.4-0.1,0.8-0.5,0.9l-2.8,0.7
					C-79.1,430.8-79.3,430.8-79.5,430.7z M-73.8,429.3c-0.2-0.1-0.3-0.3-0.4-0.5c-0.1-0.4,0.1-0.8,0.6-0.9l2.8-0.7
					c0.4-0.1,0.8,0.1,0.9,0.6c0.1,0.4-0.1,0.8-0.5,0.9l-2.8,0.7C-73.5,429.4-73.7,429.4-73.8,429.3z M-68.2,427.9
					c-0.2-0.1-0.3-0.3-0.4-0.5c-0.1-0.4,0.1-0.8,0.6-0.9l2.8-0.7c0.4-0.1,0.8,0.1,0.9,0.5s-0.1,0.8-0.5,0.9l-2.8,0.7
					C-67.9,428-68.1,428-68.2,427.9z M-62.6,426.6c-0.2-0.1-0.4-0.3-0.4-0.5c-0.1-0.4,0.1-0.8,0.5-0.9l2.8-0.7
					c0.4-0.1,0.8,0.1,0.9,0.6c0.1,0.4-0.1,0.8-0.5,0.9l-2.8,0.7C-62.3,426.7-62.4,426.6-62.6,426.6z M-57,425.2
					c-0.2-0.1-0.3-0.3-0.4-0.5c-0.1-0.4,0.1-0.8,0.5-0.9l2.8-0.7c0.4-0.1,0.8,0.1,0.9,0.5s-0.1,0.8-0.5,0.9l-2.8,0.7
					C-56.6,425.3-56.8,425.3-57,425.2z M-51.4,423.8c-0.2-0.1-0.3-0.3-0.4-0.5c-0.1-0.4,0.1-0.8,0.5-0.9l2.8-0.7
					c0.4-0.1,0.8,0.1,0.9,0.6c0.1,0.4-0.1,0.8-0.5,0.9l-2.8,0.7C-51,423.9-51.2,423.9-51.4,423.8z M-45.7,422.4
					c-0.2-0.1-0.3-0.3-0.4-0.5c-0.1-0.4,0.1-0.8,0.5-0.9l2.8-0.7c0.4-0.1,0.8,0.1,0.9,0.5s-0.1,0.8-0.5,0.9l-2.8,0.7
					C-45.4,422.5-45.6,422.5-45.7,422.4z M-40.1,421c-0.2-0.1-0.3-0.3-0.4-0.5c-0.1-0.4,0.1-0.8,0.6-0.9l2.8-0.7
					c0.4-0.1,0.8,0.1,0.9,0.5s-0.1,0.8-0.6,0.9l-2.8,0.7C-39.8,421.1-40,421.1-40.1,421z M-34.5,419.7c-0.2-0.1-0.4-0.3-0.4-0.5
					c-0.1-0.4,0.1-0.8,0.5-0.9l2.8-0.7c0.4-0.1,0.8,0.1,0.9,0.6c0.1,0.4-0.1,0.8-0.5,0.9l-2.8,0.7
					C-34.2,419.7-34.3,419.7-34.5,419.7z"/>
				<path class="st1" d="M-26.8,419.3c-0.1-0.1-0.3-0.2-0.4-0.4l-0.4-0.8l-0.9,0.2c-0.4,0.1-0.8-0.1-0.9-0.5s0.1-0.8,0.5-0.9
					l1.5-0.4c0.3-0.1,0.7,0.1,0.9,0.4l0.6,1.4c0.2,0.4,0,0.8-0.4,1C-26.3,419.4-26.6,419.4-26.8,419.3z"/>
				<path class="st1" d="M-2.4,471.5c-0.1-0.1-0.3-0.2-0.4-0.4l-1.2-2.6c-0.2-0.4,0-0.8,0.4-1s0.8,0,1,0.4l1.2,2.6
					c0.2,0.4,0,0.8-0.4,1C-2,471.6-2.2,471.6-2.4,471.5z M-4.9,466.3c-0.1-0.1-0.3-0.2-0.4-0.4l-1.2-2.6c-0.2-0.4,0-0.8,0.4-1
					s0.8,0,1,0.4l1.2,2.6c0.2,0.4,0,0.8-0.4,1C-4.4,466.4-4.7,466.4-4.9,466.3z M-7.3,461.1c-0.1-0.1-0.3-0.2-0.4-0.4l-1.2-2.6
					c-0.2-0.4,0-0.8,0.4-1s0.8,0,1,0.4l1.2,2.6c0.2,0.4,0,0.8-0.4,1C-6.9,461.2-7.1,461.2-7.3,461.1z M-9.7,455.8
					c-0.2-0.1-0.3-0.2-0.4-0.4l-1.2-2.6c-0.2-0.4,0-0.8,0.4-1s0.8,0,1,0.4l1.2,2.6c0.2,0.4,0,0.8-0.4,1
					C-9.3,455.9-9.5,455.9-9.7,455.8z M-12.2,450.6c-0.1-0.1-0.3-0.2-0.4-0.4l-1.2-2.6c-0.2-0.4,0-0.8,0.4-1s0.8,0,1,0.4l1.2,2.6
					c0.2,0.4,0,0.8-0.4,1C-11.7,450.7-12,450.7-12.2,450.6z M-14.6,445.4c-0.2-0.1-0.3-0.2-0.4-0.4l-1.2-2.6c-0.2-0.4,0-0.8,0.4-1
					c0.4-0.2,0.8,0,1,0.4l1.2,2.6c0.2,0.4,0,0.8-0.4,1C-14.2,445.5-14.4,445.5-14.6,445.4z M-17,440.2c-0.1-0.1-0.3-0.2-0.4-0.4
					l-1.2-2.6c-0.2-0.4,0-0.8,0.4-1s0.8,0,1,0.4l1.2,2.6c0.2,0.4,0,0.8-0.4,1C-16.6,440.3-16.8,440.3-17,440.2z M-19.5,434.9
					c-0.1-0.1-0.3-0.2-0.4-0.4l-1.2-2.6c-0.2-0.4,0-0.8,0.4-1s0.8,0,1,0.4l1.2,2.6c0.2,0.4,0,0.8-0.4,1C-19,435-19.3,435-19.5,434.9
					z M-21.9,429.7c-0.1-0.1-0.3-0.2-0.4-0.4l-1.2-2.6c-0.2-0.4,0-0.8,0.4-1s0.8,0,1,0.4l1.2,2.6c0.2,0.4,0,0.8-0.4,1
					C-21.5,429.8-21.7,429.8-21.9,429.7z M-24.3,424.5c-0.2-0.1-0.3-0.2-0.4-0.4l-1.2-2.6c-0.2-0.4,0-0.8,0.4-1s0.8,0,1,0.4l1.2,2.6
					c0.2,0.4,0,0.8-0.4,1C-23.9,424.6-24.1,424.6-24.3,424.5z"/>
				<path class="st1" d="M-0.6,475.5c-0.1-0.1-0.3-0.2-0.4-0.4l-0.6-1.4c-0.2-0.4,0-0.8,0.4-1s0.8,0,1,0.4l0.6,1.4
					c0.2,0.4,0,0.8-0.4,1C-0.2,475.6-0.4,475.6-0.6,475.5z"/>
			</g>
			<polygon class="st1" points="-62.2,373.8 -30.8,425.1 28.8,417.2 			"/>
		</g>
		<g>
			
				<rect x="-352.3" y="244" transform="matrix(-0.8557 -0.5174 0.5174 -0.8557 -720.6806 337.8818)" class="st2" width="78.1" height="50.8"/>
			<g>
				<path class="st3" d="M-359,271.2c-0.1-0.1-0.2-0.2-0.3-0.4c0-0.3,0.2-0.6,0.5-0.7l1.2-0.2c0.3,0,0.6,0.2,0.7,0.5
					c0,0.3-0.2,0.6-0.5,0.7l-1.1,0.2C-358.8,271.3-358.9,271.3-359,271.2z"/>
				<path class="st3" d="M-355.6,270.7c-0.1-0.1-0.2-0.2-0.3-0.4c0-0.3,0.2-0.6,0.5-0.7l2.2-0.3c0.3,0,0.6,0.2,0.7,0.5
					c0,0.3-0.2,0.6-0.5,0.7l-2.2,0.3C-355.4,270.8-355.5,270.8-355.6,270.7z M-351.2,270.1c-0.1-0.1-0.2-0.2-0.3-0.4
					c0-0.3,0.2-0.6,0.5-0.7l2.2-0.3c0.3,0,0.6,0.2,0.7,0.5c0.1,0.3-0.2,0.6-0.5,0.7l-2.2,0.3C-350.9,270.2-351.1,270.1-351.2,270.1z
					 M-346.7,269.4c-0.1-0.1-0.2-0.2-0.3-0.4c0-0.3,0.2-0.6,0.5-0.7l2.2-0.3c0.3,0,0.6,0.2,0.7,0.5c0,0.3-0.2,0.6-0.5,0.7l-2.2,0.3
					C-346.5,269.5-346.6,269.5-346.7,269.4z M-342.3,268.8c-0.1-0.1-0.2-0.2-0.3-0.4c0-0.3,0.2-0.6,0.5-0.7l2.2-0.3
					c0.3,0,0.6,0.2,0.7,0.5c0,0.3-0.2,0.6-0.5,0.7l-2.2,0.3C-342.1,268.9-342.2,268.9-342.3,268.8z M-337.9,268.2
					c-0.1-0.1-0.2-0.2-0.3-0.4c0-0.3,0.2-0.6,0.5-0.7l2.2-0.3c0.3,0,0.6,0.2,0.7,0.5c0,0.3-0.2,0.6-0.5,0.7l-2.2,0.3
					C-337.6,268.3-337.7,268.2-337.9,268.2z M-333.4,267.5c-0.1-0.1-0.2-0.2-0.3-0.4c0-0.3,0.2-0.6,0.5-0.7l2.2-0.3
					c0.3,0,0.6,0.2,0.7,0.5c0,0.3-0.2,0.6-0.5,0.7l-2.2,0.3C-333.2,267.6-333.3,267.6-333.4,267.5z M-329,266.9
					c-0.1-0.1-0.2-0.2-0.3-0.4c0-0.3,0.2-0.6,0.5-0.7l2.2-0.3c0.3,0,0.6,0.2,0.7,0.5c0,0.3-0.2,0.6-0.5,0.7l-2.2,0.3
					C-328.7,267-328.9,266.9-329,266.9z M-324.5,266.2c-0.1-0.1-0.2-0.2-0.3-0.4c0-0.3,0.2-0.6,0.5-0.7l2.2-0.3
					c0.3,0,0.6,0.2,0.7,0.5c0,0.3-0.2,0.6-0.5,0.7l-2.2,0.3C-324.3,266.3-324.4,266.3-324.5,266.2z M-320.1,265.6
					c-0.1-0.1-0.2-0.2-0.3-0.4c0-0.3,0.2-0.6,0.5-0.7l2.2-0.3c0.3,0,0.6,0.2,0.7,0.5c0,0.3-0.2,0.6-0.5,0.7l-2.2,0.3
					C-319.9,265.7-320,265.7-320.1,265.6z M-315.7,265c-0.1-0.1-0.2-0.2-0.3-0.4c0-0.3,0.2-0.6,0.5-0.7l2.2-0.3
					c0.3,0,0.6,0.2,0.7,0.5c0,0.3-0.2,0.6-0.5,0.7l-2.2,0.3C-315.4,265.1-315.5,265-315.7,265z"/>
				<path class="st3" d="M-309.7,265.3c-0.1-0.1-0.2-0.2-0.2-0.3l-0.2-0.6l-0.7,0.1c-0.3,0-0.6-0.2-0.7-0.5c0-0.3,0.2-0.6,0.5-0.7
					l1.2-0.2c0.3,0,0.5,0.1,0.6,0.4l0.4,1.1c0.1,0.3-0.1,0.6-0.4,0.7C-309.4,265.4-309.5,265.3-309.7,265.3z"/>
				<path class="st3" d="M-294.9,307.4c-0.1-0.1-0.2-0.2-0.2-0.3l-0.7-2.1c-0.1-0.3,0.1-0.6,0.4-0.7c0.3-0.1,0.6,0.1,0.7,0.4
					l0.7,2.1c0.1,0.3-0.1,0.6-0.4,0.7C-294.6,307.5-294.7,307.5-294.9,307.4z M-296.4,303.2c-0.1-0.1-0.2-0.2-0.2-0.3l-0.7-2.1
					c-0.1-0.3,0.1-0.6,0.4-0.7c0.3-0.1,0.6,0.1,0.7,0.4l0.7,2.1c0.1,0.3,0,0.6-0.4,0.7C-296,303.3-296.2,303.3-296.4,303.2z
					 M-297.8,299c-0.1-0.1-0.2-0.2-0.2-0.3l-0.7-2.1c-0.1-0.3,0.1-0.6,0.4-0.7c0.3-0.1,0.6,0.1,0.7,0.4l0.7,2.1
					c0.1,0.3-0.1,0.6-0.4,0.7C-297.5,299.1-297.7,299.1-297.8,299z M-299.3,294.8c-0.1-0.1-0.2-0.2-0.2-0.3l-0.7-2.1
					c-0.1-0.3,0.1-0.6,0.4-0.7c0.3-0.1,0.6,0,0.7,0.4l0.7,2.1c0.1,0.3-0.1,0.6-0.4,0.7C-299,294.9-299.2,294.8-299.3,294.8z
					 M-300.8,290.5c-0.1-0.1-0.2-0.2-0.2-0.3l-0.7-2.1c-0.1-0.3,0.1-0.6,0.4-0.7c0.3-0.1,0.6,0,0.7,0.3l0.7,2.1
					c0.1,0.3-0.1,0.6-0.4,0.7C-300.5,290.6-300.7,290.6-300.8,290.5z M-302.3,286.3c-0.1-0.1-0.2-0.2-0.2-0.3l-0.7-2.1
					c-0.1-0.3,0.1-0.6,0.4-0.7c0.3-0.1,0.6,0.1,0.7,0.4l0.7,2.1c0.1,0.3-0.1,0.6-0.4,0.7C-302,286.4-302.1,286.4-302.3,286.3z
					 M-303.8,282.1c-0.1-0.1-0.2-0.2-0.2-0.3l-0.7-2.1c-0.1-0.3,0.1-0.6,0.4-0.7c0.3-0.1,0.6,0.1,0.7,0.4l0.7,2.1
					c0.1,0.3-0.1,0.6-0.4,0.7C-303.4,282.2-303.6,282.2-303.8,282.1z M-305.2,277.9c-0.1-0.1-0.2-0.2-0.2-0.3l-0.7-2.1
					c-0.1-0.3,0.1-0.6,0.4-0.7c0.3-0.1,0.6,0.1,0.7,0.4l0.7,2.1c0.1,0.3-0.1,0.6-0.4,0.7C-304.9,278-305.1,278-305.2,277.9z
					 M-306.7,273.7c-0.1-0.1-0.2-0.2-0.2-0.3l-0.7-2.1c-0.1-0.3,0.1-0.6,0.4-0.7c0.3-0.1,0.6,0.1,0.7,0.4l0.7,2.1
					c0.1,0.3-0.1,0.6-0.4,0.7C-306.4,273.8-306.6,273.8-306.7,273.7z M-308.2,269.5c-0.1-0.1-0.2-0.2-0.2-0.3l-0.7-2.1
					c-0.1-0.3,0.1-0.6,0.4-0.7c0.3-0.1,0.6,0.1,0.7,0.4l0.7,2.1c0.1,0.3,0,0.6-0.4,0.7C-307.9,269.6-308.1,269.6-308.2,269.5z"/>
				<path class="st3" d="M-293.7,310.6c-0.1-0.1-0.2-0.2-0.2-0.3l-0.4-1.1c-0.1-0.3,0.1-0.6,0.4-0.7c0.3-0.1,0.6,0.1,0.7,0.4
					l0.4,1.1c0.1,0.3-0.1,0.6-0.4,0.7C-293.4,310.7-293.6,310.7-293.7,310.6z"/>
			</g>
			<polygon class="st3" points="-333.5,227.5 -313.3,269.4 -266.7,267.9 			"/>
		</g>
		<g>
			
				<rect x="-257.2" y="266.1" transform="matrix(-0.9629 0.27 -0.27 -0.9629 -326.1425 642.1721)" class="st0" width="100" height="65.1"/>
			<g>
				<path class="st1" d="M-245.7,342.9c-0.2,0.1-0.4,0-0.6-0.1c-0.3-0.2-0.4-0.7-0.2-1l0.9-1.2c0.2-0.3,0.7-0.4,1-0.2
					c0.3,0.2,0.4,0.7,0.2,1l-0.9,1.2C-245.3,342.8-245.5,342.9-245.7,342.9z"/>
				<path class="st1" d="M-243.2,339.4c-0.2,0.1-0.4,0-0.6-0.1c-0.3-0.2-0.4-0.7-0.2-1l1.6-2.4c0.2-0.3,0.7-0.4,1-0.2
					c0.3,0.2,0.4,0.7,0.2,1l-1.6,2.4C-242.8,339.2-243,339.3-243.2,339.4z M-239.9,334.7c-0.2,0.1-0.4,0-0.6-0.1
					c-0.3-0.2-0.4-0.7-0.2-1l1.7-2.4c0.2-0.3,0.7-0.4,1-0.2c0.3,0.2,0.4,0.7,0.2,1l-1.6,2.4C-239.6,334.5-239.7,334.6-239.9,334.7z
					 M-236.6,329.9c-0.2,0.1-0.4,0-0.6-0.1c-0.3-0.2-0.4-0.7-0.2-1l1.6-2.4c0.2-0.3,0.7-0.4,1-0.2c0.3,0.2,0.4,0.7,0.2,1l-1.7,2.4
					C-236.3,329.8-236.4,329.9-236.6,329.9z M-233.3,325.2c-0.2,0.1-0.4,0-0.6-0.1c-0.3-0.2-0.4-0.7-0.2-1l1.6-2.4
					c0.2-0.3,0.7-0.4,1-0.2c0.3,0.2,0.4,0.7,0.2,1l-1.7,2.4C-233,325.1-233.1,325.2-233.3,325.2z M-230,320.5
					c-0.2,0.1-0.4,0-0.6-0.1c-0.3-0.2-0.4-0.7-0.2-1l1.6-2.4c0.2-0.3,0.7-0.4,1-0.2c0.3,0.2,0.4,0.7,0.2,1l-1.6,2.4
					C-229.7,320.4-229.8,320.5-230,320.5z M-226.7,315.8c-0.2,0.1-0.4,0-0.6-0.1c-0.3-0.2-0.4-0.7-0.2-1l1.6-2.4
					c0.2-0.3,0.7-0.4,1-0.2c0.3,0.2,0.4,0.7,0.2,1l-1.7,2.4C-226.4,315.7-226.5,315.8-226.7,315.8z M-223.4,311.1
					c-0.2,0.1-0.4,0-0.6-0.1c-0.3-0.2-0.4-0.7-0.2-1l1.6-2.4c0.2-0.3,0.7-0.4,1-0.2c0.3,0.2,0.4,0.7,0.2,1l-1.6,2.4
					C-223.1,311-223.2,311.1-223.4,311.1z M-220.1,306.4c-0.2,0.1-0.4,0-0.6-0.1c-0.3-0.2-0.4-0.7-0.2-1l1.6-2.4
					c0.2-0.3,0.7-0.4,1-0.2c0.3,0.2,0.4,0.7,0.2,1l-1.6,2.4C-219.8,306.3-219.9,306.4-220.1,306.4z M-216.8,301.7
					c-0.2,0.1-0.4,0-0.6-0.1c-0.3-0.2-0.4-0.7-0.2-1l1.6-2.4c0.2-0.3,0.7-0.4,1-0.2c0.3,0.2,0.4,0.7,0.2,1l-1.6,2.4
					C-216.5,301.6-216.6,301.7-216.8,301.7z M-213.5,297c-0.2,0.1-0.4,0-0.6-0.1c-0.3-0.2-0.4-0.7-0.2-1l1.7-2.4
					c0.2-0.3,0.7-0.4,1-0.2c0.3,0.2,0.4,0.7,0.2,1l-1.6,2.4C-213.2,296.8-213.3,296.9-213.5,297z"/>
				<path class="st1" d="M-208,291.7c-0.2,0-0.3,0-0.5,0l-0.8-0.4l-0.5,0.7c-0.2,0.3-0.7,0.4-1,0.2c-0.3-0.2-0.4-0.7-0.2-1l0.9-1.2
					c0.2-0.3,0.6-0.4,0.9-0.3l1.4,0.6c0.4,0.2,0.5,0.6,0.4,1C-207.6,291.5-207.8,291.6-208,291.7z"/>
				<path class="st1" d="M-155.7,314.8c-0.2,0-0.3,0-0.5,0l-2.6-1.2c-0.4-0.2-0.5-0.6-0.4-1c0.2-0.4,0.6-0.5,1-0.4l2.6,1.2
					c0.4,0.2,0.5,0.6,0.4,1C-155.3,314.6-155.5,314.7-155.7,314.8z M-160.9,312.4c-0.2,0-0.3,0-0.5,0l-2.6-1.2
					c-0.4-0.2-0.5-0.6-0.4-1c0.2-0.4,0.6-0.5,1-0.4l2.6,1.2c0.4,0.2,0.5,0.6,0.4,1C-160.5,312.2-160.7,312.4-160.9,312.4z
					 M-166.1,310.1c-0.2,0-0.3,0-0.5,0l-2.6-1.2c-0.4-0.2-0.5-0.6-0.4-1c0.2-0.4,0.6-0.5,1-0.4l2.6,1.2c0.4,0.2,0.5,0.6,0.4,1
					C-165.8,309.9-165.9,310.1-166.1,310.1z M-171.4,307.8c-0.2,0-0.3,0-0.5,0l-2.6-1.2c-0.4-0.2-0.5-0.6-0.4-1
					c0.2-0.4,0.6-0.5,1-0.4l2.6,1.2c0.4,0.2,0.5,0.6,0.4,1C-171,307.6-171.2,307.8-171.4,307.8z M-176.6,305.5c-0.2,0-0.3,0-0.5,0
					l-2.6-1.2c-0.4-0.2-0.5-0.6-0.4-1c0.2-0.4,0.6-0.5,1-0.4l2.6,1.2c0.4,0.2,0.5,0.6,0.4,1C-176.2,305.3-176.4,305.5-176.6,305.5z
					 M-181.8,303.2c-0.2,0-0.3,0-0.5,0l-2.6-1.2c-0.4-0.2-0.5-0.6-0.4-1c0.2-0.4,0.6-0.5,1-0.4l2.6,1.2c0.4,0.2,0.5,0.6,0.4,1
					C-181.4,303-181.6,303.2-181.8,303.2z M-187.1,300.9c-0.2,0-0.3,0-0.5,0l-2.6-1.2c-0.4-0.2-0.5-0.6-0.4-1c0.2-0.4,0.6-0.5,1-0.4
					l2.6,1.2c0.4,0.2,0.5,0.6,0.4,1C-186.7,300.7-186.9,300.8-187.1,300.9z M-192.3,298.6c-0.2,0-0.3,0-0.5,0l-2.6-1.2
					c-0.4-0.2-0.5-0.6-0.4-1c0.2-0.4,0.6-0.5,1-0.4l2.6,1.2c0.4,0.2,0.5,0.6,0.4,1C-191.9,298.4-192.1,298.5-192.3,298.6z
					 M-197.5,296.3c-0.2,0-0.3,0-0.5,0l-2.6-1.2c-0.4-0.2-0.5-0.6-0.4-1c0.2-0.4,0.6-0.5,1-0.4l2.6,1.2c0.4,0.2,0.5,0.6,0.4,1
					C-197.1,296.1-197.3,296.2-197.5,296.3z M-202.8,294c-0.2,0-0.3,0-0.5,0l-2.6-1.2c-0.4-0.2-0.5-0.6-0.4-1c0.2-0.4,0.6-0.5,1-0.4
					l2.6,1.2c0.4,0.2,0.5,0.6,0.4,1C-202.4,293.8-202.6,293.9-202.8,294z"/>
				<path class="st1" d="M-151.7,316.5c-0.2,0-0.3,0-0.5,0l-1.4-0.6c-0.4-0.2-0.5-0.6-0.4-1c0.2-0.4,0.6-0.5,1-0.4l1.4,0.6
					c0.4,0.2,0.5,0.6,0.4,1C-151.3,316.3-151.5,316.5-151.7,316.5z"/>
			</g>
			<polygon class="st1" points="-264.2,280.8 -207.2,298.7 -167.9,253.8 			"/>
		</g>
		<g>
			<polygon class="st2" points="1.2,390.3 -183,362.7 -165,242.8 19.2,270.4 			"/>
			<g>
				<path class="st3" d="M-181,362.4c-0.4-0.1-0.8-0.3-1-0.7c-0.4-0.7-0.2-1.5,0.5-1.9l2.4-1.4c0.7-0.4,1.5-0.2,1.9,0.5
					s0.2,1.5-0.5,1.9l-2.4,1.4C-180.3,362.4-180.6,362.4-181,362.4z"/>
				<path class="st3" d="M-174,358.2c-0.4-0.1-0.8-0.3-1-0.7c-0.4-0.7-0.2-1.5,0.5-1.9l4.6-2.7c0.7-0.4,1.5-0.2,1.9,0.5
					c0.4,0.7,0.2,1.5-0.5,1.9l-4.6,2.7C-173.4,358.2-173.7,358.3-174,358.2z M-164.8,352.7c-0.4-0.1-0.8-0.3-1-0.7
					c-0.4-0.7-0.2-1.5,0.5-1.9l4.6-2.7c0.7-0.4,1.5-0.2,1.9,0.5c0.4,0.7,0.2,1.5-0.5,1.9l-4.6,2.7
					C-164.2,352.7-164.5,352.8-164.8,352.7z M-155.6,347.3c-0.4-0.1-0.8-0.3-1-0.7c-0.4-0.7-0.2-1.5,0.5-1.9l4.6-2.7
					c0.7-0.4,1.5-0.2,1.9,0.5c0.4,0.7,0.2,1.5-0.5,1.9l-4.6,2.7C-155,347.3-155.3,347.3-155.6,347.3z M-146.4,341.8
					c-0.4-0.1-0.8-0.3-1-0.7c-0.4-0.7-0.2-1.5,0.5-1.9l4.6-2.7c0.7-0.4,1.5-0.2,1.9,0.5s0.2,1.5-0.5,1.9l-4.6,2.7
					C-145.8,341.8-146.1,341.8-146.4,341.8z M-137.2,336.3c-0.4-0.1-0.8-0.3-1-0.7c-0.4-0.7-0.2-1.5,0.5-1.9l4.6-2.7
					c0.7-0.4,1.5-0.2,1.9,0.5c0.4,0.7,0.2,1.5-0.5,1.9l-4.6,2.7C-136.6,336.3-136.9,336.3-137.2,336.3z M-128,330.8
					c-0.4-0.1-0.8-0.3-1-0.7c-0.4-0.7-0.2-1.5,0.5-1.9l4.6-2.7c0.7-0.4,1.5-0.2,1.9,0.5s0.2,1.5-0.5,1.9l-4.6,2.7
					C-127.4,330.8-127.7,330.9-128,330.8z M-118.9,325.3c-0.4-0.1-0.8-0.3-1-0.7c-0.4-0.7-0.2-1.5,0.5-1.9l4.6-2.7
					c0.7-0.4,1.5-0.2,1.9,0.5s0.2,1.5-0.5,1.9l-4.6,2.7C-118.2,325.3-118.6,325.4-118.9,325.3z M-109.7,319.9
					c-0.4-0.1-0.8-0.3-1-0.7c-0.4-0.7-0.2-1.5,0.5-1.9l4.6-2.7c0.7-0.4,1.5-0.2,1.9,0.5s0.2,1.5-0.5,1.9l-4.6,2.7
					C-109,319.9-109.4,319.9-109.7,319.9z M-100.5,314.4c-0.4-0.1-0.8-0.3-1-0.7c-0.4-0.7-0.2-1.5,0.5-1.9l4.6-2.7
					c0.7-0.4,1.5-0.2,1.9,0.5s0.2,1.5-0.5,1.9l-4.6,2.7C-99.9,314.4-100.2,314.4-100.5,314.4z M-91.3,308.9c-0.4-0.1-0.8-0.3-1-0.7
					c-0.4-0.7-0.2-1.5,0.5-1.9l4.6-2.7c0.7-0.4,1.5-0.2,1.9,0.5s0.2,1.5-0.5,1.9l-4.6,2.7C-90.7,308.9-91,309-91.3,308.9z"/>
				<path class="st3" d="M-77.9,304.1c-0.3,0-0.6-0.2-0.8-0.4l-1.1-1.2l-1.4,0.8c-0.7,0.4-1.5,0.2-1.9-0.5s-0.2-1.5,0.5-1.9l2.4-1.4
					c0.6-0.3,1.3-0.2,1.7,0.3l1.9,2.1c0.5,0.6,0.5,1.4-0.1,2C-77.1,304-77.5,304.1-77.9,304.1z"/>
				<path class="st3" d="M-6.7,383.2c-0.3,0-0.6-0.2-0.8-0.4l-3.6-4c-0.5-0.6-0.5-1.4,0.1-2c0.6-0.5,1.4-0.5,2,0.1l3.6,4
					c0.5,0.6,0.5,1.4-0.1,2C-5.8,383.2-6.3,383.3-6.7,383.2z M-13.8,375.3c-0.3,0-0.6-0.2-0.8-0.4l-3.6-4c-0.5-0.6-0.5-1.4,0.1-2
					c0.6-0.5,1.4-0.5,2,0.1l3.6,4c0.5,0.6,0.5,1.4-0.1,2C-13,375.2-13.4,375.4-13.8,375.3z M-20.9,367.4c-0.3,0-0.6-0.2-0.8-0.4
					l-3.6-4c-0.5-0.6-0.5-1.4,0.1-2c0.6-0.5,1.5-0.5,2,0.1l3.6,4c0.5,0.6,0.5,1.4-0.1,2C-20.1,367.3-20.5,367.4-20.9,367.4z
					 M-28,359.5c-0.3,0-0.6-0.2-0.8-0.4l-3.6-4c-0.5-0.6-0.5-1.4,0.1-2c0.6-0.5,1.4-0.5,2,0.1l3.6,4c0.5,0.6,0.5,1.4-0.1,2
					C-27.2,359.4-27.6,359.5-28,359.5z M-35.2,351.6c-0.3-0.1-0.6-0.2-0.8-0.4l-3.6-4c-0.5-0.6-0.5-1.4,0.1-2c0.6-0.5,1.4-0.5,2,0.1
					l3.6,4c0.5,0.6,0.5,1.4-0.1,2C-34.3,351.5-34.8,351.6-35.2,351.6z M-42.3,343.6c-0.3,0-0.6-0.2-0.8-0.4l-3.6-4
					c-0.5-0.6-0.5-1.4,0.1-2c0.6-0.5,1.4-0.5,2,0.1l3.6,4c0.5,0.6,0.5,1.4-0.1,2C-41.5,343.6-41.9,343.7-42.3,343.6z M-49.4,335.7
					c-0.3-0.1-0.6-0.2-0.8-0.4l-3.6-4c-0.5-0.6-0.5-1.4,0.1-2c0.6-0.5,1.4-0.5,2,0.1l3.6,4c0.5,0.6,0.5,1.4-0.1,2
					C-48.6,335.7-49,335.8-49.4,335.7z M-56.5,327.8c-0.3,0-0.6-0.2-0.8-0.4l-3.6-4c-0.5-0.6-0.5-1.4,0.1-2c0.6-0.5,1.4-0.5,2,0.1
					l3.6,4c0.5,0.6,0.5,1.4-0.1,2C-55.7,327.8-56.1,327.9-56.5,327.8z M-63.6,319.9c-0.3-0.1-0.6-0.2-0.8-0.4l-3.6-4
					c-0.5-0.6-0.5-1.4,0.1-2c0.6-0.5,1.4-0.5,2,0.1l3.6,4c0.5,0.6,0.5,1.4-0.1,2C-62.8,319.8-63.2,320-63.6,319.9z M-70.8,312
					c-0.3,0-0.6-0.2-0.8-0.4l-3.6-4c-0.5-0.6-0.5-1.4,0.1-2c0.6-0.5,1.4-0.5,2,0.1l3.6,4c0.5,0.6,0.5,1.4-0.1,2
					C-69.9,311.9-70.4,312-70.8,312z"/>
				<path class="st3" d="M-1.2,389.2c-0.3-0.1-0.6-0.2-0.8-0.4l-1.9-2.1c-0.5-0.6-0.5-1.5,0.1-2s1.4-0.5,2,0.1l1.9,2.1
					c0.5,0.6,0.5,1.4-0.1,2C-0.4,389.2-0.9,389.3-1.2,389.2z"/>
			</g>
			<polygon class="st3" points="-165,242.8 -81.9,316.5 19.2,270.4 			"/>
		</g>
	</g>
	<g id="Building_15_">
		<path class="st4" d="M-61,351.7c0-5.3-3.4-9.6-7.7-9.6h-303.2c-4.2,0-7.7,4.3-7.7,9.6v56.7c0,5.3,3.4,9.6,7.7,9.6h303.2
			c4.2,0,7.7-4.3,7.7-9.6C-61,408.4-61,351.7-61,351.7z"/>
		<path class="st5" d="M-61,579.1c0,3.8-3.1,6.8-6.8,6.8h-304.9c-3.8,0-6.8-3.1-6.8-6.8V403.3c0-3.8,3.1-6.8,6.8-6.8h304.8
			c3.8,0,6.8,3.1,6.8,6.8L-61,579.1L-61,579.1z"/>
		<g>
			<path class="st6" d="M-259.7,421h-86.2c-3.8,0-6.8,3.1-6.8,7v151c0,3.8,3.1,7,6.8,7h86.2c3.8,0,6.8-3.1,6.8-7V428
				C-252.8,424.1-255.9,421-259.7,421z"/>
			<path class="st7" d="M-345.8,421c-3.8,0-6.8,3.1-6.8,7v151c0,3.8,3.1,7,6.8,7h6.7l59-164.9h-65.7V421z"/>
			<path class="st8" d="M-269.5,576.4H-335c-5.2,0-9.5-4.3-9.5-9.5v-33.8c0-5.2,4.3-9.5,9.5-9.5h65.5c5.2,0,9.5,4.3,9.5,9.5v33.7
				C-260,572.1-264.3,576.4-269.5,576.4z M-335,529.8c-1.7,0-3.2,1.4-3.2,3.2v33.8c0,1.7,1.4,3.2,3.2,3.2h65.5
				c1.7,0,3.2-1.4,3.2-3.2V533c0-1.7-1.4-3.2-3.2-3.2H-335z"/>
			<path class="st9" d="M-266.8,430h-6.5h-15.9H-310h-28c-3.6,0-6.6,3-6.6,6.6v32.9v23.7v17.6c0,3.6,3,6.6,6.6,6.6h71.3
				c3.6,0,6.6-3,6.6-6.6v-62.2v-12C-260.2,433-263.1,430-266.8,430z"/>
			<polygon class="st10" points="-310,430 -344.6,469.5 -344.6,493.2 -289.2,430 			"/>
			<path class="st10" d="M-266.8,430h-6.5l-44.5,50.7c-3.9,4.4-3.5,11.2,1,15.1l0.5,0.5c4.4,3.9,11.2,3.5,15.1-1l41-46.7v-12
				C-260.2,433-263.1,430-266.8,430z"/>
			<path class="st11" d="M-258.8,517.9c0,1.3-1.1,2.3-2.5,2.3l0,0c-1.4,0-2.5-1-2.5-2.3v-3.4c0-1.3,1.1-2.3,2.5-2.3l0,0
				c1.4,0,2.5,1,2.5,2.3V517.9z"/>
			<path class="st11" d="M-294.2,517.9c0,1.3-1.1,2.3-2.5,2.3l0,0c-1.4,0-2.5-1-2.5-2.3v-3.4c0-1.3,1.1-2.3,2.5-2.3l0,0
				c1.4,0,2.5,1,2.5,2.3V517.9z"/>
			<path class="st12" d="M-265.1,512.2h-12.8h-15.4c-2.2,0-4,1.8-4,4c0,2.2,1.8,4,4,4h10.9h17.4c2.2,0,4-1.8,4-4
				C-261.1,514-262.9,512.2-265.1,512.2z"/>
			<path class="st0" d="M-261.1,516.2c0-2.2-1.8-4-4-4h-12.8l-4.5,8h17.4C-262.9,520.2-261.1,518.4-261.1,516.2z"/>
		</g>
		<rect x="-274.3" y="487.7" class="st13" width="10.5" height="6.4"/>
		<rect x="-280.2" y="496.2" class="st4" width="16.3" height="9.9"/>
		<rect x="-268.5" y="497.4" class="st14" width="3.7" height="2.2"/>
		<g>
			<path class="st15" d="M-333.7,369.8c0,1.4-1.1,2.5-2.5,2.5h-29.3c-1.4,0-2.5-1.1-2.5-2.5v-8.3c0-1.4,1.1-2.5,2.5-2.5h29.3
				c1.4,0,2.5,1.1,2.5,2.5V369.8z"/>
			<path class="st15" d="M-294.7,369.8c0,1.4-1.1,2.5-2.5,2.5h-29.3c-1.4,0-2.5-1.1-2.5-2.5v-8.3c0-1.4,1.1-2.5,2.5-2.5h29.3
				c1.4,0,2.5,1.1,2.5,2.5V369.8z"/>
			<path class="st15" d="M-313.3,387.1c0,1.4-1.1,2.5-2.5,2.5h-29.3c-1.4,0-2.5-1.1-2.5-2.5v-8.3c0-1.4,1.1-2.5,2.5-2.5h29.3
				c1.4,0,2.5,1.1,2.5,2.5V387.1z"/>
			<path class="st15" d="M-273,387.1c0,1.4-1.1,2.5-2.5,2.5h-29.3c-1.4,0-2.5-1.1-2.5-2.5v-8.3c0-1.4,1.1-2.5,2.5-2.5h29.3
				c1.4,0,2.5,1.1,2.5,2.5C-273,378.8-273,387.1-273,387.1z"/>
			<path class="st16" d="M-67.5,578.7c0,1.4-1.1,2.5-2.5,2.5h-29.3c-1.4,0-2.5-1.1-2.5-2.5v-8.3c0-1.4,1.1-2.5,2.5-2.5h29.4
				c1.4,0,2.5,1.1,2.5,2.5L-67.5,578.7L-67.5,578.7z"/>
			<path class="st16" d="M-106.4,578.7c0,1.4-1.1,2.5-2.5,2.5h-29.3c-1.4,0-2.5-1.1-2.5-2.5v-8.3c0-1.4,1.1-2.5,2.5-2.5h29.3
				c1.4,0,2.5,1.1,2.5,2.5V578.7z"/>
			<path class="st16" d="M-145.4,578.7c0,1.4-1.1,2.5-2.5,2.5h-29.3c-1.4,0-2.5-1.1-2.5-2.5v-8.3c0-1.4,1.1-2.5,2.5-2.5h29.3
				c1.4,0,2.5,1.1,2.5,2.5V578.7z"/>
			<path class="st16" d="M-86.6,562.1c0,1.4-1.1,2.5-2.5,2.5h-29.3c-1.4,0-2.5-1.1-2.5-2.5v-8.3c0-1.4,1.1-2.5,2.5-2.5h29.3
				c1.4,0,2.5,1.1,2.5,2.5V562.1z"/>
			<path class="st16" d="M-125.6,562.1c0,1.4-1.1,2.5-2.5,2.5h-29.3c-1.4,0-2.5-1.1-2.5-2.5v-8.3c0-1.4,1.1-2.5,2.5-2.5h29.3
				c1.4,0,2.5,1.1,2.5,2.5V562.1z"/>
			<path class="st15" d="M-103.7,369.8c0,1.4-1.1,2.5-2.5,2.5h-29.3c-1.4,0-2.5-1.1-2.5-2.5v-8.3c0-1.4,1.1-2.5,2.5-2.5h29.3
				c1.4,0,2.5,1.1,2.5,2.5C-103.7,361.5-103.7,369.8-103.7,369.8z"/>
			<path class="st15" d="M-64.8,369.8c0,1.4-1.1,2.5-2.5,2.5h-29.3c-1.4,0-2.5-1.1-2.5-2.5v-8.3c0-1.4,1.1-2.5,2.5-2.5h29.3
				c1.4,0,2.5,1.1,2.5,2.5V369.8z"/>
		</g>
		<g>
			<path class="st0" d="M-76.8,361.3h-19.5H-111h-11.2H-171h-58.2c-4.2,0-7.7,3.4-7.7,7.7v37.3c0,4.2,3.4,7.7,7.7,7.7h12.9h48.8
				h90.8c4.2,0,7.7-3.4,7.7-7.7V369C-69.1,364.7-72.6,361.3-76.8,361.3z"/>
			<g>
				<path class="st17" d="M-208,391.1v4.3c0,0.5,0.2,0.8,0.6,1c0.2,0.1,0.3,0.2,0.4,0.3c0.1,0.1,0.1,0.4,0.1,0.7
					c0,0.3,0,0.6-0.1,0.6c-0.1,0.1-0.3,0.1-0.6,0.1h-5.8c-0.3,0-0.5-0.3-0.5-0.8c0-0.4,0-0.7,0.1-0.8c0-0.1,0.2-0.2,0.4-0.3
					c0.2-0.1,0.4-0.1,0.4-0.2c0.1-0.1,0.1-0.2,0.1-0.4v-15.5c0-0.4-0.2-0.7-0.7-0.9c-0.2-0.1-0.4-0.3-0.4-0.6V378
					c0-0.3,0-0.4,0.1-0.5c0.1-0.1,0.2-0.1,0.4-0.1h6.6c1.9,0,3.4,0.6,4.5,1.8c1.1,1.2,1.7,2.9,1.7,5c0,1.2-0.2,2.3-0.5,3.2
					c-0.3,0.9-0.8,1.6-1.3,2.1c-0.5,0.4-1.1,0.8-1.8,1.1c-0.7,0.3-1.4,0.4-2.2,0.4L-208,391.1L-208,391.1z M-208,378.9v10.7h0.9
					c0.3,0,0.6-0.2,0.8-0.5c0.2-0.3,0.4-0.9,0.4-1.7V381c0-1.4-0.5-2.2-1.4-2.2h-0.7V378.9z"/>
				<path class="st17" d="M-193,377.2c1.3,0,2.3,0.4,3.3,1.3c0.9,0.8,1.7,2,2.2,3.6c0.6,1.6,0.9,3.5,0.9,6c0,2.9-0.6,5.4-1.7,7.4
					c-1.1,2-2.7,3-4.8,3c-2,0-3.5-1-4.6-2.9c-1.1-2-1.7-4.5-1.7-7.6c0-3.2,0.6-5.8,1.7-7.7C-196.5,378.2-194.9,377.2-193,377.2z
					 M-192,380.2c0-1.1-0.3-1.6-1-1.6c-0.3,0-0.5,0.1-0.7,0.4s-0.3,0.6-0.3,1v15.5c0,0.5,0.1,0.9,0.3,1.2c0.2,0.3,0.4,0.4,0.7,0.4
					c0.3,0,0.6-0.1,0.8-0.4s0.3-0.6,0.3-1v-15.5H-192z"/>
				<path class="st17" d="M-179.5,378.1c0.1,0,0.2-0.2,0.4-0.6c0.2-0.2,0.4-0.3,0.6-0.3c0.1,0,0.3,0,0.7,0.1
					c0.1,0.1,0.1,0.3,0.2,0.5l0.7,4.3c0,0.2,0.1,0.4,0.1,0.4c0,0.2,0,0.3-0.1,0.3s-0.3,0.1-0.7,0.1c-0.4,0-0.7-0.1-0.8-0.2
					s-0.4-0.6-0.7-1.4c-0.8-1.7-1.4-2.6-2-2.6c-0.4,0-0.6,0.3-0.6,0.9c0,0.7,0.6,2.2,1.9,4.4c1.5,2.5,2.4,4.3,2.9,5.4
					c0.4,1.1,0.7,2.4,0.7,3.8c0,1.6-0.4,2.9-1.2,3.8s-1.7,1.3-2.6,1.3c-0.6,0-1.2-0.2-1.8-0.5c-0.2-0.1-0.4-0.2-0.5-0.2
					c-0.1,0-0.2,0.1-0.3,0.2c-0.1,0.3-0.5,0.5-1,0.5c-0.2,0-0.3,0-0.4-0.1c-0.1-0.1-0.1-0.2-0.2-0.5l-0.6-4.3
					c-0.1-0.5-0.1-0.8-0.1-0.9c0-0.2,0.2-0.4,0.7-0.4c0.6,0,1,0.1,1.1,0.2c0.1,0.2,0.3,0.5,0.5,1.1c0.7,2.1,1.5,3.1,2.3,3.1
					c0.3,0,0.5-0.1,0.7-0.3c0.2-0.2,0.3-0.5,0.3-0.8c0-0.5-0.2-1.2-0.6-1.9c-0.4-0.7-0.9-1.6-1.4-2.5c-1.3-2.2-2.3-3.9-2.9-5.2
					c-0.6-1.3-0.8-2.6-0.8-4c0-1.5,0.3-2.7,1-3.6c0.7-0.9,1.5-1.4,2.4-1.4C-181.3,377.2-180.5,377.5-179.5,378.1z"/>
				<path class="st17" d="M-172.3,379h-0.6c-0.2,0-0.3,0.1-0.5,0.4c-0.1,0.3-0.2,0.9-0.4,2c-0.1,0.5-0.2,0.8-0.3,0.9
					c-0.1,0.1-0.4,0.2-0.8,0.2s-0.6,0-0.7-0.1c-0.1-0.1-0.2-0.3-0.2-0.5s0-0.3,0-0.5l0.2-3c0-0.4,0.1-0.6,0.2-0.7s0.4-0.2,0.8-0.2
					h9.4c0.3,0,0.4,0,0.5,0.1c0.1,0.1,0.1,0.3,0.1,0.7l0.2,2.6c0,0.2,0,0.4,0,0.6c0,0.3,0,0.5-0.1,0.6c-0.1,0.1-0.3,0.2-0.6,0.2
					c-0.4,0-0.7,0-0.8-0.1s-0.2-0.4-0.3-0.8c-0.1-0.7-0.3-1.4-0.4-1.8c-0.2-0.5-0.4-0.7-0.6-0.7h-0.4v16.4c0,0.5,0.2,0.8,0.6,1
					c0.2,0.1,0.3,0.2,0.3,0.3c0.1,0.1,0.1,0.3,0.1,0.7c0,0.4,0,0.7-0.1,0.8c-0.1,0.1-0.3,0.1-0.5,0.1h-5.6c-0.2,0-0.4,0-0.4-0.1
					c-0.1-0.1-0.1-0.3-0.1-0.7c0-0.5,0.1-0.8,0.4-0.9s0.4-0.2,0.5-0.3c0.1-0.1,0.1-0.3,0.1-0.5V379z"/>
				<path class="st17" d="M-150.2,377.2c1.3,0,2.3,0.4,3.3,1.3c0.9,0.8,1.7,2,2.2,3.6c0.6,1.6,0.9,3.5,0.9,6c0,2.9-0.6,5.4-1.7,7.4
					c-1.1,2-2.7,3-4.8,3c-2,0-3.5-1-4.6-2.9c-1.1-2-1.7-4.5-1.7-7.6c0-3.2,0.6-5.8,1.7-7.7C-153.8,378.2-152.2,377.2-150.2,377.2z
					 M-149.2,380.2c0-1.1-0.3-1.6-1-1.6c-0.3,0-0.5,0.1-0.7,0.4s-0.3,0.6-0.3,1v15.5c0,0.5,0.1,0.9,0.3,1.2c0.2,0.3,0.4,0.4,0.7,0.4
					s0.6-0.1,0.8-0.4s0.3-0.6,0.3-1v-15.5H-149.2z"/>
				<path class="st17" d="M-137,387.8v7.8c0,0.4,0.2,0.7,0.7,0.8c0.2,0.1,0.4,0.1,0.5,0.2c0.1,0.1,0.1,0.3,0.1,0.6
					c0,0.5,0,0.8-0.1,0.8c-0.1,0.1-0.3,0.1-0.5,0.1h-5.8c-0.3,0-0.5-0.1-0.6-0.2c-0.1-0.1-0.1-0.4-0.1-0.8c0-0.3,0-0.4,0.1-0.5
					c0-0.1,0.2-0.2,0.4-0.3c0.3-0.1,0.5-0.3,0.6-0.4c0.1-0.1,0.1-0.2,0.1-0.4V380c0-0.2,0-0.4-0.1-0.5c-0.1-0.1-0.3-0.2-0.6-0.4
					c-0.2-0.1-0.3-0.3-0.3-0.6c0,0,0-0.2,0-0.6c0.1-0.4,0.3-0.5,0.6-0.5h8c0.2,0,0.4,0,0.5,0.1c0.1,0.1,0.2,0.3,0.2,0.6
					c0,0,0,0.1,0,0.2l0.6,2.8c0,0.2,0.1,0.3,0.1,0.5c0,0.3-0.2,0.4-0.6,0.4c-0.5,0-0.9-0.1-1-0.3c-0.1-0.2-0.3-0.7-0.6-1.5
					c-0.2-0.5-0.4-0.8-0.5-1c-0.2-0.2-0.4-0.3-0.8-0.3c-0.1,0-0.3,0-0.6,0v7.3h0.7c0.3,0,0.6-0.1,0.7-0.2c0.1-0.2,0.2-0.4,0.3-0.8
					c0.1-0.4,0.1-0.7,0.2-0.8c0.1-0.1,0.3-0.2,0.8-0.2c0.3,0,0.5,0,0.6,0.1s0.1,0.2,0.1,0.4v4.6c0,0.2,0,0.3-0.1,0.4
					s-0.3,0.1-0.7,0.1c-0.4,0-0.7-0.1-0.8-0.2s-0.2-0.5-0.3-1.1c-0.1-0.6-0.4-0.9-0.9-0.9h-0.9V387.8z"/>
				<path class="st17" d="M-126.4,387.8v7.8c0,0.4,0.2,0.7,0.7,0.8c0.2,0.1,0.4,0.1,0.5,0.2c0.1,0.1,0.1,0.3,0.1,0.6
					c0,0.5,0,0.8-0.1,0.8c-0.1,0.1-0.2,0.1-0.5,0.1h-5.8c-0.3,0-0.5-0.1-0.6-0.2c-0.1-0.1-0.1-0.4-0.1-0.8c0-0.3,0-0.4,0.1-0.5
					c0-0.1,0.2-0.2,0.4-0.3c0.3-0.1,0.5-0.3,0.6-0.4c0.1-0.1,0.1-0.2,0.1-0.4V380c0-0.2,0-0.4-0.1-0.5c-0.1-0.1-0.3-0.2-0.6-0.4
					c-0.2-0.1-0.3-0.3-0.3-0.6c0,0,0-0.2,0-0.6c0.1-0.4,0.3-0.5,0.6-0.5h8c0.2,0,0.4,0,0.5,0.1s0.2,0.3,0.2,0.6c0,0,0,0.1,0,0.2
					l0.6,2.8c0,0.2,0.1,0.3,0.1,0.5c0,0.3-0.2,0.4-0.6,0.4c-0.5,0-0.9-0.1-1-0.3c-0.1-0.2-0.3-0.7-0.6-1.5c-0.2-0.5-0.4-0.8-0.5-1
					c-0.2-0.2-0.4-0.3-0.8-0.3c-0.1,0-0.3,0-0.6,0v7.3h0.7c0.3,0,0.6-0.1,0.7-0.2c0.1-0.2,0.2-0.4,0.3-0.8s0.1-0.7,0.2-0.8
					c0.1-0.1,0.3-0.2,0.8-0.2c0.3,0,0.5,0,0.6,0.1s0.1,0.2,0.1,0.4v4.6c0,0.2,0,0.3-0.1,0.4s-0.3,0.1-0.7,0.1
					c-0.4,0-0.7-0.1-0.8-0.2s-0.2-0.5-0.3-1.1s-0.4-0.9-0.9-0.9h-0.9V387.8z"/>
				<path class="st17" d="M-121.5,378.6v-0.7c0-0.3,0.1-0.4,0.4-0.4h6.2c0.2,0,0.4,0,0.4,0.1c0.1,0.1,0.1,0.2,0.1,0.5
					c0,0.5,0,0.7-0.1,0.8c0,0.1-0.1,0.2-0.3,0.2c-0.5,0.1-0.8,0.4-0.8,1v15.4c0,0.3,0.2,0.6,0.6,0.8c0.2,0.1,0.4,0.2,0.4,0.3
					c0.1,0.1,0.1,0.3,0.1,0.5v0.5c0,0.3,0,0.4-0.1,0.5c-0.1,0-0.2,0-0.4,0h-6.2c-0.2,0-0.4-0.1-0.4-0.3c0-0.6,0-1,0.1-1.1
					c0-0.1,0.2-0.2,0.4-0.3c0.5-0.1,0.7-0.4,0.7-0.7v-15.2c0-0.4,0-0.6-0.1-0.8c-0.1-0.2-0.3-0.3-0.6-0.5c-0.2-0.1-0.3-0.2-0.4-0.2
					C-121.5,378.9-121.5,378.8-121.5,378.6z"/>
				<path class="st17" d="M-105.3,377.2h0.7c0.2,0,0.3,0.1,0.3,0.2c0.1,0.1,0.1,0.4,0.2,0.9l0.3,4.1c0,0.1,0,0.2,0,0.2
					c0,0.3,0,0.5-0.1,0.6s-0.3,0.2-0.6,0.2c-0.4,0-0.6-0.1-0.8-0.3c-0.1-0.2-0.3-0.7-0.4-1.4c-0.4-1.9-0.9-2.8-1.5-2.8
					c-0.5,0-0.8,0.7-0.8,2v14.4c0,1,0.3,1.4,0.8,1.4c0.7,0,1.1-0.8,1.2-2.4c0-0.5,0.1-0.8,0.3-1c0.2-0.2,0.5-0.3,0.9-0.3
					s0.6,0.1,0.7,0.2c0.1,0.1,0.2,0.4,0.2,0.8c0,1.2-0.4,2.2-1.1,3s-1.6,1.2-2.7,1.2s-2-0.3-2.8-1c-0.8-0.7-1.5-1.8-2.1-3.5
					s-0.9-3.8-0.9-6.3c0-2.4,0.2-4.4,0.7-5.8c0.5-1.5,1.1-2.6,1.9-3.4c0.8-0.8,1.7-1.2,2.7-1.2c0.6,0,1.1,0.2,1.6,0.5
					c0.2,0.1,0.3,0.2,0.4,0.2s0.2-0.1,0.4-0.4C-105.6,377.3-105.4,377.2-105.3,377.2z"/>
				<path class="st17" d="M-97.3,379.1v7.3h0.9c0.2,0,0.4-0.1,0.5-0.2s0.2-0.3,0.3-0.7c0.1-0.6,0.2-1,0.2-1.1
					c0.1-0.1,0.2-0.2,0.3-0.2c0.7,0,1.1,0,1.1,0.1c0.1,0.1,0.1,0.3,0.1,0.6v4.3c0,0.3,0,0.4-0.1,0.5s-0.4,0.1-0.8,0.1
					c-0.3,0-0.5-0.1-0.6-0.2s-0.2-0.4-0.3-0.9s-0.2-0.7-0.3-0.8c-0.1-0.1-0.2-0.2-0.4-0.2h-1v8.8h0.7c0.4,0,0.7-0.1,0.9-0.3
					c0.2-0.2,0.4-0.9,0.8-2c0.1-0.5,0.3-0.8,0.4-0.9c0.2-0.1,0.4-0.2,0.8-0.2c0.5,0,0.8,0.2,0.8,0.5c0,0.1,0,0.3-0.1,0.4l-0.5,2.9
					c-0.1,0.5-0.2,0.8-0.2,1c-0.1,0.1-0.2,0.2-0.5,0.2h-8.5c-0.2,0-0.4,0-0.4-0.1c-0.1-0.1-0.1-0.4-0.1-0.9c0-0.3,0.2-0.5,0.5-0.7
					c0.5-0.2,0.7-0.5,0.7-0.8v-16c0-0.2-0.2-0.3-0.6-0.5c-0.3-0.1-0.4-0.2-0.5-0.3c0-0.1-0.1-0.3-0.1-0.7c0-0.3,0-0.5,0.1-0.6
					s0.2-0.1,0.4-0.1h8.2c0.2,0,0.4,0,0.4,0.1c0.1,0.1,0.2,0.2,0.2,0.5l0.7,3.3c0,0.2,0.1,0.3,0.1,0.3c0,0.2-0.2,0.3-0.6,0.3
					c-0.5,0-0.8-0.1-0.9-0.2c-0.2-0.1-0.3-0.4-0.5-0.8c-0.3-0.8-0.5-1.3-0.7-1.6c-0.2-0.3-0.4-0.4-0.6-0.4h-0.8V379.1z"/>
			</g>
			<polygon class="st18" points="-171,361.3 -216.4,413.9 -167.6,413.9 -122.2,361.3 			"/>
			<circle class="st17" cx="-224.9" cy="387.6" r="5"/>
			<circle class="st17" cx="-84.4" cy="387.6" r="5"/>
			<path class="st18" d="M-140.3,397.9l5.8,5c0.7,0.6,2.7-0.5,4.5-2.6l33.7-39.1H-111l-27.4,31.8
				C-140.2,395.1-141,397.3-140.3,397.9z"/>
		</g>
		<path class="st17" d="M-50.4,344.6c0,4.2-3.4,7.7-7.7,7.7h-326.2c-4.2,0-7.7-3.4-7.7-7.7V342c0-4.2,3.4-7.7,7.7-7.7H-58
			c4.2,0,7.7,3.4,7.7,7.7L-50.4,344.6L-50.4,344.6z"/>
		<path class="st6" d="M-143,447.8c0.4-4.3,2-9.1,4.9-13.6c0.9-1.5,2-2.9,3.2-4.3c4.1-4.7,9.7-8.5,17-10.2c2.7-0.6,5.5-1,8.7-1
			c22.8,0,33.8,18.9,33.8,31.1c0,0.1,0,0.4,0,0.5v17v29.3v36.7c0,1.3-1.1,2.4-2.4,2.4h-62.8c-1.4,0-2.4-1.1-2.4-2.4v-83
			c0,0,0-0.3,0-0.5C-143.1,449.1-143,448.5-143,447.8z"/>
		<g>
			<path class="st9" d="M-79.5,450.5c-0.3-3.8-1.7-8.2-4.2-12.3c-0.8-1.3-1.7-2.6-2.8-3.9c-3.6-4.2-8.5-7.7-14.8-9.2
				c-2.3-0.6-4.8-0.9-7.6-0.9c-19.9,0-29.5,17.1-29.5,28.1c0,0.1,0,0.4,0,0.4V468v26.4v33.2c0,1.2,1,2.1,2.1,2.1h54.8
				c1.2,0,2.1-1,2.1-2.1v-74.9c0,0,0-0.3,0-0.4C-79.4,451.7-79.4,451.1-79.5,450.5z"/>
			<path class="st19" d="M-101.4,425.1l-37.1,42.9v26.4l51.9-60.1C-90.1,430.1-95,426.7-101.4,425.1z"/>
		</g>
		<path class="st6" d="M-236.2,447.8c0.4-4.3,2-9.1,4.8-13.6c0.9-1.5,2-2.9,3.2-4.3c4.1-4.7,9.7-8.5,17-10.2c2.7-0.6,5.6-1,8.7-1
			c22.8,0,33.8,18.9,33.8,31.1c0,0.1,0,0.4,0,0.5v17v29.3v36.7c0,1.3-1.1,2.4-2.4,2.4h-62.8c-1.4,0-2.4-1.1-2.4-2.4v-83
			c0,0,0-0.3,0-0.5C-236.3,449.1-236.3,448.5-236.2,447.8z"/>
		<g>
			<path class="st9" d="M-231.8,450.5c0.3-3.8,1.7-8.2,4.2-12.3c0.8-1.3,1.7-2.6,2.8-3.9c3.6-4.2,8.5-7.7,14.8-9.2
				c2.3-0.6,4.8-0.9,7.6-0.9c19.9,0,29.5,17.1,29.5,28.1c0,0.1,0,0.4,0,0.4V468v26.4v33.2c0,1.2-1,2.1-2.1,2.1h-54.8
				c-1.2,0-2.1-1-2.1-2.1v-74.9c0,0,0-0.3,0-0.4C-231.9,451.7-231.8,451.1-231.8,450.5z"/>
			<path class="st19" d="M-212.1,478.7c-2,2.3-1.8,5.9,0.6,7.9c2.3,2,5.9,1.8,7.9-0.6l30.7-35.6c-0.3-3.8-1.7-8.2-4.2-12.3
				L-212.1,478.7z"/>
		</g>
		<path class="st8" d="M-161.6,532.4c0,3.3-2.6,5.9-5.9,5.9h-70.3c-3.3,0-5.9-2.6-5.9-5.9l0,0c0-3.3,2.6-5.9,5.9-5.9h70.3
			C-164.3,526.5-161.6,529.1-161.6,532.4L-161.6,532.4z"/>
		<path class="st8" d="M-72.2,532.4c0,3.3-2.6,5.9-5.9,5.9h-70.3c-3.3,0-5.9-2.6-5.9-5.9l0,0c0-3.3,2.6-5.9,5.9-5.9h70.3
			C-74.9,526.5-72.2,529.1-72.2,532.4L-72.2,532.4z"/>
	</g>
	<g id="Mail_Box">
		<path class="st20" d="M-368.3,568.2c0,1.5-1.2,2.8-2.8,2.8h-36.1c-1.5,0-2.8-1.2-2.8-2.8v-83.8c0-1.5,1.2-2.8,2.8-2.8h36.1
			c1.5,0,2.8,1.2,2.8,2.8V568.2z"/>
		<path class="st20" d="M-389,463.3c-9.6,0-17.4,4-17.4,8.9h34.7C-371.7,467.3-379.4,463.3-389,463.3z"/>
		<path class="st21" d="M-362.1,583.1c0,1.5-1.2,2.8-2.8,2.8H-412c-1.5,0-2.8-1.2-2.8-2.8V566c0-1.5,1.2-2.8,2.8-2.8h47.1
			c1.5,0,2.8,1.2,2.8,2.8L-362.1,583.1L-362.1,583.1z"/>
		<path class="st22" d="M-366.1,481.4c-1.1,1.9-1.8,2.9-3.8,2.9h-38.6c-1.6,0-2.3-1.3-3.3-2.9l-3.5-8c-1.1-2.6,0.9-3.4,2.5-3.4h47.2
			c1.6,0,3.6,1.2,2.6,3.4L-366.1,481.4z"/>
		<rect x="-400.7" y="496.4" class="st23" width="24.3" height="2.4"/>
		<rect x="-397.4" y="503.7" class="st24" width="18.7" height="28.5"/>
		<rect x="-374.1" y="484.2" class="st25" width="1.4" height="79"/>
		<path class="st25" d="M-375.8,537.1c0-1-0.8-1.8-1.8-1.8s-1.8,0.8-1.8,1.8c0,0.6,0.3,1.2,0.8,1.5v2.4c0,0.5,0.4,1,1,1
			c0.5,0,1-0.4,1-1v-2.4C-376.2,538.3-375.8,537.8-375.8,537.1z"/>
	</g>
</g>
<g id="Trees_5_">
	<g>
		<path class="st26" d="M19.6,514.1c0,26.8-11,37.8-24.5,37.8s-24.5-11-24.5-37.8c0-26.8,14.8-51,24.5-51
			C3.2,463.1,19.6,487.3,19.6,514.1z"/>
		<path class="st27" d="M-0.9,583.2c0,1.6-1.3,2.8-2.8,2.8h-2.5c-1.6,0-2.8-1.3-2.8-2.8v-68.7c0-1.6,1.3-2.8,2.8-2.8h2.5
			c1.6,0,2.8,1.3,2.8,2.8V583.2z"/>
	</g>
	<g>
		<path class="st26" d="M-40.4,512.1c0,26.8-11,37.8-24.5,37.8c-13.6,0-24.5-11-24.5-37.8c0-26.8,14.8-51.1,24.5-51.1
			C-56.8,461.1-40.4,485.3-40.4,512.1z"/>
		<path class="st27" d="M-60.8,581.2c0,1.6-1.3,2.8-2.8,2.8h-2.5c-1.6,0-2.8-1.3-2.8-2.8v-68.7c0-1.6,1.3-2.8,2.8-2.8h2.5
			c1.6,0,2.8,1.3,2.8,2.8V581.2z"/>
	</g>
	<g>
		<path class="st28" d="M-3.1,497.7c0,32.9-13.5,46.4-30.1,46.4c-16.7,0-30.1-13.5-30.1-46.4c0-32.9,18.2-62.7,30.1-62.7
			C-23.3,435-3.1,464.7-3.1,497.7z"/>
		<path class="st27" d="M-28.2,582.5c0,1.9-1.6,3.5-3.5,3.5h-3.1c-1.9,0-3.5-1.6-3.5-3.5v-84.4c0-1.9,1.6-3.5,3.5-3.5h3.1
			c1.9,0,3.5,1.6,3.5,3.5V582.5z"/>
	</g>
</g>
</svg>
