<?xml version="1.0" encoding="utf-8"?>
<!-- Generator: Adobe Illustrator 19.0.0, SVG Export Plug-In . SVG Version: 6.00 Build 0)  -->
<svg version="1.1" id="Layer_1" xmlns="http://www.w3.org/2000/svg" xmlns:xlink="http://www.w3.org/1999/xlink" x="0px" y="0px"
	 viewBox="0 0 929.7 682" style="enable-background:new 0 0 929.7 682;" xml:space="preserve">
<style type="text/css">
	.st0{opacity:0.5;fill:#1D1D1B;}
	.st1{fill:#103757;}
	.st2{fill:#1375B7;}
	.st3{fill:#ECB211;}
	.st4{fill:#706F6F;}
	.st5{fill:#3C3C3B;}
	.st6{fill:#B2B2B2;}
	.st7{fill:#EDEDED;}
</style>
<g id="Warehouse">
	<g id="Building_18_">
		<polygon id="XMLID_41_" class="st0" points="827.7,682 904.3,595.8 754.4,595.8 754.4,682 		"/>
		<path id="XMLID_40_" class="st1" d="M786.2,198L480.9,21.3c-8.4-8.4-25.5-13-38.7,0.2L144.4,198c-3.2,0.8-6.1,2.6-8.3,4.9l0,0
			c-3,3.1-4.8,7.3-4.8,12v449.7c0,9.6,7.8,17.5,17.5,17.5h97.8H684h97.8c9.6,0,17.5-7.8,17.5-17.5V214.9
			C799.3,206.7,793.7,199.9,786.2,198z"/>
		<path id="XMLID_39_" class="st2" d="M834,670.2c0,6.5-7.8,11.9-17.5,11.9H117.1c-9.6,0-17.5-5.3-17.5-11.9v-62.5
			c0-6.5,7.8-11.9,17.5-11.9h699.5c9.6,0,17.5,5.3,17.5,11.9V670.2z"/>
		<path id="XMLID_38_" class="st3" d="M921.7,221.2L472.8,0c-2.6-1.3-5.4-1.7-8-1.5c-2.6-0.3-5.4,0.2-8,1.5L8,221.2
			c-6.8,3.3-9.9,11-6.8,17.2L13,262.4c3,6.1,11,8.4,17.8,5l434-213.9l434,213.9c6.8,3.3,14.7,1.1,17.8-5l11.9-24.1
			C931.5,232.2,928.5,224.5,921.7,221.2z"/>
		<g id="XMLID_33_">
			<polygon id="XMLID_37_" class="st4" points="184,305.4 184,336.8 184,391.1 184,453.2 184,507.5 184,569.6 184,623.9 184,682 
				272.3,682 272.3,657.3 272.3,602.9 272.3,540.8 272.3,486.5 272.3,424.4 272.3,370.1 272.3,305.4 			"/>
			<polygon id="XMLID_36_" class="st3" points="272.3,370.1 184,336.8 184,391.1 272.3,424.4 			"/>
			<polygon id="XMLID_35_" class="st3" points="184,507.5 272.3,540.8 272.3,486.5 184,453.2 			"/>
			<polygon id="XMLID_34_" class="st3" points="184,623.9 272.3,657.3 272.3,602.9 184,569.6 			"/>
		</g>
		<g id="XMLID_28_">
			<polygon id="XMLID_32_" class="st4" points="748.6,305.4 748.6,336.8 748.6,391.1 748.6,453.2 748.6,507.5 748.6,569.6 
				748.6,623.9 748.6,682 660.3,682 660.3,657.3 660.3,602.9 660.3,540.8 660.3,486.5 660.3,424.4 660.3,370.1 660.3,305.4 			"/>
			<polygon id="XMLID_31_" class="st3" points="660.3,370.1 748.6,336.8 748.6,391.1 660.3,424.4 			"/>
			<polygon id="XMLID_30_" class="st3" points="748.6,507.5 660.3,540.8 660.3,486.5 748.6,453.2 			"/>
			<polygon id="XMLID_29_" class="st3" points="748.6,623.9 660.3,657.3 660.3,602.9 748.6,569.6 			"/>
		</g>
		<path id="XMLID_27_" class="st5" d="M667.7,305.4H263c-9,0-16.3,7.3-16.3,16.3V682H684V321.7C684,312.7,676.7,305.4,667.7,305.4z"
			/>
		<path id="XMLID_26_" class="st6" d="M667.7,305.4H263c-9,0-16.3,7.3-16.3,16.3l-0.5,227.5h437.4l0.5-227.5
			C684,312.7,676.7,305.4,667.7,305.4z"/>
		<rect id="XMLID_25_" x="246.1" y="526.9" class="st7" width="437.4" height="7.8"/>
		<path id="XMLID_24_" class="st1" d="M503.4,505.9c0,5-4.1,9.1-9.1,9.1h-58.2c-5,0-9.1-4.1-9.1-9.1l0,0c0-5,4.1-9.1,9.1-9.1h58.2
			C499.3,496.8,503.4,500.9,503.4,505.9L503.4,505.9z"/>
		<path id="XMLID_23_" class="st7" d="M683.6,272.7c0-5.4-4.3-9.7-9.7-9.7H256.3c-5.4,0-9.7,4.3-9.7,9.7l0,0c0,5.4,4.3,9.7,9.7,9.7
			h417.6C679.2,282.4,683.6,278.1,683.6,272.7L683.6,272.7z"/>
	</g>
</g>
</svg>
