<?xml version="1.0" encoding="utf-8"?>
<!-- Generator: Adobe Illustrator 19.0.0, SVG Export Plug-In . SVG Version: 6.00 Build 0)  -->
<svg version="1.1" id="Layer_1" xmlns="http://www.w3.org/2000/svg" xmlns:xlink="http://www.w3.org/1999/xlink" x="0px" y="0px"
	 viewBox="0 0 87.6 87.5" style="enable-background:new 0 0 87.6 87.5;" xml:space="preserve">
<style type="text/css">
	.st0{fill:#FFFFFF;}
	.st1{fill:#010400;}
	.st2{fill:#74572D;}
	.st3{fill:#8C6739;}
	.st4{fill:#EDD9B4;}
	.st5{fill:#544122;}
	.st6{fill:#0F1005;}
	.st7{fill:#633C10;}
	.st8{fill:#BC9F82;}
	.st9{fill:#342916;}
	.st10{fill:#BF3030;}
	.st11{fill:#AD2B2B;}
	.st12{fill:#64996F;}
	.st13{fill:#6999A2;}
	.st14{fill:#211915;}
	.st15{fill:#7C4417;}
	.st16{fill:#568035;}
</style>
<rect id="XMLID_22_" x="0" y="0" class="st0" width="87.6" height="87.5"/>
<g id="XMLID_3_">
	<g id="XMLID_139_">
		<path id="XMLID_145_" class="st1" d="M52.8,48.3c-0.1,2.5,0.2,6.7,0.4,8.7c0.2,2,0.5,7.8,0,10.3c-0.4,2.5-0.4,5.5-1,5.6
			c-0.6,0-0.9-1.2-0.6-2.7c0.3-1.5,0.4-10.1,0.3-11.8c-0.1-1.7-0.5-7.1-0.5-7.3c0-0.2,0.4-1.8,0.7-2.5C52.5,48,52.8,48.3,52.8,48.3z
			"/>
		<path id="XMLID_144_" class="st1" d="M63.2,45.8c-0.5,6-0.4,8.8-0.2,12.9c0.3,4,0.7,10.6,0.7,14c0,3.4-0.7,9.7-0.7,9.7l-0.9,1.1
			c0,0-0.4,0,0-5.2c0.4-4.9,0.2-7-0.2-13.1c-0.3-3.9-0.8-12.2-0.5-14.1C61.8,49.3,63.2,45.8,63.2,45.8z"/>
		<path id="XMLID_143_" class="st1" d="M59,51.2c-0.5,3.2-0.6,8.6-0.6,11.2c0,2.6-0.3,10-1.5,13c-1.1,3-1.5,6.9-2.6,6.8
			c-1.1-0.1-1.3-1.8-0.7-3.6c0.7-1.8,2.2-12.7,2.3-14.9c0.1-2.2,0.2-9.1,0.2-9.4c0-0.3,1.1-2.2,1.7-2.9C58.5,50.7,59,51.2,59,51.2z"
			/>
		<path id="XMLID_142_" class="st1" d="M61.2,48.2c0,3.2,0.5,8.6,0.7,11.1c0.2,2.6,0.7,10,0.4,13.1c-0.3,3.2-0.2,7.1-0.8,7.1
			c-0.6,0.1-0.9-1.5-0.7-3.4c0.2-1.9,0.1-12.9-0.1-15.1c-0.1-2.2-0.7-9-0.8-9.3c0-0.3,0.4-2.3,0.6-3.2
			C60.9,47.8,61.2,48.2,61.2,48.2z"/>
		<path id="XMLID_141_" class="st1" d="M60,48.2c0,3.2,0.4,8.6,0.7,11.1c0.2,2.6,0.7,10,0.4,13.1c-0.3,3.2-0.2,7.1-0.8,7.1
			c-0.6,0.1-0.9-1.5-0.7-3.4c0.2-1.9,0.1-12.9-0.1-15.1c-0.1-2.2-0.7-9-0.8-9.3c0-0.3,0.4-2.3,0.7-3.2C59.7,47.8,60,48.2,60,48.2z"
			/>
		<path id="XMLID_140_" class="st1" d="M59.9,47.7c-0.2,3.2-0.1,8.6,0,11.2c0.1,2.6,0.1,10-0.4,13.1c-0.5,3.1-0.6,7-1.2,7.1
			c-0.6,0-0.8-1.6-0.5-3.4c0.3-1.9,0.8-12.8,0.8-15c0-2.2-0.2-9.1-0.2-9.3c0-0.3,0.5-2.3,0.8-3.1C59.6,47.3,59.9,47.7,59.9,47.7z"/>
	</g>
	<g id="XMLID_131_">
		<path id="XMLID_138_" class="st1" d="M27.1,44.4c0,6-0.2,8.8-0.7,12.8c-0.5,4-1.4,10.6-1.6,13.9c-0.2,3.3,0,9.8,0,9.8l0.8,1.2
			c0,0,0.4,0,0.4-5.2c-0.1-4.9,0.2-7,1.1-13c0.6-3.9,1.6-12.1,1.4-14C28.2,48,27.1,44.4,27.1,44.4z"/>
		<path id="XMLID_137_" class="st1" d="M26.9,46.7c0.5,6,0.4,8.8,0.2,12.9c-0.3,4-0.7,10.6-0.7,14c0,3.3,0.7,9.7,0.7,9.7l0.9,1.1
			c0,0,0.4,0,0-5.2c-0.4-4.9-0.2-7,0.2-13.1c0.3-3.9,0.8-12.2,0.5-14.1C28.2,50.3,26.9,46.7,26.9,46.7z"/>
		<path id="XMLID_136_" class="st1" d="M31.1,52.1c0.5,3.2,0.6,8.6,0.6,11.2c0,2.6,0.3,10,1.5,13c1.1,3,1.5,6.9,2.6,6.8
			c1.1-0.1,1.3-1.8,0.7-3.6C35.7,77.8,34.1,67,34,64.7c-0.1-2.2-0.2-9.1-0.2-9.4c0-0.3-1-2.2-1.7-2.9C31.5,51.6,31.1,52.1,31.1,52.1
			z"/>
		<path id="XMLID_135_" class="st1" d="M33,52.3c0.5,3.2,1,8.5,1.1,11.1c0.2,2.6,0.9,9.9,1.8,13c0.8,3,1.3,6.9,1.9,6.9
			c0.6,0,0.6-1.7,0.1-3.5C37.4,78,35.7,67.2,35.5,65c-0.2-2.2-0.8-9-0.8-9.3c0-0.3-0.7-2.2-1.2-3C33.2,51.8,33,52.3,33,52.3z"/>
		<path id="XMLID_134_" class="st1" d="M28.8,49.2c0,3.2-0.5,8.6-0.7,11.1c-0.2,2.5-0.7,10-0.4,13.1c0.3,3.1,0.2,7.1,0.8,7.1
			c0.6,0.1,0.9-1.5,0.7-3.4c-0.2-1.9-0.1-12.9,0.1-15.1c0.1-2.2,0.7-9,0.8-9.3c0-0.3-0.4-2.3-0.7-3.2C29.1,48.8,28.8,49.2,28.8,49.2
			z"/>
		<path id="XMLID_133_" class="st1" d="M30,49.2c0,3.2-0.4,8.6-0.7,11.1c-0.2,2.5-0.7,10-0.4,13.1c0.3,3.1,0.2,7.1,0.8,7.1
			c0.6,0.1,0.9-1.5,0.7-3.4c-0.2-1.9-0.1-12.9,0.1-15.1c0.1-2.2,0.7-9,0.8-9.3c0-0.3-0.4-2.3-0.7-3.2C30.3,48.8,30,49.2,30,49.2z"/>
		<path id="XMLID_132_" class="st1" d="M35.2,48.7c0.3,3.2,0.3,8.6,0.2,11.2c0,2.6,0.1,10,0.7,13.1c0.6,3.1,0.8,7,1.4,7.1
			c0.6,0,0.8-1.6,0.4-3.4c-0.4-1.9-1.1-12.8-1.2-15c0-2.2,0-9.1,0-9.4c0-0.3-0.6-2.3-0.9-3.1C35.5,48.2,35.2,48.7,35.2,48.7z"/>
	</g>
	<g id="XMLID_111_">
		<g id="XMLID_122_">
			<g id="XMLID_124_">
				<path id="XMLID_130_" class="st2" d="M45,51.1v36.4H25.2c-0.3-0.1-0.5-0.2-0.5-0.2c0-16.6,8.8-20.1,11.4-20.8
					c0.3-0.1,0.5-0.1,0.6-0.1c0,0,0,0,0.1,0c0,0,0.1,0,0.1,0h0.1c0.1,0,0.2,0,0.3-0.1c0.4-0.1,0.7-0.4,1-0.9c0.5-0.7,0.8-1.7,1.1-3
					c0.1-0.4,0.2-0.7,0.2-1.1c0.1-0.7,0.2-1.4,0.3-2.1c0-0.4,0.1-0.9,0.1-1.3c0.2-2.2,0.2-4.7,0.2-7C40.2,50.9,42.8,51.1,45,51.1z"
					/>
				<path id="XMLID_129_" class="st3" d="M50.7,62.1c0.3,1.3,0.6,2.4,1.1,3.1c-0.2,2.2,11.2,22.3,11.2,22.3s-17.9,0-17.9,0V51.1h0
					c2.2,0,4.8-0.3,4.8-0.3c0,2.3,0.1,4.7,0.2,6.9c0,0.4,0.1,0.9,0.1,1.3c0.1,0.8,0.2,1.5,0.3,2.2v0C50.6,61.6,50.6,61.9,50.7,62.1z
					"/>
				<path id="XMLID_128_" class="st4" d="M52.8,66.2c0.1,0,0.1,0,0.2,0.1C53,66.3,52.9,66.3,52.8,66.2c-0.1,0-0.3-0.1-0.4-0.2
					c0.1,0.1,0.1,0.1,0.2,0.2C52.7,66.2,52.7,66.2,52.8,66.2z"/>
				<path id="XMLID_127_" class="st4" d="M53,66.3c0,0,0.1,0,0.1,0L53,66.3C53.1,66.3,53,66.3,53,66.3z"/>
				<path id="XMLID_126_" class="st4" d="M53.3,66.3C53.3,66.3,53.3,66.3,53.3,66.3C53.2,66.3,53.2,66.3,53.3,66.3L53.3,66.3z"/>
				<path id="XMLID_125_" class="st3" d="M65.4,87.3c0,0-0.2,0.1-0.5,0.2h-4.7c0.9-1.7,2.3-5.9-1.8-10.6c-0.4-0.5-0.9-0.9-1.4-1.4
					c-0.4-0.3-0.7-0.7-1-1.1c-2.1-2.6-2.2-5.6-2.2-7.9c-0.1,0-0.2-0.1-0.3-0.1c0.7,0.1,2.5,0.7,4.5,2.1c0.7,0.5,1.4,1.1,2.1,1.8
					C62.9,73.3,65.4,78.4,65.4,87.3z"/>
			</g>
			<path id="XMLID_123_" class="st5" d="M50.5,61.3L50.5,61.3c-0.5,0.8-2.2,3-5.5,3c0,0,0,0,0,0c-3.2,0-5-2.3-5.5-3
				c0.1-0.7,0.2-1.4,0.3-2.1c0-0.4,0.1-0.9,0.1-1.3c1.5,0.4,3.2,0.6,5,0.7H45c1.8,0,3.5-0.3,5.1-0.7c0,0.4,0.1,0.9,0.1,1.3
				C50.3,59.9,50.4,60.6,50.5,61.3z"/>
		</g>
		<g id="XMLID_112_">
			<path id="XMLID_119_" class="st6" d="M57.1,75.4c-3-2.8-3.1-6.4-3.1-9c-0.1,0-0.2-0.1-0.3-0.1c-0.1,0-0.2,0-0.3-0.1
				c-0.1,0-0.1,0-0.1,0h-0.1c0,0,0,0,0,0c-0.1,0-0.2,0-0.2,0c-0.2,0-0.3-0.1-0.4-0.3c0,0,0,0,0,0c-0.2-0.2-0.4-0.4-0.6-0.7
				c-0.2,2.2-0.5,6.3-0.7,7.4c-3.2,11.9-8.9,12.1-11.9,0c-0.3-1.1-0.6-5.1-0.8-7.3c-0.3,0.5-0.6,0.8-1,0.9c-0.1,0-0.2,0-0.3,0.1
				h-0.1c0,0,0,0-0.1,0c0,0,0,0-0.1,0c-0.1,0-0.3,0.1-0.5,0.1c0,2.6-0.1,6.2-3.1,9c-5.8,5.3-4.1,10.3-3.2,12.1H45h15.2
				C61.2,85.7,62.9,80.7,57.1,75.4z"/>
			<g id="XMLID_115_">
				<path id="XMLID_116_" class="st6" d="M60.2,70.4c-0.6,1.2-1.3,3.9-1.7,6.6c-0.4-0.5-0.9-0.9-1.4-1.4c-0.4-0.3-0.7-0.7-1-1.1
					c0.4-2.1,1-4.4,2-5.9C58.7,69,59.5,69.6,60.2,70.4z"/>
			</g>
			<g id="XMLID_113_">
				<path id="XMLID_114_" class="st6" d="M29.6,70.7c0.6,1.2,1.3,3.9,1.7,6.6c0.4-0.5,0.9-0.9,1.4-1.4c0.4-0.3,0.7-0.7,1-1.1
					c-0.4-2.1-1-4.4-2-5.9C31,69.3,30.3,69.9,29.6,70.7z"/>
			</g>
		</g>
	</g>
	<g id="XMLID_4_">
		<path id="XMLID_110_" class="st1" d="M37.2,49.3c0.1,2.5-0.2,6.7-0.4,8.7c-0.2,2-0.5,7.8,0,10.3c0.4,2.4,0.4,5.5,1,5.6
			c0.6,0,0.9-1.2,0.6-2.7c-0.3-1.5-0.4-10.1-0.3-11.8c0.1-1.7,0.5-7.1,0.5-7.3c0-0.2-0.4-1.8-0.7-2.5C37.5,48.9,37.2,49.3,37.2,49.3
			z"/>
		<path id="XMLID_109_" class="st1" d="M39,49.5c0,3.1-0.5,8.1-0.7,10.6c-0.3,2.4-0.8,9.4-0.4,12.4c0.3,3,0.2,6.7,0.8,6.8
			c0.6,0.1,0.9-1.4,0.7-3.2c-0.2-1.8,0-12.2,0.1-14.3c0.1-2.1,0.8-8.6,0.8-8.8c0-0.3-0.4-2.2-0.6-3C39.3,49.1,39,49.5,39,49.5z"/>
		<g id="XMLID_105_">
			<path id="XMLID_108_" class="st1" d="M26.8,44.6c-4.9,18-3.9,24.7-3.6,24.9c0.3,0.3,0.6,0.5,0.9-2c2.4-22.5,4.3-20.3,4.4-21.2
				c0.1-0.8,0.6-1.4-0.3-1.8C27.3,44.2,26.8,44.6,26.8,44.6z"/>
			<path id="XMLID_107_" class="st1" d="M23.1,68.5c-0.4,1.1-0.3,1.8-0.1,2.9c0.1,1.1,0.1,2.4,0.6,2.8c0.5,0.4,1.1,0.8,1.1-0.1
				c0-1-0.4-1.6-0.6-2.7c-0.2-1.2-0.3-2.5-0.3-2.5L23.1,68.5z"/>
			<path id="XMLID_106_" class="st7" d="M24.6,68.7c0,0.6-0.5,1.1-1.1,1.1l0,0c-0.6,0-1.1-0.5-1.1-1.1l0,0c0-0.6,0.5-1.1,1.1-1.1
				l0,0C24.1,67.6,24.6,68.1,24.6,68.7L24.6,68.7z"/>
		</g>
		<path id="XMLID_104_" class="st1" d="M30.1,48.6c0.2,3.2,0.1,8.6,0,11.2c-0.1,2.6-0.1,10,0.4,13.1c0.5,3.1,0.6,7,1.2,7.1
			c0.6,0,0.8-1.6,0.5-3.4c-0.3-1.9-0.8-12.8-0.8-15c0-2.2,0.2-9.1,0.2-9.4c0-0.3-0.5-2.3-0.8-3.1C30.4,48.2,30.1,48.6,30.1,48.6z"/>
		<path id="XMLID_103_" class="st1" d="M57.1,51.3c-0.5,3.2-1,8.5-1.1,11.1c-0.2,2.6-0.9,9.9-1.8,13c-0.9,3-1.3,6.9-1.9,6.9
			c-0.6,0-0.6-1.7-0.1-3.5c0.5-1.8,2.2-12.7,2.4-14.9c0.2-2.2,0.8-9,0.8-9.3s0.7-2.2,1.2-3C56.8,50.9,57.1,51.3,57.1,51.3z"/>
		<path id="XMLID_102_" class="st1" d="M54.8,47.7c-0.3,3.2-0.3,8.6-0.2,11.2c0,2.6-0.1,10-0.7,13.1c-0.6,3.1-0.8,7-1.4,7.1
			s-0.8-1.6-0.4-3.4c0.4-1.8,1.1-12.8,1.2-15c0-2.2,0-9.1,0-9.4c0-0.3,0.6-2.3,0.9-3.1C54.6,47.3,54.8,47.7,54.8,47.7z"/>
		<path id="XMLID_101_" class="st1" d="M51.1,48.6c0,3.1,0.5,8.1,0.7,10.6c0.3,2.4,0.8,9.4,0.4,12.4c-0.3,3-0.2,6.7-0.8,6.8
			c-0.6,0.1-0.9-1.4-0.7-3.2c0.2-1.8,0-12.2-0.1-14.3c-0.1-2.1-0.8-8.6-0.8-8.8c0-0.3,0.4-2.2,0.6-3C50.8,48.2,51.1,48.6,51.1,48.6z
			"/>
		<path id="XMLID_100_" class="st1" d="M30.9,50.9c0.4,3.2,0.6,8.6,0.7,11.1c0.1,2.6,0.5,10,1.2,13.1c0.7,3.1,1,7,1.6,7
			c0.6,0,0.7-1.6,0.3-3.5c-0.4-1.8-1.6-12.8-1.7-15c-0.1-2.2-0.4-9.1-0.4-9.3c0-0.3-0.7-2.3-1-3.1C31.2,50.4,30.9,50.9,30.9,50.9z"
			/>
		<g id="XMLID_91_">
			<g id="XMLID_93_">
				<path id="XMLID_99_" class="st5" d="M45,12.1c-20.7,0-20.8,16.5-19.9,27.3c-1.4-2.5-5.6-1.6-5.3,2.5c0.3,3.9,6.3,5.7,6.2,5.2
					c1.7,8.8,11.4,13.7,19,14.4c0.1,0,0.1,0,0.2,0c0-16.5,0-33,0-49.4C45.1,12.1,45,12.1,45,12.1z"/>
			</g>
			<path id="XMLID_92_" class="st8" d="M20.9,40.2c1-1.6,2.6-0.9,3-0.5c0.4,0.4,0.7,0.9,0.5,1.8c-0.1,0.5-0.7,0.6-0.6,1.4
				c0.2,0.9,0.6,1,0.8,1.2c0.2,0.2,0.6,0.4,0.7,0.7c0.2,0.4,0.2,0.8,0.1,1.1c-0.2,0.6-1.1,0.1-1.8-0.2c-0.4-0.2-1.8-1.3-2.2-1.7
				C20.6,43,20.2,41.2,20.9,40.2z"/>
		</g>
		<g id="XMLID_87_">
			<g id="XMLID_89_">
				<path id="XMLID_90_" class="st5" d="M45.1,12.1C65.8,12,65.9,28.6,65,39.4c1.4-2.5,5.6-1.6,5.3,2.5c-0.3,3.9-6.3,5.7-6.2,5.2
					c-1.7,8.8-11.5,13.7-19,14.4c0,0-0.1,0-0.2,0c0-16.5,0-33,0-49.4C45,12.1,45,12.1,45.1,12.1z"/>
			</g>
			<path id="XMLID_88_" class="st9" d="M69.4,40.2c-1-1.6-2.6-0.9-3-0.5c-0.4,0.4-0.7,0.9-0.5,1.8c0.1,0.5,0.7,0.6,0.6,1.4
				c-0.2,0.9-0.6,1-0.8,1.2c-0.2,0.2-0.6,0.4-0.7,0.7c-0.1,0.4-0.2,0.8-0.1,1.1c0.2,0.6,1.1,0.1,1.8-0.2c0.4-0.2,1.8-1.3,2.2-1.7
				C69.7,43,70.1,41.2,69.4,40.2z"/>
		</g>
		<g id="XMLID_84_">
			<path id="XMLID_86_" class="st2" d="M44.9,16.8c-6.9,0-12,1.9-15,5.7c-4.3,5.2-4.1,13.2-2.5,19c0.5,1.8,0.7,6.5,1.1,8.2
				c1.5,7.8,10.5,11.9,16.5,11.9c0.1,0,0.1,0,0.2,0V16.8C45,16.8,44.9,16.8,44.9,16.8z"/>
			<path id="XMLID_85_" class="st3" d="M59.9,22.4c-3-3.7-8-5.6-14.8-5.6v44.7c6.8-0.1,14.9-4.6,16.3-11.9c0.3-1.7,0.6-6.5,1.1-8.2
				C64,35.7,64.2,27.7,59.9,22.4z"/>
		</g>
		<g id="XMLID_81_">
			<path id="XMLID_83_" class="st10" d="M48.5,54.5c0,0-1.6,1.7-3.5,1.7c-1.9,0-3.4-1.6-3.4-1.6s1.5-0.3,3.4-0.3
				C47,54.3,48.5,54.5,48.5,54.5z"/>
			<path id="XMLID_82_" class="st11" d="M46,53.7c-0.5,0-1,0.3-1,0.8c0-0.4-0.4-0.8-1-0.8c-0.5,0-2.5,0.8-2.5,0.8s1.9,0.2,2.5,0.2
				c0.5,0,1,0.2,1-0.2c0,0.4,0.4,0.2,0.9,0.2c0.5,0,2.5-0.3,2.5-0.3S46.6,53.7,46,53.7z"/>
		</g>
		<path id="XMLID_80_" class="st1" d="M67.7,34.2c0,5-0.5,3.8,1.1,11.7c1.1,5.4,2.2,7.1,2.2,7.1s-7.1-9.1-6.6-18.1
			C64.4,33.5,67.7,34.2,67.7,34.2z"/>
		<g id="XMLID_76_">
			<path id="XMLID_79_" class="st6" d="M27.3,16.2c0,0-0.1,0.1-0.4,0.3c-0.3,0.2-0.6,0.5-1.1,1c-0.4,0.4-0.9,1-1.3,1.8
				c-0.4,0.7-0.8,1.6-1.2,2.6c-0.7,2-1.2,4.4-1.4,7.1c-0.3,2.6-0.4,5.5-0.7,8.4c-0.3,2.9-0.6,5.7-1.1,8.4c-0.5,2.7-1.1,5.1-1.8,7.2
				c-0.7,2.1-1.5,3.7-2,4.8c-0.3,0.6-0.7,1.1-0.3-0.1c0.5-1.2,0.9-2.9,1.5-4.9c0.5-2.1,1-4.5,1.4-7.1c0.4-2.6,0.7-5.5,0.9-8.3
				c0.3-2.8,0.5-5.7,0.9-8.4c0.4-2.7,1-5.2,1.9-7.2c0.9-2,2.1-3.5,3-4.3c0.5-0.4,0.9-0.7,1.2-0.8C27.1,16.3,27.3,16.2,27.3,16.2z"/>
			<path id="XMLID_77_" class="st12" d="M18.9,53.3c0,0.6-0.5,1.1-1.1,1.1l0,0c-0.6,0-1.1-0.5-1.1-1.1l0,0c0-0.6,0.5-1.1,1.1-1.1
				l0,0C18.4,52.1,18.9,52.6,18.9,53.3L18.9,53.3z"/>
		</g>
		<g id="XMLID_66_">
			<path id="XMLID_75_" class="st1" d="M62.9,43.5c0,6,0.2,8.8,0.7,12.8c0.5,4,1.4,10.6,1.6,13.9c0.2,3.3,0,9.8,0,9.8l-0.8,1.2
				c0,0-0.4,0-0.4-5.2c0.1-4.9-0.2-7-1.1-13c-0.6-3.9-1.7-12.1-1.4-14C61.8,47.1,62.9,43.5,62.9,43.5z"/>
			<path id="XMLID_67_" class="st13" d="M65.8,70.8c0,0.6-0.5,1.1-1.1,1.1l0,0c-0.6,0-1.1-0.5-1.1-1.1l0,0c0-0.6,0.5-1.1,1.1-1.1
				l0,0C65.4,69.7,65.8,70.2,65.8,70.8L65.8,70.8z"/>
		</g>
		<g id="XMLID_19_">
			<path id="XMLID_65_" class="st14" d="M26,20c0,0-0.6,3.8-1.6,9.6c-0.2,1.4-0.5,3-0.7,4.6c-0.3,1.6-0.4,3.4-0.7,5.2
				c-0.2,1.8-0.4,3.6-0.5,5.5c-0.1,1.9-0.3,3.8-0.3,5.7c-0.1,1.8-0.2,4-0.6,5.9c-0.4,1.9-0.9,3.8-1.5,5.5c-1.1,3.5-2.3,6.6-2.7,9.4
				c-0.2,1.4-0.3,2.7-0.2,3.8c0.1,1.1,0.3,2.1,0.5,2.9c0.3,0.8,0.5,1.4,0.7,1.8c0.2,0.4,0.3,0.6,0.3,0.6s-0.1-0.2-0.4-0.6
				c-0.3-0.4-0.6-0.9-1-1.7c-0.3-0.8-0.7-1.8-0.9-3c-0.2-1.2-0.3-2.6-0.2-4.1c0.2-3,1.2-6.3,2.2-9.8c0.5-1.7,0.9-3.5,1.3-5.3
				c0.4-1.8,0.4-3.6,0.5-5.6c0.1-2,0.2-3.9,0.4-5.8c0.2-1.9,0.5-3.8,0.7-5.6c0.3-1.8,0.6-3.5,1-5.2c0.3-1.6,0.7-3.2,1.1-4.6
				c0.7-2.8,1.4-5.2,1.9-6.8C25.6,20.9,26,20,26,20z"/>
			<path id="XMLID_21_" class="st15" d="M17.7,74.6c0,0.6-0.5,1.1-1.1,1.1l0,0c-0.6,0-1.1-0.5-1.1-1.1l0,0c0-0.6,0.5-1.1,1.1-1.1
				l0,0C17.2,73.5,17.7,74,17.7,74.6L17.7,74.6z"/>
		</g>
		<g id="XMLID_6_">
			<path id="XMLID_8_" class="st14" d="M63.4,27c0,0,0.1,0.9,0.2,2.4c0,0.8,0.1,1.7,0.2,2.7c0.1,1,0.3,2.2,0.5,3.5
				c0.2,1.3,0.4,2.6,0.7,4.1c0.3,1.4,0.7,3,1,4.5c0.4,1.6,0.8,3.2,1.3,4.8c0.4,1.6,1,3.3,1.4,4.9c0.5,1.7,1,3.3,1.4,5
				c0.5,1.6,0.8,3.3,1.1,5c0.1,0.8,0.2,1.6,0.3,2.4c0,0.4,0.1,0.8,0.1,1.2c0,0.4,0,0.8,0,1.1c0,0.7,0,1.5,0.1,2.2
				c0,0.7-0.1,1.4-0.1,2.1c-0.1,1.3-0.2,2.5-0.4,3.6c-0.1,1.1-0.7-1-0.8-3.6c0-0.6,0-1.3-0.1-2c-0.1-0.7-0.1-1.4-0.2-2.2
				c0-0.4-0.1-0.7-0.1-1.1c0-0.3-0.1-0.7-0.2-1.1c-0.1-0.8-0.3-1.5-0.4-2.3c-0.4-1.6-0.7-3.1-1.2-4.8c-0.5-1.6-1-3.3-1.5-4.9
				c-0.5-1.7-1-3.3-1.4-5c-0.5-1.7-0.8-3.3-1.1-4.9c-0.3-1.6-0.6-3.2-0.7-4.7c-0.2-1.5-0.3-2.9-0.4-4.2c-0.1-1.3-0.1-2.5,0-3.6
				c0-1.1,0-2,0.1-2.7C63.3,27.9,63.4,27,63.4,27z"/>
			<path id="XMLID_7_" class="st16" d="M72,70.9c0,0.6-0.5,1.1-1.1,1.1l0,0c-0.6,0-1.1-0.5-1.1-1.1l0,0c0-0.6,0.5-1.1,1.1-1.1l0,0
				C71.5,69.8,72,70.3,72,70.9L72,70.9z"/>
		</g>
		<path id="XMLID_5_" class="st1" d="M58.2,25.7c-1.7,3.2-1.2,6.8-7.1,9.2c-5.8,2.4-8.4,3-14.8,5.9c-14.4,6.5-7,21.5-7,21.5
			s-3.9-3.9-5.4-7.9c-1.4-4-7-21.6,0-35.4c3.8-7.6,10.9-9.4,17.1-9.9c6.2-0.5,10.6,0,15.1,4.2c1,0.9,3.8,1.1,6.9,3.3
			c6.9,4.9,6.3,12.1,6.6,16.7c0.4,5.9-0.5,10.1-1.8,14.1c-1.3,4-9.4,15.9-9.4,15.9s6.3-14.5,2.8-24c-2.1-5.5-5.7-5.2-5.9-7.4
			C55.2,29.9,58.2,25.7,58.2,25.7z"/>
	</g>
</g>
</svg>
