<?xml version="1.0" encoding="utf-8"?>
<!-- Generator: Adobe Illustrator 19.0.0, SVG Export Plug-In . SVG Version: 6.00 Build 0)  -->
<svg version="1.1" id="Layer_1" xmlns="http://www.w3.org/2000/svg" xmlns:xlink="http://www.w3.org/1999/xlink" x="0px" y="0px"
	 viewBox="0 0 87.6 87.5" style="enable-background:new 0 0 87.6 87.5;" xml:space="preserve">
<style type="text/css">
	.st0{fill:#FFFFFF;}
	.st1{fill:#DCC5A1;}
	.st2{fill:#EDD9B4;}
	.st3{opacity:0.7;fill:#BC9F82;}
	.st4{fill:#0F1005;}
	.st5{fill:#CCAD8B;}
	.st6{fill:#BC9F82;}
	.st7{fill:#D9BF9F;}
	.st8{fill:#CD6C13;}
</style>
<rect id="XMLID_22_" x="0" y="0" class="st0" width="87.6" height="87.5"/>
<g id="XMLID_10_">
	<g id="XMLID_94_">
		<g id="XMLID_96_">
			<path id="XMLID_98_" class="st1" d="M43.7,52.9v34.7H24.8c-0.3-0.1-0.5-0.2-0.5-0.2c0-18.6,11.6-20,11.6-20c0.9,0,1.5-0.8,2-2.2
				c0.2-0.5,0.3-1,0.4-1.6c0.1-0.3,0.1-0.7,0.2-1.1c0.1-0.6,0.2-1.3,0.3-2c0-0.4,0.1-0.8,0.1-1.3c0.2-2.1,0.2-4.4,0.2-6.6
				C39.1,52.6,41.6,52.9,43.7,52.9z"/>
			<path id="XMLID_97_" class="st2" d="M63.1,87.3c0,0-0.2,0.1-0.5,0.2h-19V52.9h0c2.1,0,4.6-0.2,4.6-0.2c0,2.2,0,4.5,0.2,6.6
				c0,0.4,0.1,0.8,0.1,1.3c0.1,0.7,0.2,1.4,0.3,2.1v0c0,0.3,0.1,0.6,0.1,0.8c0.2,1.2,0.5,2.1,0.9,2.8c0.4,0.8,0.9,1.2,1.5,1.2
				C51.5,67.3,63.1,68.7,63.1,87.3z"/>
		</g>
		<path id="XMLID_95_" class="st3" d="M48.9,62.5L48.9,62.5c-0.5,0.8-2.1,2.9-5.2,2.9c0,0,0,0,0,0c-3,0-4.8-2.2-5.2-2.8
			c0.1-0.6,0.2-1.3,0.3-2c0-0.4,0.1-0.8,0.1-1.3c1.5,0.4,3.1,0.6,4.8,0.6h0.1c1.8,0,3.4-0.3,4.9-0.7c0,0.4,0.1,0.8,0.1,1.3
			C48.8,61.2,48.8,61.9,48.9,62.5z"/>
	</g>
	<g id="XMLID_74_">
		<path id="XMLID_78_" class="st4" d="M63.1,87.3c0,0-0.2,0.1-0.5,0.2H24.8c-0.3-0.1-0.5-0.2-0.5-0.2c0-18.7,11.6-20.1,11.6-20.1
			c0.9,0,1.5-0.8,2-2.2l5.8,10.2L50,66c0.4,0.8,0.9,1.2,1.5,1.2C51.5,67.2,63.1,68.6,63.1,87.3z"/>
	</g>
	<g id="XMLID_11_">
		<g id="XMLID_28_">
			<g id="XMLID_70_">
				<g id="XMLID_72_">
					<path id="XMLID_73_" class="st5" d="M43.7,13.1c-20,0-20.2,16.7-19.3,27.7C23.1,38.2,19,39,19.4,43c0.3,3.9,6.1,6,6,5.5
						c1.6,9,11.1,14.2,18.4,14.2c0,0,0.1,0,0.2,0V13.1C43.8,13.1,43.8,13.1,43.7,13.1z"/>
				</g>
				<path id="XMLID_71_" class="st6" d="M20.6,41.3c1-1.6,2.5-0.9,2.9-0.5c0.4,0.4,0.7,0.9,0.5,1.8c-0.1,0.5-0.7,0.6-0.6,1.4
					c0.1,0.9,0.6,1,0.8,1.2c0.2,0.2,0.5,0.4,0.7,0.7c0.1,0.4,0.2,0.8,0.1,1.1c-0.2,0.6-1.1,0.1-1.7-0.2c-0.4-0.2-1.7-1.3-2.1-1.7
					C20.4,44.2,20,42.4,20.6,41.3z"/>
			</g>
			<g id="XMLID_63_">
				<g id="XMLID_68_">
					<path id="XMLID_69_" class="st7" d="M43.8,13.1c20,0,20.2,16.7,19.3,27.7c1.4-2.6,5.4-1.8,5.1,2.3c-0.3,3.9-6.1,6-6,5.5
						c-1.6,9-11.1,14.2-18.4,14.2c0,0-0.1,0-0.2,0V13.1C43.7,13.1,43.8,13.1,43.8,13.1z"/>
				</g>
				<path id="XMLID_64_" class="st6" d="M66.9,41.3c-1-1.6-2.5-0.9-2.9-0.5c-0.4,0.4-0.7,0.9-0.5,1.8c0.1,0.5,0.7,0.6,0.6,1.4
					c-0.1,0.9-0.6,1-0.8,1.2c-0.2,0.2-0.5,0.4-0.7,0.7c-0.1,0.4-0.2,0.8-0.1,1.1c0.2,0.6,1.1,0.1,1.7-0.2c0.4-0.2,1.7-1.3,2.1-1.7
					C67.2,44.2,67.6,42.4,66.9,41.3z"/>
			</g>
			<g id="XMLID_30_">
				<path id="XMLID_62_" class="st1" d="M43.6,17.8c-6.6,0-11.4,1.9-14.3,5.7c-4.1,5.3-3.9,13.3-2.4,19.1c0.5,1.8,0.7,6.5,1,8.3
					c1.4,7.8,10.1,12,15.7,12c0,0,0.1,0,0.2,0V17.8C43.7,17.8,43.6,17.8,43.6,17.8z"/>
				<path id="XMLID_61_" class="st2" d="M57.9,23.5c-2.9-3.7-7.7-5.6-14.2-5.7v44.9c6.5-0.1,14.3-4.6,15.6-11.9
					c0.3-1.7,0.5-6.5,1-8.3C61.8,36.8,62,28.8,57.9,23.5z"/>
			</g>
		</g>
		<path id="XMLID_12_" class="st8" d="M22.7,22.5c-0.6,4.6-0.8,8.5-0.8,8.5l-0.1,10.5c0,0,0.3-2.9,1.5-5.7c0.4-0.9,0.4-3.2,0.4-3.2
			s-0.9,2.4-0.7,8.8c0.1,3.8,3.2,7.1,3.2,7.1s-3-5.7-0.3-10.2c0.7-1.2,1.7-2,1.7-2l-0.2,5.4c0,0,2.8-4.8,3.5-10.1
			c0.5-3.6,0-4.7,0-4.7s-0.3,3.9,2.6,7.6c3.8,4.8,9.4,6.3,11.5,6.7c1.6,0.4,6.7,0.3,6.7,0.3s-2.7-0.2-5.9-2.7
			c-2-1.6-3.3-3.3-3.3-3.3s2.3,2.4,3.9,3.3c3.4,2,6.6,1.6,6.6,1.6s-3.2-1.6-4.4-2.9c-1.2-1.3-2.6-4-2.6-4s2.9,3.8,4.8,4.8
			c4.7,2.5,8.5,0.9,8.5,0.9s-3.5-0.2-4.9-3c-0.4-0.8-1.6-3.2-1.6-3.2s0.8,4,8,6c2.9,0.8,5.9,0,5.9,0s-3.4-0.4-5.2-2.7
			c-1.1-1.4-4.3-7.1-4.3-7.1s0.4,1.2,1.7,3.3c1.3,2.2,2.6,4.7,3.2,7.6c0.6,2.9-0.6,7.4-0.6,7.4s4.9-7.8,4.1-15.4
			c-0.1-1.4-0.3-7.1-1-10.2C61.1,5,40.3,8,40.3,8S24.7,8.1,22.7,22.5z"/>
	</g>
</g>
</svg>
