<?xml version="1.0" encoding="utf-8"?>
<!-- Generator: Adobe Illustrator 19.0.0, SVG Export Plug-In . SVG Version: 6.00 Build 0)  -->
<svg version="1.1" id="Layer_1" xmlns="http://www.w3.org/2000/svg" xmlns:xlink="http://www.w3.org/1999/xlink" x="0px" y="0px"
	 viewBox="0 0 87.6 87.5" style="enable-background:new 0 0 87.6 87.5;" xml:space="preserve">
<style type="text/css">
	.st0{fill:#FFFFFF;}
	.st1{fill:#74572D;}
	.st2{fill:#8C6739;}
	.st3{fill:#544122;}
	.st4{fill:#0F1005;}
	.st5{fill:#342916;}
</style>
<rect id="XMLID_22_" x="0" y="0" class="st0" width="87.6" height="87.5"/>
<g id="XMLID_2_">
	<g id="XMLID_14_">
		<g id="XMLID_18_">
			<path id="XMLID_21_" class="st1" d="M44,52.5v35H24.9c-0.3-0.1-0.5-0.2-0.5-0.2c0-18.8,11.7-20.2,11.7-20.2
				c1.2,0,1.9-1.5,2.4-3.8c0.1-0.3,0.1-0.7,0.2-1.1c0.1-0.6,0.2-1.3,0.3-2c0-0.4,0.1-0.8,0.1-1.3c0.2-2.1,0.2-4.5,0.2-6.7
				C39.4,52.3,41.9,52.5,44,52.5"/>
			<path id="XMLID_20_" class="st2" d="M63.6,87.3c0,0-0.2,0.1-0.5,0.2H44v-35h0c2.1,0,4.7-0.3,4.7-0.3c0,2.2,0.1,4.5,0.2,6.6
				c0,0.4,0.1,0.9,0.1,1.3c0.1,0.7,0.2,1.4,0.3,2.1v0c0,0.3,0.1,0.6,0.1,0.8c0.5,2.4,1.3,4,2.5,4C51.9,67.2,63.6,68.6,63.6,87.3"/>
			<path id="XMLID_19_" class="st3" d="M49.3,62.3L49.3,62.3c-0.5,0.8-2.1,2.9-5.3,2.9h0c-3,0-4.8-2.2-5.3-2.9
				c0.1-0.6,0.2-1.3,0.3-2c0-0.4,0.1-0.8,0.1-1.3c1.5,0.4,3.1,0.6,4.8,0.6H44c1.8,0,3.4-0.3,4.9-0.7c0,0.4,0.1,0.9,0.1,1.3
				C49.1,60.9,49.2,61.6,49.3,62.3"/>
		</g>
		<path id="XMLID_15_" class="st4" d="M63.7,87.3c0,0-0.2,0.1-0.5,0.2H24.9c-0.3-0.1-0.5-0.2-0.5-0.2c0-14.3,6.8-18.5,10-19.7
			c2.1,2.3,6.3,5.5,9.5,5.6H44h0h0c0,0,0,0,0.1,0c3.2-0.2,7.4-3.3,9.5-5.7C56.8,68.8,63.7,73,63.7,87.3"/>
	</g>
	<g id="XMLID_3_">
		<g id="XMLID_11_">
			<path id="XMLID_13_" class="st3" d="M43.7,12.4c-20.2,0-20.3,16.9-19.4,27.9c-1.4-2.6-5.5-1.8-5.2,2.3c0.3,4,6.1,6,6,5.6
				c1.7,9.1,11.2,14.3,18.5,14.3c0.1,0,0.1,0,0.2,0V12.4C43.8,12.4,43.8,12.4,43.7,12.4"/>
			<path id="XMLID_12_" class="st5" d="M20.4,40.9c1-1.6,2.5-0.9,2.9-0.6c0.4,0.4,0.7,0.9,0.5,1.8c-0.1,0.5-0.7,0.6-0.6,1.4
				c0.1,0.9,0.6,1,0.8,1.2c0.2,0.2,0.5,0.4,0.7,0.7c0.1,0.4,0.2,0.8,0.1,1.1c-0.1,0.7-1.1,0.1-1.7-0.1c-0.4-0.2-1.7-1.3-2.1-1.7
				C20.2,43.8,19.8,41.9,20.4,40.9"/>
		</g>
		<g id="XMLID_8_">
			<path id="XMLID_10_" class="st3" d="M43.8,12.4c20.2,0,20.3,16.9,19.4,27.9c1.4-2.6,5.5-1.8,5.2,2.3c-0.3,4-6.1,6-6,5.6
				c-1.7,9.1-11.2,14.3-18.5,14.3c0,0-0.1,0-0.2,0V12.4C43.7,12.4,43.8,12.4,43.8,12.4"/>
			<path id="XMLID_9_" class="st5" d="M67.1,40.9c-1-1.6-2.5-0.9-2.9-0.6c-0.4,0.4-0.7,0.9-0.5,1.8c0.1,0.5,0.7,0.6,0.6,1.4
				c-0.1,0.9-0.6,1-0.8,1.2c-0.2,0.2-0.5,0.4-0.7,0.7c-0.1,0.4-0.2,0.8-0.1,1.1c0.1,0.7,1.1,0.1,1.7-0.1c0.4-0.2,1.7-1.3,2.1-1.7
				C67.4,43.8,67.8,41.9,67.1,40.9"/>
		</g>
		<g id="XMLID_5_">
			<path id="XMLID_7_" class="st1" d="M43.9,17.2c-6.7,0-11.5,1.9-14.5,5.7c-4.1,5.3-4,13.4-2.4,19.2c0.5,1.8,0.7,6.6,1,8.3
				c1.4,7.9,10.2,12.1,15.9,12.1c0,0,0.1,0,0.1,0V17.2C44,17.2,43.9,17.2,43.9,17.2"/>
			<path id="XMLID_6_" class="st2" d="M58.3,22.9c-2.9-3.8-7.7-5.7-14.3-5.7v45.3c6.6-0.1,14.4-4.7,15.7-12.1c0.3-1.8,0.6-6.6,1-8.3
				C62.3,36.3,62.5,28.2,58.3,22.9"/>
		</g>
		<path id="XMLID_4_" class="st4" d="M63.4,40.1c-0.4,0.4-0.9,0.9-1.2,1.7c-0.6,1.7-0.9,1.4-0.9,1.4s1-6.6,1-8.4
			c0-1.8-5.8-8.1-9-9.2c-3.2-1.1-6.1,2.6-9.6,2.6h-0.3c-3.4-0.1-6.4-3.6-9.6-2.6c-3.2,1.1-9,7.3-9,9.2c0,1.8,1,8.4,1,8.4
			s-0.2,0.3-0.9-1.4c-0.4-1-1-1.5-1.4-1.9c-0.9-11.4-0.4-28.2,19.8-28.2h0.1C63.9,11.8,64.3,28.7,63.4,40.1"/>
	</g>
</g>
</svg>
