<?xml version="1.0" encoding="utf-8"?>
<!-- Generator: Adobe Illustrator 19.0.0, SVG Export Plug-In . SVG Version: 6.00 Build 0)  -->
<svg version="1.1" id="Layer_1" xmlns="http://www.w3.org/2000/svg" xmlns:xlink="http://www.w3.org/1999/xlink" x="0px" y="0px"
	 viewBox="0 0 87.6 87.5" style="enable-background:new 0 0 87.6 87.5;" xml:space="preserve">
<style type="text/css">
	.st0{fill:#FFFFFF;}
	.st1{fill:#DCC5A1;}
	.st2{fill:#EDD9B4;}
	.st3{opacity:0.7;fill:#BC9F82;}
	.st4{fill:#0F1005;}
	.st5{fill:#CCAD8B;}
	.st6{fill:#BC9F82;}
	.st7{fill:#D9BF9F;}
	.st8{fill:#B47070;}
	.st9{fill:#C17874;}
	.st10{fill:#442C38;}
</style>
<rect id="XMLID_22_" x="0" y="0" class="st0" width="87.6" height="87.5"/>
<g id="XMLID_30_">
	<g id="XMLID_90_">
		<g id="XMLID_99_">
			<g id="XMLID_101_">
				<path id="XMLID_103_" class="st1" d="M43.8,52.4v35H24.7c-0.3-0.1-0.5-0.2-0.5-0.2c0-8,2.1-12.9,4.6-15.8
					c3.3-3.9,7.1-4.4,7.1-4.4H36c0.1,0,0.2,0,0.3-0.1c1-0.3,1.6-1.7,2.1-3.7c0.1-0.3,0.1-0.7,0.2-1.1c0.1-0.6,0.2-1.3,0.3-2
					c0-0.4,0.1-0.9,0.1-1.3c0.2-2.1,0.2-4.5,0.2-6.7C39.1,52.2,41.7,52.4,43.8,52.4z"/>
				<path id="XMLID_102_" class="st2" d="M63.4,87.2c0,0-0.2,0.1-0.5,0.2H43.8v-35h0c2.1,0,4.7-0.3,4.7-0.3c0,2.2,0,4.5,0.2,6.6
					c0,0.4,0.1,0.9,0.1,1.3c0.1,0.7,0.2,1.4,0.3,2.1v0c0,0.3,0.1,0.6,0.2,0.8c0.4,2,1,3.4,1.8,3.9c0.1,0,0.1,0.1,0.2,0.1
					c0.1,0.1,0.3,0.1,0.4,0.1c0,0,4.2,0.5,7.6,4.9C61.5,75,63.4,79.7,63.4,87.2z"/>
			</g>
			<path id="XMLID_100_" class="st3" d="M49.1,62.2L49.1,62.2c-0.5,0.8-2.1,2.9-5.3,2.9c0,0,0,0,0,0c-3,0-4.8-2.2-5.3-2.9
				c0.1-0.6,0.2-1.3,0.3-2c0-0.4,0.1-0.9,0.1-1.3c1.5,0.4,3.1,0.6,4.8,0.6h0.1c1.8,0,3.4-0.3,4.9-0.7c0,0.4,0.1,0.9,0.1,1.3
				C48.9,60.8,49,61.5,49.1,62.2z"/>
		</g>
		<path id="XMLID_91_" class="st4" d="M63.3,87.2c0,0-0.2,0.1-0.5,0.2H24.6c-0.3-0.1-0.5-0.2-0.5-0.2c0-14.3,6.8-18.5,10-19.7
			c2.1,2.3,6.3,5.5,9.5,5.6h0.1h0h0c0,0,0,0,0.1,0c3.2-0.2,7.4-3.3,9.5-5.7C56.5,68.7,63.3,72.9,63.3,87.2"/>
	</g>
	<g id="XMLID_61_">
		<g id="XMLID_63_">
			<g id="XMLID_77_">
				<g id="XMLID_85_">
					<g id="XMLID_88_">
						<path id="XMLID_89_" class="st5" d="M43.7,14.8c-19.9,0-20,15.9-19.2,26.3c-1.4-2.4-5.4-1.5-5.1,2.4c0.3,3.7,6,5.4,6,5
							c1.6,8.5,11,13.2,18.3,13.9c0,0,0.1,0,0.2,0c0-15.9,0-31.7,0-47.6C43.8,14.8,43.8,14.8,43.7,14.8z"/>
					</g>
					<path id="XMLID_87_" class="st6" d="M20.7,41.8c1-1.5,2.5-0.9,2.9-0.5c0.4,0.4,0.7,0.8,0.5,1.7c-0.1,0.5-0.7,0.5-0.6,1.3
						c0.1,0.9,0.6,0.9,0.8,1.1c0.2,0.2,0.5,0.3,0.7,0.7c0.1,0.4,0.2,0.7,0.1,1.1c-0.2,0.6-1.1,0.1-1.7-0.1c-0.4-0.2-1.8-1.2-2.1-1.6
						C20.4,44.5,20,42.8,20.7,41.8z"/>
				</g>
				<g id="XMLID_81_">
					<g id="XMLID_83_">
						<path id="XMLID_84_" class="st7" d="M43.8,14.8c19.9,0,20,15.9,19.2,26.3c1.4-2.4,5.4-1.5,5.1,2.4c-0.3,3.7-6,5.4-5.9,5
							c-1.6,8.5-11,13.2-18.3,13.9c0,0-0.1,0-0.1,0c0-15.9,0-31.7,0-47.6C43.7,14.8,43.8,14.8,43.8,14.8z"/>
					</g>
					<path id="XMLID_82_" class="st6" d="M67.1,41.7c-1-1.5-2.5-0.9-2.9-0.5c-0.4,0.4-0.7,0.8-0.5,1.7c0.1,0.5,0.7,0.5,0.6,1.3
						c-0.1,0.9-0.6,0.9-0.8,1.1c-0.2,0.2-0.5,0.3-0.7,0.7c-0.1,0.4-0.2,0.7-0.1,1.1c0.2,0.6,1.1,0.1,1.7-0.1
						c0.4-0.2,1.8-1.2,2.1-1.6C67.4,44.4,67.8,42.7,67.1,41.7z"/>
				</g>
				<g id="XMLID_78_">
					<path id="XMLID_80_" class="st1" d="M43.6,19.3c-6.7,0-11.5,1.8-14.5,5.4c-4.1,5-4,12.7-2.4,18.3c0.5,1.7,0.7,6.2,1,7.9
						c1.4,7.5,10.2,11.5,15.9,11.5c0,0,0.1,0,0.2,0V19.3C43.7,19.3,43.7,19.3,43.6,19.3z"/>
					<path id="XMLID_79_" class="st2" d="M58.1,24.8c-2.9-3.6-7.7-5.4-14.3-5.4v43.1C50.3,62.4,58.2,58,59.5,51
						c0.3-1.7,0.6-6.2,1-7.9C62.1,37.5,62.2,29.9,58.1,24.8z"/>
				</g>
			</g>
			<g id="XMLID_74_">
				<path id="XMLID_76_" class="st8" d="M47.1,55.7c0,0-1.5,1.6-3.4,1.6c-1.9,0-3.3-1.6-3.3-1.6s1.4-0.2,3.3-0.2
					C45.6,55.5,47.1,55.7,47.1,55.7z"/>
				<path id="XMLID_75_" class="st9" d="M44.7,54.9c-0.5,0-0.9,0.3-1,0.7c0-0.4-0.4-0.7-0.9-0.7c-0.5,0-2.4,0.7-2.4,0.7
					s1.8,0.2,2.4,0.2c0.5,0,1,0.2,1-0.2c0,0.4,0.4,0.2,0.9,0.2c0.5,0,2.4-0.2,2.4-0.2S45.3,54.9,44.7,54.9z"/>
			</g>
			<path id="XMLID_64_" class="st10" d="M61.9,37.6c-2.2-0.6-7.3,0.3-9.4,0.8c-2.1,0.5-6.8,2.2-7.7,2.6c-0.4,0.1-0.6,0.2-0.8,0.2
				c-0.2,0-0.5-0.1-0.9-0.2c-0.9-0.3-5.5-2.1-7.7-2.5c-2.1-0.5-7.2-1.4-9.4-0.8c-0.6,0.2-0.8,0.7-0.8,0.7c0.1,0.6,1.7,9.5,10.5,9.5
				c2.4,0,3.8-0.8,4.8-1.5c1-0.7,2.1-2.5,2.4-2.9c0.3-0.4,0.6-0.8,1.1-0.7c0,0,0,0,0,0c0,0,0,0,0,0c0.5,0,0.8,0.3,1.1,0.7
				c0.3,0.4,1.4,2.2,2.4,2.9c1,0.7,2.5,1.5,4.8,1.5c8.8,0,10.4-8.9,10.5-9.5C62.7,38.3,62.5,37.8,61.9,37.6z M41.3,43.7
				c-0.7,2.1-3.5,3.4-5.8,3.3c-4.3-0.2-8.2-3.6-7.5-6.6c0.5-1.9,3.2-2.2,6.9-1.4C41.2,40.5,42.1,41.5,41.3,43.7z M52.3,47
				c-2.3,0.1-5.1-1.2-5.8-3.3c-0.8-2.2,0.1-3.2,6.5-4.7c3.7-0.8,6.4-0.5,6.9,1.4C60.5,43.4,56.6,46.9,52.3,47z"/>
		</g>
		<path id="XMLID_62_" class="st4" d="M64.8,26.1c-0.2-0.7-0.5-1.3-0.8-1.9c0-0.1,0-0.2,0-0.3c0-0.9-0.4-1.6-1.1-2.3
			c0.5-0.6,0.4-1.4-0.2-1.9c0.3,0,0.5-0.2,0.8-0.4c0.5-0.5,0.5-1.3,0-1.7l-0.5-0.4c0.2-0.1,0.3-0.2,0.4-0.3c0.5-0.5,0.6-1.2,0.2-1.5
			l-0.2-0.2c0.1-0.1,0.3-0.1,0.4-0.3c0.4-0.4,0.4-0.8,0.2-1.1L60.9,11c-0.3-0.2-0.8-0.1-1.2,0.2c-0.1,0.1-0.2,0.2-0.3,0.4l-0.2-0.1
			c-0.4-0.3-1.1-0.2-1.6,0.3c-0.1,0.1-0.2,0.3-0.3,0.4L57.2,12c-0.5-0.5-1.4-0.4-1.9,0c-0.2,0.2-0.3,0.5-0.4,0.7
			c-0.7-0.5-1.6-0.4-2.2,0.1c-0.1,0.1-0.3,0.3-0.3,0.5c-1.2-0.7-2.3-1-3.8-1c0,0,0,0,0,0.1c-1.4-0.3-8.8-1.7-13.2-0.1
			c-4.9,1.7-8.9,4.6-11.7,12.3c-2,5.5-1.4,10.3-0.7,13.6c0.1,0.5,0.2,1,0.3,1.5c0.2,0.7,0.3,1.3,0.4,1.8c0,0.1,0.1,0.3,0.1,0.4
			c0.1,0.5,0.3,1.1,0.5,1.6c2.8,7.9,12.1,15.1,12.1,15.1s-4.8-5.4-5.7-7.6c0,0,0-0.1-0.1-0.1c-0.7-1.8-1.8-4.8-1.8-9.2
			c0-1,0.2-1.9,0.4-2.6c0.6-1.9,1.8-2.7,2.2-3c-0.1,0.3-0.3,1.1-0.5,2.9c-0.4,3.8,1.9,6.8,1.9,6.8s-2.9-5,1.7-8.7
			c1.5-1.2,2.7-2.4,3.7-3.5c0,0,0,0,0,0c-1.2,2.9,1.5,9.8,1.5,9.8s-0.4-8.2,2.1-9.4c1.1-0.6,2-1.1,2.8-1.5c0.1,0,0.1-0.1,0.2-0.1
			c0.1,0,0.1-0.1,0.2-0.1c3.1-1.9,3.9-3.2,4.5-5.1c0.1-0.3,0.2-0.7,0.2-1l5.4,7.3c0.3,0.3,0.7,0.9,1.1,1.5c1.4,2,3.3,5.3,3.3,8.2
			c0,0.8,0,1.6-0.1,2.2c-0.2,2.8-0.7,3.9-0.7,3.9s0.6,0,1.6-0.7c0.9-0.6,2-1.8,3.4-3.9c0.3-0.5,0.6-1,0.9-1.6c0,0,0,0,0-0.1
			c0.4-0.8,0.9-2,1.2-3.5c0.1-0.4,0.2-0.8,0.2-1.3C66.6,34.9,66.5,30.7,64.8,26.1z"/>
	</g>
</g>
</svg>
