<?xml version="1.0" encoding="utf-8"?>
<!-- Generator: Adobe Illustrator 19.0.0, SVG Export Plug-In . SVG Version: 6.00 Build 0)  -->
<svg version="1.1" id="Layer_1" xmlns="http://www.w3.org/2000/svg" xmlns:xlink="http://www.w3.org/1999/xlink" x="0px" y="0px"
	 viewBox="0 0 682.8 726.5" style="enable-background:new 0 0 682.8 726.5;" xml:space="preserve">
<style type="text/css">
	.st0{fill:#7F1A0D;}
	.st1{opacity:0.5;fill:#1D1D1B;}
	.st2{fill:#E04327;}
	.st3{fill:#FDE0BB;}
	.st4{fill:#E8BF92;}
	.st5{fill:#4C3118;}
	.st6{fill:#27B6C4;}
	.st7{opacity:0.5;fill:#A2E3E0;}
	.st8{fill:#DA9F0B;}
	.st9{fill:#FFD773;}
	.st10{fill:#FAC11E;}
	.st11{fill:#1C0F08;}
	.st12{fill:#432918;}
	.st13{fill:#C99D67;}
	.st14{fill:#683C11;}
	.st15{fill:#7D4E24;}
	.st16{opacity:0.5;fill:#ABC9CB;}
	.st17{fill:#BD1622;}
	.st18{fill:#2D2E82;}
	.st19{fill:#F5F5F5;}
	.st20{fill:#157559;}
	.st21{fill:#0C4C3B;}
	.st22{opacity:0.4;fill:#F5F5F5;}
	.st23{fill:#3F0B07;}
	.st24{fill:#926037;}
	.st25{fill:#EFC597;}
</style>
<g id="Bakery">
	<g id="Shop_3_">
		<path id="XMLID_118_" class="st0" d="M650.1,266.3c0-10.4-6.7-18.9-15.1-18.9H39.2c-8.3,0-15.1,8.5-15.1,18.9v111.3
			c0,10.4,6.7,18.9,15.1,18.9H635c8.3,0,15.1-8.5,15.1-18.9V266.3z"/>
		<polygon id="XMLID_117_" class="st1" points="682.8,695.5 335.3,695.1 335.3,726.5 638.3,726.5 		"/>
		<path id="XMLID_116_" class="st2" d="M650.1,713.1c0,7.4-6,13.5-13.5,13.5h-599c-7.4,0-13.4-6-13.4-13.5V367.7
			c0-7.4,6-13.5,13.4-13.5h599c7.4,0,13.5,6,13.5,13.5V713.1z"/>
		<g id="XMLID_103_">
			<path id="XMLID_115_" class="st3" d="M259.7,402.5H90.4c-7.4,0-13.5,6.1-13.5,13.7v296.6c0,7.6,6,13.7,13.5,13.7h169.3
				c7.4,0,13.5-6.1,13.5-13.7V416.2C273.2,408.6,267.2,402.5,259.7,402.5z"/>
			<path id="XMLID_114_" class="st4" d="M90.4,402.5c-7.4,0-13.5,6.1-13.5,13.7v296.6c0,7.6,6,13.7,13.5,13.7h13.1l115.9-324H90.4z"
				/>
			<path id="XMLID_111_" class="st5" d="M240.4,707.8H111.7c-10.3,0-18.7-8.4-18.7-18.7v-66.4c0-10.3,8.4-18.7,18.7-18.7h128.7
				c10.3,0,18.7,8.4,18.7,18.7v66.4C259.1,699.4,250.7,707.8,240.4,707.8z M111.7,616.4c-3.4,0-6.2,2.8-6.2,6.2v66.4
				c0,3.4,2.8,6.2,6.2,6.2h128.7c3.4,0,6.2-2.8,6.2-6.2v-66.4c0-3.4-2.8-6.2-6.2-6.2H111.7z"/>
			<path id="XMLID_110_" class="st6" d="M245.8,420.3H233h-31.2h-40.9h-55.1c-7.2,0-12.9,5.8-12.9,12.9v64.5v46.5V579
				c0,7.2,5.8,12.9,12.9,12.9h140c7.2,0,12.9-5.8,12.9-12.9V456.9v-23.7C258.7,426.1,252.9,420.3,245.8,420.3z"/>
			<polygon id="XMLID_109_" class="st7" points="160.9,420.3 92.8,497.8 92.8,544.3 201.7,420.3 			"/>
			<path id="XMLID_108_" class="st7" d="M245.8,420.3H233l-87.5,99.6c-7.7,8.7-6.8,22,1.9,29.7l1,0.9c8.7,7.7,22,6.8,29.7-1.9
				l80.5-91.7v-23.7C258.7,426.1,252.9,420.3,245.8,420.3z"/>
			<path id="XMLID_107_" class="st8" d="M261.5,593c0,2.5-2.2,4.5-5,4.5l0,0c-2.8,0-5-2-5-4.5v-6.7c0-2.5,2.2-4.5,5-4.5l0,0
				c2.8,0,5,2,5,4.5V593z"/>
			<path id="XMLID_106_" class="st8" d="M192,593c0,2.5-2.2,4.5-5,4.5l0,0c-2.7,0-5-2-5-4.5v-6.7c0-2.5,2.2-4.5,5-4.5l0,0
				c2.8,0,5,2,5,4.5V593z"/>
			<path id="XMLID_105_" class="st9" d="M249.1,581.8h-25.2h-30.3c-4.3,0-7.8,3.5-7.8,7.8c0,4.3,3.5,7.8,7.8,7.8H215h34.1
				c4.3,0,7.8-3.5,7.8-7.8C257,585.3,253.5,581.8,249.1,581.8z"/>
			<path id="XMLID_104_" class="st10" d="M257,589.6c0-4.3-3.5-7.8-7.8-7.8h-25.2l-8.9,15.7h34.1C253.5,597.5,257,593.9,257,589.6z"
				/>
		</g>
		<g id="XMLID_55_">
			<path id="XMLID_102_" class="st6" d="M608,463.2h-9.8h-51h-52.3h-85.2h-87.6c-7.4,0-13.4,6-13.4,13.5v97.9v70.3
				c0,6.1,4.1,11.3,9.7,12.9c1.2,0.3,2.4,0.5,3.7,0.5H608c7.4,0,13.5-6,13.5-13.5V476.6C621.4,469.2,615.4,463.2,608,463.2z"/>
			<path id="XMLID_101_" class="st11" d="M566.4,638.5c0,1.2-1,2.2-2.2,2.2H380.3c-1.2,0-2.2-1-2.2-2.2l0,0c0-1.2,1-2.2,2.2-2.2
				h183.9C565.4,636.3,566.4,637.3,566.4,638.5L566.4,638.5z"/>
			<path id="XMLID_100_" class="st11" d="M566.4,604.9c0,1.2-1,2.2-2.2,2.2H380.3c-1.2,0-2.2-1-2.2-2.2l0,0c0-1.2,1-2.2,2.2-2.2
				h183.9C565.4,602.6,566.4,603.6,566.4,604.9L566.4,604.9z"/>
			<g id="XMLID_61_">
				<g id="XMLID_95_">
					<path id="XMLID_99_" class="st12" d="M451.9,587.5c-1.1-0.1-2.2-0.3-3.4-0.4c-1.9-0.2-3.9-0.3-6-0.3c-0.4,0-0.8,0-1.2,0
						c-0.8,0-1.5,0-2.3,0c-2.2,0.1-4.2,0.2-6.1,0.5c-1.2,0.2-2.4,0.3-3.4,0.6c-15.5,3.1-18,12-18,12c0,1.6,1.3,2.8,2.8,2.8h56.6
						c1.6,0,2.8-1.3,2.8-2.8C473.7,599.8,471.6,590.1,451.9,587.5z"/>
					<path id="XMLID_98_" class="st13" d="M431.2,594.7c0.9,0,1.7-0.8,1.7-1.7v-5.7c-1.2,0.2-2.4,0.3-3.4,0.6v5.1
						C429.5,593.9,430.2,594.7,431.2,594.7z"/>
					<path id="XMLID_97_" class="st13" d="M440.7,596.4c1,0,1.7-0.9,1.7-2.1v-7.6c-0.4,0-0.8,0-1.2,0c-0.8,0-1.5,0-2.3,0v7.6
						C439,595.5,439.8,596.4,440.7,596.4z"/>
					<path id="XMLID_96_" class="st13" d="M450.2,594.7c1,0,1.7-0.8,1.7-1.7v-5.5c-1.1-0.1-2.2-0.3-3.4-0.4v5.9
						C448.5,593.9,449.3,594.7,450.2,594.7z"/>
				</g>
				<g id="XMLID_91_">
					<path id="XMLID_94_" class="st14" d="M523,570.2c-0.1,0-0.1,0-0.2,0h-0.1c-0.4,0-0.7-0.1-1.1-0.1c-0.4,0-0.8,0-1.2,0.1h-19.9
						c-0.5,0-0.9,0.6-0.9,1.4v29.7c0,0.7,0.4,1.4,0.9,1.4h14.7h6h4.8c0.5,0,0.9-0.6,0.9-1.4v-15c0.5,0,3.4,0,3.4-2.7v-6.3
						C530.2,576.6,529.1,571,523,570.2z"/>
					<path id="XMLID_93_" class="st15" d="M499.5,570.2c-12.3,0-14.1,6.4-14.1,7.2v6.3c0,2.7,2.1,2.7,2.8,2.7v14.9
						c0,0.7,0.6,1.4,1.4,1.4h19.3c0.7,0,1.4-0.6,1.4-1.4v-14.9c0.7,0,2.8,0,2.8-2.7v-6.3C513,576.6,511,570.2,499.5,570.2z"/>
					<path id="XMLID_92_" class="st13" d="M499.8,572.7c-10.2,0-11.7,5.3-11.7,6v4c0,2.2,1.7,2.2,2.3,2.2l0,14.7
						c0,0.6,0.5,1.1,1.1,1.1H507c0.6,0,1.1-0.5,1.1-1.1l0-14.7c0.6,0,2.3,0,2.3-2.2v-4C510.4,578,509.2,572.7,499.8,572.7z"/>
				</g>
				<g id="XMLID_86_">
					<path id="XMLID_90_" class="st14" d="M420.8,587.5c-1.1-0.1-2.2-0.3-3.4-0.4c-1.9-0.2-3.9-0.3-6-0.3c-0.4,0-0.8,0-1.2,0
						c-0.8,0-1.5,0-2.3,0c-2.2,0.1-4.2,0.2-6.1,0.5c-1.2,0.2-2.4,0.3-3.4,0.6c-15.5,3.1-18,12-18,12c0,1.6,1.3,2.8,2.8,2.8h56.6
						c1.6,0,2.8-1.3,2.8-2.8C442.5,599.8,440.5,590.1,420.8,587.5z"/>
					<path id="XMLID_89_" class="st13" d="M400,594.7c1,0,1.7-0.8,1.7-1.7v-5.7c-1.2,0.2-2.4,0.3-3.4,0.6v5.1
						C398.3,593.9,399.1,594.7,400,594.7z"/>
					<path id="XMLID_88_" class="st13" d="M409.6,596.4c0.9,0,1.7-0.9,1.7-2.1v-7.6c-0.4,0-0.8,0-1.2,0c-0.8,0-1.5,0-2.3,0v7.6
						C407.9,595.5,408.6,596.4,409.6,596.4z"/>
					<path id="XMLID_87_" class="st13" d="M419.1,594.7c0.9,0,1.7-0.8,1.7-1.7v-5.5c-1.1-0.1-2.2-0.3-3.4-0.4v5.9
						C417.4,593.9,418.1,594.7,419.1,594.7z"/>
				</g>
				<g id="XMLID_81_">
					<path id="XMLID_85_" class="st12" d="M451.3,621.1c-1.1-0.1-2.2-0.3-3.4-0.4c-1.9-0.2-3.9-0.3-6-0.3c-0.4,0-0.8,0-1.2,0
						c-0.8,0-1.5,0-2.3,0c-2.2,0.1-4.2,0.2-6.1,0.5c-1.2,0.2-2.4,0.3-3.4,0.6c-15.5,3.1-18,12-18,12c0,1.6,1.3,2.8,2.8,2.8h56.6
						c1.6,0,2.8-1.3,2.8-2.8C473.1,633.5,471,623.7,451.3,621.1z"/>
					<path id="XMLID_84_" class="st13" d="M430.6,628.4c1,0,1.7-0.8,1.7-1.7v-5.7c-1.2,0.2-2.4,0.3-3.4,0.6v5.1
						C428.8,627.6,429.6,628.4,430.6,628.4z"/>
					<path id="XMLID_83_" class="st13" d="M440.1,630.1c0.9,0,1.7-0.9,1.7-2v-7.6c-0.4,0-0.8,0-1.2,0c-0.8,0-1.5,0-2.3,0v7.6
						C438.4,629.2,439.2,630.1,440.1,630.1z"/>
					<path id="XMLID_82_" class="st13" d="M449.6,628.4c0.9,0,1.7-0.8,1.7-1.7v-5.5c-1.1-0.1-2.2-0.3-3.4-0.4v5.9
						C447.9,627.6,448.6,628.4,449.6,628.4z"/>
				</g>
				<g id="XMLID_76_">
					<path id="XMLID_80_" class="st14" d="M420.2,621.1c-1.1-0.1-2.2-0.3-3.4-0.4c-1.9-0.2-3.9-0.3-6-0.3c-0.4,0-0.8,0-1.2,0
						c-0.8,0-1.5,0-2.3,0c-2.2,0.1-4.2,0.2-6.1,0.5c-1.2,0.2-2.4,0.3-3.4,0.6c-15.5,3.1-18,12-18,12c0,1.6,1.3,2.8,2.8,2.8h56.6
						c1.6,0,2.8-1.3,2.8-2.8C441.9,633.5,439.9,623.7,420.2,621.1z"/>
					<path id="XMLID_79_" class="st13" d="M399.4,628.4c0.9,0,1.7-0.8,1.7-1.7v-5.7c-1.2,0.2-2.4,0.3-3.4,0.6v5.1
						C397.7,627.6,398.5,628.4,399.4,628.4z"/>
					<path id="XMLID_78_" class="st13" d="M409,630.1c0.9,0,1.7-0.9,1.7-2v-7.6c-0.4,0-0.8,0-1.2,0c-0.8,0-1.5,0-2.3,0v7.6
						C407.3,629.2,408,630.1,409,630.1z"/>
					<path id="XMLID_77_" class="st13" d="M418.5,628.4c1,0,1.7-0.8,1.7-1.7v-5.5c-1.1-0.1-2.2-0.3-3.4-0.4v5.9
						C416.7,627.6,417.5,628.4,418.5,628.4z"/>
				</g>
				<g id="XMLID_72_">
					<path id="XMLID_75_" class="st14" d="M551.6,570.2c-0.1,0-0.1,0-0.2,0h-0.1c-0.4,0-0.7-0.1-1.1-0.1c-0.4,0-0.8,0-1.2,0.1h-19.9
						c-0.5,0-0.9,0.6-0.9,1.4v29.7c0,0.7,0.4,1.4,0.9,1.4h14.7h6h4.8c0.5,0,0.9-0.6,0.9-1.4v-15c0.5,0,3.4,0,3.4-2.7v-6.3
						C558.9,576.6,557.7,571,551.6,570.2z"/>
					<path id="XMLID_74_" class="st15" d="M528.2,570.2c-12.3,0-14.1,6.4-14.1,7.2v6.3c0,2.7,2.1,2.7,2.8,2.7v14.9
						c0,0.7,0.6,1.4,1.4,1.4h19.3c0.8,0,1.4-0.6,1.4-1.4v-14.9c0.7,0,2.8,0,2.8-2.7v-6.3C541.7,576.6,539.6,570.2,528.2,570.2z"/>
					<path id="XMLID_73_" class="st13" d="M528.5,572.7c-10.2,0-11.7,5.3-11.7,6v4c0,2.2,1.7,2.2,2.3,2.2l0,14.7
						c0,0.6,0.5,1.1,1.1,1.1h15.5c0.6,0,1.1-0.5,1.1-1.1l0-14.7c0.6,0,2.3,0,2.3-2.2v-4C539.1,578,537.9,572.7,528.5,572.7z"/>
				</g>
				<g id="XMLID_67_">
					<path id="XMLID_71_" class="st12" d="M534,621.1c-1.1-0.1-2.2-0.3-3.4-0.4c-1.9-0.2-3.9-0.3-6-0.3c-0.4,0-0.8,0-1.2,0
						c-0.8,0-1.5,0-2.3,0c-2.2,0.1-4.2,0.2-6.1,0.5c-1.2,0.2-2.4,0.3-3.4,0.6c-15.5,3.1-18,12-18,12c0,1.6,1.3,2.8,2.8,2.8h56.6
						c1.6,0,2.8-1.3,2.8-2.8C555.7,633.5,553.7,623.7,534,621.1z"/>
					<path id="XMLID_70_" class="st13" d="M513.3,628.4c0.9,0,1.7-0.8,1.7-1.7v-5.7c-1.2,0.2-2.4,0.3-3.4,0.6v5.1
						C511.5,627.6,512.3,628.4,513.3,628.4z"/>
					<path id="XMLID_69_" class="st13" d="M522.8,630.1c1,0,1.7-0.9,1.7-2v-7.6c-0.4,0-0.8,0-1.2,0c-0.8,0-1.5,0-2.3,0v7.6
						C521.1,629.2,521.9,630.1,522.8,630.1z"/>
					<path id="XMLID_68_" class="st13" d="M532.3,628.4c0.9,0,1.7-0.8,1.7-1.7v-5.5c-1.1-0.1-2.2-0.3-3.4-0.4v5.9
						C530.6,627.6,531.3,628.4,532.3,628.4z"/>
				</g>
				<g id="XMLID_62_">
					<path id="XMLID_66_" class="st14" d="M502.9,621.1c-1.1-0.1-2.2-0.3-3.4-0.4c-1.9-0.2-3.9-0.3-6-0.3c-0.4,0-0.8,0-1.2,0
						c-0.8,0-1.5,0-2.3,0c-2.2,0.1-4.2,0.2-6.1,0.5c-1.2,0.2-2.4,0.3-3.5,0.6c-15.5,3.1-18,12-18,12c0,1.6,1.3,2.8,2.8,2.8h56.6
						c1.6,0,2.8-1.3,2.8-2.8C524.6,633.5,522.6,623.7,502.9,621.1z"/>
					<path id="XMLID_65_" class="st13" d="M482.1,628.4c1,0,1.7-0.8,1.7-1.7v-5.7c-1.2,0.2-2.4,0.3-3.5,0.6v5.1
						C480.4,627.6,481.2,628.4,482.1,628.4z"/>
					<path id="XMLID_64_" class="st13" d="M491.7,630.1c0.9,0,1.7-0.9,1.7-2v-7.6c-0.4,0-0.8,0-1.2,0c-0.8,0-1.5,0-2.3,0v7.6
						C490,629.2,490.7,630.1,491.7,630.1z"/>
					<path id="XMLID_63_" class="st13" d="M501.2,628.4c0.9,0,1.7-0.8,1.7-1.7v-5.5c-1.1-0.1-2.2-0.3-3.4-0.4v5.9
						C499.4,627.6,500.2,628.4,501.2,628.4z"/>
				</g>
			</g>
			<path id="XMLID_60_" class="st16" d="M577,636.3c0,7.4-6,13.5-13.5,13.5H384.8c-7.4,0-13.5-6-13.5-13.5V578
				c0-7.4,6-13.5,13.5-13.5h178.7c7.4,0,13.5,6,13.5,13.5V636.3z"/>
			<path id="XMLID_59_" class="st7" d="M409.7,463.2L308.6,574.5v70.3c0,6.1,4.1,11.3,9.7,12.9l176.6-194.5H409.7z"/>
			<path id="XMLID_58_" class="st7" d="M417.6,605.9c-7,7.7-6.4,19.7,1.3,26.7c7.7,7,19.7,6.4,26.7-1.3l152.6-168.2h-51L417.6,605.9
				z"/>
			<path id="XMLID_57_" class="st5" d="M626.5,644.5c0,2.6-2.1,4.8-4.8,4.8H308.3c-2.6,0-4.8-2.1-4.8-4.8l0,0c0-2.6,2.1-4.8,4.8-4.8
				h313.4C624.3,639.7,626.5,641.9,626.5,644.5L626.5,644.5z"/>
			<path id="XMLID_56_" class="st3" d="M633.5,655.2c0,5.2-4.2,9.3-9.3,9.3H303.5c-5.2,0-9.4-4.2-9.4-9.3l0,0c0-5.2,4.2-9.3,9.4-9.3
				h320.7C629.3,645.8,633.5,650,633.5,655.2L633.5,655.2z"/>
		</g>
		<rect id="XMLID_54_" x="230.9" y="533.5" class="st17" width="20.6" height="12.5"/>
		<rect id="XMLID_53_" x="219.5" y="550.3" class="st18" width="32.1" height="19.5"/>
		<rect id="XMLID_52_" x="242.4" y="552.7" class="st19" width="7.2" height="4.4"/>
		<g id="XMLID_49_">
			<path id="XMLID_51_" class="st20" d="M669.6,424.6l-665-1.2L23,355.5c3.1-8.8,6.7-14.5,15.1-14.5h595.8c8.3,0,12.5,6.4,15.1,14.5
				L669.6,424.6z"/>
			<path id="XMLID_50_" class="st21" d="M4.6,423.4v34.5c0,23,18.7,41.7,41.7,41.7c21.6,0,39.4-16.4,41.5-37.4
				c2.1,21,19.9,37.4,41.5,37.4c23.1,0,41.7-18.7,41.7-41.7h0.9c0,23,18.7,41.7,41.7,41.7c21.6,0,39.4-16.4,41.5-37.4
				c2.1,21,19.9,37.4,41.5,37.4c21.6,0,39.4-16.4,41.5-37.5c2.1,21,19.9,37.5,41.5,37.5c21.6,0,39.4-16.4,41.5-37.5
				c2.1,21,19.9,37.5,41.5,37.5c20.2,0,37-14.3,40.9-33.2c3.9,19,20.7,33.2,40.9,33.2c21.6,0,39.4-16.4,41.5-37.4
				c2.1,21,19.9,37.4,41.5,37.4c23.1,0,41.7-18.7,41.7-41.7h0.1v-34.5H4.6z"/>
		</g>
		<g id="XMLID_22_">
			<path id="XMLID_48_" class="st10" d="M490.4,316.8H452h-28.8h-22h-95.9H190.8c-8.3,0-15.1,6.7-15.1,15.1v73.4
				c0,8.3,6.7,15.1,15.1,15.1h25.3H312h178.4c8.3,0,15.1-6.7,15.1-15.1v-73.4C505.5,323.5,498.7,316.8,490.4,316.8z"/>
			<g id="XMLID_31_">
				<path id="XMLID_44_" class="st19" d="M244.5,365.1c5,1.7,8.4,3.9,10.2,6.4c1.9,2.6,2.8,6.1,2.8,10.6c0,6.9-1.7,12-5.2,15.3
					c-3.4,3.4-8.8,5-16,5h-19.9c-0.8,0-1.2-0.4-1.2-1.3v-2.4c0-0.7,0.4-1.2,1.1-1.5c1.5-0.7,2.3-1.8,2.3-3.2v-49
					c0-0.7-0.1-1.1-0.3-1.4c-0.2-0.2-0.9-0.6-1.9-1.1c-0.5-0.2-0.9-0.5-1-0.8c-0.1-0.3-0.1-1-0.1-2.2c0-1,0.1-1.7,0.4-2.1
					c0.3-0.3,0.8-0.5,1.5-0.5h22.3c5.4,0,9.5,1.4,12.4,4.1c2.9,2.7,4.3,6.2,4.3,10.4c0,3.5-1.1,6.5-3.4,8.9
					C250.6,362.7,247.8,364.3,244.5,365.1z M233.9,341.5v21.3h2.2c1.3,0,2.4-0.4,3.2-1.2c0.8-0.8,1.2-2.1,1.3-3.9
					c0.1-1.8,0.2-4.1,0.2-6.9c0-3.9-0.4-6.4-1.1-7.6c-0.7-1.2-1.9-1.7-3.6-1.7H233.9z M233.9,367.5v30.3c2.5,0,4.2-0.3,5-1
					c0.9-0.7,1.4-2,1.5-4c0.1-2,0.2-5.4,0.2-10.2c0-1,0-3.2-0.1-6.6c-0.1-3.5-0.2-5.5-0.5-6.2c-0.2-0.7-0.7-1.3-1.3-1.7
					c-0.6-0.4-1.5-0.6-2.7-0.6H233.9z"/>
				<path id="XMLID_41_" class="st19" d="M280.2,388.5h-10.1l-0.5,3.7c0,0.1,0,0.2-0.1,0.4c-0.2,0.8-0.3,1.5-0.3,2.1
					c0,1,0.6,1.8,1.9,2.5c0.7,0.3,1.1,0.7,1.2,1.1c0.2,0.4,0.2,1,0.2,1.9c0,1.1-0.1,1.8-0.2,2c-0.1,0.2-0.4,0.3-0.9,0.3h-10.7
					c-0.6,0-0.9-0.6-0.9-1.9c0-1.5,0.5-2.7,1.4-3.6c0.9-0.8,1.4-1.7,1.5-2.7l7.5-47.8c0.1-0.7,0.2-1.4,0.2-1.9
					c0-0.8-0.6-1.6-1.7-2.2c-0.5-0.3-0.8-1-0.8-2.2c0-1.5,0.1-2.4,0.2-2.8c0.2-0.3,0.6-0.5,1.3-0.5h15.5c0.9,0,1.6,0.4,2,1.3
					c0.4,0.9,0.8,2.8,1.1,5.8c0.2,1.2,0.3,2.3,0.5,3.5l6.7,44.6c0.3,2.2,1.1,3.8,2.4,5c0.4,0.3,0.6,0.5,0.7,0.7
					c0.1,0.2,0.2,0.7,0.2,1.6c0,1.4-0.1,2.2-0.3,2.5c-0.2,0.3-0.6,0.5-1.2,0.5h-18c-0.5,0-0.8-0.5-0.8-1.5c0-1.3,0.1-2.1,0.2-2.4
					c0.1-0.3,0.5-0.7,1.2-1.1c0.9-0.6,1.4-1.4,1.4-2.3C281.1,394.2,280.8,392,280.2,388.5z M275.4,352.1l-4.6,31.7h9L275.4,352.1z"
					/>
				<path id="XMLID_39_" class="st19" d="M329.6,355.4l10.5,38.8c0.4,1.3,1,2.2,2,2.7c0.6,0.3,1,1.1,1,2.2c0,0.1,0,1-0.1,2.4
					c-0.1,0.6-0.6,1-1.7,1h-16.2c-0.6,0-1-0.1-1.2-0.3c-0.2-0.2-0.3-0.8-0.3-1.8c0-0.2,0-0.9,0.1-2.1c0.1-0.5,0.4-0.8,1-1.1
					c0.9-0.3,1.3-0.8,1.3-1.5c0-0.2,0-0.4-0.1-0.7l-5.7-20.5l-1.4,3.1v16.6c0,1.4,0.6,2.4,1.8,3.2c0.5,0.3,0.8,1,0.8,2
					c0,1.2-0.1,2.1-0.3,2.5c-0.2,0.4-0.7,0.6-1.6,0.6h-17c-0.6,0-1.1-0.1-1.3-0.4c-0.2-0.3-0.4-1-0.4-2.2c0-1.2,0.1-2,0.3-2.3
					c0.2-0.3,0.6-0.6,1.1-0.8c1-0.4,1.5-1.1,1.5-2.2v-48.7c0-1.2-0.5-2.1-1.5-2.7c-0.6-0.4-1-0.7-1.2-1c-0.1-0.3-0.2-0.8-0.2-1.6
					c0-1.8,0.1-2.9,0.2-3.2c0.1-0.3,0.5-0.4,1.2-0.4h18.5c0.9,0,1.3,0.3,1.3,1.1c0,2.2,0,3.5-0.1,3.8c-0.1,0.3-0.5,0.7-1.2,1.1
					c-1.3,0.7-1.9,1.5-1.9,2.6v20.8l8.8-20.1c0.5-1.1,0.7-1.9,0.7-2.5c0-0.3-0.3-0.8-1-1.2c-0.7-0.5-1.1-0.9-1.3-1.3
					c-0.2-0.4-0.2-1.2-0.2-2.7c0-1.1,0.4-1.6,1.2-1.6h10.8c0.6,0,1,0.1,1.1,0.4c0.1,0.2,0.2,0.9,0.2,2.1c0,1.2-0.1,2-0.3,2.3
					c-0.2,0.3-0.7,0.6-1.6,1c-0.7,0.3-1.2,0.5-1.3,0.6c-0.2,0.2-0.4,0.5-0.7,1.1L329.6,355.4z"/>
				<path id="XMLID_37_" class="st19" d="M363.5,341.9v23.2h2.8c0.8,0,1.3-0.2,1.7-0.5c0.3-0.3,0.6-1,0.8-2.1
					c0.3-1.9,0.6-3.1,0.8-3.4c0.2-0.4,0.5-0.6,1-0.6c2.1,0,3.4,0.1,3.6,0.3c0.3,0.2,0.4,0.9,0.4,2v13.5c0,0.8-0.1,1.4-0.4,1.6
					c-0.3,0.3-1.1,0.4-2.5,0.4c-0.9,0-1.5-0.2-1.9-0.5c-0.3-0.3-0.6-1.3-0.9-2.9c-0.3-1.4-0.6-2.3-0.9-2.6c-0.3-0.3-0.7-0.5-1.3-0.5
					h-3.2v28h2.2c1.3,0,2.2-0.4,2.7-1.1c0.5-0.7,1.3-2.9,2.4-6.4c0.5-1.5,0.9-2.5,1.4-2.9c0.5-0.5,1.3-0.7,2.6-0.7
					c1.7,0,2.5,0.5,2.5,1.6c0,0.3,0,0.8-0.2,1.4l-1.5,9.2c-0.3,1.7-0.5,2.7-0.7,3c-0.2,0.3-0.7,0.5-1.6,0.5h-27.1
					c-0.7,0-1.1-0.2-1.3-0.5c-0.2-0.3-0.3-1.2-0.3-2.7c0-0.9,0.5-1.6,1.5-2.1c1.5-0.6,2.2-1.5,2.2-2.6v-50.7c0-0.5-0.6-1-1.8-1.5
					c-0.8-0.3-1.3-0.7-1.4-1c-0.2-0.3-0.2-1.1-0.2-2.4c0-1.1,0.1-1.7,0.2-1.9c0.2-0.2,0.6-0.3,1.4-0.3h25.9c0.6,0,1.1,0.1,1.4,0.3
					c0.3,0.2,0.5,0.7,0.7,1.5l2.1,10.5c0.1,0.5,0.2,0.9,0.2,1.1c0,0.7-0.7,1.1-2,1.1c-1.5,0-2.5-0.2-2.9-0.5c-0.5-0.3-1-1.2-1.4-2.5
					c-0.8-2.4-1.6-4.1-2.2-5.1c-0.6-0.9-1.3-1.4-2-1.4H363.5z"/>
				<path id="XMLID_34_" class="st19" d="M398.3,373.7v20.2c0,0.9,0.1,1.6,0.2,1.9c0.1,0.3,0.5,0.7,1,1c0.7,0.5,1.1,1.2,1.1,2.3
					c0,1.6-0.1,2.5-0.4,2.9c-0.3,0.4-0.8,0.6-1.6,0.6h-17.1c-1,0-1.5-0.7-1.5-2.1c0-1.4,0-2.2,0.1-2.6c0.1-0.4,0.4-0.7,0.8-0.8
					c1.5-0.6,2.2-1.8,2.2-3.5v-47.6c0-1.8-0.6-2.8-2-3.2c-0.6-0.2-1.1-0.4-1.2-0.6c-0.2-0.2-0.2-0.9-0.2-1.9c0-2.1,0.6-3.1,1.7-3.1
					h22.5c4.5,0,8.5,1.7,12,5c3.5,3.4,5.3,7.9,5.3,13.5c0,8-4.1,13.3-12.3,15.8c7.5,1.7,11.3,6.4,11.3,14.3v9.7
					c0,0.8,0.3,1.4,0.9,1.8c0.7,0.5,1.1,1.2,1.1,2.2c0,1.6-0.1,2.5-0.3,2.8c-0.2,0.3-0.7,0.4-1.5,0.4h-10.9c-1.3,0-2.4-0.7-3.2-2.2
					c-0.8-1.5-1.3-3.3-1.3-5.5v-16.4c0-3.2-1.6-4.8-4.8-4.8H398.3z M398.3,341.6V369h2.6c2.7,0,4-2.7,4-8.1v-13.1
					c0-2.3-0.4-3.9-1.3-4.8c-0.9-0.9-2.2-1.4-4-1.4H398.3z"/>
				<path id="XMLID_32_" class="st19" d="M448.6,373.1v21.3c0,1.1,0.7,1.9,2.1,2.4c0.6,0.2,1,0.4,1.2,0.7c0.2,0.2,0.3,1.2,0.3,2.9
					c0,1-0.1,1.7-0.3,1.9c-0.2,0.2-0.6,0.3-1.3,0.3h-19.3c-1,0-1.4-0.4-1.4-1.3v-2.4c0-1,0.6-1.7,1.9-2.1c0.6-0.2,1.1-0.5,1.3-0.8
					c0.2-0.3,0.3-0.9,0.3-1.8v-20l-8.2-28.9c-0.4-1.4-1.2-2.4-2.3-2.8c-0.6-0.3-0.9-0.7-0.9-1.3V338c0-0.7,0.4-1.1,1.2-1.1h17.2
					c0.5,0,0.8,0.1,1,0.4c0.2,0.3,0.2,1,0.2,2.2s0,1.9-0.1,2.2c-0.1,0.3-0.4,0.6-0.8,0.8c-0.6,0.4-0.9,0.9-0.9,1.5
					c0,0.4,0.1,0.8,0.2,1.2l5.3,18.1l5.4-18.1c0.1-0.2,0.1-0.4,0.1-0.8c0-0.9-0.5-1.8-1.6-2.7c-0.5-0.4-0.7-0.8-0.7-1.2v-2.4
					c0-0.9,0.4-1.3,1.2-1.3h8.9c0.8,0,1.2,0.4,1.2,1.3v2.6c0,0.5-0.3,0.9-0.9,1.3c-1,0.7-1.7,1.8-2.2,3.1L448.6,373.1z"/>
			</g>
			<polygon id="XMLID_30_" class="st22" points="305.3,316.8 216.1,420.3 312,420.3 401.1,316.8 			"/>
			<circle id="XMLID_27_" class="st19" cx="199.5" cy="368.5" r="9.7"/>
			<circle id="XMLID_24_" class="st19" cx="475.6" cy="368.5" r="9.7"/>
			<path id="XMLID_23_" class="st22" d="M365.6,388.8l11.4,9.8c1.4,1.2,5.4-1,8.8-5l66.2-76.8h-28.8l-53.9,62.5
				C365.9,383.3,364.2,387.6,365.6,388.8z"/>
		</g>
		<path id="XMLID_21_" class="st23" d="M671,252.4c0,8.3-6.7,15.1-15.1,15.1H15.1c-8.3,0-15.1-6.7-15.1-15.1v-5
			c0-8.3,6.7-15.1,15.1-15.1h640.8c8.3,0,15.1,6.7,15.1,15.1V252.4z"/>
	</g>
	<g id="Bread">
		<g id="XMLID_7_">
			<path id="XMLID_10_" class="st15" d="M533.1,0.6c-0.4-0.1-0.9-0.2-1.3-0.2h-0.7c-2.6-0.3-5.3-0.4-8.2-0.4c-3.1,0-6,0.1-8.8,0.4
				H371.8c-3.4,0-6.2,4.3-6.2,9.7v212.5c0,5.4,2.8,9.7,6.2,9.7H477h43h34c3.4,0,6.2-4.4,6.2-9.7v-107c3.3,0,24.4,0,24.4-19v-45
				C584.7,46.5,576.6,6.2,533.1,0.6z"/>
			<path id="XMLID_9_" class="st24" d="M365.6,0.4c-87.9,0-101,46.1-101,51.4v45c0,19,14.7,19,19.9,19v106.9c0,5.4,4.3,9.7,9.7,9.7
				h138.2c5.4,0,9.7-4.3,9.7-9.7V115.7c5.1,0,19.8,0,19.8-19v-45C461.8,46.5,447.2,0.4,365.6,0.4z"/>
			<path id="XMLID_8_" class="st25" d="M367.3,18.1c-72.8,0-83.6,38.1-83.6,42.6v28.7c0,15.7,12.2,15.7,16.4,15.7l0,104.8
				c0,4.4,3.6,8,8,8H419c4.4,0,8-3.6,8-8l0-104.8c4.2,0,16.4,0,16.4-15.7V60.6C443.4,56.2,434.8,18.1,367.3,18.1z"/>
		</g>
		<g id="XMLID_2_">
			<path id="XMLID_6_" class="st14" d="M283.6,151.1c-5.8-0.8-12-1.4-18.4-2c-10-0.8-20.8-1.3-32.3-1.5c-2.1,0-4.2,0-6.3,0
				c-4.1,0-8.2,0.1-12.1,0.2c-11.8,0.4-22.6,1.2-32.6,2.5c-6.5,0.8-12.6,1.8-18.4,3c-83,16.6-96.3,64-96.3,64
				c0,8.3,6.7,15.1,15.1,15.1h302.4c8.3,0,15.1-6.7,15.1-15.1C399.7,217.3,388.9,165.3,283.6,151.1z"/>
			<path id="XMLID_5_" class="st13" d="M172.6,190c5.1,0,9.2-4.1,9.2-9.2v-30.4c-6.5,0.8-12.6,1.8-18.4,3v27.5
				C163.4,185.8,167.6,190,172.6,190z"/>
			<path id="XMLID_4_" class="st13" d="M223.7,199.2c5.1,0,9.2-4.9,9.2-11v-40.6c-2.1,0-4.2,0-6.3,0c-4.1,0-8.2,0.1-12.1,0.2v40.5
				C214.5,194.3,218.6,199.2,223.7,199.2z"/>
			<path id="XMLID_3_" class="st13" d="M274.4,190c5.1,0,9.2-4.1,9.2-9.2v-29.6c-5.8-0.8-12-1.4-18.4-2v31.6
				C265.2,185.8,269.3,190,274.4,190z"/>
		</g>
	</g>
</g>
</svg>
