<?xml version="1.0" encoding="utf-8"?>
<!-- Generator: Adobe Illustrator 19.0.0, SVG Export Plug-In . SVG Version: 6.00 Build 0)  -->
<svg version="1.1" id="Layer_1" xmlns="http://www.w3.org/2000/svg" xmlns:xlink="http://www.w3.org/1999/xlink" x="0px" y="0px"
	 viewBox="-312.8 134.1 562.4 494.4" style="enable-background:new -312.8 134.1 562.4 494.4;" xml:space="preserve">
<style type="text/css">
	.st0{fill:#BE1622;}
	.st1{fill:#9B0A1B;}
	.st2{fill:#DADADA;}
	.st3{opacity:0.5;fill:#1D1D1B;enable-background:new    ;}
	.st4{fill:#F19000;}
	.st5{fill:#FBB700;}
	.st6{fill:#2D190E;}
	.st7{fill:#432918;}
	.st8{fill:#0C0603;}
	.st9{fill:#27B7C5;}
	.st10{opacity:0.5;fill:#A3E4E1;enable-background:new    ;}
	.st11{fill:#DBA00B;}
	.st12{fill:#FBC21E;}
	.st13{fill:#C6C6C6;}
	.st14{fill:#B17F4A;}
	.st15{fill:#DEDC80;}
	.st16{fill:#ED5D6F;}
	.st17{fill:#160A03;}
	.st18{opacity:0.4;fill:#F5F5F5;enable-background:new    ;}
	.st19{fill:#7B6A58;}
</style>
<g id="Cup_2_">
	<g id="XMLID_199_">
		<path id="XMLID_203_" class="st0" d="M-19.8,211.4h-77.7v12.3c-2.9-1.7-6.3-3-10.1-3l0,0c-4.4,0-10.8,1.7-16.6,9.9
			c-7,9.9-8.2,22.4-3.2,34.3c5.3,12.6,16.5,22.2,29.9,25.6v3.9c0,13.6,10.6,24.7,24,25.5c0.5,0,1,0,1.5,0h63.8
			c14.1,0,25.5-11.4,25.5-25.5v-83H-19.8z M-97.6,277.8c-8.3-3.1-15.2-9.4-18.6-17.6c-3.3-7.9-2.6-16.1,1.9-22.5
			c2.2-3.2,4.5-4.8,6.6-4.8l0,0c3.8,0,8.5,4.7,10.1,7V277.8z"/>
		<path id="XMLID_200_" class="st1" d="M-97.6,211.4v12.3c-2.9-1.7-6.3-3-10.1-3l0,0c-4.4,0-10.8,1.7-16.6,9.9
			c-7,9.9-8.2,22.4-3.2,34.3c5.3,12.6,16.5,22.2,29.9,25.6v3.9c0,13.6,10.6,24.7,24,25.5l53.7-108.5H-97.6z M-97.6,277.8
			c-8.3-3.1-15.2-9.4-18.6-17.6c-3.3-7.9-2.6-16.1,1.9-22.5c2.2-3.2,4.5-4.8,6.6-4.8l0,0c3.8,0,8.5,4.7,10.1,7V277.8z"/>
	</g>
	<path id="XMLID_76_" class="st2" d="M-17.1,134.1h-6c-5.3,0-9.6,4.3-9.6,9.6v21.1c-5.8,0.1-10.4,4.9-10.4,10.7v17.3
		c0,5.9,4.8,10.7,10.7,10.7h4.5c0.9,0,4,0,4.8,0h6c5.3,0,9.6-4.3,9.6-9.6v-50.2C-7.6,138.4-11.9,134.1-17.1,134.1z"/>
	<path id="XMLID_75_" class="st2" d="M-50.4,170.1c0,6.2-5.1,11.3-11.3,11.3h-0.9c-6.2,0-11.3-5.1-11.3-11.3V155
		c0-6.3,5.1-11.3,11.3-11.3h0.9c6.2,0,11.3,5.1,11.3,11.3V170.1z"/>
</g>
<g id="Building_2_">
	<polygon id="XMLID_70_" class="st3" points="222.8,628.5 246.8,596.7 218.7,596.7 	"/>
	<g id="XMLID_186_">
		<rect id="XMLID_69_" x="-210.4" y="332.3" class="st4" width="440.8" height="66"/>
		<path id="XMLID_68_" class="st5" d="M230.4,619.3c0,5.1-4.1,9.2-9.2,9.2h-422.4c-5.1,0-9.2-4.1-9.2-9.2v-218
			c0-5.1,4.1-9.2,9.2-9.2h422.4c5.1,0,9.2,4.1,9.2,9.2V619.3z"/>
		<path id="XMLID_67_" class="st6" d="M249.6,329.2c0-5.1-4.1-9.2-9.2-9.2h-458.6c-5.1,0-9.2,4.1-9.2,9.2v5c0,5.1,4.1,9.2,9.2,9.2
			h458.6c5.1,0,9.2-4.1,9.2-9.2L249.6,329.2L249.6,329.2z"/>
	</g>
	<g id="XMLID_175_">
		<path id="XMLID_66_" class="st7" d="M196.7,430.3H93.1c-4.5,0-8.2,3.7-8.2,8.4v181.4c0,4.6,3.7,8.4,8.2,8.4h103.5
			c4.5,0,8.2-3.7,8.2-8.4V438.7C204.9,434.1,201.2,430.3,196.7,430.3z"/>
		<path id="XMLID_65_" class="st6" d="M93.1,430.3c-4.5,0-8.2,3.7-8.2,8.4v181.4c0,4.6,3.7,8.4,8.2,8.4h8L172,430.4L93.1,430.3
			L93.1,430.3z"/>
		<path id="XMLID_181_" class="st8" d="M184.8,617h-78.7c-6.3,0-11.4-5.1-11.4-11.4V565c0-6.3,5.1-11.4,11.4-11.4h78.7
			c6.3,0,11.4,5.1,11.4,11.4v40.6C196.3,611.9,191.1,617,184.8,617z M106.1,561.1c-2.1,0-3.8,1.7-3.8,3.8v40.6
			c0,2.1,1.7,3.8,3.8,3.8h78.7c2.1,0,3.8-1.7,3.8-3.8v-40.6c0-2.1-1.7-3.8-3.8-3.8H106.1z"/>
		<path id="XMLID_62_" class="st9" d="M188.1,441.2h-7.8h-19.1h-25h-33.7c-4.4,0-7.9,3.5-7.9,7.9v39.5v28.5v21.2
			c0,4.4,3.5,7.9,7.9,7.9h85.6c4.4,0,7.9-3.5,7.9-7.9v-74.7v-14.5C196,444.8,192.5,441.2,188.1,441.2z"/>
		<polygon id="XMLID_61_" class="st10" points="136.2,441.2 94.6,488.6 94.6,517.1 161.2,441.2 		"/>
		<path id="XMLID_60_" class="st10" d="M188.1,441.2h-7.8l-53.5,60.9c-4.7,5.3-4.2,13.5,1.2,18.2l0.6,0.6c5.3,4.7,13.5,4.2,18.2-1.2
			l49.2-56.1v-14.5C196,444.8,192.5,441.2,188.1,441.2z"/>
		<path id="XMLID_59_" class="st11" d="M161.4,547.6c0,1.5-1.4,2.7-3,2.7l0,0c-1.7,0-3-1.2-3-2.7v-4.1c0-1.5,1.4-2.7,3-2.7l0,0
			c1.7,0,3,1.2,3,2.7V547.6z"/>
		<path id="XMLID_58_" class="st12" d="M201.1,545.5c0,2.6-2.2,4.8-4.8,4.8h-33.9c-2.6,0-4.8-2.2-4.8-4.8l0,0c0-2.6,2.2-4.8,4.8-4.8
			h33.9C199,540.7,201.1,542.9,201.1,545.5L201.1,545.5z"/>
	</g>
	<g id="XMLID_150_">
		<path id="XMLID_57_" class="st9" d="M-81.9,430.3h-16.7h-17.6H-174c-5.1,0-9.2,4.1-9.2,9.2v58.6v42.1v32.1c0,3.7,2.2,6.9,5.4,8.4
			c1.2,0.5,2.5,0.8,3.8,0.8h8.1h72.5h11.5c0.1,0,0.3,0,0.4,0c4.9-0.2,8.8-4.2,8.8-9.2V467.2v-27.6v-0.1
			C-72.7,434.5-76.8,430.3-81.9,430.3z"/>
		<path id="XMLID_56_" class="st10" d="M-94.6,434.3l-4-4h-17.6l-67,67.7v42.1l88.7-89.7C-90,446-90.1,438.8-94.6,434.3z"/>
		<path id="XMLID_55_" class="st10" d="M-134.3,501.9c-2.9,3-2.9,7.7,0.1,10.6l3.1,3.1c3,2.9,7.7,2.9,10.6-0.1l47.8-48.3v-27.6
			L-134.3,501.9z"/>
		<g id="XMLID_161_">
			<polygon id="XMLID_54_" class="st1" points="-165.3,466.2 -191.2,466.2 -180.8,430.3 -156.9,430.3 			"/>
			<polygon id="XMLID_53_" class="st13" points="-139.4,466.2 -165.3,466.2 -156.9,430.3 -136.1,430.3 			"/>
			<polygon id="XMLID_52_" class="st1" points="-113.5,466.2 -139.4,466.2 -136.1,430.3 -116.2,430.3 			"/>
			<polygon id="XMLID_51_" class="st13" points="-87.5,466.2 -113.5,466.2 -116.2,430.3 -95.5,430.3 			"/>
			<polygon id="XMLID_50_" class="st1" points="-61.6,466.2 -87.5,466.2 -95.5,430.3 -74.6,430.3 			"/>
			<path id="XMLID_49_" class="st0" d="M-178.2,484.9c7.2,0,13-8.6,13-19.2h-25.9C-191.2,476.4-185.4,484.9-178.2,484.9z"/>
			<path id="XMLID_48_" class="st2" d="M-152.3,484.9c7.2,0,13-8.6,13-19.2h-25.9C-165.3,476.4-159.5,484.9-152.3,484.9z"/>
			<path id="XMLID_47_" class="st0" d="M-126.4,484.9c7.2,0,13-8.6,13-19.2h-25.9C-139.4,476.4-133.6,484.9-126.4,484.9z"/>
			<path id="XMLID_46_" class="st2" d="M-100.5,484.9c7.2,0,13-8.6,13-19.2h-25.9C-113.5,476.4-107.6,484.9-100.5,484.9z"/>
			<path id="XMLID_45_" class="st0" d="M-74.6,484.9c7.2,0,13-8.6,13-19.2h-25.9C-87.5,476.4-81.7,484.9-74.6,484.9z"/>
		</g>
		<path id="XMLID_44_" class="st7" d="M-100.8,565.1c0,2.4-1.9,4.3-4.3,4.3h-48.3c-2.4,0-4.3-1.9-4.3-4.3l0,0c0-2.4,1.9-4.3,4.3-4.3
			h48.3C-102.7,560.8-100.8,562.7-100.8,565.1L-100.8,565.1z"/>
		<path id="XMLID_43_" class="st1" d="M-171.9,542.5c-3.3,0-5.9,2.7-5.9,5.9v32.2c1.2,0.5,2.5,0.8,3.8,0.8h8.1v-33
			C-165.9,545.2-168.6,542.5-171.9,542.5z"/>
		<path id="XMLID_42_" class="st1" d="M-87.5,542.5c-3.3,0-5.9,2.7-5.9,5.9v33h11.5c0.1,0,0.3,0,0.4,0v-33
			C-81.5,545.2-84.2,542.5-87.5,542.5z"/>
		<rect id="XMLID_41_" x="-153.1" y="569.4" class="st14" width="46.8" height="12.1"/>
		<g id="XMLID_151_">
			<path id="XMLID_40_" class="st15" d="M-124.8,544.5c0-2,0-0.1-3.7-0.1c-4.1,0-3.7-1.9-3.7,0.1c0,0,2.2,2.3,1.4,4.8
				c-2.5,7-1.4,11.5-1.4,11.5h7.4c0,0,1-5.3-1.4-11.4C-127.2,546.9-124.8,544.5-124.8,544.5z"/>
			<path id="XMLID_39_" class="st7" d="M-128.9,544.4c0,0-0.1-4.9-2.5-7.3l0.5-0.5c2.6,2.6,2.7,7.5,2.7,7.7L-128.9,544.4z"/>
			<g id="XMLID_152_">
				<path id="XMLID_38_" class="st16" d="M-130.5,535.5c0.5,0.6,0.4,1.4-0.2,1.9l0,0c-0.6,0.5-1.4,0.4-1.9-0.2l-2-2.4
					c-0.5-0.6-0.4-1.4,0.2-1.9l0,0c0.6-0.5,1.4-0.4,1.9,0.2L-130.5,535.5z"/>
				<path id="XMLID_37_" class="st0" d="M-130.1,535.3l-1.2-1.3c-0.6-0.7-1.5-1.8-2.3-1.8c0,0,1.2,0.7,1.8,3.3
					c0,0.2,0.1,0.4,0.1,0.7c-0.2-0.1-0.4-0.2-0.6-0.3c-2.6-1.2-3-2.4-3-2.4c-0.2,0.7,0.8,1.8,1.4,2.6l1,1.4c0.5,0.7,1.7,0.9,2.5,0.4
					l0.1-0.1l0.1-0.1C-129.5,537-129.4,536-130.1,535.3z"/>
			</g>
		</g>
	</g>
	<g id="XMLID_124_">
		<path id="XMLID_36_" class="st9" d="M56.2,430.3h-92.1c-5.1,0-9.2,4.1-9.2,9.2v94.4v22.7v15.7c0,5.1,4.1,9.2,9.2,9.2h92.1
			c5.1,0,9.2-4.1,9.2-9.2v-84.9v-29.7v-18.2C65.4,434.5,61.3,430.3,56.2,430.3z"/>
		<g id="XMLID_138_">
			<path id="XMLID_35_" class="st7" d="M37.3,565.1c0,2.4-1.9,4.3-4.3,4.3h-48.3c-2.4,0-4.3-1.9-4.3-4.3l0,0c0-2.4,1.9-4.3,4.3-4.3
				H33C35.4,560.8,37.3,562.7,37.3,565.1L37.3,565.1z"/>
			<path id="XMLID_34_" class="st1" d="M-33.8,542.5c-3.3,0-5.9,2.7-5.9,5.9v32.2c1.2,0.5,2.5,0.8,3.8,0.8h8.1v-33
				C-27.8,545.2-30.5,542.5-33.8,542.5z"/>
			<path id="XMLID_33_" class="st1" d="M50.6,542.5c-3.3,0-5.9,2.7-5.9,5.9v33h11.5c0.1,0,0.3,0,0.4,0v-33
				C56.6,545.2,53.9,542.5,50.6,542.5z"/>
			<rect id="XMLID_32_" x="-15" y="569.4" class="st14" width="46.8" height="12.1"/>
			<g id="XMLID_139_">
				<path id="XMLID_31_" class="st15" d="M13.3,544.5c0-2,0-0.1-3.7-0.1c-4.1,0-3.7-1.9-3.7,0.1c0,0,2.2,2.3,1.4,4.8
					c-2.5,7-1.4,11.5-1.4,11.5h7.4c0,0,1-5.3-1.4-11.4C11,546.9,13.3,544.5,13.3,544.5z"/>
				<path id="XMLID_30_" class="st7" d="M9.2,544.4c0,0-0.1-4.9-2.5-7.3l0.4-0.5c2.6,2.6,2.7,7.5,2.7,7.7L9.2,544.4z"/>
				<g id="XMLID_140_">
					<path id="XMLID_29_" class="st16" d="M7.6,535.5c0.5,0.6,0.4,1.4-0.2,1.9l0,0c-0.6,0.5-1.4,0.4-1.9-0.2l-2-2.4
						c-0.5-0.6-0.4-1.4,0.2-1.9l0,0c0.6-0.5,1.4-0.4,1.9,0.2L7.6,535.5z"/>
					<path id="XMLID_28_" class="st0" d="M8,535.3L6.8,534c-0.6-0.7-1.5-1.8-2.3-1.8c0,0,1.2,0.7,1.8,3.3c0,0.2,0.1,0.4,0.1,0.7
						c-0.2-0.1-0.4-0.2-0.6-0.3c-2.6-1.2-3-2.4-3-2.4c-0.1,0.7,0.8,1.8,1.4,2.6l1,1.4c0.5,0.7,1.7,0.9,2.5,0.4l0.1-0.1l0.1-0.1
						C8.6,537,8.7,536,8,535.3z"/>
				</g>
			</g>
		</g>
		<path id="XMLID_27_" class="st10" d="M62.2,459.8l-76.1,76.9c-3.3,3.3-3.2,8.6,0.1,11.9l3.5,3.5c3.3,3.3,8.6,3.2,11.9-0.1
			l63.9-64.6v-29.7C64.2,458.2,63.1,458.9,62.2,459.8z"/>
		<path id="XMLID_26_" class="st10" d="M8.1,494.1l-2.6-2.5c-2.4-2.4-6.3-2.4-8.7,0l-41.9,42.3v22.7l53.2-53.8
			C10.5,500.4,10.5,496.5,8.1,494.1z"/>
		<g id="XMLID_125_">
			<polygon id="XMLID_25_" class="st1" points="-27.9,466.2 -53.9,466.2 -43.4,430.3 -19.5,430.3 			"/>
			<polygon id="XMLID_24_" class="st13" points="-2,466.2 -27.9,466.2 -19.5,430.3 1.2,430.3 			"/>
			<polygon id="XMLID_23_" class="st1" points="23.9,466.2 -2,466.2 1.2,430.3 21.1,430.3 			"/>
			<polygon id="XMLID_22_" class="st13" points="49.8,466.2 23.9,466.2 21.1,430.3 41.9,430.3 			"/>
			<polygon id="XMLID_21_" class="st1" points="75.7,466.2 49.8,466.2 41.9,430.3 62.8,430.3 			"/>
			<path id="XMLID_20_" class="st0" d="M-40.9,484.9c7.2,0,13-8.6,13-19.2h-25.9C-53.9,476.4-48,484.9-40.9,484.9z"/>
			<path id="XMLID_19_" class="st2" d="M-15,484.9c7.2,0,13-8.6,13-19.2h-25.9C-27.9,476.4-22.1,484.9-15,484.9z"/>
			<path id="XMLID_18_" class="st0" d="M10.9,484.9c7.2,0,13-8.6,13-19.2H-2C-2,476.4,3.8,484.9,10.9,484.9z"/>
			<path id="XMLID_17_" class="st2" d="M36.9,484.9c7.2,0,13-8.6,13-19.2H24C23.9,476.4,29.7,484.9,36.9,484.9z"/>
			<path id="XMLID_16_" class="st0" d="M62.8,484.9c7.2,0,13-8.6,13-19.2H49.9C49.8,476.4,55.6,484.9,62.8,484.9z"/>
		</g>
	</g>
	<g id="XMLID_103_">
		<path id="XMLID_15_" class="st17" d="M218.1,310.8c0,5.1-4.1,9.2-9.2,9.2h-213c-5.1,0-9.2-4.1-9.2-9.2V244c0-5.1,4.1-9.2,9.2-9.2
			H209c5.1,0,9.2,4.1,9.2,9.2v66.8H218.1z"/>
		<g id="XMLID_113_">
			<path id="XMLID_121_" class="st15" d="M63.1,248h2c0.5,0,0.8,0.2,1,0.5c0.2,0.3,0.4,1.2,0.5,2.7l0.9,12.1c0,0.2,0,0.5,0,0.7
				c0,0.9-0.1,1.5-0.5,1.8c-0.3,0.3-0.9,0.5-1.8,0.5c-1.1,0-1.9-0.3-2.3-0.9c-0.4-0.6-0.8-1.9-1.2-4.1c-1-5.5-2.5-8.2-4.4-8.2
				c-1.6,0-2.4,2-2.4,5.9v42.2c0,2.8,0.8,4.2,2.5,4.2c2.1,0,3.3-2.3,3.5-7c0.1-1.4,0.3-2.3,0.8-2.8c0.4-0.5,1.4-0.8,2.8-0.8
				c1.1,0,1.8,0.2,2.2,0.6c0.4,0.4,0.6,1.1,0.6,2.3c0,3.6-1.1,6.6-3.2,8.9c-2.2,2.4-4.8,3.5-8,3.5c-3.1,0-5.8-1-8.2-3
				c-2.4-2-4.4-5.4-6.1-10.2c-1.7-4.8-2.6-11-2.6-18.6c0-7.1,0.7-12.8,2.2-17.1c1.4-4.3,3.3-7.6,5.5-9.9s4.8-3.5,7.8-3.5
				c1.8,0,3.4,0.5,4.7,1.5c0.5,0.4,0.9,0.5,1.1,0.5c0.3,0,0.7-0.4,1.3-1.1C62.2,248.3,62.7,248,63.1,248z"/>
			<path id="XMLID_118_" class="st15" d="M87.3,296.6h-9.4l-0.4,3.5c0,0.1,0,0.2-0.1,0.3c-0.2,0.7-0.3,1.4-0.3,2
				c0,0.9,0.6,1.7,1.8,2.3c0.6,0.3,1,0.7,1.2,1c0.1,0.4,0.2,0.9,0.2,1.7c0,1-0.1,1.6-0.2,1.9c-0.1,0.2-0.4,0.3-0.8,0.3h-9.9
				c-0.6,0-0.8-0.6-0.8-1.7c0-1.4,0.4-2.5,1.3-3.3c0.8-0.8,1.3-1.6,1.4-2.5l7-44.2c0.1-0.7,0.2-1.3,0.2-1.8c0-0.8-0.5-1.5-1.6-2.1
				c-0.5-0.3-0.8-1-0.8-2c0-1.4,0.1-2.2,0.2-2.6c0.2-0.3,0.6-0.5,1.2-0.5h14.3c0.9,0,1.5,0.4,1.8,1.2c0.4,0.8,0.7,2.6,1.1,5.4
				c0.1,1.1,0.3,2.1,0.4,3.2l6.2,41.3c0.3,2,1,3.5,2.2,4.6c0.3,0.3,0.5,0.5,0.6,0.7c0.1,0.2,0.1,0.7,0.1,1.5c0,1.3-0.1,2.1-0.3,2.3
				c-0.2,0.3-0.6,0.4-1.1,0.4H86.1c-0.5,0-0.7-0.5-0.7-1.4c0-1.2,0.1-1.9,0.2-2.2c0.1-0.3,0.5-0.7,1.1-1.1c0.9-0.6,1.3-1.3,1.3-2.1
				C88.1,301.9,87.8,299.8,87.3,296.6z M82.8,263l-4.2,29.3H87L82.8,263z"/>
			<path id="XMLID_116_" class="st15" d="M123,279.1v22.8c0,1.2,0.7,2,2.2,2.4c0.7,0.2,1.2,0.4,1.4,0.7c0.2,0.3,0.3,0.8,0.3,1.7
				c0,1.4-0.1,2.2-0.3,2.5c-0.2,0.3-0.7,0.4-1.6,0.4h-17.2c-1,0-1.6-0.2-1.9-0.6c-0.3-0.4-0.4-1.2-0.4-2.4c0-0.8,0.1-1.3,0.2-1.5
				c0.1-0.2,0.5-0.5,1.2-0.8c0.9-0.4,1.5-0.7,1.7-1s0.3-0.7,0.3-1.3v-45.4c0-0.7-0.1-1.2-0.4-1.5c-0.3-0.4-0.8-0.7-1.7-1.1
				c-0.6-0.3-0.9-0.9-0.9-1.8c0-0.1,0-0.7,0-1.7c0.1-1.1,0.7-1.6,1.8-1.6h23.4c0.7,0,1.2,0.1,1.5,0.3c0.3,0.2,0.5,0.8,0.6,1.7
				c0,0.2,0.1,0.4,0.1,0.6l1.7,8.3c0.1,0.5,0.1,1,0.1,1.4c0,0.8-0.6,1.2-1.8,1.2c-1.6,0-2.6-0.3-3-0.9s-1-2.1-1.9-4.5
				c-0.5-1.5-1-2.4-1.6-2.9c-0.5-0.5-1.3-0.7-2.4-0.7c-0.3,0-0.9,0-1.7,0.1v21.4h1.9c1,0,1.7-0.2,2.1-0.7s0.7-1.3,0.8-2.4
				c0.2-1.3,0.4-2.1,0.6-2.5c0.2-0.4,1-0.5,2.5-0.5c1,0,1.6,0.1,1.8,0.3c0.2,0.2,0.3,0.6,0.3,1.2v13.6c0,0.6-0.1,1-0.3,1.1
				c-0.2,0.2-0.8,0.3-1.9,0.3c-1.3,0-2.1-0.2-2.5-0.6c-0.3-0.4-0.6-1.5-0.8-3.1c-0.2-1.7-1.1-2.5-2.7-2.5H123z"/>
			<path id="XMLID_114_" class="st15" d="M154.6,253.6V275h2.6c0.7,0,1.2-0.2,1.5-0.5s0.6-1,0.7-1.9c0.3-1.8,0.5-2.8,0.7-3.2
				c0.2-0.3,0.5-0.5,0.9-0.5c2,0,3.1,0.1,3.4,0.2c0.3,0.2,0.4,0.8,0.4,1.9v12.5c0,0.8-0.1,1.3-0.4,1.5s-1,0.4-2.3,0.4
				c-0.8,0-1.4-0.2-1.7-0.5c-0.3-0.3-0.6-1.2-0.8-2.6c-0.3-1.3-0.5-2.1-0.8-2.4s-0.7-0.4-1.2-0.4h-2.9v25.9h2c1.2,0,2.1-0.3,2.5-1
				c0.5-0.7,1.2-2.7,2.2-6c0.4-1.4,0.9-2.3,1.3-2.7c0.5-0.4,1.2-0.6,2.4-0.6c1.6,0,2.3,0.5,2.3,1.5c0,0.3,0,0.7-0.1,1.3l-1.4,8.5
				c-0.2,1.5-0.5,2.5-0.6,2.8c-0.2,0.3-0.7,0.5-1.5,0.5h-25c-0.6,0-1-0.1-1.2-0.4c-0.2-0.3-0.3-1.1-0.3-2.5c0-0.9,0.4-1.5,1.4-1.9
				c1.4-0.6,2.1-1.4,2.1-2.4v-46.8c0-0.5-0.6-1-1.7-1.4c-0.8-0.3-1.2-0.6-1.3-0.9c-0.1-0.3-0.2-1-0.2-2.2c0-1,0.1-1.6,0.2-1.7
				c0.2-0.2,0.6-0.3,1.3-0.3H163c0.6,0,1,0.1,1.3,0.3s0.5,0.7,0.6,1.4l1.9,9.7c0.1,0.5,0.2,0.8,0.2,1c0,0.7-0.6,1-1.8,1
				c-1.4,0-2.3-0.2-2.7-0.5c-0.4-0.3-0.9-1.1-1.3-2.3c-0.8-2.3-1.4-3.8-2-4.7s-1.2-1.3-1.9-1.3h-2.7V253.6z"/>
		</g>
		<polygon id="XMLID_9_" class="st18" points="74.2,234.8 0.9,319.9 79.7,319.9 153.1,234.8 		"/>
		<path id="XMLID_8_" class="st18" d="M123.9,294l9.4,8.1c1.2,1,4.4-0.8,7.3-4.1l54.4-63.1h-23.7L127,286.3
			C124.1,289.5,122.7,293,123.9,294z"/>
		
			<rect id="XMLID_7_" x="3.8" y="271.7" transform="matrix(-0.7071 0.7071 -0.7071 -0.7071 216.8149 468.6709)" class="st15" width="15.1" height="15.1"/>
		
			<rect id="XMLID_6_" x="184.9" y="271.7" transform="matrix(-0.7071 0.7071 -0.7071 -0.7071 525.9671 340.6136)" class="st15" width="15.1" height="15.1"/>
	</g>
</g>
<g id="Table_and_Chair">
	<g id="XMLID_97_">
		<path id="XMLID_5_" class="st19" d="M-204.4,620.9l-18.5-13.8l18.5-13.8c1.9-1.4,2.3-4.1,0.9-6.1c-1.4-1.9-4.1-2.3-6.1-0.9
			l-20.5,15.4l-20.5-15.3c-1.9-1.4-4.6-1.1-6.1,0.9c-1.4,1.9-1.1,4.6,0.9,6.1l18.5,13.8l-18.5,13.8c-1.9,1.4-2.3,4.1-0.9,6.1
			c1.4,1.9,4.1,2.3,6.1,0.9l20.5-15.4l20.5,15.4c1.9,1.4,4.6,1.1,6.1-0.9C-202.1,625.1-202.5,622.3-204.4,620.9z"/>
		<path id="XMLID_4_" class="st6" d="M-191.2,586.9c0,3-2.4,5.4-5.4,5.4h-66.2c-3,0-5.4-2.4-5.4-5.4v-4.6c0-3,2.4-5.4,5.4-5.4h66.2
			c3,0,5.4,2.4,5.4,5.4V586.9z"/>
	</g>
	<g id="XMLID_93_">
		<path id="XMLID_3_" class="st6" d="M-304.1,627.1c0,1.6-1.4,3-3,3l0,0c-1.6,0-3-1.4-3-3v-26.8c0-1.6,1.4-3,3-3l0,0
			c1.6,0,3,1.4,3,3V627.1z"/>
		<path id="XMLID_2_" class="st6" d="M-271.2,627.1c0,1.6-1.4,3-3,3l0,0c-1.6,0-3-1.4-3-3v-26.8c0-1.6,1.4-3,3-3l0,0
			c1.6,0,3,1.4,3,3V627.1z"/>
		<path id="XMLID_1_" class="st1" d="M-271.9,592h-28.9v-42.4c0-3.3-2.4-5.9-5.4-5.9h-1.1c-3,0-5.4,2.6-5.4,5.9v49
			c0,3,2,5.4,4.5,5.4h36.4c2.5,0,4.5-2.4,4.5-5.4v-1.1C-267.4,594.4-269.4,592-271.9,592z"/>
	</g>
</g>
</svg>
