<?xml version="1.0" encoding="utf-8"?>
<!-- Generator: Adobe Illustrator 19.0.0, SVG Export Plug-In . SVG Version: 6.00 Build 0)  -->
<svg version="1.1" id="Layer_1" xmlns="http://www.w3.org/2000/svg" xmlns:xlink="http://www.w3.org/1999/xlink" x="0px" y="0px"
	 viewBox="-254.7 197.8 259.5 443.2" style="enable-background:new -254.7 197.8 259.5 443.2;" xml:space="preserve">
<style type="text/css">
	.st0{fill:#3D0103;}
	.st1{fill:#16343F;}
	.st2{fill:#FCEFB3;}
	.st3{fill:#43889B;}
	.st4{fill:#27B7C5;}
	.st5{fill:#A3E4E1;}
</style>
<g id="Church">
	<g id="Building_3_">
		<path class="st0" d="M-121.1,259.1v-42.8h15.1c0.9,0,1.6-1.3,1.6-2.9v-2.5c0-1.6-0.7-2.9-1.6-2.9h-15.1v-7.3
			c0-1.6-1.3-2.9-2.9-2.9h-2.5c-1.6,0-2.9,1.3-2.9,2.9v7.3h-15.1c-0.9,0-1.6,1.3-1.6,2.9v2.5c0,1.6,0.7,2.9,1.6,2.9h15.1v44.9
			l-41.5,91.1c0,3.8,0.3,9.6,1.9,9.6h87.8c1.6,0,1.7-5.7,1.7-9.6L-121.1,259.1z"/>
		<path class="st1" d="M-85.6,346.5h-79c-3.3,0-6,2.7-6,6v116.2c0,3.3,2.7,6,6,6h79c3.3,0,6-2.7,6-6V352.5
			C-79.6,349.2-82.3,346.5-85.6,346.5z M-128.6,411.1c0,3.3-2.7,6-6,6h-19c-3.3,0-6-2.7-6-6v-26.5c0-0.2,0-1.4,0-1.8
			c0-8.5,6.9-15.4,15.5-15.4c8.6,0,15.5,6.9,15.5,15.4c0,0.3,0.1,1.5,0.1,1.8L-128.6,411.1L-128.6,411.1z M-88.5,411.1
			c0,3.3-2.7,6-6,6h-19c-3.3,0-6-2.7-6-6v-26.5c0-0.2,0-1.4,0-1.8c0-8.5,6.9-15.4,15.5-15.4s15.5,6.9,15.5,15.4
			c0,0.3,0.1,1.5,0.1,1.8v26.5H-88.5z"/>
		<path class="st1" d="M-6.1,496.2c0-1.8-2-4.6-2-4.6l-112-85.7c-3.8-3.8-6.9-3.5-10.4-0.1L-242,491.5c-1.2,1.2-2,2.8-2,4.7v138.4
			c0,3.5,2.9,6.4,6.4,6.4h225.1c3.5,0,6.4-2.9,6.4-6.4V496.2z"/>
		<path class="st2" d="M-75.8,352c0,3.3-2.7,6-6,6h-86.8c-3.3,0-6-2.7-6-6v-2c0-3.3,2.7-6,6-6h86.8c3.3,0,6,2.7,6,6
			C-75.8,350-75.8,352-75.8,352z"/>
		<path class="st0" d="M2.5,483.1l-125.3-87.9c-0.7-0.5-1.5-0.7-2.2-0.6c-0.7-0.1-1.5,0.1-2.2,0.6l-125.3,87.9
			c-1.9,1.3-2.7,4.4-1.9,6.8l3.3,9.6c0.8,2.4,3.1,3.3,5,2l121.2-85l121.2,85c1.9,1.3,4.1,0.4,5-2l3.3-9.6
			C5.3,487.5,4.4,484.5,2.5,483.1z"/>
		<g>
			<circle class="st2" cx="-125" cy="463" r="28.4"/>
			<circle class="st3" cx="-125.1" cy="463" r="21.9"/>
		</g>
		<g>
			<path class="st3" d="M-164.2,538.3c0,0.1,0,0.5,0,0.6v99.3c0,1.6,1.3,2.8,2.8,2.8h33.6V505.6
				C-152.3,506.8-164.2,524.2-164.2,538.3z"/>
			<path class="st3" d="M-121.6,505.6V641h32.9c1.6,0,2.8-1.3,2.8-2.8v-99.3c0-0.1,0-0.4,0-0.6C-85.9,524.3-97.5,507.1-121.6,505.6z
				"/>
			<path class="st2" d="M-158.5,631.8c0,1.3,1.1,2.4,2.4,2.4h28.3v-33.8h-30.7V631.8z"/>
			<path class="st2" d="M-127.8,513.5c-20.7,1.7-30.7,20-30.7,32c0,0.1,0,0.4,0,0.5v49.3h30.7C-127.8,595.3-127.8,513.5-127.8,513.5
				z"/>
			<path class="st2" d="M-121.6,634.2h28.3c1.4,0,2.4-1.1,2.4-2.4v-31.4h-30.7V634.2z"/>
			<path class="st2" d="M-90.9,546c0,0,0-0.4,0-0.5c0-12-10-30.4-30.7-32v81.9h30.7C-90.9,595.4-90.9,546-90.9,546z"/>
			<path class="st1" d="M-125,505.5c-0.9,0-1.8,0-2.7,0.1V641h6.2V505.6C-122.7,505.5-123.9,505.5-125,505.5z"/>
		</g>
		<g>
			<path class="st4" d="M-178.2,534.9c-0.3-3.1-1.4-6.7-3.5-10c-0.7-1.1-1.4-2.1-2.3-3.1c-2.9-3.4-6.9-6.3-12.1-7.5
				c-1.9-0.5-4-0.7-6.2-0.7c-16.2,0-24.1,13.9-24.1,22.9c0,0.1,0,0.3,0,0.3v12.5v21.5v27c0,1,0.8,1.7,1.7,1.7h44.7
				c1,0,1.7-0.8,1.7-1.7v-61.1v-0.3C-178.1,535.9-178.1,535.4-178.2,534.9z"/>
			<path class="st5" d="M-196,514.2l-30.2,35v21.5l42.3-49C-186.8,518.3-190.9,515.5-196,514.2z"/>
			<path class="st5" d="M-210.2,558c-1.7,1.9-1.4,4.8,0.5,6.5s4.8,1.4,6.5-0.5l25.1-29c-0.3-3.1-1.4-6.7-3.5-10L-210.2,558z"/>
		</g>
		<g>
			<path class="st4" d="M-19.2,534.9c-0.3-3.2-1.5-6.9-3.7-10.3c-1.6-2.5-3.7-4.8-6.3-6.7c-3.6-2.6-8.3-4.3-14-4.3
				c-16.2,0-24.1,13.9-24.1,22.9c0,0.1,0,0.3,0,0.3v53.7v7.3c0,1,0.8,1.7,1.7,1.7h9H-21c1,0,1.7-0.8,1.7-1.7v-41.5v-19.5v-0.3
				C-19.1,535.9-19.2,535.4-19.2,534.9z"/>
			<path class="st5" d="M-19.1,536.4c0-0.5,0-1-0.1-1.6l-48.1,55.6v7.3c0,1,0.8,1.7,1.7,1.7h9l37.4-43.3v-19.5
				C-19.1,536.7-19.1,536.5-19.1,536.4z"/>
			<path class="st5" d="M-50.8,549.8c1.9,1.7,4.8,1.4,6.5-0.5l21.4-24.8c-1.6-2.5-3.7-4.8-6.3-6.7l-22,25.5
				C-52.9,545.2-52.7,548.1-50.8,549.8z"/>
		</g>
	</g>
</g>
</svg>
