<?xml version="1.0" encoding="utf-8"?>
<!-- Generator: Adobe Illustrator 19.0.0, SVG Export Plug-In . SVG Version: 6.00 Build 0)  -->
<svg version="1.1" id="Layer_1" xmlns="http://www.w3.org/2000/svg" xmlns:xlink="http://www.w3.org/1999/xlink" x="0px" y="0px"
	 viewBox="0 0 768.3 691.2" style="enable-background:new 0 0 768.3 691.2;" xml:space="preserve">
<style type="text/css">
	.st0{fill:#A07648;}
	.st1{fill:#BC8C58;}
	.st2{fill:#CA9E67;}
	.st3{fill:#F9F09B;}
	.st4{fill:#DADADA;}
	.st5{fill:#BE1622;}
	.st6{fill:#E3017B;}
	.st7{fill:#323B42;}
	.st8{fill:#27B7C5;}
	.st9{fill:#A3E4E1;}
	.st10{fill:#EDEDED;}
</style>
<g id="Factory">
	<g id="Box">
		<g>
			<polygon id="XMLID_64_" class="st0" points="115.2,436.7 237.5,471.7 118.7,590.4 0,471.7 			"/>
			<polygon id="XMLID_63_" class="st1" points="119.1,659.1 0,616.2 0,471.7 119.1,514.6 			"/>
			<polygon id="XMLID_62_" class="st2" points="119.1,659.1 238.3,616.2 238.3,471.7 119.1,514.6 			"/>
			<polygon id="XMLID_61_" class="st3" points="196.6,615 196.2,486.8 146.4,471.8 189.1,457.8 163.7,450.6 120.1,463.9 72.8,449.6 
				48.1,457.1 94.1,471.8 43.7,487.1 43.7,615 69.9,624.6 69.9,496.7 120.5,480.2 170.4,496.1 170.4,624.6 			"/>
		</g>
		<g>
			<polygon id="XMLID_60_" class="st0" points="129.9,287.1 252.2,322 133.5,440.7 14.8,322 			"/>
			<polygon id="XMLID_59_" class="st1" points="133.9,509.4 14.8,466.6 14.8,322 133.9,364.9 			"/>
			<polygon id="XMLID_58_" class="st2" points="133.9,509.4 253,466.6 253,322 133.9,364.9 			"/>
			<polygon id="XMLID_57_" class="st3" points="211.3,465.4 211,337.1 161.1,322.1 203.9,308.2 178.4,300.9 134.9,314.2 87.5,299.9 
				62.8,307.4 108.9,322.1 58.4,337.5 58.4,465.4 84.7,474.9 84.7,347 135.2,330.5 185.1,346.5 185.1,474.9 			"/>
		</g>
	</g>
	<g id="Buiding">
		<g id="Building_7_">
			<g>
				<path id="XMLID_56_" class="st4" d="M569.6,417.1c0,6.3,5.1,11.4,11.4,11.4H719c6.3,0,11.4-5.1,11.4-11.4l-5.1-67.6H575.7
					L569.6,417.1z"/>
				<path id="XMLID_55_" class="st4" d="M707.5,111.4c0-6.3-5.1-11.4-11.4-11.4h-87.3c-6.3,0-11.4,5.1-11.4,11.4l-4,43.6h117.4
					L707.5,111.4z"/>
				<polygon id="XMLID_54_" class="st4" points="588.3,211.1 582.8,271.5 719.5,271.5 714.9,211.1 				"/>
				<polygon id="XMLID_53_" class="st5" points="710.7,155 593.4,155 588.3,211.1 714.9,211.1 				"/>
				<polygon id="XMLID_52_" class="st5" points="575.7,349.5 725.3,349.5 719.5,271.5 582.8,271.5 				"/>
			</g>
			<g>
				<polygon id="XMLID_51_" class="st6" points="566.2,411.7 566.2,336.9 376.3,412.6 376.3,336.9 146.2,428.6 336.2,428.6 
					376.3,428.6 523.9,428.6 566.2,428.6 753.9,428.6 753.9,336.9 				"/>
				<path id="XMLID_50_" class="st7" d="M768.3,674.7c0,9.1-7.4,16.5-16.5,16.5H154.1c-9.1,0-16.5-7.4-16.5-16.5v-234
					c0-9.1,7.4-16.5,16.5-16.5h597.7c9.1,0,16.5,7.4,16.5,16.5V674.7z"/>
				<g>
					<path id="XMLID_49_" class="st8" d="M315.4,447.9h-46.4c-7.3,0-13.3,5.9-13.3,13.2v40.5v5.9c0,7.3,5.9,13.2,13.3,13.2h5.4h41
						c7.3,0,13.3-5.9,13.3-13.2v-46.4C328.7,453.8,322.7,447.9,315.4,447.9z"/>
					<path id="XMLID_48_" class="st8" d="M421.3,459.4c-0.9-6.5-6.4-11.5-13.1-11.5h-2.8h-43.6c-7.3,0-13.2,5.9-13.2,13.2v46.4
						c0,0.4,0,0.7,0.1,1.1c0.6,6.8,6.3,12.1,13.2,12.1h2.1h44.3c7.3,0,13.2-5.9,13.2-13.2v-46.4
						C421.4,460.5,421.4,459.9,421.3,459.4z"/>
					<path id="XMLID_47_" class="st8" d="M223.7,448c-0.7-0.1-1.4-0.2-2.1-0.2h-46.4c-7.3,0-13.2,5.9-13.2,13.2v46.4
						c0,7.3,5.9,13.2,13.2,13.2h46.4c7.3,0,13.2-5.9,13.2-13.2v-32.2v-14.1C234.8,454.5,230,449.1,223.7,448z"/>
					<path id="XMLID_46_" class="st9" d="M408.2,447.9h-2.8l-56.8,60.7c0.6,6.8,6.3,12.1,13.2,12.1h2.1l57.4-61.4
						C420.5,452.9,414.9,447.9,408.2,447.9z"/>
					<path id="XMLID_45_" class="st9" d="M181.3,507.6l5.3,5c3.9,3.7,10.1,3.5,13.7-0.5l34.5-36.9v-14.1c0-6.6-4.8-12-11.1-13.1
						l-42.8,45.8C177.2,497.8,177.4,503.9,181.3,507.6z"/>
					<path id="XMLID_44_" class="st9" d="M269.1,520.7h5.4l32.7-35c3.7-3.9,3.5-10.1-0.5-13.7l-5.3-5c-3.9-3.7-10.1-3.5-13.7,0.5
						l-31.9,34.1v5.9C255.8,514.8,261.7,520.7,269.1,520.7z"/>
					<path id="XMLID_43_" class="st8" d="M268.5,606.9h46.4c7.3,0,13.3-5.9,13.3-13.3v-40.5v-5.9c0-7.3-5.9-13.3-13.3-13.3h-5.4h-41
						c-7.3,0-13.3,5.9-13.3,13.3v46.4C255.3,600.9,261.2,606.9,268.5,606.9z"/>
					<path id="XMLID_42_" class="st8" d="M162.6,595.4c0.9,6.5,6.4,11.5,13.1,11.5h2.8h43.6c7.3,0,13.2-5.9,13.2-13.3v-46.4
						c0-0.4,0-0.7-0.1-1.1c-0.6-6.8-6.3-12.1-13.2-12.1H220h-44.3c-7.3,0-13.2,5.9-13.2,13.3v46.4
						C162.5,594.2,162.6,594.8,162.6,595.4z"/>
					<path id="XMLID_41_" class="st8" d="M360.2,606.7c0.7,0.1,1.4,0.2,2.1,0.2h46.4c7.3,0,13.2-5.9,13.2-13.3v-46.4
						c0-7.3-5.9-13.3-13.2-13.3h-46.4c-7.3,0-13.2,5.9-13.2,13.3v32.2v14.1C349.1,600.2,353.9,605.6,360.2,606.7z"/>
					<path id="XMLID_40_" class="st9" d="M175.7,606.9h2.8l56.8-60.7c-0.6-6.8-6.3-12.1-13.2-12.1H220l-57.4,61.4
						C163.5,601.9,169,606.9,175.7,606.9z"/>
					<path id="XMLID_39_" class="st9" d="M402.6,547.1l-5.3-5c-3.9-3.7-10.1-3.5-13.7,0.5l-34.5,36.9v14.1c0,6.6,4.8,12,11.1,13.1
						l42.8-45.8C406.7,556.9,406.5,550.8,402.6,547.1z"/>
					<path id="XMLID_38_" class="st9" d="M314.9,534h-5.4l-32.7,35c-3.7,3.9-3.5,10.1,0.5,13.7l5.3,5c3.9,3.7,10.1,3.5,13.7-0.5
						l31.9-34.1v-5.9C328.1,539.9,322.2,534,314.9,534z"/>
				</g>
				<g>
					<g>
						<path id="XMLID_37_" class="st8" d="M735.3,535.8c-1.5-0.6-3.1-0.9-4.8-0.9h-16.3h-30c-7.3,0-13.2,5.9-13.2,13.2v33.2v13.1
							c0,2.9,0.9,5.6,2.5,7.8c2.4,3.3,6.3,5.5,10.7,5.5h46.4c7.3,0,13.2-5.9,13.2-13.2v-46.3C743.7,542.5,740.2,537.7,735.3,535.8z"
							/>
						<path id="XMLID_36_" class="st8" d="M543.9,534.8H542h-44.5c-7.3,0-13.2,5.9-13.2,13.2v46.3c0,7.3,5.9,13.2,13.2,13.2h35.6
							h10.8c7.3,0,13.2-5.9,13.2-13.2v-12.5v-33.8c0-0.9-0.1-1.8-0.3-2.7C555.6,539.4,550.3,534.8,543.9,534.8z"/>
						<path id="XMLID_35_" class="st8" d="M641.8,535.5c-1.3-0.4-2.7-0.7-4.1-0.7h-6h-30.7h-9.7c-7.3,0-13.2,5.9-13.2,13.2v11.4
							v32.9v2.1c0,7.3,5.9,13.2,13.2,13.2h46.3c7.3,0,13.2-5.9,13.2-13.2v-35.8v-10.5C651,542.2,647.1,537.2,641.8,535.5z"/>
						<path id="XMLID_34_" class="st9" d="M514.7,576.9l0.5,0.5c3.5,3.3,9,3.1,12.2-0.4l29.4-31.5c-1.2-6-6.6-10.5-13-10.5H542
							l-27.8,29.8C511,568.1,511.2,573.6,514.7,576.9z"/>
						<path id="XMLID_33_" class="st9" d="M557.2,594.4v-12.5l-24,25.7h10.8C551.2,607.7,557.2,601.7,557.2,594.4z"/>
						<polygon id="XMLID_32_" class="st9" points="601.1,534.8 578.1,559.4 578.1,592.3 631.7,534.8 						"/>
						<path id="XMLID_31_" class="st9" d="M641.8,535.5l-30.5,32.7c-4.1,4.4-3.8,11.2,0.5,15.2l0.7,0.6c4.3,4,11.2,3.8,15.2-0.5
							l23.2-24.9v-10.5C651,542.2,647.1,537.2,641.8,535.5z"/>
						<path id="XMLID_30_" class="st9" d="M714.1,534.8l-43.3,46.4v13.1c0,2.9,0.9,5.6,2.5,7.8l61.9-66.4c-1.5-0.6-3.1-0.9-4.8-0.9
							H714.1z"/>
					</g>
					<g>
						<path id="XMLID_29_" class="st8" d="M590.4,520.7h46.4c7.3,0,13.2-5.9,13.2-13.2V467v-5.9c0-7.3-5.9-13.2-13.2-13.2h-5.4h-41
							c-7.3,0-13.2,5.9-13.2,13.2v46.4C577.1,514.8,583.1,520.7,590.4,520.7z"/>
						<path id="XMLID_28_" class="st8" d="M484.5,509.2c0.9,6.5,6.4,11.5,13.1,11.5h2.8H544c7.3,0,13.3-5.9,13.3-13.2v-46.4
							c0-0.4,0-0.7-0.1-1.1c-0.6-6.8-6.3-12.1-13.2-12.1h-2.1h-44.3c-7.3,0-13.3,5.9-13.3,13.2v46.4
							C484.4,508.1,484.4,508.7,484.5,509.2z"/>
						<path id="XMLID_27_" class="st8" d="M682.1,520.6c0.7,0.1,1.4,0.2,2.1,0.2h46.4c7.3,0,13.2-5.9,13.2-13.2v-46.4
							c0-7.3-5.9-13.2-13.2-13.2h-46.4c-7.3,0-13.2,5.9-13.2,13.2v32.2v14.1C671,514.1,675.8,519.5,682.1,520.6z"/>
						<path id="XMLID_26_" class="st9" d="M497.6,520.7h2.8l56.8-60.7c-0.6-6.8-6.3-12.1-13.2-12.1h-2.1l-57.4,61.4
							C485.4,515.7,490.9,520.7,497.6,520.7z"/>
						<path id="XMLID_25_" class="st9" d="M724.5,461l-5.3-5c-3.9-3.7-10.1-3.5-13.7,0.5L671,493.4v14.1c0,6.6,4.8,12,11.1,13.1
							l42.9-45.8C728.6,470.8,728.4,464.7,724.5,461z"/>
						<path id="XMLID_24_" class="st9" d="M636.8,447.9h-5.4l-32.7,35c-3.7,3.9-3.5,10.1,0.5,13.7l5.3,5c3.9,3.7,10.1,3.5,13.7-0.5
							L650,467v-5.9C650,453.8,644.1,447.9,636.8,447.9z"/>
					</g>
				</g>
			</g>
		</g>
		<g id="Smoke">
			<path id="XMLID_23_" class="st10" d="M409.5,0l113.9,0c9.2,0,16.7,7.5,16.7,16.7c0,0.5,0,1-0.1,1.5h43.5c12.1,0,22,9.8,22,22
				c0,12.1-9.8,22-22,22H433.8c-12.1,0-22-9.8-22-22c0-2.4,0.4-4.6,1.1-6.8h-3.4c-9.2,0-16.7-7.5-16.7-16.7
				C392.8,7.5,400.3,0,409.5,0z"/>
			<path id="XMLID_22_" class="st10" d="M602.2,69.5c0,6.1,4.2,11.1,9.3,11.1h28.1c5.1,0,9.3-5,9.3-11.1l0,0
				c0-6.2-4.2-11.1-9.3-11.1h-28.1C606.3,58.3,602.2,63.3,602.2,69.5L602.2,69.5z"/>
		</g>
	</g>
</g>
</svg>
