<?xml version="1.0" encoding="utf-8"?>
<!-- Generator: Adobe Illustrator 19.0.0, SVG Export Plug-In . SVG Version: 6.00 Build 0)  -->
<svg version="1.1" id="Layer_1" xmlns="http://www.w3.org/2000/svg" xmlns:xlink="http://www.w3.org/1999/xlink" x="0px" y="0px"
	 viewBox="0 0 730.9 624.7" style="enable-background:new 0 0 730.9 624.7;" xml:space="preserve">
<style type="text/css">
	.st0{opacity:0.5;}
	.st1{fill:#1D1D1B;}
	.st2{fill:#498415;}
	.st3{fill:#81C74B;}
	.st4{fill:#27B6C4;}
	.st5{fill:#A2E3E0;}
	.st6{fill:#3C3C3B;}
	.st7{fill:#EDEDED;}
	.st8{fill:#680B4A;}
	.st9{opacity:0.4;}
	.st10{fill:#F5F5F5;}
	.st11{fill:#B2B2B2;}
	.st12{fill:#DA9F0B;}
	.st13{fill:#FFD773;}
	.st14{fill:#FAC11E;}
	.st15{fill:#BD1622;}
	.st16{fill:#2D2E82;}
	.st17{fill:#182808;}
	.st18{fill:#DADADA;}
	.st19{fill:#FF5B2C;}
	.st20{fill:#F39200;}
	.st21{fill:#C6C6C6;}
	.st22{fill:#F65B37;}
	.st23{fill:#BD2742;}
	.st24{opacity:0.1;}
	.st25{fill:#440432;}
</style>
<g id="Pharmacy">
	<g id="Shop_1_">
		<g id="XMLID_123_" class="st0">
			<polygon id="XMLID_124_" class="st1" points="725.5,591.7 356.3,591.3 356.3,624.7 678.2,624.7 			"/>
		</g>
		<g id="XMLID_121_">
			<path id="XMLID_122_" class="st2" d="M690.7,135.7c0-11.1-7.2-20.1-16-20.1h-633c-8.8,0-16,9-16,20.1V254c0,11.1,7.2,20,16,20
				h633c8.8,0,16-9,16-20V135.7z"/>
		</g>
		<g id="XMLID_119_">
			<path id="XMLID_120_" class="st3" d="M690.7,610.4c0,7.9-6.4,14.3-14.3,14.3H39.9c-7.9,0-14.3-6.4-14.3-14.3V243.5
				c0-7.9,6.4-14.3,14.3-14.3h636.4c7.9,0,14.3,6.4,14.3,14.3V610.4z"/>
		</g>
		<g id="XMLID_108_">
			<g id="XMLID_117_">
				<path id="XMLID_118_" class="st4" d="M645.9,344.9h-10.4h-54.2h-55.5h-90.6h-93.1c-7.9,0-14.3,6.4-14.3,14.3v104v74.7
					c0,6.5,4.4,12,10.3,13.7c1.3,0.4,2.6,0.6,4,0.6h303.8c7.9,0,14.3-6.4,14.3-14.3V359.2C660.2,351.3,653.8,344.9,645.9,344.9z"/>
			</g>
			<g id="XMLID_115_" class="st0">
				<path id="XMLID_116_" class="st5" d="M435.3,344.9L327.9,463.2v74.7c0,6.5,4.4,12,10.3,13.7l187.6-206.7H435.3z"/>
			</g>
			<g id="XMLID_113_" class="st0">
				<path id="XMLID_114_" class="st5" d="M443.7,496.5c-7.4,8.2-6.8,20.9,1.4,28.3c8.2,7.4,20.9,6.8,28.3-1.4l162.1-178.7h-54.2
					L443.7,496.5z"/>
			</g>
			<g id="XMLID_111_">
				<path id="XMLID_112_" class="st6" d="M665.6,537.5c0,2.8-2.3,5.1-5.1,5.1h-333c-2.8,0-5.1-2.3-5.1-5.1l0,0
					c0-2.8,2.3-5.1,5.1-5.1h333C663.3,532.5,665.6,534.7,665.6,537.5L665.6,537.5z"/>
			</g>
			<g id="XMLID_109_">
				<path id="XMLID_110_" class="st7" d="M673.1,548.9c0,5.5-4.5,9.9-9.9,9.9H322.4c-5.5,0-9.9-4.4-9.9-9.9l0,0
					c0-5.5,4.4-9.9,9.9-9.9h340.7C668.6,538.9,673.1,543.4,673.1,548.9L673.1,548.9z"/>
			</g>
		</g>
		<g id="XMLID_76_">
			<g id="XMLID_106_">
				<path id="XMLID_107_" class="st8" d="M650.4,189.4h-40.8H579h-23.4H453.7H332.1c-8.8,0-16,7.2-16,16v77.9c0,8.8,7.2,16,16,16
					H359h101.9h189.6c8.8,0,16-7.2,16-16v-77.9C666.4,196.5,659.3,189.4,650.4,189.4z"/>
			</g>
			<g id="XMLID_85_">
				<path id="XMLID_103_" class="st7" d="M387.3,228.1v7.2c0,8.9-4.3,13.8-13.1,13.8h-4.1v21h-8.8v-55.8h12.9
					C383,214.4,387.3,219.2,387.3,228.1z M370.1,222.3v18.9h4.1c2.8,0,4.3-1.3,4.3-5.3v-8.4c0-4-1.5-5.3-4.3-5.3H370.1z"/>
				<path id="XMLID_101_" class="st7" d="M400.5,270.1h-8.8v-55.8h8.8v23.9h10v-23.9h8.9v55.8h-8.9v-23.9h-10V270.1z"/>
				<path id="XMLID_98_" class="st7" d="M454.1,270.1h-8.8l-1.5-10.1H433l-1.5,10.1h-8l8.9-55.8h12.8L454.1,270.1z M434.1,252.4h8.4
					l-4.2-28.2L434.1,252.4z"/>
				<path id="XMLID_95_" class="st7" d="M476.5,270.1c-0.5-1.4-0.8-2.3-0.8-6.9v-8.8c0-5.2-1.8-7.1-5.7-7.1h-3v22.7h-8.8v-55.8h13.2
					c9.1,0,13,4.2,13,12.8v4.4c0,5.7-1.8,9.5-5.7,11.3c4.4,1.8,5.8,6.1,5.8,11.9v8.6c0,2.7,0.1,4.7,1,6.8H476.5z M467,222.3v17.1
					h3.4c3.3,0,5.3-1.4,5.3-5.9v-5.5c0-4-1.4-5.7-4.5-5.7H467z"/>
				<path id="XMLID_93_" class="st7" d="M508.8,254l6-39.6h12.2v55.8h-8.3v-40l-6,40h-8.3l-6.5-39.4v39.4h-7.6v-55.8h12.2L508.8,254
					z"/>
				<path id="XMLID_90_" class="st7" d="M561.7,270.1h-8.8l-1.5-10.1h-10.8l-1.5,10.1h-8l8.9-55.8h12.8L561.7,270.1z M541.7,252.4
					h8.4l-4.2-28.2L541.7,252.4z"/>
				<path id="XMLID_88_" class="st7" d="M591.1,249.3v7.4c0,8.9-4.5,14-13.1,14c-8.6,0-13.1-5.1-13.1-14v-29c0-8.9,4.5-14,13.1-14
					c8.6,0,13.1,5.1,13.1,14v5.4h-8.3v-6c0-4-1.8-5.5-4.5-5.5c-2.8,0-4.5,1.5-4.5,5.5v30.1c0,4,1.7,5.4,4.5,5.4
					c2.8,0,4.5-1.4,4.5-5.4v-8H591.1z"/>
				<path id="XMLID_86_" class="st7" d="M603.8,251.6l-11.1-37.3h9.2l6.7,25.4l6.7-25.4h8.4l-11.1,37.3v18.5h-8.8V251.6z"/>
			</g>
			<g id="XMLID_83_">
				<polygon id="XMLID_84_" class="st7" points="353,242.4 340,255.4 327,242.4 340,229.4 				"/>
			</g>
			<g id="XMLID_81_">
				
					<rect id="XMLID_82_" x="633.4" y="233.2" transform="matrix(0.7071 -0.7071 0.7071 0.7071 16.8265 525.4136)" class="st7" width="18.4" height="18.4"/>
			</g>
			<g id="XMLID_79_" class="st9">
				<polygon id="XMLID_80_" class="st10" points="453.7,189.4 359,299.3 460.9,299.3 555.6,189.4 				"/>
			</g>
			<g id="XMLID_77_" class="st9">
				<path id="XMLID_78_" class="st10" d="M517.9,265.8l12.1,10.4c1.5,1.3,5.7-1.1,9.4-5.4l70.3-81.5H579l-57.2,66.4
					C518.1,260,516.4,264.5,517.9,265.8z"/>
			</g>
		</g>
		<g id="XMLID_45_">
			<g id="XMLID_46_">
				<g id="XMLID_53_">
					<g id="XMLID_74_">
						<path id="XMLID_75_" class="st7" d="M276,280.4H96.1c-7.9,0-14.3,6.5-14.3,14.6v315.2c0,8,6.4,14.5,14.3,14.5H276
							c7.9,0,14.3-6.5,14.3-14.5V295C290.3,286.9,283.9,280.4,276,280.4z"/>
					</g>
					<g id="XMLID_72_">
						<path id="XMLID_73_" class="st11" d="M96.1,280.4c-7.9,0-14.3,6.5-14.3,14.6v315.2c0,8,6.4,14.5,14.3,14.5H110l123.2-344.3
							H96.1z"/>
					</g>
					<g id="XMLID_68_">
						<path id="XMLID_69_" class="st6" d="M255.4,604.7H118.7c-11,0-19.9-8.9-19.9-19.9v-70.6c0-11,8.9-19.9,19.9-19.9h136.7
							c11,0,19.9,8.9,19.9,19.9v70.6C275.3,595.8,266.4,604.7,255.4,604.7z M118.7,507.7c-3.6,0-6.6,3-6.6,6.6v70.6
							c0,3.7,3,6.6,6.6,6.6h136.7c3.6,0,6.6-3,6.6-6.6v-70.6c0-3.7-3-6.6-6.6-6.6H118.7z"/>
					</g>
					<g id="XMLID_66_">
						<path id="XMLID_67_" class="st4" d="M261.1,299.3h-13.6h-33.2h-43.4h-58.5c-7.6,0-13.8,6.2-13.8,13.8v68.6v49.4V468
							c0,7.6,6.2,13.8,13.8,13.8h148.7c7.6,0,13.8-6.2,13.8-13.8V338.2v-25.1C274.9,305.5,268.7,299.3,261.1,299.3z"/>
					</g>
					<g id="XMLID_64_" class="st0">
						<polygon id="XMLID_65_" class="st5" points="170.9,299.3 98.6,381.6 98.6,431.1 214.3,299.3 						"/>
					</g>
					<g id="XMLID_62_" class="st0">
						<path id="XMLID_63_" class="st5" d="M261.1,299.3h-13.6l-93,105.9c-8.2,9.3-7.2,23.4,2.1,31.6l1.1,1
							c9.3,8.2,23.4,7.2,31.6-2.1l85.6-97.4v-25.1C274.9,305.5,268.7,299.3,261.1,299.3z"/>
					</g>
					<g id="XMLID_60_">
						<path id="XMLID_61_" class="st12" d="M277.9,482.8c0,2.6-2.4,4.8-5.3,4.8l0,0c-2.9,0-5.3-2.1-5.3-4.8v-7.1
							c0-2.6,2.4-4.8,5.3-4.8l0,0c2.9,0,5.3,2.1,5.3,4.8V482.8z"/>
					</g>
					<g id="XMLID_58_">
						<path id="XMLID_59_" class="st12" d="M204,482.8c0,2.6-2.4,4.8-5.3,4.8l0,0c-2.9,0-5.3-2.1-5.3-4.8v-7.1
							c0-2.6,2.4-4.8,5.3-4.8l0,0c2.9,0,5.3,2.1,5.3,4.8V482.8z"/>
					</g>
					<g id="XMLID_56_">
						<path id="XMLID_57_" class="st13" d="M264.7,470.9h-26.7h-32.2c-4.6,0-8.3,3.7-8.3,8.3c0,4.6,3.7,8.3,8.3,8.3h22.7h36.2
							c4.6,0,8.3-3.7,8.3-8.3C273,474.6,269.3,470.9,264.7,470.9z"/>
					</g>
					<g id="XMLID_54_">
						<path id="XMLID_55_" class="st14" d="M273,479.2c0-4.6-3.7-8.3-8.3-8.3h-26.7l-9.5,16.7h36.2C269.3,487.6,273,483.8,273,479.2
							z"/>
					</g>
				</g>
				<g id="XMLID_51_">
					<rect id="XMLID_52_" x="245.3" y="419.6" class="st15" width="21.9" height="13.3"/>
				</g>
				<g id="XMLID_49_">
					<rect id="XMLID_50_" x="233.2" y="437.5" class="st16" width="34.1" height="20.7"/>
				</g>
				<g id="XMLID_47_">
					<rect id="XMLID_48_" x="257.5" y="440" class="st10" width="7.7" height="4.7"/>
				</g>
			</g>
		</g>
		<g id="XMLID_43_">
			<path id="XMLID_44_" class="st17" d="M712.9,120.9c0,8.8-7.2,16-16,16H16c-8.8,0-16-7.2-16-16v-5.3c0-8.8,7.2-16,16-16h680.9
				c8.8,0,16,7.2,16,16V120.9z"/>
		</g>
	</g>
	<g id="Medicine">
		<g id="XMLID_36_">
			<g id="XMLID_41_">
				<path id="XMLID_42_" class="st15" d="M198.7,57.2c-16.6,0-30.1,13.4-30.1,30l0,19.5c0,16.6,13.4,30,30,30.1l47.7,0l0-79.6
					L198.7,57.2z"/>
			</g>
			<g id="XMLID_39_">
				<path id="XMLID_40_" class="st18" d="M311.4,57.2l-47.7,0l0,79.6l47.7,0c16.6,0,30.1-13.4,30.1-30l0-19.5
					C341.4,70.7,328,57.2,311.4,57.2z"/>
			</g>
			<g id="XMLID_37_">
				<polygon id="XMLID_38_" class="st7" points="246.4,57.2 246.4,136.8 263.7,136.8 263.7,57.2 				"/>
			</g>
		</g>
		<g id="XMLID_29_">
			<g id="XMLID_34_">
				<path id="XMLID_35_" class="st19" d="M75.1,42.7C59.7,48.7,52,66.1,58,81.6L65,99.8c6,15.5,23.4,23.2,38.9,17.2l44.5-17.2
					l-28.8-74.2L75.1,42.7z"/>
			</g>
			<g id="XMLID_32_">
				<path id="XMLID_33_" class="st20" d="M180.2,2l-44.5,17.2l28.8,74.2l44.5-17.2c15.5-6,23.2-23.4,17.2-38.9l-7.1-18.2
					C213.1,3.7,195.7-4,180.2,2z"/>
			</g>
			<g id="XMLID_30_">
				<polygon id="XMLID_31_" class="st7" points="119.6,25.5 148.3,99.7 164.5,93.5 135.7,19.3 				"/>
			</g>
		</g>
		<g id="XMLID_22_">
			<g id="XMLID_27_">
				<path id="XMLID_28_" class="st7" d="M159.3,74c-24.6-3.9-47.8,11.1-54.9,34.3l96.7,15.2C201.4,99.3,183.9,77.9,159.3,74z"/>
			</g>
			<g id="XMLID_25_">
				<path id="XMLID_26_" class="st7" d="M143.9,171.8c24.6,3.9,47.8-11.1,54.9-34.3l-96.7-15.2C101.8,146.5,119.3,167.9,143.9,171.8
					z"/>
			</g>
			<g id="XMLID_23_">
				<path id="XMLID_24_" class="st21" d="M102.7,115.2c-0.4,2.4-0.6,4.7-0.6,7.1l96.7,15.2c0.7-2.2,1.2-4.6,1.6-6.9
					c0.4-2.4,0.6-4.7,0.6-7.1l-96.7-15.2C103.6,110.6,103.1,112.9,102.7,115.2z"/>
			</g>
		</g>
	</g>
	<g id="Bottle">
		<g id="bottle">
			<g id="XMLID_20_">
				<path id="XMLID_21_" class="st22" d="M731,458.5v-17.8c0-0.3,0-0.6-0.1-0.8c0-0.2,0.1-0.4,0.1-0.6c0-4.6-13.2-12.7-36.2-16v-9.6
					c-0.4,0.1-0.9,0.2-1.4,0.2h-20.2h-20.2c-0.6,0-1.1-0.1-1.6-0.2v9.5c-23.4,3.3-36.6,11.4-36.6,16.1c0,0.2,0,0.4,0.1,0.6
					c0,0.3-0.1,0.5-0.1,0.8v17.8V588v24.8c0,0.2,0,1,0,1.2c0,0.2,0,0.4,0.1,0.6c0.4,1.2,1.8,2.3,4,3.3c8.6,4,29.5,6.8,53.9,6.8
					c0.1,0,0.2,0,0.3,0c31.9,0,57.8-4.8,57.8-10.7c0-0.2,0-0.3-0.1-0.5c0-0.2,0.1-0.5,0.1-0.7v-24.4h0.3L731,458.5z"/>
			</g>
			<g id="XMLID_18_">
				<polygon id="XMLID_19_" class="st23" points="614.9,588 615.1,588 615.1,458.9 673.2,458.9 673.2,458.5 614.9,458.5 				"/>
			</g>
			<polygon id="XMLID_17_" class="st8" points="615.1,458.9 615.1,588 731,588 731,458.5 			"/>
			<g id="XMLID_13_">
				<path id="XMLID_16_" class="st22" d="M703.2,506h-60.2c-1.8,0-3.2-1.4-3.2-3.2v-2.1c0-1.8,1.4-3.2,3.2-3.2h60.2
					c1.8,0,3.2,1.4,3.2,3.2v2.1C706.4,504.5,704.9,506,703.2,506z"/>
				<path id="XMLID_15_" class="st22" d="M709,523.5h-71.9c-2.4,0-4.3-1.9-4.3-4.3l0,0c0-2.4,1.9-4.3,4.3-4.3H709
					c2.4,0,4.3,1.9,4.3,4.3l0,0C713.3,521.6,711.4,523.5,709,523.5z"/>
				<path id="XMLID_14_" class="st22" d="M703.2,541.1h-60.2c-1.8,0-3.2-1.4-3.2-3.2v-2.1c0-1.8,1.4-3.2,3.2-3.2h60.2
					c1.8,0,3.2,1.4,3.2,3.2v2.1C706.4,539.6,704.9,541.1,703.2,541.1z"/>
			</g>
			<rect id="XMLID_12_" x="673.2" y="458.5" class="st24" width="57.8" height="129.5"/>
			<g id="XMLID_10_">
				<path id="XMLID_11_" class="st8" d="M650.8,384.8c-0.4,0.1-0.8,0.3-1.1,0.6c-0.1,0.1-0.2,0.1-0.3,0.2c-1,0.6-1.5,1.3-1.5,2
					c0,0,0,0,0,0c0,0.1,0,22.4,0,22.4c0,1.7,1.5,3.2,3.6,3.7c0.5,0.1,1,0.2,1.6,0.2h20.2v-13.6v-18.7
					C663.5,381.7,655.1,382.9,650.8,384.8z"/>
			</g>
		</g>
		<g id="XMLID_8_">
			<path id="XMLID_9_" class="st25" d="M698.5,387.2c0-0.1-0.1-0.2-0.1-0.3l0,0l0,0c0-0.1-0.4-0.6-0.5-0.6c-0.1-0.1-0.3-0.3-0.4-0.3
				c-0.1-0.1-0.9-0.6-1.1-0.8c-0.2-0.1-0.7-0.3-0.7-0.3l0,0c0,0-0.1,0-0.1,0c0,0,0,0,0,0c-4.3-1.9-12.7-3.2-22.4-3.2v18.7V414h20.2
				c0.5,0,1-0.1,1.4-0.2c2.2-0.5,3.8-2,3.8-3.8c0,0,0-22.3,0-22.4C698.6,387.5,698.5,387.4,698.5,387.2z"/>
		</g>
	</g>
</g>
</svg>
