<?xml version="1.0" encoding="utf-8"?>
<!-- Generator: Adobe Illustrator 19.0.0, SVG Export Plug-In . SVG Version: 6.00 Build 0)  -->
<svg version="1.1" id="Layer_1" xmlns="http://www.w3.org/2000/svg" xmlns:xlink="http://www.w3.org/1999/xlink" x="0px" y="0px"
	 viewBox="-261.5 198.7 445.2 369.4" style="enable-background:new -261.5 198.7 445.2 369.4;" xml:space="preserve">
<style type="text/css">
	.st0{fill:#FAC11E;}
	.st1{fill:#DDA10B;}
	.st2{fill:#F4D037;}
	.st3{fill:#D8B62A;}
	.st4{fill:#7F1A0D;}
	.st5{opacity:0.5;fill:#1D1D1B;}
	.st6{fill:#E04327;}
	.st7{fill:#FDE0BB;}
	.st8{fill:#E8BF92;}
	.st9{fill:#4C3118;}
	.st10{fill:#27B6C4;}
	.st11{opacity:0.5;fill:#A2E3E0;}
	.st12{fill:#DA9F0B;}
	.st13{fill:#FFD773;}
	.st14{fill:#BD1622;}
	.st15{fill:#2D2E82;}
	.st16{fill:#F5F5F5;}
	.st17{fill:#B7433B;}
	.st18{fill:#F99285;}
	.st19{fill:#3F0B07;}
	.st20{opacity:0.4;fill:#F5F5F5;}
	.st21{fill:#27B7C5;}
	.st22{opacity:0.5;fill:#A3E4E1;}
	.st23{fill:#BE1622;}
	.st24{fill:#1D1D1B;}
	.st25{fill:#7C0816;}
	.st26{fill:#540915;}
	.st27{fill:#F9D98A;}
	.st28{fill:#AA1325;}
</style>
<g id="Post_Office">
	<g id="Mail">
		<g>
			<polygon class="st0" points="155.4,447.6 64.4,404.2 92.7,345 183.7,388.4 			"/>
			<g>
				<path class="st1" d="M65.5,404.3c-0.2-0.1-0.3-0.3-0.4-0.5c-0.1-0.4,0.1-0.8,0.5-0.9l1.5-0.4c0.4-0.1,0.8,0.1,0.9,0.6
					c0.1,0.4-0.1,0.8-0.5,0.9l-1.5,0.4C65.9,404.4,65.7,404.4,65.5,404.3z"/>
				<path class="st1" d="M69.8,403.3c-0.2-0.1-0.3-0.3-0.4-0.5c-0.1-0.4,0.1-0.8,0.5-0.9l2.8-0.7c0.4-0.1,0.8,0.1,0.9,0.5
					c0.1,0.4-0.1,0.8-0.6,0.9l-2.8,0.7C70.1,403.4,70,403.4,69.8,403.3z M75.4,401.9c-0.2-0.1-0.4-0.3-0.4-0.5
					c-0.1-0.4,0.1-0.8,0.6-0.9l2.8-0.7c0.4-0.1,0.8,0.1,0.9,0.6c0.1,0.4-0.1,0.8-0.5,0.9l-2.8,0.7C75.8,402,75.6,402,75.4,401.9z
					 M81.1,400.5c-0.2-0.1-0.3-0.3-0.4-0.5c-0.1-0.4,0.1-0.8,0.6-0.9l2.8-0.7c0.4-0.1,0.8,0.1,0.9,0.6c0.1,0.4-0.1,0.8-0.5,0.9
					l-2.8,0.7C81.4,400.6,81.2,400.6,81.1,400.5z M86.7,399.1c-0.2-0.1-0.3-0.3-0.4-0.5c-0.1-0.4,0.1-0.8,0.6-0.9l2.8-0.7
					c0.4-0.1,0.8,0.1,0.9,0.5c0.1,0.4-0.1,0.8-0.5,0.9l-2.8,0.7C87,399.2,86.8,399.2,86.7,399.1z M92.3,397.8
					c-0.2-0.1-0.4-0.3-0.4-0.5c-0.1-0.4,0.1-0.8,0.5-0.9l2.8-0.7c0.4-0.1,0.8,0.1,0.9,0.6c0.1,0.4-0.1,0.8-0.5,0.9l-2.8,0.7
					C92.6,397.9,92.5,397.8,92.3,397.8z M97.9,396.4c-0.2-0.1-0.3-0.3-0.4-0.5c-0.1-0.4,0.1-0.8,0.5-0.9l2.8-0.7
					c0.4-0.1,0.8,0.1,0.9,0.5c0.1,0.4-0.1,0.8-0.5,0.9l-2.8,0.7C98.3,396.5,98.1,396.5,97.9,396.4z M103.5,395
					c-0.2-0.1-0.3-0.3-0.4-0.5c-0.1-0.4,0.1-0.8,0.5-0.9l2.8-0.7c0.4-0.1,0.8,0.1,0.9,0.6c0.1,0.4-0.1,0.8-0.5,0.9l-2.8,0.7
					C103.9,395.1,103.7,395.1,103.5,395z M109.2,393.6c-0.2-0.1-0.3-0.3-0.4-0.5c-0.1-0.4,0.1-0.8,0.5-0.9l2.8-0.7
					c0.4-0.1,0.8,0.1,0.9,0.5c0.1,0.4-0.1,0.8-0.5,0.9l-2.8,0.7C109.5,393.7,109.3,393.7,109.2,393.6z M114.8,392.2
					c-0.2-0.1-0.3-0.3-0.4-0.5c-0.1-0.4,0.1-0.8,0.6-0.9l2.8-0.7c0.4-0.1,0.8,0.1,0.9,0.5c0.1,0.4-0.1,0.8-0.6,0.9l-2.8,0.7
					C115.1,392.3,114.9,392.3,114.8,392.2z M120.4,390.9c-0.2-0.1-0.4-0.3-0.4-0.5c-0.1-0.4,0.1-0.8,0.5-0.9l2.8-0.7
					c0.4-0.1,0.8,0.1,0.9,0.6c0.1,0.4-0.1,0.8-0.5,0.9l-2.8,0.7C120.7,390.9,120.6,390.9,120.4,390.9z"/>
				<path class="st1" d="M128.1,390.5c-0.1-0.1-0.3-0.2-0.4-0.4l-0.4-0.8l-0.9,0.2c-0.4,0.1-0.8-0.1-0.9-0.5
					c-0.1-0.4,0.1-0.8,0.5-0.9l1.5-0.4c0.3-0.1,0.7,0.1,0.9,0.4l0.6,1.4c0.2,0.4,0,0.8-0.4,1C128.6,390.6,128.3,390.6,128.1,390.5z"
					/>
				<path class="st1" d="M152.5,442.7c-0.1-0.1-0.3-0.2-0.4-0.4l-1.2-2.6c-0.2-0.4,0-0.8,0.4-1c0.4-0.2,0.8,0,1,0.4l1.2,2.6
					c0.2,0.4,0,0.8-0.4,1C152.9,442.8,152.7,442.8,152.5,442.7z M150,437.5c-0.1-0.1-0.3-0.2-0.4-0.4l-1.2-2.6c-0.2-0.4,0-0.8,0.4-1
					c0.4-0.2,0.8,0,1,0.4l1.2,2.6c0.2,0.4,0,0.8-0.4,1C150.5,437.6,150.2,437.6,150,437.5z M147.6,432.3c-0.1-0.1-0.3-0.2-0.4-0.4
					l-1.2-2.6c-0.2-0.4,0-0.8,0.4-1c0.4-0.2,0.8,0,1,0.4l1.2,2.6c0.2,0.4,0,0.8-0.4,1C148,432.4,147.8,432.4,147.6,432.3z
					 M145.2,427c-0.2-0.1-0.3-0.2-0.4-0.4l-1.2-2.6c-0.2-0.4,0-0.8,0.4-1c0.4-0.2,0.8,0,1,0.4l1.2,2.6c0.2,0.4,0,0.8-0.4,1
					C145.6,427.1,145.4,427.1,145.2,427z M142.7,421.8c-0.1-0.1-0.3-0.2-0.4-0.4l-1.2-2.6c-0.2-0.4,0-0.8,0.4-1c0.4-0.2,0.8,0,1,0.4
					l1.2,2.6c0.2,0.4,0,0.8-0.4,1C143.2,421.9,142.9,421.9,142.7,421.8z M140.3,416.6c-0.2-0.1-0.3-0.2-0.4-0.4l-1.2-2.6
					c-0.2-0.4,0-0.8,0.4-1c0.4-0.2,0.8,0,1,0.4l1.2,2.6c0.2,0.4,0,0.8-0.4,1C140.7,416.7,140.5,416.7,140.3,416.6z M137.9,411.4
					c-0.1-0.1-0.3-0.2-0.4-0.4l-1.2-2.6c-0.2-0.4,0-0.8,0.4-1c0.4-0.2,0.8,0,1,0.4l1.2,2.6c0.2,0.4,0,0.8-0.4,1
					C138.3,411.5,138.1,411.5,137.9,411.4z M135.4,406.1c-0.1-0.1-0.3-0.2-0.4-0.4l-1.2-2.6c-0.2-0.4,0-0.8,0.4-1
					c0.4-0.2,0.8,0,1,0.4l1.2,2.6c0.2,0.4,0,0.8-0.4,1C135.9,406.2,135.6,406.2,135.4,406.1z M133,400.9c-0.1-0.1-0.3-0.2-0.4-0.4
					l-1.2-2.6c-0.2-0.4,0-0.8,0.4-1c0.4-0.2,0.8,0,1,0.4l1.2,2.6c0.2,0.4,0,0.8-0.4,1C133.4,401,133.2,401,133,400.9z M130.6,395.7
					c-0.2-0.1-0.3-0.2-0.4-0.4l-1.2-2.6c-0.2-0.4,0-0.8,0.4-1c0.4-0.2,0.8,0,1,0.4l1.2,2.6c0.2,0.4,0,0.8-0.4,1
					C131,395.8,130.8,395.8,130.6,395.7z"/>
				<path class="st1" d="M154.3,446.7c-0.1-0.1-0.3-0.2-0.4-0.4l-0.6-1.4c-0.2-0.4,0-0.8,0.4-1c0.4-0.2,0.8,0,1,0.4l0.6,1.4
					c0.2,0.4,0,0.8-0.4,1C154.7,446.8,154.5,446.8,154.3,446.7z"/>
			</g>
			<polygon class="st1" points="92.7,345 124.1,396.3 183.7,388.4 			"/>
		</g>
		<g>
			
				<rect x="-197.4" y="215.2" transform="matrix(0.8557 0.5174 -0.5174 0.8557 101.6697 116.6607)" class="st2" width="78.1" height="50.8"/>
			<g>
				<path class="st3" d="M-204.1,242.4c-0.1-0.1-0.2-0.2-0.3-0.4c0-0.3,0.2-0.6,0.5-0.7l1.2-0.2c0.3,0,0.6,0.2,0.7,0.5
					c0,0.3-0.2,0.6-0.5,0.7l-1.1,0.2C-203.9,242.5-204,242.5-204.1,242.4z"/>
				<path class="st3" d="M-200.7,241.9c-0.1-0.1-0.2-0.2-0.3-0.4c0-0.3,0.2-0.6,0.5-0.7l2.2-0.3c0.3,0,0.6,0.2,0.7,0.5
					c0,0.3-0.2,0.6-0.5,0.7l-2.2,0.3C-200.5,242-200.6,242-200.7,241.9z M-196.3,241.3c-0.1-0.1-0.2-0.2-0.3-0.4
					c0-0.3,0.2-0.6,0.5-0.7l2.2-0.3c0.3,0,0.6,0.2,0.7,0.5c0.1,0.3-0.2,0.6-0.5,0.7l-2.2,0.3C-196,241.4-196.2,241.3-196.3,241.3z
					 M-191.8,240.6c-0.1-0.1-0.2-0.2-0.3-0.4c0-0.3,0.2-0.6,0.5-0.7l2.2-0.3c0.3,0,0.6,0.2,0.7,0.5c0,0.3-0.2,0.6-0.5,0.7l-2.2,0.3
					C-191.6,240.7-191.7,240.7-191.8,240.6z M-187.4,240c-0.1-0.1-0.2-0.2-0.3-0.4c0-0.3,0.2-0.6,0.5-0.7l2.2-0.3
					c0.3,0,0.6,0.2,0.7,0.5c0,0.3-0.2,0.6-0.5,0.7l-2.2,0.3C-187.2,240.1-187.3,240.1-187.4,240z M-183,239.4
					c-0.1-0.1-0.2-0.2-0.3-0.4c0-0.3,0.2-0.6,0.5-0.7l2.2-0.3c0.3,0,0.6,0.2,0.7,0.5c0,0.3-0.2,0.6-0.5,0.7l-2.2,0.3
					C-182.7,239.5-182.8,239.4-183,239.4z M-178.5,238.7c-0.1-0.1-0.2-0.2-0.3-0.4c0-0.3,0.2-0.6,0.5-0.7l2.2-0.3
					c0.3,0,0.6,0.2,0.7,0.5c0,0.3-0.2,0.6-0.5,0.7l-2.2,0.3C-178.3,238.8-178.4,238.8-178.5,238.7z M-174.1,238.1
					c-0.1-0.1-0.2-0.2-0.3-0.4c0-0.3,0.2-0.6,0.5-0.7l2.2-0.3c0.3,0,0.6,0.2,0.7,0.5c0,0.3-0.2,0.6-0.5,0.7l-2.2,0.3
					C-173.8,238.2-174,238.1-174.1,238.1z M-169.6,237.4c-0.1-0.1-0.2-0.2-0.3-0.4c0-0.3,0.2-0.6,0.5-0.7l2.2-0.3
					c0.3,0,0.6,0.2,0.7,0.5c0,0.3-0.2,0.6-0.5,0.7l-2.2,0.3C-169.4,237.5-169.5,237.5-169.6,237.4z M-165.2,236.8
					c-0.1-0.1-0.2-0.2-0.3-0.4c0-0.3,0.2-0.6,0.5-0.7l2.2-0.3c0.3,0,0.6,0.2,0.7,0.5c0,0.3-0.2,0.6-0.5,0.7l-2.2,0.3
					C-165,236.9-165.1,236.9-165.2,236.8z M-160.8,236.2c-0.1-0.1-0.2-0.2-0.3-0.4c0-0.3,0.2-0.6,0.5-0.7l2.2-0.3
					c0.3,0,0.6,0.2,0.7,0.5c0,0.3-0.2,0.6-0.5,0.7l-2.2,0.3C-160.5,236.3-160.6,236.2-160.8,236.2z"/>
				<path class="st3" d="M-154.8,236.5c-0.1-0.1-0.2-0.2-0.2-0.3l-0.2-0.6l-0.7,0.1c-0.3,0-0.6-0.2-0.7-0.5c0-0.3,0.2-0.6,0.5-0.7
					l1.2-0.2c0.3,0,0.5,0.1,0.6,0.4l0.4,1.1c0.1,0.3-0.1,0.6-0.4,0.7C-154.5,236.6-154.6,236.5-154.8,236.5z"/>
				<path class="st3" d="M-140,278.6c-0.1-0.1-0.2-0.2-0.2-0.3l-0.7-2.1c-0.1-0.3,0.1-0.6,0.4-0.7c0.3-0.1,0.6,0.1,0.7,0.4l0.7,2.1
					c0.1,0.3-0.1,0.6-0.4,0.7C-139.7,278.7-139.8,278.7-140,278.6z M-141.5,274.4c-0.1-0.1-0.2-0.2-0.2-0.3l-0.7-2.1
					c-0.1-0.3,0.1-0.6,0.4-0.7c0.3-0.1,0.6,0.1,0.7,0.4l0.7,2.1c0.1,0.3,0,0.6-0.4,0.7C-141.1,274.5-141.3,274.5-141.5,274.4z
					 M-142.9,270.2c-0.1-0.1-0.2-0.2-0.2-0.3l-0.7-2.1c-0.1-0.3,0.1-0.6,0.4-0.7c0.3-0.1,0.6,0.1,0.7,0.4l0.7,2.1
					c0.1,0.3-0.1,0.6-0.4,0.7C-142.6,270.3-142.8,270.3-142.9,270.2z M-144.4,266c-0.1-0.1-0.2-0.2-0.2-0.3l-0.7-2.1
					c-0.1-0.3,0.1-0.6,0.4-0.7c0.3-0.1,0.6,0,0.7,0.4l0.7,2.1c0.1,0.3-0.1,0.6-0.4,0.7C-144.1,266.1-144.3,266-144.4,266z
					 M-145.9,261.7c-0.1-0.1-0.2-0.2-0.2-0.3l-0.7-2.1c-0.1-0.3,0.1-0.6,0.4-0.7c0.3-0.1,0.6,0,0.7,0.3l0.7,2.1
					c0.1,0.3-0.1,0.6-0.4,0.7C-145.6,261.8-145.8,261.8-145.9,261.7z M-147.4,257.5c-0.1-0.1-0.2-0.2-0.2-0.3l-0.7-2.1
					c-0.1-0.3,0.1-0.6,0.4-0.7c0.3-0.1,0.6,0.1,0.7,0.4l0.7,2.1c0.1,0.3-0.1,0.6-0.4,0.7C-147.1,257.6-147.2,257.6-147.4,257.5z
					 M-148.9,253.3c-0.1-0.1-0.2-0.2-0.2-0.3l-0.7-2.1c-0.1-0.3,0.1-0.6,0.4-0.7c0.3-0.1,0.6,0.1,0.7,0.4l0.7,2.1
					c0.1,0.3-0.1,0.6-0.4,0.7C-148.5,253.4-148.7,253.4-148.9,253.3z M-150.3,249.1c-0.1-0.1-0.2-0.2-0.2-0.3l-0.7-2.1
					c-0.1-0.3,0.1-0.6,0.4-0.7c0.3-0.1,0.6,0.1,0.7,0.4l0.7,2.1c0.1,0.3-0.1,0.6-0.4,0.7C-150,249.2-150.2,249.2-150.3,249.1z
					 M-151.8,244.9c-0.1-0.1-0.2-0.2-0.2-0.3l-0.7-2.1c-0.1-0.3,0.1-0.6,0.4-0.7c0.3-0.1,0.6,0.1,0.7,0.4l0.7,2.1
					c0.1,0.3-0.1,0.6-0.4,0.7C-151.5,245-151.7,245-151.8,244.9z M-153.3,240.7c-0.1-0.1-0.2-0.2-0.2-0.3l-0.7-2.1
					c-0.1-0.3,0.1-0.6,0.4-0.7c0.3-0.1,0.6,0.1,0.7,0.4l0.7,2.1c0.1,0.3,0,0.6-0.4,0.7C-153,240.8-153.2,240.8-153.3,240.7z"/>
				<path class="st3" d="M-138.8,281.8c-0.1-0.1-0.2-0.2-0.2-0.3l-0.4-1.1c-0.1-0.3,0.1-0.6,0.4-0.7c0.3-0.1,0.6,0.1,0.7,0.4
					l0.4,1.1c0.1,0.3-0.1,0.6-0.4,0.7C-138.5,281.9-138.7,281.9-138.8,281.8z"/>
			</g>
			<polygon class="st3" points="-178.6,198.7 -158.4,240.6 -111.8,239.1 			"/>
		</g>
		<g>
			
				<rect x="-102.3" y="237.3" transform="matrix(0.9629 -0.27 0.27 0.9629 -74.8171 -4.1038)" class="st0" width="100" height="65.1"/>
			<g>
				<path class="st1" d="M-90.8,314.1c-0.2,0.1-0.4,0-0.6-0.1c-0.3-0.2-0.4-0.7-0.2-1l0.9-1.2c0.2-0.3,0.7-0.4,1-0.2
					c0.3,0.2,0.4,0.7,0.2,1l-0.9,1.2C-90.4,314-90.6,314.1-90.8,314.1z"/>
				<path class="st1" d="M-88.3,310.6c-0.2,0.1-0.4,0-0.6-0.1c-0.3-0.2-0.4-0.7-0.2-1l1.6-2.4c0.2-0.3,0.7-0.4,1-0.2
					c0.3,0.2,0.4,0.7,0.2,1l-1.6,2.4C-87.9,310.4-88.1,310.5-88.3,310.6z M-85,305.9c-0.2,0.1-0.4,0-0.6-0.1c-0.3-0.2-0.4-0.7-0.2-1
					l1.7-2.4c0.2-0.3,0.7-0.4,1-0.2c0.3,0.2,0.4,0.7,0.2,1l-1.6,2.4C-84.7,305.7-84.8,305.8-85,305.9z M-81.7,301.1
					c-0.2,0.1-0.4,0-0.6-0.1c-0.3-0.2-0.4-0.7-0.2-1l1.6-2.4c0.2-0.3,0.7-0.4,1-0.2c0.3,0.2,0.4,0.7,0.2,1l-1.7,2.4
					C-81.4,301-81.5,301.1-81.7,301.1z M-78.4,296.4c-0.2,0.1-0.4,0-0.6-0.1c-0.3-0.2-0.4-0.7-0.2-1l1.6-2.4c0.2-0.3,0.7-0.4,1-0.2
					c0.3,0.2,0.4,0.7,0.2,1l-1.7,2.4C-78.1,296.3-78.2,296.4-78.4,296.4z M-75.1,291.7c-0.2,0.1-0.4,0-0.6-0.1
					c-0.3-0.2-0.4-0.7-0.2-1l1.6-2.4c0.2-0.3,0.7-0.4,1-0.2c0.3,0.2,0.4,0.7,0.2,1l-1.6,2.4C-74.8,291.6-74.9,291.7-75.1,291.7z
					 M-71.8,287c-0.2,0.1-0.4,0-0.6-0.1c-0.3-0.2-0.4-0.7-0.2-1l1.6-2.4c0.2-0.3,0.7-0.4,1-0.2c0.3,0.2,0.4,0.7,0.2,1l-1.7,2.4
					C-71.5,286.9-71.6,287-71.8,287z M-68.5,282.3c-0.2,0.1-0.4,0-0.6-0.1c-0.3-0.2-0.4-0.7-0.2-1l1.6-2.4c0.2-0.3,0.7-0.4,1-0.2
					c0.3,0.2,0.4,0.7,0.2,1l-1.6,2.4C-68.2,282.2-68.3,282.3-68.5,282.3z M-65.2,277.6c-0.2,0.1-0.4,0-0.6-0.1
					c-0.3-0.2-0.4-0.7-0.2-1l1.6-2.4c0.2-0.3,0.7-0.4,1-0.2c0.3,0.2,0.4,0.7,0.2,1l-1.6,2.4C-64.9,277.5-65,277.6-65.2,277.6z
					 M-61.9,272.9c-0.2,0.1-0.4,0-0.6-0.1c-0.3-0.2-0.4-0.7-0.2-1l1.6-2.4c0.2-0.3,0.7-0.4,1-0.2c0.3,0.2,0.4,0.7,0.2,1l-1.6,2.4
					C-61.6,272.8-61.7,272.9-61.9,272.9z M-58.6,268.2c-0.2,0.1-0.4,0-0.6-0.1c-0.3-0.2-0.4-0.7-0.2-1l1.7-2.4
					c0.2-0.3,0.7-0.4,1-0.2c0.3,0.2,0.4,0.7,0.2,1l-1.6,2.4C-58.3,268-58.4,268.1-58.6,268.2z"/>
				<path class="st1" d="M-53.1,262.9c-0.2,0-0.3,0-0.5,0l-0.8-0.4l-0.5,0.7c-0.2,0.3-0.7,0.4-1,0.2c-0.3-0.2-0.4-0.7-0.2-1l0.9-1.2
					c0.2-0.3,0.6-0.4,0.9-0.3l1.4,0.6c0.4,0.2,0.5,0.6,0.4,1C-52.7,262.7-52.9,262.8-53.1,262.9z"/>
				<path class="st1" d="M-0.8,286c-0.2,0-0.3,0-0.5,0l-2.6-1.2c-0.4-0.2-0.5-0.6-0.4-1c0.2-0.4,0.6-0.5,1-0.4l2.6,1.2
					c0.4,0.2,0.5,0.6,0.4,1C-0.4,285.8-0.6,285.9-0.8,286z M-6,283.6c-0.2,0-0.3,0-0.5,0l-2.6-1.2c-0.4-0.2-0.5-0.6-0.4-1
					c0.2-0.4,0.6-0.5,1-0.4l2.6,1.2c0.4,0.2,0.5,0.6,0.4,1C-5.6,283.4-5.8,283.6-6,283.6z M-11.2,281.3c-0.2,0-0.3,0-0.5,0l-2.6-1.2
					c-0.4-0.2-0.5-0.6-0.4-1c0.2-0.4,0.6-0.5,1-0.4l2.6,1.2c0.4,0.2,0.5,0.6,0.4,1C-10.9,281.1-11,281.3-11.2,281.3z M-16.5,279
					c-0.2,0-0.3,0-0.5,0l-2.6-1.2c-0.4-0.2-0.5-0.6-0.4-1c0.2-0.4,0.6-0.5,1-0.4l2.6,1.2c0.4,0.2,0.5,0.6,0.4,1
					C-16.1,278.8-16.3,279-16.5,279z M-21.7,276.7c-0.2,0-0.3,0-0.5,0l-2.6-1.2c-0.4-0.2-0.5-0.6-0.4-1c0.2-0.4,0.6-0.5,1-0.4
					l2.6,1.2c0.4,0.2,0.5,0.6,0.4,1C-21.3,276.5-21.5,276.7-21.7,276.7z M-26.9,274.4c-0.2,0-0.3,0-0.5,0l-2.6-1.2
					c-0.4-0.2-0.5-0.6-0.4-1c0.2-0.4,0.6-0.5,1-0.4l2.6,1.2c0.4,0.2,0.5,0.6,0.4,1C-26.5,274.2-26.7,274.4-26.9,274.4z M-32.2,272.1
					c-0.2,0-0.3,0-0.5,0l-2.6-1.2c-0.4-0.2-0.5-0.6-0.4-1c0.2-0.4,0.6-0.5,1-0.4l2.6,1.2c0.4,0.2,0.5,0.6,0.4,1
					C-31.8,271.9-32,272-32.2,272.1z M-37.4,269.8c-0.2,0-0.3,0-0.5,0l-2.6-1.2c-0.4-0.2-0.5-0.6-0.4-1c0.2-0.4,0.6-0.5,1-0.4
					l2.6,1.2c0.4,0.2,0.5,0.6,0.4,1C-37,269.6-37.2,269.7-37.4,269.8z M-42.6,267.5c-0.2,0-0.3,0-0.5,0l-2.6-1.2
					c-0.4-0.2-0.5-0.6-0.4-1c0.2-0.4,0.6-0.5,1-0.4l2.6,1.2c0.4,0.2,0.5,0.6,0.4,1C-42.2,267.3-42.4,267.4-42.6,267.5z M-47.9,265.2
					c-0.2,0-0.3,0-0.5,0L-51,264c-0.4-0.2-0.5-0.6-0.4-1c0.2-0.4,0.6-0.5,1-0.4l2.6,1.2c0.4,0.2,0.5,0.6,0.4,1
					C-47.5,265-47.7,265.1-47.9,265.2z"/>
				<path class="st1" d="M3.2,287.7c-0.2,0-0.3,0-0.5,0l-1.4-0.6c-0.4-0.2-0.5-0.6-0.4-1c0.2-0.4,0.6-0.5,1-0.4l1.4,0.6
					c0.4,0.2,0.5,0.6,0.4,1C3.6,287.5,3.4,287.7,3.2,287.7z"/>
			</g>
			<polygon class="st1" points="-109.3,252 -52.3,269.9 -13,225 			"/>
		</g>
		<g>
			<polygon class="st2" points="156.1,361.5 -28.1,333.9 -10.1,214 174.1,241.6 			"/>
			<g>
				<path class="st3" d="M-26.1,333.6c-0.4-0.1-0.8-0.3-1-0.7c-0.4-0.7-0.2-1.5,0.5-1.9l2.4-1.4c0.7-0.4,1.5-0.2,1.9,0.5
					c0.4,0.7,0.2,1.5-0.5,1.9l-2.4,1.4C-25.4,333.6-25.7,333.6-26.1,333.6z"/>
				<path class="st3" d="M-19.1,329.4c-0.4-0.1-0.8-0.3-1-0.7c-0.4-0.7-0.2-1.5,0.5-1.9l4.6-2.7c0.7-0.4,1.5-0.2,1.9,0.5
					c0.4,0.7,0.2,1.5-0.5,1.9l-4.6,2.7C-18.5,329.4-18.8,329.5-19.1,329.4z M-9.9,323.9c-0.4-0.1-0.8-0.3-1-0.7
					c-0.4-0.7-0.2-1.5,0.5-1.9l4.6-2.7c0.7-0.4,1.5-0.2,1.9,0.5c0.4,0.7,0.2,1.5-0.5,1.9l-4.6,2.7C-9.3,323.9-9.6,324-9.9,323.9z
					 M-0.7,318.5c-0.4-0.1-0.8-0.3-1-0.7c-0.4-0.7-0.2-1.5,0.5-1.9l4.6-2.7c0.7-0.4,1.5-0.2,1.9,0.5c0.4,0.7,0.2,1.5-0.5,1.9
					l-4.6,2.7C-0.1,318.5-0.4,318.5-0.7,318.5z M8.5,313c-0.4-0.1-0.8-0.3-1-0.7c-0.4-0.7-0.2-1.5,0.5-1.9l4.6-2.7
					c0.7-0.4,1.5-0.2,1.9,0.5c0.4,0.7,0.2,1.5-0.5,1.9l-4.6,2.7C9.1,313,8.8,313,8.5,313z M17.7,307.5c-0.4-0.1-0.8-0.3-1-0.7
					c-0.4-0.7-0.2-1.5,0.5-1.9l4.6-2.7c0.7-0.4,1.5-0.2,1.9,0.5c0.4,0.7,0.2,1.5-0.5,1.9l-4.6,2.7C18.3,307.5,18,307.5,17.7,307.5z
					 M26.9,302c-0.4-0.1-0.8-0.3-1-0.7c-0.4-0.7-0.2-1.5,0.5-1.9l4.6-2.7c0.7-0.4,1.5-0.2,1.9,0.5c0.4,0.7,0.2,1.5-0.5,1.9l-4.6,2.7
					C27.5,302,27.2,302.1,26.9,302z M36,296.5c-0.4-0.1-0.8-0.3-1-0.7c-0.4-0.7-0.2-1.5,0.5-1.9l4.6-2.7c0.7-0.4,1.5-0.2,1.9,0.5
					c0.4,0.7,0.2,1.5-0.5,1.9l-4.6,2.7C36.7,296.5,36.3,296.6,36,296.5z M45.2,291.1c-0.4-0.1-0.8-0.3-1-0.7
					c-0.4-0.7-0.2-1.5,0.5-1.9l4.6-2.7c0.7-0.4,1.5-0.2,1.9,0.5c0.4,0.7,0.2,1.5-0.5,1.9l-4.6,2.7C45.9,291.1,45.5,291.1,45.2,291.1
					z M54.4,285.6c-0.4-0.1-0.8-0.3-1-0.7c-0.4-0.7-0.2-1.5,0.5-1.9l4.6-2.7c0.7-0.4,1.5-0.2,1.9,0.5c0.4,0.7,0.2,1.5-0.5,1.9
					l-4.6,2.7C55,285.6,54.7,285.6,54.4,285.6z M63.6,280.1c-0.4-0.1-0.8-0.3-1-0.7c-0.4-0.7-0.2-1.5,0.5-1.9l4.6-2.7
					c0.7-0.4,1.5-0.2,1.9,0.5c0.4,0.7,0.2,1.5-0.5,1.9l-4.6,2.7C64.2,280.1,63.9,280.2,63.6,280.1z"/>
				<path class="st3" d="M77,275.3c-0.3,0-0.6-0.2-0.8-0.4l-1.1-1.2l-1.4,0.8c-0.7,0.4-1.5,0.2-1.9-0.5c-0.4-0.7-0.2-1.5,0.5-1.9
					l2.4-1.4c0.6-0.3,1.3-0.2,1.7,0.3l1.9,2.1c0.5,0.6,0.5,1.4-0.1,2C77.8,275.2,77.4,275.3,77,275.3z"/>
				<path class="st3" d="M148.2,354.4c-0.3,0-0.6-0.2-0.8-0.4l-3.6-4c-0.5-0.6-0.5-1.4,0.1-2c0.6-0.5,1.4-0.5,2,0.1l3.6,4
					c0.5,0.6,0.5,1.4-0.1,2C149.1,354.4,148.6,354.5,148.2,354.4z M141.1,346.5c-0.3,0-0.6-0.2-0.8-0.4l-3.6-4
					c-0.5-0.6-0.5-1.4,0.1-2c0.6-0.5,1.4-0.5,2,0.1l3.6,4c0.5,0.6,0.5,1.4-0.1,2C141.9,346.4,141.5,346.6,141.1,346.5z M134,338.6
					c-0.3,0-0.6-0.2-0.8-0.4l-3.6-4c-0.5-0.6-0.5-1.4,0.1-2c0.6-0.5,1.5-0.5,2,0.1l3.6,4c0.5,0.6,0.5,1.4-0.1,2
					C134.8,338.5,134.4,338.6,134,338.6z M126.9,330.7c-0.3,0-0.6-0.2-0.8-0.4l-3.6-4c-0.5-0.6-0.5-1.4,0.1-2c0.6-0.5,1.4-0.5,2,0.1
					l3.6,4c0.5,0.6,0.5,1.4-0.1,2C127.7,330.6,127.3,330.7,126.9,330.7z M119.7,322.8c-0.3-0.1-0.6-0.2-0.8-0.4l-3.6-4
					c-0.5-0.6-0.5-1.4,0.1-2c0.6-0.5,1.4-0.5,2,0.1l3.6,4c0.5,0.6,0.5,1.4-0.1,2C120.6,322.7,120.1,322.8,119.7,322.8z M112.6,314.8
					c-0.3,0-0.6-0.2-0.8-0.4l-3.6-4c-0.5-0.6-0.5-1.4,0.1-2c0.6-0.5,1.4-0.5,2,0.1l3.6,4c0.5,0.6,0.5,1.4-0.1,2
					C113.4,314.8,113,314.9,112.6,314.8z M105.5,306.9c-0.3-0.1-0.6-0.2-0.8-0.4l-3.6-4c-0.5-0.6-0.5-1.4,0.1-2
					c0.6-0.5,1.4-0.5,2,0.1l3.6,4c0.5,0.6,0.5,1.4-0.1,2C106.3,306.9,105.9,307,105.5,306.9z M98.4,299c-0.3,0-0.6-0.2-0.8-0.4
					l-3.6-4c-0.5-0.6-0.5-1.4,0.1-2c0.6-0.5,1.4-0.5,2,0.1l3.6,4c0.5,0.6,0.5,1.4-0.1,2C99.2,299,98.8,299.1,98.4,299z M91.3,291.1
					c-0.3-0.1-0.6-0.2-0.8-0.4l-3.6-4c-0.5-0.6-0.5-1.4,0.1-2c0.6-0.5,1.4-0.5,2,0.1l3.6,4c0.5,0.6,0.5,1.4-0.1,2
					C92.1,291,91.7,291.2,91.3,291.1z M84.1,283.2c-0.3,0-0.6-0.2-0.8-0.4l-3.6-4c-0.5-0.6-0.5-1.4,0.1-2c0.6-0.5,1.4-0.5,2,0.1
					l3.6,4c0.5,0.6,0.5,1.4-0.1,2C85,283.1,84.5,283.2,84.1,283.2z"/>
				<path class="st3" d="M153.7,360.4c-0.3-0.1-0.6-0.2-0.8-0.4l-1.9-2.1c-0.5-0.6-0.5-1.5,0.1-2c0.6-0.5,1.4-0.5,2,0.1l1.9,2.1
					c0.5,0.6,0.5,1.4-0.1,2C154.5,360.4,154,360.5,153.7,360.4z"/>
			</g>
			<polygon class="st3" points="-10.1,214 73,287.7 174.1,241.6 			"/>
		</g>
	</g>
	<g id="Building_15_">
		<path class="st4" d="M93.9,322.9c0-5.3-3.4-9.6-7.7-9.6H-217c-4.2,0-7.7,4.3-7.7,9.6v56.7c0,5.3,3.4,9.6,7.7,9.6H86.2
			c4.2,0,7.7-4.3,7.7-9.6V322.9z"/>
		<polygon class="st5" points="110.6,541.3 -66.3,541.1 -66.3,557.1 87.9,557.1 		"/>
		<path class="st6" d="M93.9,550.3c0,3.8-3.1,6.8-6.8,6.8h-304.9c-3.8,0-6.8-3.1-6.8-6.8V374.5c0-3.8,3.1-6.8,6.8-6.8H87
			c3.8,0,6.8,3.1,6.8,6.8V550.3z"/>
		<g>
			<path class="st7" d="M-104.8,392.2h-86.2c-3.8,0-6.8,3.1-6.8,7v151c0,3.8,3.1,7,6.8,7h86.2c3.8,0,6.8-3.1,6.8-7v-151
				C-97.9,395.3-101,392.2-104.8,392.2z"/>
			<path class="st8" d="M-190.9,392.2c-3.8,0-6.8,3.1-6.8,7v151c0,3.8,3.1,7,6.8,7h6.7l59-164.9H-190.9z"/>
			<path class="st9" d="M-114.6,547.6h-65.5c-5.2,0-9.5-4.3-9.5-9.5v-33.8c0-5.2,4.3-9.5,9.5-9.5h65.5c5.2,0,9.5,4.3,9.5,9.5V538
				C-105.1,543.3-109.4,547.6-114.6,547.6z M-180.1,501c-1.7,0-3.2,1.4-3.2,3.2V538c0,1.7,1.4,3.2,3.2,3.2h65.5
				c1.7,0,3.2-1.4,3.2-3.2v-33.8c0-1.7-1.4-3.2-3.2-3.2H-180.1z"/>
			<path class="st10" d="M-111.9,401.2h-6.5h-15.9h-20.8h-28c-3.6,0-6.6,3-6.6,6.6v32.9v23.7V482c0,3.6,3,6.6,6.6,6.6h71.3
				c3.6,0,6.6-3,6.6-6.6v-62.2v-12C-105.3,404.2-108.2,401.2-111.9,401.2z"/>
			<polygon class="st11" points="-155.1,401.2 -189.7,440.7 -189.7,464.4 -134.3,401.2 			"/>
			<path class="st11" d="M-111.9,401.2h-6.5l-44.5,50.7c-3.9,4.4-3.5,11.2,1,15.1l0.5,0.5c4.4,3.9,11.2,3.5,15.1-1l41-46.7v-12
				C-105.3,404.2-108.2,401.2-111.9,401.2z"/>
			<path class="st12" d="M-103.9,489.1c0,1.3-1.1,2.3-2.5,2.3l0,0c-1.4,0-2.5-1-2.5-2.3v-3.4c0-1.3,1.1-2.3,2.5-2.3l0,0
				c1.4,0,2.5,1,2.5,2.3V489.1z"/>
			<path class="st12" d="M-139.3,489.1c0,1.3-1.1,2.3-2.5,2.3l0,0c-1.4,0-2.5-1-2.5-2.3v-3.4c0-1.3,1.1-2.3,2.5-2.3l0,0
				c1.4,0,2.5,1,2.5,2.3V489.1z"/>
			<path class="st13" d="M-110.2,483.4H-123h-15.4c-2.2,0-4,1.8-4,4c0,2.2,1.8,4,4,4h10.9h17.4c2.2,0,4-1.8,4-4
				C-106.2,485.2-108,483.4-110.2,483.4z"/>
			<path class="st0" d="M-106.2,487.4c0-2.2-1.8-4-4-4H-123l-4.5,8h17.4C-108,491.4-106.2,489.6-106.2,487.4z"/>
		</g>
		<rect x="-119.4" y="458.9" class="st14" width="10.5" height="6.4"/>
		<rect x="-125.3" y="467.4" class="st15" width="16.3" height="9.9"/>
		<rect x="-113.6" y="468.6" class="st16" width="3.7" height="2.2"/>
		<g>
			<path class="st17" d="M-178.8,341c0,1.4-1.1,2.5-2.5,2.5h-29.3c-1.4,0-2.5-1.1-2.5-2.5v-8.3c0-1.4,1.1-2.5,2.5-2.5h29.3
				c1.4,0,2.5,1.1,2.5,2.5V341z"/>
			<path class="st17" d="M-139.8,341c0,1.4-1.1,2.5-2.5,2.5h-29.3c-1.4,0-2.5-1.1-2.5-2.5v-8.3c0-1.4,1.1-2.5,2.5-2.5h29.3
				c1.4,0,2.5,1.1,2.5,2.5V341z"/>
			<path class="st17" d="M-158.4,358.3c0,1.4-1.1,2.5-2.5,2.5h-29.3c-1.4,0-2.5-1.1-2.5-2.5v-8.3c0-1.4,1.1-2.5,2.5-2.5h29.3
				c1.4,0,2.5,1.1,2.5,2.5V358.3z"/>
			<path class="st17" d="M-118.1,358.3c0,1.4-1.1,2.5-2.5,2.5h-29.3c-1.4,0-2.5-1.1-2.5-2.5v-8.3c0-1.4,1.1-2.5,2.5-2.5h29.3
				c1.4,0,2.5,1.1,2.5,2.5V358.3z"/>
			<path class="st18" d="M87.4,549.9c0,1.4-1.1,2.5-2.5,2.5H55.6c-1.4,0-2.5-1.1-2.5-2.5v-8.3c0-1.4,1.1-2.5,2.5-2.5H85
				c1.4,0,2.5,1.1,2.5,2.5V549.9z"/>
			<path class="st18" d="M48.5,549.9c0,1.4-1.1,2.5-2.5,2.5H16.7c-1.4,0-2.5-1.1-2.5-2.5v-8.3c0-1.4,1.1-2.5,2.5-2.5H46
				c1.4,0,2.5,1.1,2.5,2.5V549.9z"/>
			<path class="st18" d="M9.5,549.9c0,1.4-1.1,2.5-2.5,2.5h-29.3c-1.4,0-2.5-1.1-2.5-2.5v-8.3c0-1.4,1.1-2.5,2.5-2.5H7
				c1.4,0,2.5,1.1,2.5,2.5V549.9z"/>
			<path class="st18" d="M68.3,533.3c0,1.4-1.1,2.5-2.5,2.5H36.5c-1.4,0-2.5-1.1-2.5-2.5v-8.3c0-1.4,1.1-2.5,2.5-2.5h29.3
				c1.4,0,2.5,1.1,2.5,2.5V533.3z"/>
			<path class="st18" d="M29.3,533.3c0,1.4-1.1,2.5-2.5,2.5H-2.5c-1.4,0-2.5-1.1-2.5-2.5v-8.3c0-1.4,1.1-2.5,2.5-2.5h29.3
				c1.4,0,2.5,1.1,2.5,2.5V533.3z"/>
			<path class="st17" d="M51.2,341c0,1.4-1.1,2.5-2.5,2.5H19.4c-1.4,0-2.5-1.1-2.5-2.5v-8.3c0-1.4,1.1-2.5,2.5-2.5h29.3
				c1.4,0,2.5,1.1,2.5,2.5V341z"/>
			<path class="st17" d="M90.1,341c0,1.4-1.1,2.5-2.5,2.5H58.3c-1.4,0-2.5-1.1-2.5-2.5v-8.3c0-1.4,1.1-2.5,2.5-2.5h29.3
				c1.4,0,2.5,1.1,2.5,2.5V341z"/>
		</g>
		<g>
			<path class="st0" d="M78.1,332.5H58.6H43.9H32.7h-48.8h-58.2c-4.2,0-7.7,3.4-7.7,7.7v37.3c0,4.2,3.4,7.7,7.7,7.7h12.9h48.8h90.8
				c4.2,0,7.7-3.4,7.7-7.7v-37.3C85.8,335.9,82.3,332.5,78.1,332.5z"/>
			<g>
				<path class="st19" d="M-53.1,362.3v4.3c0,0.5,0.2,0.8,0.6,1c0.2,0.1,0.3,0.2,0.4,0.3c0.1,0.1,0.1,0.4,0.1,0.7
					c0,0.3,0,0.6-0.1,0.6c-0.1,0.1-0.3,0.1-0.6,0.1h-5.8c-0.3,0-0.5-0.3-0.5-0.8c0-0.4,0-0.7,0.1-0.8c0-0.1,0.2-0.2,0.4-0.3
					c0.2-0.1,0.4-0.1,0.4-0.2c0.1-0.1,0.1-0.2,0.1-0.4v-15.5c0-0.4-0.2-0.7-0.7-0.9c-0.2-0.1-0.4-0.3-0.4-0.6l0-0.6
					c0-0.3,0-0.4,0.1-0.5c0.1-0.1,0.2-0.1,0.4-0.1h6.6c1.9,0,3.4,0.6,4.5,1.8c1.1,1.2,1.7,2.9,1.7,5c0,1.2-0.2,2.3-0.5,3.2
					c-0.3,0.9-0.8,1.6-1.3,2.1c-0.5,0.4-1.1,0.8-1.8,1.1c-0.7,0.3-1.4,0.4-2.2,0.4H-53.1z M-53.1,350.1v10.7h0.9
					c0.3,0,0.6-0.2,0.8-0.5c0.2-0.3,0.4-0.9,0.4-1.7v-6.4c0-1.4-0.5-2.2-1.4-2.2H-53.1z"/>
				<path class="st19" d="M-38.1,348.4c1.3,0,2.3,0.4,3.3,1.3c0.9,0.8,1.7,2,2.2,3.6c0.6,1.6,0.9,3.5,0.9,6c0,2.9-0.6,5.4-1.7,7.4
					c-1.1,2-2.7,3-4.8,3c-2,0-3.5-1-4.6-2.9c-1.1-2-1.7-4.5-1.7-7.6c0-3.2,0.6-5.8,1.7-7.7C-41.6,349.4-40,348.4-38.1,348.4z
					 M-37.1,351.4c0-1.1-0.3-1.6-1-1.6c-0.3,0-0.5,0.1-0.7,0.4c-0.2,0.3-0.3,0.6-0.3,1v15.5c0,0.5,0.1,0.9,0.3,1.2
					c0.2,0.3,0.4,0.4,0.7,0.4c0.3,0,0.6-0.1,0.8-0.4c0.2-0.3,0.3-0.6,0.3-1V351.4z"/>
				<path class="st19" d="M-24.6,349.3c0.1,0,0.2-0.2,0.4-0.6c0.2-0.2,0.4-0.3,0.6-0.3c0.1,0,0.3,0,0.7,0.1c0.1,0.1,0.1,0.3,0.2,0.5
					l0.7,4.3c0,0.2,0.1,0.4,0.1,0.4c0,0.2,0,0.3-0.1,0.3c-0.1,0-0.3,0.1-0.7,0.1c-0.4,0-0.7-0.1-0.8-0.2c-0.1-0.1-0.4-0.6-0.7-1.4
					c-0.8-1.7-1.4-2.6-2-2.6c-0.4,0-0.6,0.3-0.6,0.9c0,0.7,0.6,2.2,1.9,4.4c1.5,2.5,2.4,4.3,2.9,5.4c0.4,1.1,0.7,2.4,0.7,3.8
					c0,1.6-0.4,2.9-1.2,3.8c-0.8,0.9-1.7,1.3-2.6,1.3c-0.6,0-1.2-0.2-1.8-0.5c-0.2-0.1-0.4-0.2-0.5-0.2c-0.1,0-0.2,0.1-0.3,0.2
					c-0.1,0.3-0.5,0.5-1,0.5c-0.2,0-0.3,0-0.4-0.1c-0.1-0.1-0.1-0.2-0.2-0.5l-0.6-4.3c-0.1-0.5-0.1-0.8-0.1-0.9
					c0-0.2,0.2-0.4,0.7-0.4c0.6,0,1,0.1,1.1,0.2c0.1,0.2,0.3,0.5,0.5,1.1c0.7,2.1,1.5,3.1,2.3,3.1c0.3,0,0.5-0.1,0.7-0.3
					c0.2-0.2,0.3-0.5,0.3-0.8c0-0.5-0.2-1.2-0.6-1.9c-0.4-0.7-0.9-1.6-1.4-2.5c-1.3-2.2-2.3-3.9-2.9-5.2c-0.6-1.3-0.8-2.6-0.8-4
					c0-1.5,0.3-2.7,1-3.6c0.7-0.9,1.5-1.4,2.4-1.4C-26.4,348.4-25.6,348.7-24.6,349.3z"/>
				<path class="st19" d="M-17.4,350.2h-0.6c-0.2,0-0.3,0.1-0.5,0.4c-0.1,0.3-0.2,0.9-0.4,2c-0.1,0.5-0.2,0.8-0.3,0.9
					c-0.1,0.1-0.4,0.2-0.8,0.2c-0.4,0-0.6,0-0.7-0.1c-0.1-0.1-0.2-0.3-0.2-0.5c0-0.2,0-0.3,0-0.5l0.2-3c0-0.4,0.1-0.6,0.2-0.7
					c0.1-0.1,0.4-0.2,0.8-0.2h9.4c0.3,0,0.4,0,0.5,0.1c0.1,0.1,0.1,0.3,0.1,0.7l0.2,2.6c0,0.2,0,0.4,0,0.6c0,0.3,0,0.5-0.1,0.6
					c-0.1,0.1-0.3,0.2-0.6,0.2c-0.4,0-0.7,0-0.8-0.1c-0.1-0.1-0.2-0.4-0.3-0.8c-0.1-0.7-0.3-1.4-0.4-1.8c-0.2-0.5-0.4-0.7-0.6-0.7
					h-0.4v16.4c0,0.5,0.2,0.8,0.6,1c0.2,0.1,0.3,0.2,0.3,0.3c0.1,0.1,0.1,0.3,0.1,0.7c0,0.4,0,0.7-0.1,0.8c-0.1,0.1-0.3,0.1-0.5,0.1
					h-5.6c-0.2,0-0.4,0-0.4-0.1c-0.1-0.1-0.1-0.3-0.1-0.7c0-0.5,0.1-0.8,0.4-0.9c0.3-0.1,0.4-0.2,0.5-0.3c0.1-0.1,0.1-0.3,0.1-0.5
					V350.2z"/>
				<path class="st19" d="M4.7,348.4c1.3,0,2.3,0.4,3.3,1.3c0.9,0.8,1.7,2,2.2,3.6c0.6,1.6,0.9,3.5,0.9,6c0,2.9-0.6,5.4-1.7,7.4
					c-1.1,2-2.7,3-4.8,3c-2,0-3.5-1-4.6-2.9c-1.1-2-1.7-4.5-1.7-7.6c0-3.2,0.6-5.8,1.7-7.7C1.1,349.4,2.7,348.4,4.7,348.4z
					 M5.7,351.4c0-1.1-0.3-1.6-1-1.6c-0.3,0-0.5,0.1-0.7,0.4c-0.2,0.3-0.3,0.6-0.3,1v15.5c0,0.5,0.1,0.9,0.3,1.2
					c0.2,0.3,0.4,0.4,0.7,0.4c0.3,0,0.6-0.1,0.8-0.4c0.2-0.3,0.3-0.6,0.3-1V351.4z"/>
				<path class="st19" d="M17.9,359v7.8c0,0.4,0.2,0.7,0.7,0.8c0.2,0.1,0.4,0.1,0.5,0.2c0.1,0.1,0.1,0.3,0.1,0.6
					c0,0.5,0,0.8-0.1,0.8c-0.1,0.1-0.3,0.1-0.5,0.1h-5.8c-0.3,0-0.5-0.1-0.6-0.2c-0.1-0.1-0.1-0.4-0.1-0.8c0-0.3,0-0.4,0.1-0.5
					c0-0.1,0.2-0.2,0.4-0.3c0.3-0.1,0.5-0.3,0.6-0.4c0.1-0.1,0.1-0.2,0.1-0.4v-15.5c0-0.2,0-0.4-0.1-0.5c-0.1-0.1-0.3-0.2-0.6-0.4
					c-0.2-0.1-0.3-0.3-0.3-0.6c0,0,0-0.2,0-0.6c0.1-0.4,0.3-0.5,0.6-0.5h8c0.2,0,0.4,0,0.5,0.1c0.1,0.1,0.2,0.3,0.2,0.6
					c0,0,0,0.1,0,0.2l0.6,2.8c0,0.2,0.1,0.3,0.1,0.5c0,0.3-0.2,0.4-0.6,0.4c-0.5,0-0.9-0.1-1-0.3c-0.1-0.2-0.3-0.7-0.6-1.5
					c-0.2-0.5-0.4-0.8-0.5-1c-0.2-0.2-0.4-0.3-0.8-0.3c-0.1,0-0.3,0-0.6,0v7.3h0.7c0.3,0,0.6-0.1,0.7-0.2c0.1-0.2,0.2-0.4,0.3-0.8
					c0.1-0.4,0.1-0.7,0.2-0.8c0.1-0.1,0.3-0.2,0.8-0.2c0.3,0,0.5,0,0.6,0.1c0.1,0.1,0.1,0.2,0.1,0.4v4.6c0,0.2,0,0.3-0.1,0.4
					c-0.1,0.1-0.3,0.1-0.7,0.1c-0.4,0-0.7-0.1-0.8-0.2c-0.1-0.1-0.2-0.5-0.3-1.1c-0.1-0.6-0.4-0.9-0.9-0.9H17.9z"/>
				<path class="st19" d="M28.5,359v7.8c0,0.4,0.2,0.7,0.7,0.8c0.2,0.1,0.4,0.1,0.5,0.2c0.1,0.1,0.1,0.3,0.1,0.6
					c0,0.5,0,0.8-0.1,0.8c-0.1,0.1-0.2,0.1-0.5,0.1h-5.8c-0.3,0-0.5-0.1-0.6-0.2c-0.1-0.1-0.1-0.4-0.1-0.8c0-0.3,0-0.4,0.1-0.5
					c0-0.1,0.2-0.2,0.4-0.3c0.3-0.1,0.5-0.3,0.6-0.4c0.1-0.1,0.1-0.2,0.1-0.4v-15.5c0-0.2,0-0.4-0.1-0.5c-0.1-0.1-0.3-0.2-0.6-0.4
					c-0.2-0.1-0.3-0.3-0.3-0.6c0,0,0-0.2,0-0.6c0.1-0.4,0.3-0.5,0.6-0.5h8c0.2,0,0.4,0,0.5,0.1c0.1,0.1,0.2,0.3,0.2,0.6
					c0,0,0,0.1,0,0.2l0.6,2.8c0,0.2,0.1,0.3,0.1,0.5c0,0.3-0.2,0.4-0.6,0.4c-0.5,0-0.9-0.1-1-0.3c-0.1-0.2-0.3-0.7-0.6-1.5
					c-0.2-0.5-0.4-0.8-0.5-1c-0.2-0.2-0.4-0.3-0.8-0.3c-0.1,0-0.3,0-0.6,0v7.3h0.7c0.3,0,0.6-0.1,0.7-0.2c0.1-0.2,0.2-0.4,0.3-0.8
					c0.1-0.4,0.1-0.7,0.2-0.8c0.1-0.1,0.3-0.2,0.8-0.2c0.3,0,0.5,0,0.6,0.1c0.1,0.1,0.1,0.2,0.1,0.4v4.6c0,0.2,0,0.3-0.1,0.4
					c-0.1,0.1-0.3,0.1-0.7,0.1c-0.4,0-0.7-0.1-0.8-0.2c-0.1-0.1-0.2-0.5-0.3-1.1c-0.1-0.6-0.4-0.9-0.9-0.9H28.5z"/>
				<path class="st19" d="M33.4,349.8v-0.7c0-0.3,0.1-0.4,0.4-0.4H40c0.2,0,0.4,0,0.4,0.1c0.1,0.1,0.1,0.2,0.1,0.5
					c0,0.5,0,0.7-0.1,0.8c0,0.1-0.1,0.2-0.3,0.2c-0.5,0.1-0.8,0.4-0.8,1v15.4c0,0.3,0.2,0.6,0.6,0.8c0.2,0.1,0.4,0.2,0.4,0.3
					c0.1,0.1,0.1,0.3,0.1,0.5v0.5c0,0.3,0,0.4-0.1,0.5c-0.1,0-0.2,0-0.4,0h-6.2c-0.2,0-0.4-0.1-0.4-0.3c0-0.6,0-1,0.1-1.1
					c0-0.1,0.2-0.2,0.4-0.3c0.5-0.1,0.7-0.4,0.7-0.7v-15.2c0-0.4,0-0.6-0.1-0.8c-0.1-0.2-0.3-0.3-0.6-0.5c-0.2-0.1-0.3-0.2-0.4-0.2
					C33.4,350.1,33.4,350,33.4,349.8z"/>
				<path class="st19" d="M49.6,348.4h0.7c0.2,0,0.3,0.1,0.3,0.2c0.1,0.1,0.1,0.4,0.2,0.9l0.3,4.1c0,0.1,0,0.2,0,0.2
					c0,0.3,0,0.5-0.1,0.6c-0.1,0.1-0.3,0.2-0.6,0.2c-0.4,0-0.6-0.1-0.8-0.3c-0.1-0.2-0.3-0.7-0.4-1.4c-0.4-1.9-0.9-2.8-1.5-2.8
					c-0.5,0-0.8,0.7-0.8,2v14.4c0,1,0.3,1.4,0.8,1.4c0.7,0,1.1-0.8,1.2-2.4c0-0.5,0.1-0.8,0.3-1c0.2-0.2,0.5-0.3,0.9-0.3
					c0.4,0,0.6,0.1,0.7,0.2c0.1,0.1,0.2,0.4,0.2,0.8c0,1.2-0.4,2.2-1.1,3c-0.7,0.8-1.6,1.2-2.7,1.2c-1.1,0-2-0.3-2.8-1
					c-0.8-0.7-1.5-1.8-2.1-3.5c-0.6-1.7-0.9-3.8-0.9-6.3c0-2.4,0.2-4.4,0.7-5.8c0.5-1.5,1.1-2.6,1.9-3.4c0.8-0.8,1.7-1.2,2.7-1.2
					c0.6,0,1.1,0.2,1.6,0.5c0.2,0.1,0.3,0.2,0.4,0.2c0.1,0,0.2-0.1,0.4-0.4C49.3,348.5,49.5,348.4,49.6,348.4z"/>
				<path class="st19" d="M57.6,350.3v7.3h0.9c0.2,0,0.4-0.1,0.5-0.2c0.1-0.1,0.2-0.3,0.3-0.7c0.1-0.6,0.2-1,0.2-1.1
					c0.1-0.1,0.2-0.2,0.3-0.2c0.7,0,1.1,0,1.1,0.1c0.1,0.1,0.1,0.3,0.1,0.6v4.3c0,0.3,0,0.4-0.1,0.5c-0.1,0.1-0.4,0.1-0.8,0.1
					c-0.3,0-0.5-0.1-0.6-0.2c-0.1-0.1-0.2-0.4-0.3-0.9c-0.1-0.5-0.2-0.7-0.3-0.8c-0.1-0.1-0.2-0.2-0.4-0.2h-1v8.8h0.7
					c0.4,0,0.7-0.1,0.9-0.3c0.2-0.2,0.4-0.9,0.8-2c0.1-0.5,0.3-0.8,0.4-0.9c0.2-0.1,0.4-0.2,0.8-0.2c0.5,0,0.8,0.2,0.8,0.5
					c0,0.1,0,0.3-0.1,0.4l-0.5,2.9c-0.1,0.5-0.2,0.8-0.2,1c-0.1,0.1-0.2,0.2-0.5,0.2h-8.5c-0.2,0-0.4,0-0.4-0.1
					c-0.1-0.1-0.1-0.4-0.1-0.9c0-0.3,0.2-0.5,0.5-0.7c0.5-0.2,0.7-0.5,0.7-0.8v-16c0-0.2-0.2-0.3-0.6-0.5c-0.3-0.1-0.4-0.2-0.5-0.3
					c0-0.1-0.1-0.3-0.1-0.7c0-0.3,0-0.5,0.1-0.6c0.1-0.1,0.2-0.1,0.4-0.1h8.2c0.2,0,0.4,0,0.4,0.1c0.1,0.1,0.2,0.2,0.2,0.5l0.7,3.3
					c0,0.2,0.1,0.3,0.1,0.3c0,0.2-0.2,0.3-0.6,0.3c-0.5,0-0.8-0.1-0.9-0.2c-0.2-0.1-0.3-0.4-0.5-0.8c-0.3-0.8-0.5-1.3-0.7-1.6
					c-0.2-0.3-0.4-0.4-0.6-0.4H57.6z"/>
			</g>
			<polygon class="st20" points="-16.1,332.5 -61.5,385.1 -12.7,385.1 32.7,332.5 			"/>
			<circle class="st19" cx="-70" cy="358.8" r="5"/>
			<circle class="st19" cx="70.5" cy="358.8" r="5"/>
			<path class="st20" d="M14.6,369.1l5.8,5c0.7,0.6,2.7-0.5,4.5-2.6l33.7-39.1H43.9l-27.4,31.8C14.7,366.3,13.9,368.5,14.6,369.1z"
				/>
		</g>
		<path class="st19" d="M104.5,315.8c0,4.2-3.4,7.7-7.7,7.7h-326.2c-4.2,0-7.7-3.4-7.7-7.7v-2.6c0-4.2,3.4-7.7,7.7-7.7H96.9
			c4.2,0,7.7,3.4,7.7,7.7V315.8z"/>
		<path class="st7" d="M11.9,419c0.4-4.3,2-9.1,4.9-13.6c0.9-1.5,2-2.9,3.2-4.3c4.1-4.7,9.7-8.5,17-10.2c2.7-0.6,5.5-1,8.7-1
			c22.8,0,33.8,18.9,33.8,31.1c0,0.1,0,0.4,0,0.5v17v29.3v36.7c0,1.3-1.1,2.4-2.4,2.4H14.3c-1.4,0-2.4-1.1-2.4-2.4v-83
			c0,0,0-0.3,0-0.5C11.8,420.3,11.9,419.7,11.9,419z"/>
		<g>
			<path class="st21" d="M75.4,421.7c-0.3-3.8-1.7-8.2-4.2-12.3c-0.8-1.3-1.7-2.6-2.8-3.9c-3.6-4.2-8.5-7.7-14.8-9.2
				c-2.3-0.6-4.8-0.9-7.6-0.9c-19.9,0-29.5,17.1-29.5,28.1c0,0.1,0,0.4,0,0.4v15.3v26.4v33.2c0,1.2,1,2.1,2.1,2.1h54.8
				c1.2,0,2.1-1,2.1-2.1v-74.9c0,0,0-0.3,0-0.4C75.5,422.9,75.5,422.3,75.4,421.7z"/>
			<path class="st22" d="M53.5,396.3l-37.1,42.9v26.4l51.9-60.1C64.8,401.3,59.9,397.9,53.5,396.3z"/>
		</g>
		<path class="st7" d="M-81.3,419c0.4-4.3,2-9.1,4.8-13.6c0.9-1.5,2-2.9,3.2-4.3c4.1-4.7,9.7-8.5,17-10.2c2.7-0.6,5.6-1,8.7-1
			c22.8,0,33.8,18.9,33.8,31.1c0,0.1,0,0.4,0,0.5v17v29.3v36.7c0,1.3-1.1,2.4-2.4,2.4H-79c-1.4,0-2.4-1.1-2.4-2.4v-83
			c0,0,0-0.3,0-0.5C-81.4,420.3-81.4,419.7-81.3,419z"/>
		<g>
			<path class="st21" d="M-76.9,421.7c0.3-3.8,1.7-8.2,4.2-12.3c0.8-1.3,1.7-2.6,2.8-3.9c3.6-4.2,8.5-7.7,14.8-9.2
				c2.3-0.6,4.8-0.9,7.6-0.9c19.9,0,29.5,17.1,29.5,28.1c0,0.1,0,0.4,0,0.4v15.3v26.4v33.2c0,1.2-1,2.1-2.1,2.1h-54.8
				c-1.2,0-2.1-1-2.1-2.1v-74.9c0,0,0-0.3,0-0.4C-77,422.9-76.9,422.3-76.9,421.7z"/>
			<path class="st22" d="M-57.2,449.9c-2,2.3-1.8,5.9,0.6,7.9c2.3,2,5.9,1.8,7.9-0.6l30.7-35.6c-0.3-3.8-1.7-8.2-4.2-12.3
				L-57.2,449.9z"/>
		</g>
		<path class="st9" d="M-6.7,503.6c0,3.3-2.6,5.9-5.9,5.9h-70.3c-3.3,0-5.9-2.6-5.9-5.9l0,0c0-3.3,2.6-5.9,5.9-5.9h70.3
			C-9.4,497.7-6.7,500.3-6.7,503.6L-6.7,503.6z"/>
		<path class="st9" d="M82.7,503.6c0,3.3-2.6,5.9-5.9,5.9H6.5c-3.3,0-5.9-2.6-5.9-5.9l0,0c0-3.3,2.6-5.9,5.9-5.9h70.3
			C80,497.7,82.7,500.3,82.7,503.6L82.7,503.6z"/>
	</g>
	<g id="Mail_Box">
		<path class="st23" d="M-214.3,550.4c0,1.5-1.2,2.8-2.8,2.8h-36.1c-1.5,0-2.8-1.2-2.8-2.8v-83.8c0-1.5,1.2-2.8,2.8-2.8h36.1
			c1.5,0,2.8,1.2,2.8,2.8V550.4z"/>
		<path class="st23" d="M-235,445.5c-9.6,0-17.4,4-17.4,8.9h34.7C-217.7,449.5-225.4,445.5-235,445.5z"/>
		<path class="st24" d="M-208.1,565.3c0,1.5-1.2,2.8-2.8,2.8h-47.1c-1.5,0-2.8-1.2-2.8-2.8v-17.1c0-1.5,1.2-2.8,2.8-2.8h47.1
			c1.5,0,2.8,1.2,2.8,2.8V565.3z"/>
		<path class="st25" d="M-212.1,463.6c-1.1,1.9-1.8,2.9-3.8,2.9h-38.6c-1.6,0-2.3-1.3-3.3-2.9l-3.5-8c-1.1-2.6,0.9-3.4,2.5-3.4h47.2
			c1.6,0,3.6,1.2,2.6,3.4L-212.1,463.6z"/>
		<rect x="-246.7" y="478.6" class="st26" width="24.3" height="2.4"/>
		<rect x="-243.4" y="485.9" class="st27" width="18.7" height="28.5"/>
		<rect x="-220.1" y="466.4" class="st28" width="1.4" height="79"/>
		<path class="st28" d="M-221.8,519.3c0-1-0.8-1.8-1.8-1.8c-1,0-1.8,0.8-1.8,1.8c0,0.6,0.3,1.2,0.8,1.5v2.4c0,0.5,0.4,1,1,1
			c0.5,0,1-0.4,1-1v-2.4C-222.2,520.5-221.8,520-221.8,519.3z"/>
	</g>
</g>
</svg>
