<?xml version="1.0" encoding="utf-8"?>
<!-- Generator: Adobe Illustrator 19.0.0, SVG Export Plug-In . SVG Version: 6.00 Build 0)  -->
<svg version="1.1" id="Layer_1" xmlns="http://www.w3.org/2000/svg" xmlns:xlink="http://www.w3.org/1999/xlink" x="0px" y="0px"
	 viewBox="0 0 780.7 777.4" style="enable-background:new 0 0 780.7 777.4;" xml:space="preserve">
<style type="text/css">
	.st0{fill:#6D2F05;}
	.st1{fill:#BC1622;}
	.st2{fill:#DE7F34;}
	.st3{fill:#27B7C5;}
	.st4{fill:#A3E4E1;}
	.st5{fill:#560811;}
	.st6{fill:#F4F4F4;}
	.st7{fill:#FFDC4A;}
	.st8{fill:#997E0D;}
	.st9{fill:#F7C90D;}
</style>
<g id="School_2_">
	<g id="Building_16_">
		<path id="XMLID_120_" class="st0" d="M297.6,89.2v167.3h173.2V89.2H297.6z M439.6,236.4H328.1v-90.1c0-19.8,16.1-35.9,35.9-35.9
			h39.8c19.8,0,35.9,16.1,35.9,35.9V236.4z"/>
		<polygon id="XMLID_119_" class="st1" points="383.6,0 248.5,97.1 518.7,97.1 		"/>
		<g id="XMLID_51_">
			<path id="XMLID_118_" class="st2" d="M780.7,761.8c0,8.6-6.7,15.6-15.1,15.6H15.1c-8.3,0-15.1-7-15.1-15.6V266.7
				C0,258,6.7,251,15.1,251h750.6c8.3,0,15.1,7,15.1,15.6V761.8z"/>
			<g id="XMLID_105_">
				<rect id="XMLID_117_" x="297.6" y="523.8" class="st1" width="173.2" height="253.5"/>
				<g id="XMLID_107_">
					<path id="XMLID_116_" class="st3" d="M327.1,672.8h37.5c5.9,0,10.7-4.8,10.7-10.7v-32.8v-4.8c0-5.9-4.8-10.7-10.7-10.7h-4.3
						h-33.2c-5.9,0-10.7,4.8-10.7,10.7v37.5C316.4,668,321.2,672.8,327.1,672.8z"/>
					<path id="XMLID_115_" class="st3" d="M401.3,672.6c0.6,0.1,1.1,0.2,1.7,0.2h37.5c5.9,0,10.7-4.8,10.7-10.7v-37.5
						c0-5.9-4.8-10.7-10.7-10.7h-37.5c-5.9,0-10.7,4.8-10.7,10.7v26.1v11.4C392.4,667.4,396.2,671.8,401.3,672.6z"/>
					<path id="XMLID_114_" class="st3" d="M401.7,601.2c0.5,0.1,0.9,0.1,1.4,0.1h37.5c5.9,0,10.7-4.8,10.7-10.7v-10.9v-17.1v-9.5
						c0-1.5-0.3-2.8-0.8-4.1c-1.6-3.9-5.4-6.6-9.9-6.6h-13.5h-24.1c-5.9,0-10.7,4.8-10.7,10.7v26.5v11
						C392.4,596,396.4,600.5,401.7,601.2z"/>
					<path id="XMLID_113_" class="st3" d="M322.3,600.1c1.5,0.7,3.1,1.2,4.9,1.2h37.5c5.9,0,10.7-4.8,10.7-10.7v-37.5
						c0-5.9-4.8-10.7-10.7-10.7h-37.5c-5.9,0-10.7,4.8-10.7,10.7v30.3v7.3C316.4,594.8,318.8,598.4,322.3,600.1z"/>
					<path id="XMLID_112_" class="st4" d="M322.3,600.1l42.3-45.2c2.2-2.3,2-5.9-0.3-8.1l-3.1-2.9c-2.3-2.2-5.9-2-8.1,0.3
						l-36.6,39.2v7.3C316.4,594.8,318.8,598.4,322.3,600.1z"/>
					<path id="XMLID_111_" class="st4" d="M435.6,624.5l-4.3-4c-3.2-3-8.1-2.8-11.1,0.4l-27.9,29.8v11.4c0,5.3,3.9,9.7,9,10.6
						l34.7-37.1C439,632.4,438.8,627.4,435.6,624.5z"/>
					<path id="XMLID_110_" class="st4" d="M364.7,613.8h-4.3l-26.5,28.3c-3,3.2-2.8,8.1,0.4,11.1l4.3,4c3.2,3,8.1,2.8,11.1-0.4
						l25.8-27.6v-4.8C375.4,618.6,370.6,613.8,364.7,613.8z"/>
					<path id="XMLID_109_" class="st4" d="M392.4,590.6c0,5.4,4,9.9,9.3,10.6l48.8-52.2c-1.6-3.9-5.4-6.6-9.9-6.6h-13.5l-34.8,37.2
						V590.6z"/>
					<path id="XMLID_108_" class="st4" d="M430.9,590.6l2.3,2.2c1.7,1.6,4.4,1.5,6-0.2l12.1-12.9v-17.1l-20.6,22
						C429.1,586.3,429.2,589,430.9,590.6z"/>
				</g>
				<path id="XMLID_106_" class="st5" d="M451.3,698.7c0,4.6-3.8,8.4-8.4,8.4H324.8c-4.6,0-8.4-3.8-8.4-8.4l0,0
					c0-4.6,3.7-8.4,8.4-8.4h118.2C447.6,690.4,451.3,694.1,451.3,698.7L451.3,698.7z"/>
			</g>
			<g id="XMLID_71_">
				<g id="XMLID_95_">
					<path id="XMLID_104_" class="st3" d="M248.5,283.7h-64.8c-10.2,0-18.5,8.3-18.5,18.5v56.6v8.2c0,10.2,8.3,18.5,18.5,18.5h7.5
						h57.3c10.2,0,18.5-8.3,18.5-18.5v-64.8C267.1,292,258.8,283.7,248.5,283.7z"/>
					<path id="XMLID_103_" class="st3" d="M120.3,283.9c-1-0.2-2-0.3-3-0.3H52.5c-10.2,0-18.5,8.3-18.5,18.5V367
						c0,10.2,8.3,18.5,18.5,18.5h64.8c10.2,0,18.5-8.3,18.5-18.5V322v-19.8C135.8,293,129.1,285.4,120.3,283.9z"/>
					<path id="XMLID_102_" class="st3" d="M119.8,407.4c-0.8-0.1-1.6-0.2-2.5-0.2H52.5c-10.2,0-18.5,8.3-18.5,18.5v18.9v29.5v16.5
						c0,2.5,0.5,4.9,1.4,7.1c2.8,6.7,9.4,11.4,17.1,11.4h23.3h41.6c10.2,0,18.5-8.3,18.5-18.5v-45.8v-19.1
						C135.8,416.3,128.8,408.6,119.8,407.4z"/>
					<path id="XMLID_101_" class="st3" d="M257,409.2c-2.5-1.3-5.4-2-8.4-2h-64.8c-10.2,0-18.5,8.3-18.5,18.5v64.8
						c0,10.2,8.3,18.5,18.5,18.5h64.8c10.2,0,18.5-8.3,18.5-18.5v-52.3v-12.5C267.1,418.5,263,412.3,257,409.2z"/>
					<path id="XMLID_100_" class="st4" d="M257,409.2l-73.1,78.1c-3.7,4-3.5,10.3,0.5,14l5.4,5.1c4,3.7,10.3,3.5,14-0.5l63.3-67.7
						v-12.5C267.1,418.5,263,412.3,257,409.2z"/>
					<path id="XMLID_99_" class="st4" d="M61.1,367.2l7.4,6.9c5.5,5.1,14,4.8,19.2-0.6l48.2-51.5v-19.8c0-9.2-6.7-16.8-15.5-18.3
						L60.4,348C55.3,353.5,55.6,362.1,61.1,367.2z"/>
					<path id="XMLID_98_" class="st4" d="M183.7,385.6h7.5l45.8-49c5.1-5.5,4.8-14.1-0.6-19.2l-7.4-7c-5.5-5.1-14.1-4.8-19.2,0.6
						l-44.6,47.7v8.2C165.2,377.3,173.5,385.6,183.7,385.6z"/>
					<path id="XMLID_97_" class="st4" d="M135.8,425.7c0-9.4-7-17.1-16.1-18.3l-84.4,90.3c2.8,6.7,9.4,11.4,17.1,11.4h23.3
						l60.1-64.3V425.7z"/>
					<path id="XMLID_96_" class="st4" d="M69.2,425.7l-4-3.7c-2.9-2.8-7.6-2.6-10.3,0.3L34,444.6v29.5l35.5-38
						C72.3,433.1,72.1,428.5,69.2,425.7z"/>
				</g>
				<g id="XMLID_85_">
					<path id="XMLID_94_" class="st3" d="M733.3,283.7h-64.8c-10.2,0-18.5,8.3-18.5,18.5v56.6v8.2c0,10.2,8.3,18.5,18.5,18.5h7.5
						h57.3c10.2,0,18.5-8.3,18.5-18.5v-64.8C751.8,292,743.5,283.7,733.3,283.7z"/>
					<path id="XMLID_93_" class="st3" d="M605.1,283.9c-1-0.2-2-0.3-3-0.3h-64.8c-10.2,0-18.5,8.3-18.5,18.5V367
						c0,10.2,8.3,18.5,18.5,18.5H602c10.2,0,18.5-8.3,18.5-18.5V322v-19.8C620.6,293,613.9,285.4,605.1,283.9z"/>
					<path id="XMLID_92_" class="st3" d="M604.5,407.4c-0.8-0.1-1.6-0.2-2.5-0.2h-64.8c-10.2,0-18.5,8.3-18.5,18.5v18.9v29.5v16.5
						c0,2.5,0.5,4.9,1.4,7.1c2.8,6.7,9.4,11.4,17.1,11.4h23.3H602c10.2,0,18.5-8.3,18.5-18.5v-45.8v-19.1
						C620.6,416.3,613.6,408.6,604.5,407.4z"/>
					<path id="XMLID_91_" class="st3" d="M741.7,409.2c-2.5-1.3-5.4-2-8.4-2h-64.8c-10.2,0-18.5,8.3-18.5,18.5v64.8
						c0,10.2,8.3,18.5,18.5,18.5h64.8c10.2,0,18.5-8.3,18.5-18.5v-52.3v-12.5C751.8,418.5,747.7,412.3,741.7,409.2z"/>
					<path id="XMLID_90_" class="st4" d="M741.7,409.2l-73.1,78.1c-3.7,4-3.5,10.3,0.5,14l5.4,5.1c4,3.7,10.3,3.5,14-0.5l63.3-67.7
						v-12.5C751.8,418.5,747.7,412.3,741.7,409.2z"/>
					<path id="XMLID_89_" class="st4" d="M545.8,367.2l7.4,6.9c5.5,5.1,14.1,4.8,19.2-0.6l48.2-51.5v-19.8c0-9.2-6.7-16.8-15.5-18.3
						L545.1,348C540,353.5,540.3,362.1,545.8,367.2z"/>
					<path id="XMLID_88_" class="st4" d="M668.4,385.6h7.5l45.8-49c5.1-5.5,4.8-14.1-0.6-19.2l-7.4-7c-5.5-5.1-14-4.8-19.2,0.6
						l-44.6,47.7v8.2C649.9,377.3,658.2,385.6,668.4,385.6z"/>
					<path id="XMLID_87_" class="st4" d="M620.6,425.7c0-9.4-7-17.1-16.1-18.3l-84.4,90.3c2.8,6.7,9.4,11.4,17.1,11.4h23.3
						l60.1-64.3V425.7z"/>
					<path id="XMLID_86_" class="st4" d="M553.9,425.7l-4-3.7c-2.9-2.8-7.6-2.6-10.3,0.3l-20.8,22.3v29.5l35.5-38
						C557,433.1,556.8,428.5,553.9,425.7z"/>
				</g>
				<g id="XMLID_82_">
					<path id="XMLID_84_" class="st3" d="M416.3,283.7h-64.8c-10.2,0-18.5,8.3-18.5,18.5v56.6v8.2c0,10.2,8.3,18.5,18.5,18.5h7.5
						h57.3c10.2,0,18.5-8.3,18.5-18.5v-64.8C434.8,292,426.5,283.7,416.3,283.7z"/>
					<path id="XMLID_83_" class="st4" d="M351.4,385.6h7.5l45.8-49c5.1-5.5,4.8-14.1-0.6-19.2l-7.4-7c-5.5-5.1-14.1-4.8-19.2,0.6
						l-44.6,47.7v8.2C332.9,377.3,341.2,385.6,351.4,385.6z"/>
				</g>
				<g id="XMLID_72_">
					<path id="XMLID_81_" class="st3" d="M248.5,571.8h-64.8c-10.2,0-18.5,8.3-18.5,18.5V647v8.2c0,10.2,8.3,18.5,18.5,18.5h7.5
						h57.3c10.2,0,18.5-8.3,18.5-18.5v-64.8C267.1,580.1,258.8,571.8,248.5,571.8z"/>
					<path id="XMLID_80_" class="st3" d="M120.3,572.1c-1-0.2-2-0.3-3-0.3H52.5c-10.2,0-18.5,8.3-18.5,18.5v64.8
						c0,10.2,8.3,18.5,18.5,18.5h64.8c10.2,0,18.5-8.3,18.5-18.5v-45.1v-19.8C135.8,581.2,129.1,573.5,120.3,572.1z"/>
					<path id="XMLID_79_" class="st4" d="M61.1,655.3l7.4,7c5.5,5.1,14,4.8,19.2-0.6l48.2-51.5v-19.8c0-9.2-6.7-16.8-15.5-18.3
						l-59.9,64.1C55.3,641.6,55.6,650.2,61.1,655.3z"/>
					<path id="XMLID_78_" class="st4" d="M183.7,673.7h7.5l45.8-49c5.1-5.5,4.8-14.1-0.6-19.2l-7.4-6.9c-5.5-5.1-14.1-4.8-19.2,0.6
						L165.2,647v8.2C165.2,665.4,173.5,673.7,183.7,673.7z"/>
					<g id="XMLID_73_">
						<path id="XMLID_77_" class="st3" d="M537.2,673.7H602c10.2,0,18.5-8.3,18.5-18.5v-56.6v-8.2c0-10.2-8.3-18.5-18.5-18.5h-7.5
							h-57.3c-10.2,0-18.5,8.3-18.5,18.5v64.8C518.7,665.4,527,673.7,537.2,673.7z"/>
						<path id="XMLID_76_" class="st3" d="M665.4,673.5c1,0.2,2,0.3,3,0.3h64.8c10.2,0,18.5-8.3,18.5-18.5v-64.8
							c0-10.2-8.3-18.5-18.5-18.5h-64.8c-10.2,0-18.5,8.3-18.5,18.5v45.1v19.8C649.9,664.4,656.6,672,665.4,673.5z"/>
						<path id="XMLID_75_" class="st4" d="M724.7,590.2l-7.4-6.9c-5.5-5.1-14.1-4.8-19.2,0.6l-48.2,51.5v19.8
							c0,9.2,6.7,16.8,15.5,18.3l59.9-64.1C730.4,603.9,730.2,595.3,724.7,590.2z"/>
						<path id="XMLID_74_" class="st4" d="M602,571.8h-7.5l-45.8,49c-5.1,5.5-4.8,14.1,0.6,19.2l7.4,7c5.5,5.1,14.1,4.8,19.2-0.6
							l44.6-47.7v-8.2C620.6,580.1,612.3,571.8,602,571.8z"/>
					</g>
				</g>
			</g>
			<g id="XMLID_52_">
				<path id="XMLID_70_" class="st0" d="M470.8,424.3c0-8.3-6.7-15.1-15.1-15.1H312.7c-8.3,0-15.1,6.7-15.1,15.1v66.1
					c0,8.3,6.7,15.1,15.1,15.1h143.1c8.3,0,15.1-6.7,15.1-15.1V424.3z"/>
				<g id="XMLID_55_">
					<path id="XMLID_68_" class="st6" d="M327.4,436.4c6.3,0,9.5,3.7,9.5,10.3v1.3h-6.1v-1.7c0-2.9-1.2-4-3.2-4c-2,0-3.2,1.1-3.2,4
						c0,8.4,12.6,10,12.6,21.7c0,6.5-3.3,10.3-9.6,10.3c-6.3,0-9.6-3.7-9.6-10.3v-2.5h6.1v2.9c0,2.9,1.3,4,3.3,4c2,0,3.3-1,3.3-4
						c0-8.4-12.6-10-12.6-21.7C317.9,440.2,321.2,436.4,327.4,436.4z"/>
					<path id="XMLID_66_" class="st6" d="M359.3,462.6v5.4c0,6.5-3.3,10.3-9.6,10.3c-6.3,0-9.6-3.7-9.6-10.3v-21.3
						c0-6.5,3.3-10.3,9.6-10.3c6.3,0,9.6,3.7,9.6,10.3v4h-6.1v-4.4c0-2.9-1.3-4-3.3-4c-2,0-3.3,1.1-3.3,4v22.1c0,2.9,1.3,4,3.3,4
						c2.1,0,3.3-1,3.3-4v-5.8H359.3z"/>
					<path id="XMLID_64_" class="st6" d="M369.6,477.8h-6.4v-40.9h6.4v17.5h7.3v-17.5h6.5v40.9h-6.5v-17.5h-7.3V477.8z"/>
					<path id="XMLID_61_" class="st6" d="M387.6,446.7c0-6.5,3.4-10.3,9.8-10.3c6.3,0,9.8,3.7,9.8,10.3V468c0,6.5-3.4,10.3-9.8,10.3
						c-6.3,0-9.8-3.7-9.8-10.3V446.7z M394.1,468.4c0,2.9,1.3,4,3.3,4c2.1,0,3.3-1.1,3.3-4v-22.1c0-2.9-1.3-4-3.3-4
						c-2,0-3.3,1.1-3.3,4V468.4z"/>
					<path id="XMLID_58_" class="st6" d="M410.8,446.7c0-6.5,3.5-10.3,9.8-10.3c6.3,0,9.8,3.7,9.8,10.3V468c0,6.5-3.5,10.3-9.8,10.3
						c-6.3,0-9.8-3.7-9.8-10.3V446.7z M417.2,468.4c0,2.9,1.3,4,3.3,4c2,0,3.3-1.1,3.3-4v-22.1c0-2.9-1.3-4-3.3-4
						c-2.1,0-3.3,1.1-3.3,4V468.4z"/>
					<path id="XMLID_56_" class="st6" d="M434.5,436.9h6.4V472h10.6v5.8h-17V436.9z"/>
				</g>
				<rect id="XMLID_54_" x="316.4" y="420" class="st2" width="134.9" height="6.6"/>
				<rect id="XMLID_53_" x="316.4" y="486.5" class="st2" width="134.9" height="6.6"/>
			</g>
		</g>
		<g id="XMLID_46_">
			<path id="XMLID_50_" class="st7" d="M407.3,148.7l-0.2-4.5c0.1-2.1,0.1-4,0.1-5.8c0.1-18.8-3.2-23.4-15.6-28
				c-12.4-4.6-17.1-3.8-30,11c-1.2,1.4-2.5,2.9-3.8,4.5l-3.4,3.4l-47.8,48.6c-5.1,13.6,32.3,31.9,47.1,37.4
				c16.2,6,51.3,14.7,56.4,1.1L407.3,148.7z"/>
			<path id="XMLID_49_" class="st8" d="M400.5,214.3c1-2.6-2.8-6.4-8.5-8.6l-64.6-24.3c-5.7-2.1-12.1-2-13.5,0.4
				c-0.6,1-0.6,2.9,1.4,5.3c2.7,3.3,19.8,15.5,38.4,22.7c25.6,9.9,38.7,7.8,42.3,7.5C399.8,217.2,400.5,214.3,400.5,214.3z"/>
			<path id="XMLID_48_" class="st8" d="M407.3,148.7l-0.2-4.5c0.1-2.1,0.1-4,0.1-5.8c-17.2-13-34.3-16.5-45.6-17
				c-1.2,1.4-2.5,2.9-3.8,4.5l-3.4,3.4C363.7,128.7,385.8,129.7,407.3,148.7z"/>
			<path id="XMLID_47_" class="st9" d="M360.3,201.4l2.5-6.6l-7.6-2.9c-0.4,1-1.5,4-2.5,6.7c-6.5-0.6-12.8,3-15.1,9.2
				c-2.8,7.5,1.3,15.9,9.1,18.8c7.8,2.9,16.4-0.8,19.1-8.3C368.1,212.1,365.6,205.2,360.3,201.4z"/>
		</g>
	</g>
</g>
</svg>
